<svg id="visual" viewBox="0 0 960 200" width="960" height="200" xmlns="http://www.w3.org/2000/svg" xmlns:xlink="http://www.w3.org/1999/xlink" version="1.1"><rect x="0" y="0" width="960" height="200" fill="#11191f"></rect><path d="M0 135L10 133.5C20 132 40 129 60 125.5C80 122 100 118 120 117.8C140 117.7 160 121.3 180 125C200 128.7 220 132.3 240 136.3C260 140.3 280 144.7 300 144.5C320 144.3 340 139.7 360 134.2C380 128.7 400 122.3 420 121.3C440 120.3 460 124.7 480 130C500 135.3 520 141.7 540 140.8C560 140 580 132 600 130.5C620 129 640 134 660 133.8C680 133.7 700 128.3 720 128.8C740 129.3 760 135.7 780 139.7C800 143.7 820 145.3 840 146.2C860 147 880 147 900 142.5C920 138 940 129 950 124.5L960 120L960 201L950 201C940 201 920 201 900 201C880 201 860 201 840 201C820 201 800 201 780 201C760 201 740 201 720 201C700 201 680 201 660 201C640 201 620 201 600 201C580 201 560 201 540 201C520 201 500 201 480 201C460 201 440 201 420 201C400 201 380 201 360 201C340 201 320 201 300 201C280 201 260 201 240 201C220 201 200 201 180 201C160 201 140 201 120 201C100 201 80 201 60 201C40 201 20 201 10 201L0 201Z" fill="#fa7268"></path><path d="M0 139L10 138.3C20 137.7 40 136.3 60 138.5C80 140.7 100 146.3 120 147C140 147.7 160 143.3 180 140.2C200 137 220 135 240 134.2C260 133.3 280 133.7 300 136.8C320 140 340 146 360 147.7C380 149.3 400 146.7 420 145.2C440 143.7 460 143.3 480 141C500 138.7 520 134.3 540 132C560 129.7 580 129.3 600 130.5C620 131.7 640 134.3 660 136.8C680 139.3 700 141.7 720 141.7C740 141.7 760 139.3 780 141C800 142.7 820 148.3 840 148.2C860 148 880 142 900 140.2C920 138.3 940 140.7 950 141.8L960 143L960 201L950 201C940 201 920 201 900 201C880 201 860 201 840 201C820 201 800 201 780 201C760 201 740 201 720 201C700 201 680 201 660 201C640 201 620 201 600 201C580 201 560 201 540 201C520 201 500 201 480 201C460 201 440 201 420 201C400 201 380 201 360 201C340 201 320 201 300 201C280 201 260 201 240 201C220 201 200 201 180 201C160 201 140 201 120 201C100 201 80 201 60 201C40 201 20 201 10 201L0 201Z" fill="#f16367"></path><path d="M0 157L10 154.2C20 151.3 40 145.7 60 145.3C80 145 100 150 120 152.8C140 155.7 160 156.3 180 155.3C200 154.3 220 151.7 240 150C260 148.3 280 147.7 300 150.2C320 152.7 340 158.3 360 161.5C380 164.7 400 165.3 420 162.2C440 159 460 152 480 151C500 150 520 155 540 157C560 159 580 158 600 156.8C620 155.7 640 154.3 660 154.7C680 155 700 157 720 156.5C740 156 760 153 780 152.2C800 151.3 820 152.7 840 155.5C860 158.3 880 162.7 900 161.2C920 159.7 940 152.3 950 148.7L960 145L960 201L950 201C940 201 920 201 900 201C880 201 860 201 840 201C820 201 800 201 780 201C760 201 740 201 720 201C700 201 680 201 660 201C640 201 620 201 600 201C580 201 560 201 540 201C520 201 500 201 480 201C460 201 440 201 420 201C400 201 380 201 360 201C340 201 320 201 300 201C280 201 260 201 240 201C220 201 200 201 180 201C160 201 140 201 120 201C100 201 80 201 60 201C40 201 20 201 10 201L0 201Z" fill="#e85467"></path><path d="M0 152L10 154.3C20 156.7 40 161.3 60 165C80 168.7 100 171.3 120 170.2C140 169 160 164 180 161.3C200 158.7 220 158.3 240 159.8C260 161.3 280 164.7 300 164.8C320 165 340 162 360 160.2C380 158.3 400 157.7 420 157.5C440 157.3 460 157.7 480 158.2C500 158.7 520 159.3 540 162.2C560 165 580 170 600 171.3C620 172.7 640 170.3 660 167C680 163.7 700 159.3 720 157.3C740 155.3 760 155.7 780 157.3C800 159 820 162 840 164.2C860 166.3 880 167.7 900 166.2C920 164.7 940 160.3 950 158.2L960 156L960 201L950 201C940 201 920 201 900 201C880 201 860 201 840 201C820 201 800 201 780 201C760 201 740 201 720 201C700 201 680 201 660 201C640 201 620 201 600 201C580 201 560 201 540 201C520 201 500 201 480 201C460 201 440 201 420 201C400 201 380 201 360 201C340 201 320 201 300 201C280 201 260 201 240 201C220 201 200 201 180 201C160 201 140 201 120 201C100 201 80 201 60 201C40 201 20 201 10 201L0 201Z" fill="#de4467"></path><path d="M0 181L10 179C20 177 40 173 60 171.8C80 170.7 100 172.3 120 174C140 175.7 160 177.3 180 178.7C200 180 220 181 240 181.2C260 181.3 280 180.7 300 178.3C320 176 340 172 360 171.2C380 170.3 400 172.7 420 172C440 171.3 460 167.7 480 167C500 166.3 520 168.7 540 170.2C560 171.7 580 172.3 600 174.7C620 177 640 181 660 180.2C680 179.3 700 173.7 720 172.7C740 171.7 760 175.3 780 176.2C800 177 820 175 840 173.5C860 172 880 171 900 172.3C920 173.7 940 177.3 950 179.2L960 181L960 201L950 201C940 201 920 201 900 201C880 201 860 201 840 201C820 201 800 201 780 201C760 201 740 201 720 201C700 201 680 201 660 201C640 201 620 201 600 201C580 201 560 201 540 201C520 201 500 201 480 201C460 201 440 201 420 201C400 201 380 201 360 201C340 201 320 201 300 201C280 201 260 201 240 201C220 201 200 201 180 201C160 201 140 201 120 201C100 201 80 201 60 201C40 201 20 201 10 201L0 201Z" fill="#d23467"></path><path d="M0 180L10 180.5C20 181 40 182 60 184.2C80 186.3 100 189.7 120 191.3C140 193 160 193 180 192.3C200 191.7 220 190.3 240 189.8C260 189.3 280 189.7 300 189.5C320 189.3 340 188.7 360 187C380 185.3 400 182.7 420 183.5C440 184.3 460 188.7 480 189.7C500 190.7 520 188.3 540 187.7C560 187 580 188 600 188.2C620 188.3 640 187.7 660 186.5C680 185.3 700 183.7 720 183.2C740 182.7 760 183.3 780 184.2C800 185 820 186 840 185.8C860 185.7 880 184.3 900 185.2C920 186 940 189 950 190.5L960 192L960 201L950 201C940 201 920 201 900 201C880 201 860 201 840 201C820 201 800 201 780 201C760 201 740 201 720 201C700 201 680 201 660 201C640 201 620 201 600 201C580 201 560 201 540 201C520 201 500 201 480 201C460 201 440 201 420 201C400 201 380 201 360 201C340 201 320 201 300 201C280 201 260 201 240 201C220 201 200 201 180 201C160 201 140 201 120 201C100 201 80 201 60 201C40 201 20 201 10 201L0 201Z" fill="#c62368"></path></svg>