<svg xmlns="http://www.w3.org/2000/svg" version="1.1" width="1024" height="460">
<rect x="0" y="0" width="1024" height="460" fill="#43484c" />
<g transform="scale(4.000000) translate(0.5 0.5)">
<polygon fill="#ace0e8" fill-opacity="0.501961" points="67,-3 68,63 224,-16" />
<polygon fill="#9bc6b7" fill-opacity="0.501961" points="199,96 196,-16 152,28" />
<polygon fill="#00000a" fill-opacity="0.501961" points="105,130 118,12 175,62" />
<polygon fill="#000001" fill-opacity="0.501961" points="202,90 271,102 208,-16" />
<polygon fill="#d4ffff" fill-opacity="0.501961" points="152,0 76,15 54,-11" />
<polygon fill="#e9d7b9" fill-opacity="0.501961" points="102,74 76,128 109,116" />
<polygon fill="#000000" fill-opacity="0.501961" points="64,73 68,102 -16,111" />
<polygon fill="#0f1728" fill-opacity="0.501961" points="57,-16 -16,11 68,79" />
<polygon fill="#000001" fill-opacity="0.501961" points="122,130 153,26 156,111" />
<polygon fill="#c7724e" fill-opacity="0.501961" points="190,68 156,74 159,130" />
<polygon fill="#a1d8fa" fill-opacity="0.501961" points="83,57 68,96 68,51" />
<polygon fill="#1a0409" fill-opacity="0.501961" points="263,-9 271,100 210,-15" />
<polygon fill="#544756" fill-opacity="0.501961" points="98,8 136,56 205,13" />
<polygon fill="#28d7ff" fill-opacity="0.501961" points="100,4 199,5 137,-16" />
<polygon fill="#b19466" fill-opacity="0.501961" points="270,107 173,108 240,130" />
<polygon fill="#ffffff" fill-opacity="0.501961" points="54,-16 106,6 79,15" />
<polygon fill="#000023" fill-opacity="0.501961" points="151,23 171,67 134,24" />
<polygon fill="#091219" fill-opacity="0.501961" points="172,63 94,49 72,85" />
<polygon fill="#a9bbc1" fill-opacity="0.501961" points="178,51 175,95 197,59" />
<polygon fill="#140306" fill-opacity="0.501961" points="210,107 166,107 184,85" />
<polygon fill="#707b71" fill-opacity="0.501961" points="54,45 17,87 52,84" />
<polygon fill="#010209" fill-opacity="0.501961" points="67,85 5,113 -16,93" />
<polygon fill="#a0a1a7" fill-opacity="0.501961" points="177,95 201,90 223,99" />
<polygon fill="#6f7d66" fill-opacity="0.501961" points="135,8 77,18 65,62" />
<polygon fill="#1b1b21" fill-opacity="0.501961" points="-11,77 33,27 0,-16" />
<polygon fill="#b5d3d7" fill-opacity="0.501961" points="127,98 135,91 129,86" />
<polygon fill="#8d9c8e" fill-opacity="0.501961" points="146,14 153,-7 173,54" />
<polygon fill="#000a35" fill-opacity="0.501961" points="130,27 112,37 139,100" />
<polygon fill="#876c4f" fill-opacity="0.501961" points="98,130 -7,115 57,102" />
<polygon fill="#3b0f03" fill-opacity="0.501961" points="87,74 81,110 60,105" />
<polygon fill="#000011" fill-opacity="0.501961" points="171,36 160,20 173,28" />
<polygon fill="#000000" fill-opacity="0.501961" points="251,110 234,105 261,105" />
<polygon fill="#948d8d" fill-opacity="0.501961" points="262,109 246,96 215,96" />
<polygon fill="#aea599" fill-opacity="0.501961" points="100,45 115,11 111,49" />
<polygon fill="#000a0d" fill-opacity="0.501961" points="106,90 115,130 158,101" />
<polygon fill="#733f2d" fill-opacity="0.501961" points="162,67 193,68 162,81" />
<polygon fill="#405f8b" fill-opacity="0.501961" points="31,-16 67,-10 68,19" />
<polygon fill="#b7b3a6" fill-opacity="0.501961" points="109,81 94,112 99,77" />
<polygon fill="#548268" fill-opacity="0.501961" points="174,17 194,-4 186,63" />
<polygon fill="#8e4862" fill-opacity="0.501961" points="138,55 135,22 148,45" />
<polygon fill="#161724" fill-opacity="0.501961" points="200,-16 252,100 203,90" />
<polygon fill="#63615d" fill-opacity="0.501961" points="249,84 271,99 222,84" />
<polygon fill="#100e17" fill-opacity="0.501961" points="68,50 57,93 54,13" />
<polygon fill="#120808" fill-opacity="0.501961" points="226,103 174,107 190,96" />
<polygon fill="#b5def3" fill-opacity="0.501961" points="197,66 184,65 195,49" />
<polygon fill="#815c42" fill-opacity="0.501961" points="101,76 82,83 83,116" />
<polygon fill="#67cbff" fill-opacity="0.501961" points="93,-16 147,6 100,8" />
<polygon fill="#f0b394" fill-opacity="0.501961" points="153,112 159,103 155,120" />
<polygon fill="#49ebff" fill-opacity="0.501961" points="166,8 144,-16 196,-4" />
<polygon fill="#00041f" fill-opacity="0.501961" points="154,30 137,86 168,63" />
<polygon fill="#ffffff" fill-opacity="0.501961" points="98,13 68,10 79,-16" />
<polygon fill="#2b1a0c" fill-opacity="0.501961" points="193,93 194,79 172,94" />
<polygon fill="#987b4f" fill-opacity="0.501961" points="213,103 224,130 263,112" />
<polygon fill="#a1ada7" fill-opacity="0.501961" points="178,7 171,17 177,41" />
<polygon fill="#98b4c5" fill-opacity="0.501961" points="184,64 182,47 163,52" />
<polygon fill="#887f74" fill-opacity="0.501961" points="162,21 159,1 93,22" />
<polygon fill="#1f1645" fill-opacity="0.501961" points="115,25 113,44 147,22" />
<polygon fill="#6a3a2c" fill-opacity="0.501961" points="158,122 175,50 177,102" />
<polygon fill="#3b494e" fill-opacity="0.501961" points="53,33 55,69 -16,59" />
<polygon fill="#00000b" fill-opacity="0.501961" points="157,102 153,66 138,130" />
<polygon fill="#74beee" fill-opacity="0.501961" points="65,110 60,108 72,107" />
<polygon fill="#c29f8a" fill-opacity="0.501961" points="184,79 199,80 197,63" />
<polygon fill="#00000e" fill-opacity="0.501961" points="178,23 181,31 183,28" />
<polygon fill="#9e6c59" fill-opacity="0.501961" points="155,73 167,68 160,105" />
<polygon fill="#577c6c" fill-opacity="0.501961" points="101,52 100,25 72,12" />
<polygon fill="#755c3c" fill-opacity="0.501961" points="113,124 104,86 103,111" />
<polygon fill="#a39d9d" fill-opacity="0.501961" points="232,97 216,100 202,92" />
<polygon fill="#a2bdbe" fill-opacity="0.501961" points="162,43 154,27 157,13" />
<polygon fill="#000308" fill-opacity="0.501961" points="228,83 207,83 207,45" />
<polygon fill="#0a0b0e" fill-opacity="0.501961" points="241,98 225,87 266,91" />
<polygon fill="#9dabba" fill-opacity="0.501961" points="195,-16 194,22 205,-15" />
<polygon fill="#457053" fill-opacity="0.501961" points="175,39 188,39 188,61" />
<polygon fill="#a3afa3" fill-opacity="0.501961" points="92,22 112,24 119,8" />
<polygon fill="#96948a" fill-opacity="0.501961" points="223,86 226,83 213,84" />
<polygon fill="#d8ccbe" fill-opacity="0.501961" points="178,94 180,87 176,88" />
<polygon fill="#020000" fill-opacity="0.501961" points="234,104 268,106 252,110" />
<polygon fill="#37272d" fill-opacity="0.501961" points="271,59 223,69 219,8" />
<polygon fill="#acc3d0" fill-opacity="0.501961" points="182,51 181,76 175,61" />
<polygon fill="#000000" fill-opacity="0.501961" points="170,107 164,128 183,130" />
<polygon fill="#161b1e" fill-opacity="0.501961" points="165,62 176,71 191,71" />
<polygon fill="#829aab" fill-opacity="0.501961" points="182,113 199,107 175,107" />
<polygon fill="#73481a" fill-opacity="0.501961" points="212,111 153,129 177,110" />
<polygon fill="#6d4046" fill-opacity="0.501961" points="118,12 121,40 127,7" />
<polygon fill="#000000" fill-opacity="0.501961" points="67,103 60,108 58,101" />
<polygon fill="#000938" fill-opacity="0.501961" points="167,60 153,25 138,23" />
<polygon fill="#5e6b6e" fill-opacity="0.501961" points="171,11 146,23 154,0" />
<polygon fill="#12151a" fill-opacity="0.501961" points="65,82 24,108 -16,95" />
<polygon fill="#04101f" fill-opacity="0.501961" points="158,68 135,120 133,52" />
<polygon fill="#4d825b" fill-opacity="0.501961" points="111,10 102,7 83,22" />
<polygon fill="#7d796c" fill-opacity="0.501961" points="31,78 56,66 49,85" />
<polygon fill="#693e59" fill-opacity="0.501961" points="134,24 129,50 147,40" />
<polygon fill="#939697" fill-opacity="0.501961" points="271,109 235,101 258,100" />
<polygon fill="#8dc6e4" fill-opacity="0.501961" points="70,68 80,66 70,81" />
<polygon fill="#476184" fill-opacity="0.501961" points="59,98 68,91 72,98" />
<polygon fill="#202533" fill-opacity="0.501961" points="-16,33 64,14 64,41" />
<polygon fill="#00102f" fill-opacity="0.501961" points="170,37 166,30 171,23" />
<polygon fill="#64a873" fill-opacity="0.501961" points="165,50 161,39 200,35" />
<polygon fill="#b4b3a8" fill-opacity="0.501961" points="179,64 177,82 185,65" />
<polygon fill="#121a18" fill-opacity="0.501961" points="126,128 108,76 129,76" />
<polygon fill="#191512" fill-opacity="0.501961" points="224,87 219,94 199,91" />
<polygon fill="#756351" fill-opacity="0.501961" points="104,62 100,76 100,49" />
<polygon fill="#582a1d" fill-opacity="0.501961" points="75,79 69,120 85,125" />
<polygon fill="#120000" fill-opacity="0.501961" points="218,106 237,104 225,102" />
<polygon fill="#857253" fill-opacity="0.501961" points="262,112 211,130 215,103" />
<polygon fill="#8f8984" fill-opacity="0.501961" points="269,84 266,91 242,87" />
<polygon fill="#1d1317" fill-opacity="0.501961" points="208,81 271,67 255,87" />
<polygon fill="#20292a" fill-opacity="0.501961" points="142,75 103,79 102,56" />
<polygon fill="#89a1ae" fill-opacity="0.501961" points="212,107 213,112 194,108" />
<polygon fill="#5d5d5e" fill-opacity="0.501961" points="114,39 108,17 108,39" />
<polygon fill="#66624d" fill-opacity="0.501961" points="95,75 71,63 83,63" />
<polygon fill="#070c18" fill-opacity="0.501961" points="42,103 58,99 59,66" />
<polygon fill="#4f765b" fill-opacity="0.501961" points="172,43 180,36 175,62" />
<polygon fill="#a4a49d" fill-opacity="0.501961" points="93,89 107,88 87,130" />
<polygon fill="#0f1410" fill-opacity="0.501961" points="84,64 99,56 99,77" />
<polygon fill="#918d7c" fill-opacity="0.501961" points="47,104 45,110 59,102" />
<polygon fill="#000000" fill-opacity="0.501961" points="217,108 201,106 208,104" />
<polygon fill="#414764" fill-opacity="0.501961" points="197,-9 208,-16 201,25" />
<polygon fill="#aeb7bd" fill-opacity="0.501961" points="213,97 203,92 199,96" />
<polygon fill="#9da9a4" fill-opacity="0.501961" points="141,22 137,4 127,7" />
<polygon fill="#f0fefe" fill-opacity="0.501961" points="83,16 68,-2 102,-6" />
<polygon fill="#77867f" fill-opacity="0.501961" points="181,7 139,15 194,20" />
<polygon fill="#93a2a9" fill-opacity="0.501961" points="99,42 113,50 108,30" />
<polygon fill="#5ccfff" fill-opacity="0.501961" points="149,7 149,-10 102,-11" />
<polygon fill="#4e776f" fill-opacity="0.501961" points="75,52 77,43 102,44" />
<polygon fill="#9fb1bb" fill-opacity="0.501961" points="130,98 129,93 134,90" />
<polygon fill="#7e5437" fill-opacity="0.501961" points="197,97 187,81 194,80" />
<polygon fill="#000b1a" fill-opacity="0.501961" points="155,49 131,85 174,62" />
<polygon fill="#010406" fill-opacity="0.501961" points="188,79 188,93 181,89" />
<polygon fill="#45d4ff" fill-opacity="0.501961" points="162,-16 189,2 161,6" />
<polygon fill="#85aec9" fill-opacity="0.501961" points="68,52 86,53 75,63" />
<polygon fill="#000539" fill-opacity="0.501961" points="136,22 123,53 125,34" />
<polygon fill="#a68f85" fill-opacity="0.501961" points="68,13 81,18 73,28" />
<polygon fill="#000000" fill-opacity="0.501961" points="69,106 68,97 59,104" />
<polygon fill="#595b54" fill-opacity="0.501961" points="7,87 41,85 24,59" />
<polygon fill="#343d4e" fill-opacity="0.501961" points="63,21 22,-3 57,-16" />
<polygon fill="#9c9e98" fill-opacity="0.501961" points="241,85 237,87 232,85" />
<polygon fill="#1b3847" fill-opacity="0.501961" points="173,36 172,18 160,18" />
<polygon fill="#75605a" fill-opacity="0.501961" points="73,130 73,96 67,117" />
<polygon fill="#080000" fill-opacity="0.501961" points="80,102 77,119 83,120" />
<polygon fill="#894f3c" fill-opacity="0.501961" points="170,66 159,73 170,108" />
<polygon fill="#403b46" fill-opacity="0.501961" points="62,44 68,61 64,79" />
<polygon fill="#9cb1b4" fill-opacity="0.501961" points="197,69 196,32 190,57" />
<polygon fill="#5c7a5e" fill-opacity="0.501961" points="172,49 194,39 198,47" />
<polygon fill="#70d5fe" fill-opacity="0.501961" points="119,-16 117,9 95,5" />
<polygon fill="#4d7ba7" fill-opacity="0.501961" points="69,22 57,-13 67,-14" />
<polygon fill="#9ca399" fill-opacity="0.501961" points="223,109 215,108 216,103" />
<polygon fill="#4e7d71" fill-opacity="0.501961" points="88,19 108,38 74,31" />
<polygon fill="#3a4f59" fill-opacity="0.501961" points="53,67 53,35 24,69" />
<polygon fill="#070e19" fill-opacity="0.501961" points="126,96 155,101 149,130" />
<polygon fill="#415a68" fill-opacity="0.501961" points="154,17 153,27 141,17" />
<polygon fill="#1b1c16" fill-opacity="0.501961" points="83,66 88,83 77,84" />
<polygon fill="#111318" fill-opacity="0.501961" points="-15,115 -16,90 58,100" />
<polygon fill="#73594c" fill-opacity="0.501961" points="141,11 124,11 109,26" />
<polygon fill="#a2c7df" fill-opacity="0.501961" points="166,38 162,32 168,37" />
<polygon fill="#002661" fill-opacity="0.501961" points="155,28 128,26 145,21" />
<polygon fill="#39393a" fill-opacity="0.501961" points="47,36 19,34 -16,80" />
<polygon fill="#33584f" fill-opacity="0.501961" points="187,62 189,45 184,56" />
<polygon fill="#b69f99" fill-opacity="0.501961" points="200,94 197,78 195,90" />
<polygon fill="#a7c3bb" fill-opacity="0.501961" points="174,38 179,39 175,20" />
<polygon fill="#6d4452" fill-opacity="0.501961" points="144,56 148,39 127,46" />
<polygon fill="#b3e0fa" fill-opacity="0.501961" points="173,65 178,61 190,64" />
<polygon fill="#211a22" fill-opacity="0.501961" points="171,107 184,96 199,97" />
<polygon fill="#765a39" fill-opacity="0.501961" points="167,130 176,111 237,110" />
<polygon fill="#94c0de" fill-opacity="0.501961" points="174,110 185,108 174,107" />
<polygon fill="#091321" fill-opacity="0.501961" points="122,69 150,50 151,119" />
<polygon fill="#939c92" fill-opacity="0.501961" points="129,25 133,13 144,15" />
<polygon fill="#929090" fill-opacity="0.501961" points="225,101 220,96 241,99" />
<polygon fill="#1f221d" fill-opacity="0.501961" points="124,130 106,93 117,65" />
<polygon fill="#020922" fill-opacity="0.501961" points="205,-15 207,34 214,8" />
<polygon fill="#000000" fill-opacity="0.501961" points="171,125 163,129 173,104" />
<polygon fill="#80644b" fill-opacity="0.501961" points="86,96 81,109 85,126" />
<polygon fill="#211b22" fill-opacity="0.501961" points="64,25 66,70 58,45" />
<polygon fill="#a4a29c" fill-opacity="0.501961" points="226,84 223,86 229,86" />
<polygon fill="#586466" fill-opacity="0.501961" points="163,34 160,9 172,18" />
<polygon fill="#141314" fill-opacity="0.501961" points="210,92 236,89 235,97" />
<polygon fill="#04070b" fill-opacity="0.501961" points="61,79 56,55 54,84" />
<polygon fill="#a8987f" fill-opacity="0.501961" points="195,76 181,71 176,85" />
<polygon fill="#00031d" fill-opacity="0.501961" points="169,57 178,70 154,53" />
<polygon fill="#1c1e23" fill-opacity="0.501961" points="3,-10 -16,53 12,37" />
<polygon fill="#ffffff" fill-opacity="0.501961" points="66,-8 82,10 75,13" />
<polygon fill="#19171b" fill-opacity="0.501961" points="210,82 268,88 241,77" />
<polygon fill="#654d38" fill-opacity="0.501961" points="45,106 -16,115 100,130" />
<polygon fill="#afafaf" fill-opacity="0.501961" points="139,7 141,4 151,6" />
<polygon fill="#c8f8ff" fill-opacity="0.501961" points="189,58 191,57 190,50" />
<polygon fill="#7a8c8e" fill-opacity="0.501961" points="67,53 67,23 85,42" />
<polygon fill="#0d4876" fill-opacity="0.501961" points="127,45 124,55 132,48" />
<polygon fill="#85837a" fill-opacity="0.501961" points="205,86 216,83 210,83" />
<polygon fill="#cff7ff" fill-opacity="0.501961" points="105,16 102,17 104,18" />
<polygon fill="#7d6f60" fill-opacity="0.501961" points="95,79 91,74 98,78" />
<polygon fill="#6b3b52" fill-opacity="0.501961" points="129,35 119,30 113,34" />
<polygon fill="#11283d" fill-opacity="0.501961" points="178,30 185,31 181,22" />
<polygon fill="#422018" fill-opacity="0.501961" points="79,78 84,103 71,88" />
<polygon fill="#226a9b" fill-opacity="0.501961" points="171,58 163,47 163,53" />
<polygon fill="#161a22" fill-opacity="0.501961" points="65,94 65,77 13,102" />
<polygon fill="#272727" fill-opacity="0.501961" points="203,84 215,93 224,86" />
<polygon fill="#c0ac78" fill-opacity="0.501961" points="114,13 109,27 119,14" />
<polygon fill="#87b5c6" fill-opacity="0.501961" points="80,61 66,63 94,47" />
<polygon fill="#b5bcc4" fill-opacity="0.501961" points="172,50 165,50 175,60" />
<polygon fill="#847153" fill-opacity="0.501961" points="249,111 231,130 210,102" />
<polygon fill="#4e4440" fill-opacity="0.501961" points="173,109 186,114 194,109" />
<polygon fill="#101516" fill-opacity="0.501961" points="185,82 195,93 178,94" />
<polygon fill="#707689" fill-opacity="0.501961" points="72,63 67,61 66,79" />
<polygon fill="#0a0f19" fill-opacity="0.501961" points="226,60 202,77 202,50" />
<polygon fill="#5a4c4e" fill-opacity="0.501961" points="204,83 199,98 198,64" />
<polygon fill="#767f7a" fill-opacity="0.501961" points="104,36 89,39 113,11" />
<polygon fill="#4370a7" fill-opacity="0.501961" points="63,93 58,97 64,96" />
<polygon fill="#453d48" fill-opacity="0.501961" points="198,2 197,44 205,19" />
<polygon fill="#040a11" fill-opacity="0.501961" points="89,78 96,79 97,82" />
<polygon fill="#000921" fill-opacity="0.501961" points="163,47 160,62 141,26" />
<polygon fill="#242d32" fill-opacity="0.501961" points="114,86 100,47 125,61" />
<polygon fill="#a3bcd4" fill-opacity="0.501961" points="184,65 178,50 183,48" />
<polygon fill="#82a8bf" fill-opacity="0.501961" points="191,96 187,94 195,94" />
<polygon fill="#5a866e" fill-opacity="0.501961" points="182,22 193,-4 195,34" />
<polygon fill="#a07f6d" fill-opacity="0.501961" points="157,81 162,98 157,111" />
<polygon fill="#2a3934" fill-opacity="0.501961" points="91,51 83,58 89,69" />
<polygon fill="#c2c5c9" fill-opacity="0.501961" points="168,6 165,9 174,7" />
<polygon fill="#818ba4" fill-opacity="0.501961" points="73,82 68,77 69,96" />
<polygon fill="#09101e" fill-opacity="0.501961" points="130,45 138,130 153,86" />
<polygon fill="#c9f1f9" fill-opacity="0.501961" points="82,15 99,8 91,-8" />
<polygon fill="#7c614c" fill-opacity="0.501961" points="90,79 84,105 95,89" />
<polygon fill="#806246" fill-opacity="0.501961" points="190,80 195,94 196,82" />
<polygon fill="#a1adaa" fill-opacity="0.501961" points="154,30 156,13 159,23" />
<polygon fill="#78aac2" fill-opacity="0.501961" points="69,71 81,65 74,81" />
<polygon fill="#141117" fill-opacity="0.501961" points="234,96 271,102 271,86" />
<polygon fill="#93a4ad" fill-opacity="0.501961" points="105,37 91,49 112,44" />
<polygon fill="#444f51" fill-opacity="0.501961" points="211,47 209,36 212,39" />
<polygon fill="#5f8eaa" fill-opacity="0.501961" points="58,110 54,107 64,108" />
<polygon fill="#c6d5d3" fill-opacity="0.501961" points="193,4 195,0 196,6" />
<polygon fill="#4c362d" fill-opacity="0.501961" points="100,80 85,85 88,89" />
<polygon fill="#283647" fill-opacity="0.501961" points="130,97 126,100 129,111" />
<polygon fill="#463f41" fill-opacity="0.501961" points="253,4 222,9 238,11" />
<polygon fill="#aaaea6" fill-opacity="0.501961" points="100,110 88,130 88,103" />
<polygon fill="#6b6f65" fill-opacity="0.501961" points="54,60 54,78 39,77" />
<polygon fill="#50765f" fill-opacity="0.501961" points="171,49 166,42 184,48" />
<polygon fill="#889595" fill-opacity="0.501961" points="192,24 197,14 196,34" />
<polygon fill="#824d39" fill-opacity="0.501961" points="161,80 177,73 164,130" />
<polygon fill="#7998ae" fill-opacity="0.501961" points="68,60 68,49 84,57" />
<polygon fill="#aeaea5" fill-opacity="0.501961" points="106,23 104,37 109,35" />
<polygon fill="#151a23" fill-opacity="0.501961" points="202,90 202,43 211,73" />
<polygon fill="#161011" fill-opacity="0.501961" points="232,62 271,62 271,51" />
<polygon fill="#49cdff" fill-opacity="0.501961" points="113,2 154,-16 148,3" />
<polygon fill="#a78b6a" fill-opacity="0.501961" points="108,83 104,80 105,96" />
<polygon fill="#565d66" fill-opacity="0.501961" points="154,-10 154,13 148,-6" />
<polygon fill="#a8afb2" fill-opacity="0.501961" points="197,85 199,89 195,96" />
<polygon fill="#517162" fill-opacity="0.501961" points="104,8 95,17 110,13" />
<polygon fill="#7b7675" fill-opacity="0.501961" points="68,16 84,16 74,13" />
<polygon fill="#051631" fill-opacity="0.501961" points="119,43 112,60 148,75" />
<polygon fill="#a3bec0" fill-opacity="0.501961" points="132,90 130,95 129,88" />
<polygon fill="#020c14" fill-opacity="0.501961" points="129,88 123,86 125,109" />
<polygon fill="#15171a" fill-opacity="0.501961" points="6,91 -16,120 59,84" />
<polygon fill="#000302" fill-opacity="0.501961" points="106,78 104,71 102,79" />
<polygon fill="#000000" fill-opacity="0.501961" points="206,99 216,101 204,102" />
<polygon fill="#39233b" fill-opacity="0.501961" points="122,18 115,23 117,32" />
<polygon fill="#000b25" fill-opacity="0.501961" points="172,27 172,36 166,26" />
<polygon fill="#33363b" fill-opacity="0.501961" points="65,72 62,34 57,52" />
<polygon fill="#66987b" fill-opacity="0.501961" points="174,40 196,20 188,41" />
<polygon fill="#080c0b" fill-opacity="0.501961" points="85,75 96,79 82,68" />
<polygon fill="#98cef4" fill-opacity="0.501961" points="75,54 76,58 72,62" />
<polygon fill="#818585" fill-opacity="0.501961" points="249,100 242,103 236,98" />
<polygon fill="#2a2e3b" fill-opacity="0.501961" points="57,100 65,90 64,76" />
<polygon fill="#8a8a77" fill-opacity="0.501961" points="55,108 50,104 57,102" />
<polygon fill="#000c3d" fill-opacity="0.501961" points="135,25 125,25 125,38" />
<polygon fill="#677179" fill-opacity="0.501961" points="112,34 108,34 114,47" />
<polygon fill="#4a6547" fill-opacity="0.501961" points="73,66 72,63 81,63" />
<polygon fill="#8a7a67" fill-opacity="0.501961" points="137,18 118,19 115,12" />
<polygon fill="#935c61" fill-opacity="0.501961" points="148,42 145,38 148,46" />
<polygon fill="#3d3f41" fill-opacity="0.501961" points="259,62 241,67 228,62" />
<polygon fill="#47d1ff" fill-opacity="0.501961" points="182,6 156,-1 191,-8" />
<polygon fill="#726666" fill-opacity="0.501961" points="201,64 198,71 202,79" />
<polygon fill="#251e25" fill-opacity="0.501961" points="223,64 268,96 271,66" />
<polygon fill="#00040c" fill-opacity="0.501961" points="148,97 154,70 157,105" />
<polygon fill="#707a70" fill-opacity="0.501961" points="100,44 86,31 87,46" />
<polygon fill="#476465" fill-opacity="0.501961" points="84,50 76,54 76,48" />
<polygon fill="#98bbcf" fill-opacity="0.501961" points="126,8 126,4 139,6" />
<polygon fill="#12161b" fill-opacity="0.501961" points="261,0 228,7 260,-11" />
<polygon fill="#c1b9c4" fill-opacity="0.501961" points="196,40 195,44 197,46" />
<polygon fill="#585c5a" fill-opacity="0.501961" points="184,14 169,13 177,11" />
<polygon fill="#362b31" fill-opacity="0.501961" points="229,58 225,23 252,20" />
<polygon fill="#c0b09c" fill-opacity="0.501961" points="177,83 181,85 175,92" />
<polygon fill="#787167" fill-opacity="0.501961" points="79,66 90,72 85,66" />
<polygon fill="#141830" fill-opacity="0.501961" points="115,43 113,35 123,36" />
<polygon fill="#948b8c" fill-opacity="0.501961" points="211,94 225,97 206,99" />
<polygon fill="#71caec" fill-opacity="0.501961" points="85,50 91,49 89,47" />
<polygon fill="#272e41" fill-opacity="0.501961" points="208,59 205,28 201,48" />
<polygon fill="#56d0ff" fill-opacity="0.501961" points="113,6 152,1 133,-8" />
<polygon fill="#adb2ad" fill-opacity="0.501961" points="98,79 100,101 103,87" />
<polygon fill="#3f373b" fill-opacity="0.501961" points="193,102 179,97 197,97" />
<polygon fill="#181c1c" fill-opacity="0.501961" points="93,52 100,78 86,67" />
<polygon fill="#39372e" fill-opacity="0.501961" points="181,70 188,68 189,72" />
<polygon fill="#9fc0ce" fill-opacity="0.501961" points="196,49 189,50 195,64" />
<polygon fill="#416a98" fill-opacity="0.501961" points="69,17 65,17 68,31" />
<polygon fill="#1a0e11" fill-opacity="0.501961" points="194,99 170,108 179,98" />
<polygon fill="#99b7bd" fill-opacity="0.501961" points="91,24 98,18 104,20" />
<polygon fill="#2e3c46" fill-opacity="0.501961" points="28,67 28,43 42,69" />
<polygon fill="#3c6c64" fill-opacity="0.501961" points="100,31 98,25 80,27" />
<polygon fill="#1d1e22" fill-opacity="0.501961" points="271,104 216,89 260,89" />
<polygon fill="#1d0e0e" fill-opacity="0.501961" points="81,92 79,106 85,92" />
<polygon fill="#000000" fill-opacity="0.501961" points="234,103 232,105 226,103" />
<polygon fill="#b7bab1" fill-opacity="0.501961" points="271,83 264,89 252,89" />
<polygon fill="#252937" fill-opacity="0.501961" points="-11,-16 40,19 30,40" />
</g>
</svg>