<svg xmlns="http://www.w3.org/2000/svg" version="1.1" width="516" height="1024">
<rect x="0" y="0" width="516" height="1024" fill="#595e51" />
<g transform="scale(4.000000) translate(0.5 0.5)">
<polygon fill="#001d06" fill-opacity="0.501961" points="-16,212 88,67 91,238" />
<polygon fill="#d9dae2" fill-opacity="0.501961" points="16,-16 44,98 -16,87" />
<polygon fill="#dae6fc" fill-opacity="0.501961" points="-16,245 30,234 90,271" />
<polygon fill="#828788" fill-opacity="0.501961" points="-16,-14 144,149 119,32" />
<polygon fill="#19301b" fill-opacity="0.501961" points="38,75 60,260 144,156" />
<polygon fill="#c99b87" fill-opacity="0.501961" points="144,163 124,271 80,242" />
<polygon fill="#949a9a" fill-opacity="0.501961" points="48,144 30,85 31,206" />
<polygon fill="#391b00" fill-opacity="0.501961" points="29,104 30,239 -13,177" />
<polygon fill="#ffb6a9" fill-opacity="0.501961" points="78,149 87,125 86,154" />
<polygon fill="#ffffff" fill-opacity="0.501961" points="4,124 7,145 -16,144" />
<polygon fill="#897d74" fill-opacity="0.501961" points="-16,211 10,186 46,194" />
<polygon fill="#183c30" fill-opacity="0.501961" points="30,240 56,53 80,150" />
<polygon fill="#c14c1f" fill-opacity="0.501961" points="22,148 22,91 4,145" />
<polygon fill="#aaacac" fill-opacity="0.501961" points="47,81 -7,-10 -16,97" />
<polygon fill="#001000" fill-opacity="0.501961" points="88,260 71,225 58,241" />
<polygon fill="#fff9eb" fill-opacity="0.501961" points="65,82 70,68 61,68" />
<polygon fill="#9c908a" fill-opacity="0.501961" points="39,261 89,271 37,217" />
<polygon fill="#8b8889" fill-opacity="0.501961" points="51,-7 36,137 1,-16" />
<polygon fill="#000000" fill-opacity="0.501961" points="12,126 22,116 -16,117" />
<polygon fill="#081c0a" fill-opacity="0.501961" points="14,169 18,236 40,238" />
<polygon fill="#002d20" fill-opacity="0.501961" points="85,73 99,128 66,81" />
<polygon fill="#dfbcad" fill-opacity="0.501961" points="-15,224 16,217 16,229" />
<polygon fill="#6c0627" fill-opacity="0.501961" points="37,71 36,43 60,53" />
<polygon fill="#aec4c3" fill-opacity="0.501961" points="23,116 -16,108 16,106" />
<polygon fill="#e3dce2" fill-opacity="0.501961" points="27,196 36,199 38,186" />
<polygon fill="#aeb7be" fill-opacity="0.501961" points="41,236 -1,271 -16,240" />
<polygon fill="#79807b" fill-opacity="0.501961" points="134,94 144,191 65,35" />
<polygon fill="#ac9b95" fill-opacity="0.501961" points="130,183 93,186 112,190" />
<polygon fill="#122304" fill-opacity="0.501961" points="85,159 88,234 54,249" />
<polygon fill="#132738" fill-opacity="0.501961" points="7,249 19,254 31,250" />
<polygon fill="#14212f" fill-opacity="0.501961" points="11,246 22,243 -1,242" />
<polygon fill="#4a5345" fill-opacity="0.501961" points="76,25 134,-16 120,64" />
<polygon fill="#13342a" fill-opacity="0.501961" points="45,156 40,86 63,63" />
<polygon fill="#5c6860" fill-opacity="0.501961" points="67,90 63,136 52,89" />
<polygon fill="#000a01" fill-opacity="0.501961" points="17,147 -7,148 16,170" />
<polygon fill="#343212" fill-opacity="0.501961" points="87,184 87,124 131,182" />
<polygon fill="#ffffff" fill-opacity="0.501961" points="19,250 31,245 8,247" />
<polygon fill="#b3692c" fill-opacity="0.501961" points="14,107 22,90 -16,91" />
<polygon fill="#ce8b7a" fill-opacity="0.501961" points="55,64 34,73 51,78" />
<polygon fill="#15331e" fill-opacity="0.501961" points="78,232 79,103 43,229" />
<polygon fill="#183040" fill-opacity="0.501961" points="55,269 98,271 29,247" />
<polygon fill="#091d00" fill-opacity="0.501961" points="32,139 23,103 22,160" />
<polygon fill="#e0f2ff" fill-opacity="0.501961" points="5,145 5,125 -7,126" />
<polygon fill="#000e00" fill-opacity="0.501961" points="18,224 33,201 36,235" />
<polygon fill="#adb5c3" fill-opacity="0.501961" points="-5,217 -10,211 15,211" />
<polygon fill="#9fa8a7" fill-opacity="0.501961" points="33,26 -16,35 41,120" />
<polygon fill="#a18776" fill-opacity="0.501961" points="104,201 115,265 83,259" />
<polygon fill="#ffffff" fill-opacity="0.501961" points="42,245 25,246 42,250" />
<polygon fill="#000000" fill-opacity="0.501961" points="-16,176 5,179 7,199" />
<polygon fill="#ffffff" fill-opacity="0.501961" points="38,254 33,271 -10,254" />
<polygon fill="#37444d" fill-opacity="0.501961" points="14,244 26,240 40,245" />
<polygon fill="#fefffc" fill-opacity="0.501961" points="36,241 14,240 32,236" />
<polygon fill="#3e5061" fill-opacity="0.501961" points="45,238 -1,237 19,229" />
<polygon fill="#102a2d" fill-opacity="0.501961" points="51,247 38,237 64,244" />
<polygon fill="#ffd4cc" fill-opacity="0.501961" points="85,149 85,138 81,144" />
<polygon fill="#686e68" fill-opacity="0.501961" points="144,80 77,-4 -12,-10" />
<polygon fill="#808580" fill-opacity="0.501961" points="-16,-5 50,12 90,77" />
<polygon fill="#ceaa99" fill-opacity="0.501961" points="36,237 43,234 37,214" />
<polygon fill="#483d2a" fill-opacity="0.501961" points="38,206 19,185 11,205" />
<polygon fill="#532324" fill-opacity="0.501961" points="55,47 63,73 33,50" />
<polygon fill="#818a84" fill-opacity="0.501961" points="95,112 87,68 122,127" />
<polygon fill="#221900" fill-opacity="0.501961" points="60,65 62,86 42,86" />
<polygon fill="#d6d1cc" fill-opacity="0.501961" points="40,248 82,270 90,257" />
<polygon fill="#2a4a41" fill-opacity="0.501961" points="40,127 58,104 73,181" />
<polygon fill="#ffffff" fill-opacity="0.501961" points="-1,242 13,240 -11,237" />
<polygon fill="#594226" fill-opacity="0.501961" points="89,189 117,190 81,240" />
<polygon fill="#00468e" fill-opacity="0.501961" points="2,145 -16,143 -1,124" />
<polygon fill="#001f00" fill-opacity="0.501961" points="81,257 60,236 86,247" />
<polygon fill="#8c8c8a" fill-opacity="0.501961" points="42,137 39,166 29,129" />
<polygon fill="#b15a2c" fill-opacity="0.501961" points="2,175 22,179 21,173" />
<polygon fill="#41432b" fill-opacity="0.501961" points="116,130 91,177 86,107" />
<polygon fill="#101900" fill-opacity="0.501961" points="-16,123 19,114 21,124" />
<polygon fill="#1d4846" fill-opacity="0.501961" points="83,73 65,112 71,69" />
<polygon fill="#f1d3de" fill-opacity="0.501961" points="4,196 2,204 0,202" />
<polygon fill="#ffffff" fill-opacity="0.501961" points="9,249 -16,240 -16,250" />
<polygon fill="#312f15" fill-opacity="0.501961" points="17,176 14,193 47,188" />
<polygon fill="#000000" fill-opacity="0.501961" points="-11,205 14,208 2,212" />
<polygon fill="#b6babb" fill-opacity="0.501961" points="-15,96 17,66 -12,-16" />
<polygon fill="#f3af84" fill-opacity="0.501961" points="20,185 8,187 10,190" />
<polygon fill="#dc7d68" fill-opacity="0.501961" points="14,141 12,122 17,126" />
<polygon fill="#173a2f" fill-opacity="0.501961" points="-7,94 -6,101 18,95" />
<polygon fill="#ddaf92" fill-opacity="0.501961" points="-14,104 -16,95 16,100" />
<polygon fill="#042a1a" fill-opacity="0.501961" points="69,128 92,97 84,75" />
<polygon fill="#3b4d30" fill-opacity="0.501961" points="76,230 58,233 60,200" />
<polygon fill="#273844" fill-opacity="0.501961" points="34,245 44,243 41,246" />
<polygon fill="#052e1e" fill-opacity="0.501961" points="60,130 43,199 72,198" />
<polygon fill="#041e20" fill-opacity="0.501961" points="-16,239 -4,236 5,246" />
<polygon fill="#8d8f8d" fill-opacity="0.501961" points="-16,4 56,37 31,50" />
<polygon fill="#3c482d" fill-opacity="0.501961" points="144,-11 83,-15 136,35" />
<polygon fill="#273c4f" fill-opacity="0.501961" points="8,251 -3,249 8,256" />
<polygon fill="#000000" fill-opacity="0.501961" points="19,187 19,177 0,177" />
<polygon fill="#b07f47" fill-opacity="0.501961" points="93,169 87,169 91,160" />
<polygon fill="#00060d" fill-opacity="0.501961" points="52,252 68,259 72,271" />
<polygon fill="#8d9592" fill-opacity="0.501961" points="27,62 47,76 33,103" />
<polygon fill="#ffffff" fill-opacity="0.501961" points="33,249 45,249 27,244" />
<polygon fill="#925f46" fill-opacity="0.501961" points="-16,154 1,169 7,156" />
<polygon fill="#001a04" fill-opacity="0.501961" points="83,156 73,178 87,218" />
<polygon fill="#677364" fill-opacity="0.501961" points="88,107 91,119 84,130" />
<polygon fill="#bc9b8c" fill-opacity="0.501961" points="56,243 57,235 37,228" />
<polygon fill="#ffddd5" fill-opacity="0.501961" points="67,66 69,72 62,83" />
<polygon fill="#747873" fill-opacity="0.501961" points="63,68 104,75 25,-16" />
<polygon fill="#ffffff" fill-opacity="0.501961" points="15,245 24,249 4,247" />
<polygon fill="#a28c7e" fill-opacity="0.501961" points="102,229 93,271 83,236" />
<polygon fill="#3f3f23" fill-opacity="0.501961" points="6,101 -8,106 23,107" />
<polygon fill="#000100" fill-opacity="0.501961" points="15,215 -11,214 -2,219" />
<polygon fill="#ae8d79" fill-opacity="0.501961" points="60,247 121,271 64,270" />
<polygon fill="#7b7060" fill-opacity="0.501961" points="68,87 71,75 52,95" />
<polygon fill="#883904" fill-opacity="0.501961" points="16,174 21,155 22,192" />
<polygon fill="#ffffff" fill-opacity="0.501961" points="32,252 8,267 52,265" />
<polygon fill="#d3cece" fill-opacity="0.501961" points="37,191 28,192 37,200" />
<polygon fill="#0c2b1b" fill-opacity="0.501961" points="1,174 19,168 19,148" />
<polygon fill="#be906c" fill-opacity="0.501961" points="22,100 4,103 -12,95" />
<polygon fill="#592c0f" fill-opacity="0.501961" points="5,134 14,115 9,152" />
<polygon fill="#320d00" fill-opacity="0.501961" points="44,74 47,71 41,72" />
<polygon fill="#063027" fill-opacity="0.501961" points="64,100 74,160 83,134" />
<polygon fill="#142a0e" fill-opacity="0.501961" points="48,226 67,240 46,189" />
<polygon fill="#7c6a5a" fill-opacity="0.501961" points="103,204 132,187 91,230" />
<polygon fill="#1d2f0e" fill-opacity="0.501961" points="26,130 31,109 23,100" />
<polygon fill="#414236" fill-opacity="0.501961" points="29,207 43,196 -1,203" />
<polygon fill="#b64525" fill-opacity="0.501961" points="23,137 17,146 -2,148" />
<polygon fill="#414c4e" fill-opacity="0.501961" points="43,241 19,231 33,232" />
<polygon fill="#3e4b4a" fill-opacity="0.501961" points="3,217 7,239 -4,236" />
<polygon fill="#000200" fill-opacity="0.501961" points="-3,149 -1,156 21,147" />
<polygon fill="#ffffff" fill-opacity="0.501961" points="1,146 2,128 5,139" />
<polygon fill="#001a00" fill-opacity="0.501961" points="36,233 35,204 14,215" />
<polygon fill="#ffc9b9" fill-opacity="0.501961" points="52,73 44,78 52,69" />
<polygon fill="#db7c3d" fill-opacity="0.501961" points="26,93 -5,94 9,89" />
<polygon fill="#e09c8b" fill-opacity="0.501961" points="85,133 90,148 82,144" />
<polygon fill="#ffffff" fill-opacity="0.501961" points="12,253 26,271 5,256" />
<polygon fill="#a13e17" fill-opacity="0.501961" points="23,159 15,136 21,112" />
<polygon fill="#524c36" fill-opacity="0.501961" points="74,181 62,162 66,145" />
<polygon fill="#243217" fill-opacity="0.501961" points="88,185 93,164 140,180" />
<polygon fill="#98989c" fill-opacity="0.501961" points="14,200 12,193 6,195" />
<polygon fill="#ffffff" fill-opacity="0.501961" points="7,240 20,241 17,238" />
<polygon fill="#8c9693" fill-opacity="0.501961" points="40,138 20,77 39,69" />
<polygon fill="#0a2001" fill-opacity="0.501961" points="31,174 22,185 24,143" />
<polygon fill="#ffffff" fill-opacity="0.501961" points="30,244 25,244 22,248" />
<polygon fill="#535d54" fill-opacity="0.501961" points="28,191 29,153 41,189" />
<polygon fill="#5f645d" fill-opacity="0.501961" points="94,69 144,52 58,-16" />
<polygon fill="#6f685e" fill-opacity="0.501961" points="90,191 87,186 104,188" />
<polygon fill="#072b1b" fill-opacity="0.501961" points="85,103 79,151 69,89" />
<polygon fill="#114039" fill-opacity="0.501961" points="41,86 60,101 50,164" />
<polygon fill="#a0acaa" fill-opacity="0.501961" points="18,113 -5,111 19,106" />
<polygon fill="#2d4040" fill-opacity="0.501961" points="57,238 51,244 61,253" />
<polygon fill="#3d574b" fill-opacity="0.501961" points="41,117 63,129 41,128" />
<polygon fill="#a04115" fill-opacity="0.501961" points="13,205 -1,202 -16,209" />
<polygon fill="#c2ab9d" fill-opacity="0.501961" points="2,219 13,225 16,218" />
<polygon fill="#334357" fill-opacity="0.501961" points="32,251 27,254 21,254" />
<polygon fill="#d76b26" fill-opacity="0.501961" points="19,104 21,92 23,112" />
<polygon fill="#31444d" fill-opacity="0.501961" points="18,250 8,250 11,253" />
<polygon fill="#a17754" fill-opacity="0.501961" points="12,174 -4,174 0,178" />
<polygon fill="#363d27" fill-opacity="0.501961" points="106,128 133,184 83,155" />
<polygon fill="#0f1e03" fill-opacity="0.501961" points="85,180 64,248 86,215" />
<polygon fill="#753249" fill-opacity="0.501961" points="56,67 34,47 36,62" />
<polygon fill="#1c3c2b" fill-opacity="0.501961" points="59,142 43,140 39,181" />
<polygon fill="#3d4851" fill-opacity="0.501961" points="27,244 38,243 25,240" />
<polygon fill="#000b00" fill-opacity="0.501961" points="-2,181 -14,192 12,193" />
<polygon fill="#595d54" fill-opacity="0.501961" points="115,134 139,121 128,172" />
<polygon fill="#414330" fill-opacity="0.501961" points="57,199 76,206 47,207" />
<polygon fill="#ecabaa" fill-opacity="0.501961" points="80,145 83,139 84,154" />
<polygon fill="#de9474" fill-opacity="0.501961" points="6,146 -16,141 -16,149" />
<polygon fill="#071400" fill-opacity="0.501961" points="5,117 -16,124 19,122" />
<polygon fill="#9d8e85" fill-opacity="0.501961" points="43,133 40,154 36,131" />
<polygon fill="#816149" fill-opacity="0.501961" points="58,66 62,75 63,67" />
<polygon fill="#cb9b98" fill-opacity="0.501961" points="43,66 33,74 53,66" />
<polygon fill="#6c6857" fill-opacity="0.501961" points="58,88 61,114 66,88" />
<polygon fill="#163b33" fill-opacity="0.501961" points="66,141 62,93 79,117" />
<polygon fill="#491a1f" fill-opacity="0.501961" points="51,60 37,69 58,63" />
<polygon fill="#001b06" fill-opacity="0.501961" points="48,98 45,116 52,109" />
<polygon fill="#818482" fill-opacity="0.501961" points="74,60 46,33 67,70" />
<polygon fill="#d57f47" fill-opacity="0.501961" points="8,99 0,103 18,102" />
<polygon fill="#2c5557" fill-opacity="0.501961" points="44,84 59,96 40,94" />
<polygon fill="#083123" fill-opacity="0.501961" points="49,195 46,143 65,153" />
<polygon fill="#050e00" fill-opacity="0.501961" points="18,184 19,176 -6,185" />
<polygon fill="#914060" fill-opacity="0.501961" points="35,45 50,45 40,53" />
<polygon fill="#819299" fill-opacity="0.501961" points="10,214 16,212 5,211" />
<polygon fill="#19392a" fill-opacity="0.501961" points="81,102 81,75 99,120" />
<polygon fill="#29381e" fill-opacity="0.501961" points="70,207 47,230 40,221" />
<polygon fill="#7b827b" fill-opacity="0.501961" points="144,102 98,117 87,75" />
<polygon fill="#f1fdfe" fill-opacity="0.501961" points="46,247 37,247 55,254" />
<polygon fill="#4c8ab6" fill-opacity="0.501961" points="1,143 -16,156 1,133" />
<polygon fill="#717966" fill-opacity="0.501961" points="66,222 62,221 62,227" />
<polygon fill="#ffffff" fill-opacity="0.501961" points="39,241 35,242 35,240" />
<polygon fill="#3f4f58" fill-opacity="0.501961" points="10,229 -4,238 39,236" />
<polygon fill="#f1f8ff" fill-opacity="0.501961" points="58,252 65,271 80,271" />
<polygon fill="#675c4f" fill-opacity="0.501961" points="122,196 109,190 130,187" />
<polygon fill="#142403" fill-opacity="0.501961" points="9,96 -16,90 -16,99" />
<polygon fill="#523e2f" fill-opacity="0.501961" points="49,70 37,72 46,73" />
<polygon fill="#012000" fill-opacity="0.501961" points="22,190 28,191 28,178" />
<polygon fill="#bcc8d0" fill-opacity="0.501961" points="39,240 45,247 53,249" />
<polygon fill="#566368" fill-opacity="0.501961" points="70,271 72,262 48,249" />
<polygon fill="#485c52" fill-opacity="0.501961" points="62,93 71,91 70,71" />
<polygon fill="#0b270e" fill-opacity="0.501961" points="58,244 77,249 58,231" />
<polygon fill="#692d1e" fill-opacity="0.501961" points="7,172 6,159 2,159" />
<polygon fill="#6a6f68" fill-opacity="0.501961" points="37,-16 144,77 86,69" />
<polygon fill="#b39686" fill-opacity="0.501961" points="41,236 52,230 52,239" />
<polygon fill="#041d00" fill-opacity="0.501961" points="86,251 78,243 79,254" />
<polygon fill="#676b63" fill-opacity="0.501961" points="20,155 10,156 17,153" />
<polygon fill="#3e4330" fill-opacity="0.501961" points="120,142 107,178 108,121" />
<polygon fill="#978167" fill-opacity="0.501961" points="121,247 77,256 144,261" />
<polygon fill="#041000" fill-opacity="0.501961" points="14,155 1,150 20,148" />
<polygon fill="#001b00" fill-opacity="0.501961" points="30,229 19,205 20,230" />
<polygon fill="#d7e6fe" fill-opacity="0.501961" points="-7,199 -16,211 4,199" />
<polygon fill="#2f4731" fill-opacity="0.501961" points="41,163 48,186 37,209" />
<polygon fill="#626d66" fill-opacity="0.501961" points="30,145 37,148 31,123" />
<polygon fill="#2a4036" fill-opacity="0.501961" points="4,103 16,107 20,103" />
<polygon fill="#648d91" fill-opacity="0.501961" points="9,100 16,98 5,97" />
<polygon fill="#ffffff" fill-opacity="0.501961" points="1,253 -14,253 19,271" />
<polygon fill="#10251c" fill-opacity="0.501961" points="7,154 17,171 7,172" />
<polygon fill="#929693" fill-opacity="0.501961" points="-6,30 0,3 40,45" />
<polygon fill="#ba8c69" fill-opacity="0.501961" points="16,185 7,187 15,189" />
<polygon fill="#4c5b63" fill-opacity="0.501961" points="23,254 36,250 30,248" />
<polygon fill="#44515d" fill-opacity="0.501961" points="15,246 22,241 10,243" />
<polygon fill="#2a3d22" fill-opacity="0.501961" points="31,115 26,112 30,130" />
<polygon fill="#543722" fill-opacity="0.501961" points="93,128 85,140 90,123" />
<polygon fill="#ffd3c4" fill-opacity="0.501961" points="63,71 68,70 64,79" />
<polygon fill="#4e5760" fill-opacity="0.501961" points="50,249 35,244 43,243" />
<polygon fill="#ced4da" fill-opacity="0.501961" points="3,214 3,212 8,212" />
<polygon fill="#181f09" fill-opacity="0.501961" points="50,89 63,84 48,80" />
<polygon fill="#ffffff" fill-opacity="0.501961" points="17,240 28,237 31,240" />
<polygon fill="#3a4a42" fill-opacity="0.501961" points="28,204 28,192 18,206" />
<polygon fill="#ffffff" fill-opacity="0.501961" points="4,125 5,138 1,139" />
<polygon fill="#410e00" fill-opacity="0.501961" points="12,143 9,144 11,134" />
<polygon fill="#ffffff" fill-opacity="0.501961" points="34,253 55,271 6,262" />
<polygon fill="#535445" fill-opacity="0.501961" points="55,127 65,141 63,123" />
<polygon fill="#000800" fill-opacity="0.501961" points="3,212 17,206 -8,208" />
<polygon fill="#9e9d99" fill-opacity="0.501961" points="110,184 116,184 109,190" />
<polygon fill="#a75a4f" fill-opacity="0.501961" points="87,148 81,149 83,155" />
<polygon fill="#af480f" fill-opacity="0.501961" points="20,160 22,167 20,174" />
<polygon fill="#919695" fill-opacity="0.501961" points="32,36 41,110 23,91" />
<polygon fill="#ae9a8e" fill-opacity="0.501961" points="42,225 37,230 37,219" />
<polygon fill="#4a4e52" fill-opacity="0.501961" points="34,235 38,239 25,235" />
<polygon fill="#828982" fill-opacity="0.501961" points="5,-8 -16,5 54,48" />
<polygon fill="#072f1e" fill-opacity="0.501961" points="80,155 71,170 78,199" />
<polygon fill="#bf7559" fill-opacity="0.501961" points="12,123 17,133 13,138" />
<polygon fill="#ffffff" fill-opacity="0.501961" points="4,240 -16,239 -16,245" />
<polygon fill="#8d5431" fill-opacity="0.501961" points="9,126 5,124 8,137" />
<polygon fill="#425459" fill-opacity="0.501961" points="7,245 -16,235 -16,246" />
<polygon fill="#001400" fill-opacity="0.501961" points="108,190 98,193 101,190" />
<polygon fill="#ad988a" fill-opacity="0.501961" points="72,251 59,246 62,250" />
<polygon fill="#545a4e" fill-opacity="0.501961" points="55,-16 114,6 122,45" />
<polygon fill="#35474d" fill-opacity="0.501961" points="70,263 45,252 22,271" />
<polygon fill="#ffffff" fill-opacity="0.501961" points="7,250 -3,246 7,247" />
<polygon fill="#dab2a5" fill-opacity="0.501961" points="40,77 45,75 48,78" />
<polygon fill="#143627" fill-opacity="0.501961" points="74,205 50,164 60,131" />
<polygon fill="#0b1500" fill-opacity="0.501961" points="5,179 7,202 0,188" />
<polygon fill="#fafffe" fill-opacity="0.501961" points="45,244 38,239 29,239" />
<polygon fill="#392e1b" fill-opacity="0.501961" points="53,54 55,75 61,66" />
<polygon fill="#b0735a" fill-opacity="0.501961" points="88,127 83,128 86,125" />
<polygon fill="#969d9a" fill-opacity="0.501961" points="33,89 -1,90 38,70" />
<polygon fill="#1e4744" fill-opacity="0.501961" points="60,124 56,94 45,132" />
<polygon fill="#b9621c" fill-opacity="0.501961" points="23,121 22,110 20,113" />
<polygon fill="#343922" fill-opacity="0.501961" points="0,113 20,123 20,115" />
<polygon fill="#323313" fill-opacity="0.501961" points="93,223 76,241 71,230" />
<polygon fill="#743915" fill-opacity="0.501961" points="24,197 20,184 18,199" />
<polygon fill="#071a05" fill-opacity="0.501961" points="61,236 62,231 50,227" />
<polygon fill="#6a5f48" fill-opacity="0.501961" points="11,226 -16,221 -1,219" />
<polygon fill="#948072" fill-opacity="0.501961" points="84,258 103,206 123,206" />
<polygon fill="#060c00" fill-opacity="0.501961" points="16,191 18,184 18,195" />
<polygon fill="#546f91" fill-opacity="0.501961" points="3,196 -3,194 1,200" />
<polygon fill="#8b7663" fill-opacity="0.501961" points="144,264 121,184 116,259" />
<polygon fill="#acb7b9" fill-opacity="0.501961" points="-12,212 -6,217 4,212" />
<polygon fill="#9e8778" fill-opacity="0.501961" points="101,236 98,271 81,236" />
<polygon fill="#ae9b89" fill-opacity="0.501961" points="8,228 -4,223 -8,227" />
<polygon fill="#512e31" fill-opacity="0.501961" points="55,49 59,61 34,55" />
<polygon fill="#813c59" fill-opacity="0.501961" points="50,57 44,68 36,63" />
<polygon fill="#30442b" fill-opacity="0.501961" points="45,184 36,211 44,224" />
<polygon fill="#686e69" fill-opacity="0.501961" points="137,151 140,117 103,117" />
<polygon fill="#2d2b0c" fill-opacity="0.501961" points="48,220 41,229 53,228" />
<polygon fill="#897662" fill-opacity="0.501961" points="63,118 61,121 63,124" />
<polygon fill="#000600" fill-opacity="0.501961" points="4,217 -16,209 -16,220" />
<polygon fill="#a5a8a8" fill-opacity="0.501961" points="18,33 -5,25 26,77" />
<polygon fill="#374747" fill-opacity="0.501961" points="44,241 62,253 55,242" />
<polygon fill="#172e0d" fill-opacity="0.501961" points="65,246 74,231 76,253" />
<polygon fill="#ffebe6" fill-opacity="0.501961" points="63,81 66,78 65,74" />
<polygon fill="#686f69" fill-opacity="0.501961" points="33,167 41,152 37,190" />
<polygon fill="#353d28" fill-opacity="0.501961" points="12,94 -1,97 19,98" />
<polygon fill="#3c5c4f" fill-opacity="0.501961" points="81,90 80,73 76,75" />
<polygon fill="#2a3e22" fill-opacity="0.501961" points="76,221 61,233 72,183" />
<polygon fill="#ffffff" fill-opacity="0.501961" points="28,244 16,247 27,248" />
<polygon fill="#453d24" fill-opacity="0.501961" points="86,195 101,191 91,229" />
<polygon fill="#07240d" fill-opacity="0.501961" points="82,139 69,144 83,122" />
<polygon fill="#3c4a5c" fill-opacity="0.501961" points="14,254 20,250 23,252" />
<polygon fill="#1e1e00" fill-opacity="0.501961" points="18,116 -12,118 16,124" />
<polygon fill="#a08a7e" fill-opacity="0.501961" points="39,236 50,230 57,242" />
<polygon fill="#737871" fill-opacity="0.501961" points="62,53 144,81 93,82" />
<polygon fill="#97201d" fill-opacity="0.501961" points="20,123 18,134 15,123" />
<polygon fill="#9c784a" fill-opacity="0.501961" points="92,165 87,167 89,161" />
<polygon fill="#30371e" fill-opacity="0.501961" points="90,146 110,165 85,162" />
<polygon fill="#395445" fill-opacity="0.501961" points="40,130 48,132 42,116" />
<polygon fill="#8c6435" fill-opacity="0.501961" points="2,157 -16,151 2,170" />
<polygon fill="#8e9594" fill-opacity="0.501961" points="28,69 44,75 33,106" />
<polygon fill="#152303" fill-opacity="0.501961" points="28,154 22,136 29,136" />
<polygon fill="#8d8176" fill-opacity="0.501961" points="7,194 15,196 9,201" />
<polygon fill="#99afb0" fill-opacity="0.501961" points="14,116 18,113 14,110" />
<polygon fill="#262310" fill-opacity="0.501961" points="3,160 6,173 2,167" />
<polygon fill="#364425" fill-opacity="0.501961" points="121,7 139,19 122,-13" />
<polygon fill="#735c48" fill-opacity="0.501961" points="70,162 67,160 66,153" />
<polygon fill="#13210b" fill-opacity="0.501961" points="53,86 62,76 57,72" />
<polygon fill="#b8bcbd" fill-opacity="0.501961" points="-14,90 -16,9 9,59" />
</g>
</svg>