<svg xmlns="http://www.w3.org/2000/svg" version="1.1" width="516" height="1024">
<rect x="0" y="0" width="516" height="1024" fill="#7a8190" />
<g transform="scale(4.000000) translate(0.5 0.5)">
<polygon fill="#ffffff" fill-opacity="0.501961" points="144,-8 124,186 59,67" />
<polygon fill="#000011" fill-opacity="0.501961" points="7,271 -16,92 92,121" />
<polygon fill="#ffffff" fill-opacity="0.501961" points="62,155 51,242 124,271" />
<polygon fill="#000c2e" fill-opacity="0.501961" points="126,266 143,199 32,92" />
<polygon fill="#ffffff" fill-opacity="0.501961" points="-16,26 45,31 5,106" />
<polygon fill="#000b30" fill-opacity="0.501961" points="-16,235 12,93 68,271" />
<polygon fill="#ffffff" fill-opacity="0.501961" points="109,183 144,40 79,32" />
<polygon fill="#ffffff" fill-opacity="0.501961" points="52,170 65,271 97,208" />
<polygon fill="#725265" fill-opacity="0.501961" points="93,-16 20,-16 64,171" />
<polygon fill="#033654" fill-opacity="0.501961" points="-15,88 102,143 0,217" />
<polygon fill="#fffff1" fill-opacity="0.501961" points="42,83 -16,87 16,25" />
<polygon fill="#ffffff" fill-opacity="0.501961" points="144,194 72,97 123,21" />
<polygon fill="#ffffff" fill-opacity="0.501961" points="49,222 101,271 70,162" />
<polygon fill="#3a3e43" fill-opacity="0.501961" points="2,28 110,6 -16,-14" />
<polygon fill="#001531" fill-opacity="0.501961" points="22,254 44,133 56,264" />
<polygon fill="#00284c" fill-opacity="0.501961" points="134,251 91,218 88,118" />
<polygon fill="#526384" fill-opacity="0.501961" points="144,103 82,96 124,89" />
<polygon fill="#ffffff" fill-opacity="0.501961" points="19,271 27,261 14,243" />
<polygon fill="#424d5b" fill-opacity="0.501961" points="71,166 66,95 -13,94" />
<polygon fill="#c67c8b" fill-opacity="0.501961" points="76,99 36,17 25,87" />
<polygon fill="#7d7989" fill-opacity="0.501961" points="127,257 90,200 97,271" />
<polygon fill="#ffffff" fill-opacity="0.501961" points="97,259 59,271 74,170" />
<polygon fill="#ffffff" fill-opacity="0.501961" points="93,33 144,44 70,118" />
<polygon fill="#fef5eb" fill-opacity="0.501961" points="-1,29 40,29 -16,130" />
<polygon fill="#0d2d46" fill-opacity="0.501961" points="58,200 -16,271 12,102" />
<polygon fill="#052e4f" fill-opacity="0.501961" points="120,247 95,128 60,145" />
<polygon fill="#628b9f" fill-opacity="0.501961" points="144,0 26,18 144,40" />
<polygon fill="#475d6f" fill-opacity="0.501961" points="102,169 118,213 144,178" />
<polygon fill="#ffffff" fill-opacity="0.501961" points="92,206 50,187 68,167" />
<polygon fill="#5b84a6" fill-opacity="0.501961" points="95,127 56,138 79,108" />
<polygon fill="#b573a0" fill-opacity="0.501961" points="88,36 82,77 36,29" />
<polygon fill="#5c4342" fill-opacity="0.501961" points="-16,28 9,-16 45,27" />
<polygon fill="#082a48" fill-opacity="0.501961" points="-16,115 72,155 15,237" />
<polygon fill="#fffffd" fill-opacity="0.501961" points="101,152 130,173 107,169" />
<polygon fill="#3c77ad" fill-opacity="0.501961" points="32,113 18,90 -16,102" />
<polygon fill="#536978" fill-opacity="0.501961" points="83,34 124,-16 7,19" />
<polygon fill="#bbaba8" fill-opacity="0.501961" points="70,100 34,74 118,100" />
<polygon fill="#c2c1c9" fill-opacity="0.501961" points="113,192 121,188 135,200" />
<polygon fill="#354645" fill-opacity="0.501961" points="50,82 58,66 42,63" />
<polygon fill="#011a35" fill-opacity="0.501961" points="28,269 -5,176 60,242" />
<polygon fill="#ffffff" fill-opacity="0.501961" points="142,102 78,101 107,143" />
<polygon fill="#ffffff" fill-opacity="0.501961" points="69,271 78,191 52,205" />
<polygon fill="#534546" fill-opacity="0.501961" points="74,96 29,89 31,143" />
<polygon fill="#0d0306" fill-opacity="0.501961" points="136,251 127,221 110,235" />
<polygon fill="#4e4542" fill-opacity="0.501961" points="-16,269 14,247 -11,139" />
<polygon fill="#bfc7b4" fill-opacity="0.501961" points="144,173 144,126 99,157" />
<polygon fill="#ffffff" fill-opacity="0.501961" points="90,32 79,94 144,76" />
<polygon fill="#923e74" fill-opacity="0.501961" points="67,52 39,41 26,68" />
<polygon fill="#ffffff" fill-opacity="0.501961" points="3,89 6,72 38,72" />
<polygon fill="#ffffff" fill-opacity="0.501961" points="16,247 34,271 13,271" />
<polygon fill="#ffffff" fill-opacity="0.501961" points="87,199 93,256 64,258" />
<polygon fill="#30394c" fill-opacity="0.501961" points="122,191 103,176 144,173" />
<polygon fill="#a89484" fill-opacity="0.501961" points="-9,78 0,82 4,49" />
<polygon fill="#13314d" fill-opacity="0.501961" points="23,110 8,212 57,201" />
<polygon fill="#274b6c" fill-opacity="0.501961" points="97,134 104,174 66,124" />
<polygon fill="#a7dff6" fill-opacity="0.501961" points="122,20 144,42 109,34" />
<polygon fill="#c5c2bc" fill-opacity="0.501961" points="25,79 23,99 44,61" />
<polygon fill="#f1bdaf" fill-opacity="0.501961" points="53,93 49,81 63,75" />
<polygon fill="#193a5e" fill-opacity="0.501961" points="68,264 44,208 45,250" />
<polygon fill="#df64ae" fill-opacity="0.501961" points="33,35 52,38 28,58" />
<polygon fill="#e9c8ba" fill-opacity="0.501961" points="67,68 44,60 60,60" />
<polygon fill="#ffffff" fill-opacity="0.501961" points="75,242 70,166 53,184" />
<polygon fill="#666872" fill-opacity="0.501961" points="31,79 36,96 21,118" />
<polygon fill="#0f2d48" fill-opacity="0.501961" points="93,145 86,195 67,158" />
<polygon fill="#fafffa" fill-opacity="0.501961" points="5,91 15,62 14,93" />
<polygon fill="#fffffc" fill-opacity="0.501961" points="24,29 40,29 17,50" />
<polygon fill="#143e60" fill-opacity="0.501961" points="89,130 58,178 50,145" />
<polygon fill="#4d4f53" fill-opacity="0.501961" points="40,145 70,101 73,134" />
<polygon fill="#c7bcae" fill-opacity="0.501961" points="20,55 -16,103 -16,83" />
<polygon fill="#44506b" fill-opacity="0.501961" points="25,80 18,96 17,85" />
<polygon fill="#a8afc6" fill-opacity="0.501961" points="85,90 127,91 82,102" />
<polygon fill="#5d6170" fill-opacity="0.501961" points="60,72 70,85 72,69" />
<polygon fill="#3e7bb5" fill-opacity="0.501961" points="80,119 101,143 90,119" />
<polygon fill="#ffffff" fill-opacity="0.501961" points="144,42 88,93 87,34" />
<polygon fill="#8f9daf" fill-opacity="0.501961" points="142,11 129,-16 94,34" />
<polygon fill="#ffffff" fill-opacity="0.501961" points="116,101 104,163 96,112" />
<polygon fill="#419ce5" fill-opacity="0.501961" points="16,92 -9,96 1,103" />
<polygon fill="#fffbf8" fill-opacity="0.501961" points="76,112 84,87 77,78" />
<polygon fill="#74768c" fill-opacity="0.501961" points="102,271 134,271 92,239" />
<polygon fill="#254466" fill-opacity="0.501961" points="23,188 57,177 29,208" />
<polygon fill="#65828c" fill-opacity="0.501961" points="48,17 88,48 84,15" />
<polygon fill="#939194" fill-opacity="0.501961" points="68,130 78,117 71,108" />
<polygon fill="#082641" fill-opacity="0.501961" points="20,181 49,168 12,98" />
<polygon fill="#144872" fill-opacity="0.501961" points="105,165 118,213 97,182" />
<polygon fill="#35353f" fill-opacity="0.501961" points="28,99 68,113 47,138" />
<polygon fill="#ffe9d1" fill-opacity="0.501961" points="32,78 38,87 36,68" />
<polygon fill="#ffffff" fill-opacity="0.501961" points="92,227 62,176 64,271" />
<polygon fill="#7f645a" fill-opacity="0.501961" points="35,106 45,76 60,70" />
<polygon fill="#ffffff" fill-opacity="0.501961" points="14,55 7,50 0,75" />
<polygon fill="#bca6b7" fill-opacity="0.501961" points="85,67 74,98 78,42" />
<polygon fill="#7c526f" fill-opacity="0.501961" points="75,64 33,56 56,44" />
<polygon fill="#5c5e66" fill-opacity="0.501961" points="20,101 33,135 50,142" />
<polygon fill="#232935" fill-opacity="0.501961" points="-16,245 -2,224 27,271" />
<polygon fill="#7d676d" fill-opacity="0.501961" points="34,10 -7,19 57,23" />
<polygon fill="#ffffff" fill-opacity="0.501961" points="-1,56 6,29 -16,26" />
<polygon fill="#061a30" fill-opacity="0.501961" points="51,200 8,214 30,271" />
<polygon fill="#ffffff" fill-opacity="0.501961" points="27,63 21,78 28,75" />
<polygon fill="#cebfaf" fill-opacity="0.501961" points="6,31 11,46 0,59" />
<polygon fill="#ffffff" fill-opacity="0.501961" points="144,25 122,89 74,91" />
<polygon fill="#8a4c6d" fill-opacity="0.501961" points="29,74 42,50 49,56" />
<polygon fill="#ffffff" fill-opacity="0.501961" points="52,185 86,201 72,169" />
<polygon fill="#ffffff" fill-opacity="0.501961" points="88,271 61,180 54,228" />
<polygon fill="#3b4a56" fill-opacity="0.501961" points="19,21 62,24 42,29" />
<polygon fill="#ffffff" fill-opacity="0.501961" points="122,102 76,101 118,147" />
<polygon fill="#515b6f" fill-opacity="0.501961" points="18,13 104,18 103,-16" />
<polygon fill="#2b4357" fill-opacity="0.501961" points="42,200 56,217 48,214" />
<polygon fill="#71889f" fill-opacity="0.501961" points="112,97 144,84 129,101" />
<polygon fill="#d5aa93" fill-opacity="0.501961" points="48,84 38,66 34,88" />
<polygon fill="#ffffff" fill-opacity="0.501961" points="13,244 23,269 35,271" />
<polygon fill="#0a4373" fill-opacity="0.501961" points="116,223 107,187 129,223" />
<polygon fill="#c4b4a7" fill-opacity="0.501961" points="6,70 16,61 15,51" />
<polygon fill="#112a43" fill-opacity="0.501961" points="87,199 106,184 84,192" />
<polygon fill="#5c6778" fill-opacity="0.501961" points="107,183 107,171 127,175" />
<polygon fill="#19436a" fill-opacity="0.501961" points="27,115 -7,97 14,131" />
<polygon fill="#8b939e" fill-opacity="0.501961" points="92,19 65,22 107,29" />
<polygon fill="#9facc3" fill-opacity="0.501961" points="89,214 89,201 97,213" />
<polygon fill="#336d95" fill-opacity="0.501961" points="97,164 100,156 106,168" />
<polygon fill="#ffffff" fill-opacity="0.501961" points="65,261 53,205 108,266" />
<polygon fill="#e9f4ea" fill-opacity="0.501961" points="139,173 110,170 103,157" />
<polygon fill="#c0b0a2" fill-opacity="0.501961" points="18,75 21,78 25,65" />
<polygon fill="#777075" fill-opacity="0.501961" points="142,263 125,264 106,233" />
<polygon fill="#4a4c54" fill-opacity="0.501961" points="14,244 1,195 -1,219" />
<polygon fill="#897071" fill-opacity="0.501961" points="68,91 50,91 68,103" />
<polygon fill="#1b1b2f" fill-opacity="0.501961" points="90,218 93,218 91,214" />
<polygon fill="#113454" fill-opacity="0.501961" points="49,145 94,144 47,182" />
<polygon fill="#4f3540" fill-opacity="0.501961" points="36,23 2,20 15,28" />
<polygon fill="#d1bfb2" fill-opacity="0.501961" points="22,33 16,46 9,45" />
<polygon fill="#c4c7bf" fill-opacity="0.501961" points="122,168 107,147 144,143" />
<polygon fill="#254a6c" fill-opacity="0.501961" points="82,121 61,142 99,140" />
<polygon fill="#d5bab9" fill-opacity="0.501961" points="78,70 73,65 62,64" />
<polygon fill="#ffffff" fill-opacity="0.501961" points="14,245 19,250 19,257" />
<polygon fill="#b1608e" fill-opacity="0.501961" points="44,29 39,50 68,42" />
<polygon fill="#a8a3ac" fill-opacity="0.501961" points="25,88 21,93 25,107" />
<polygon fill="#252d3f" fill-opacity="0.501961" points="144,188 124,179 109,189" />
<polygon fill="#306d74" fill-opacity="0.501961" points="83,27 53,23 61,30" />
<polygon fill="#4e4955" fill-opacity="0.501961" points="41,79 54,77 50,65" />
<polygon fill="#50454d" fill-opacity="0.501961" points="59,121 58,96 29,100" />
<polygon fill="#fafaf7" fill-opacity="0.501961" points="30,42 9,74 28,61" />
<polygon fill="#b2afbc" fill-opacity="0.501961" points="100,246 104,238 94,219" />
<polygon fill="#ffffff" fill-opacity="0.501961" points="86,261 89,203 66,175" />
<polygon fill="#0c2743" fill-opacity="0.501961" points="115,237 100,171 84,181" />
<polygon fill="#f1e8d0" fill-opacity="0.501961" points="120,141 144,136 123,114" />
<polygon fill="#625f66" fill-opacity="0.501961" points="31,113 18,89 21,109" />
<polygon fill="#8b8ea1" fill-opacity="0.501961" points="93,245 104,258 95,215" />
<polygon fill="#ffffff" fill-opacity="0.501961" points="85,105 117,101 99,135" />
<polygon fill="#082846" fill-opacity="0.501961" points="52,231 47,210 12,228" />
<polygon fill="#113554" fill-opacity="0.501961" points="51,204 -5,155 12,210" />
<polygon fill="#635e66" fill-opacity="0.501961" points="10,263 19,269 13,242" />
<polygon fill="#6c778c" fill-opacity="0.501961" points="130,195 116,190 144,188" />
<polygon fill="#f0c0bd" fill-opacity="0.501961" points="59,80 51,84 49,92" />
<polygon fill="#466d92" fill-opacity="0.501961" points="76,176 80,183 76,179" />
<polygon fill="#ffffff" fill-opacity="0.501961" points="5,49 19,29 9,37" />
<polygon fill="#9b7b97" fill-opacity="0.501961" points="62,40 74,67 88,30" />
<polygon fill="#9fa7bd" fill-opacity="0.501961" points="118,97 78,101 91,92" />
<polygon fill="#58606c" fill-opacity="0.501961" points="60,143 55,135 82,118" />
<polygon fill="#595559" fill-opacity="0.501961" points="144,236 114,194 139,200" />
<polygon fill="#4176ac" fill-opacity="0.501961" points="78,119 83,113 98,134" />
<polygon fill="#ffffff" fill-opacity="0.501961" points="88,33 144,49 86,92" />
<polygon fill="#092841" fill-opacity="0.501961" points="-15,136 3,200 16,106" />
<polygon fill="#ffffff" fill-opacity="0.501961" points="52,206 64,194 92,239" />
<polygon fill="#ffffff" fill-opacity="0.501961" points="65,169 55,186 74,173" />
<polygon fill="#ffffff" fill-opacity="0.501961" points="17,39 4,57 6,70" />
<polygon fill="#77605c" fill-opacity="0.501961" points="33,99 50,97 48,86" />
<polygon fill="#0c2842" fill-opacity="0.501961" points="13,127 56,151 35,194" />
<polygon fill="#d8e1d8" fill-opacity="0.501961" points="101,143 120,148 115,172" />
<polygon fill="#727585" fill-opacity="0.501961" points="96,4 70,-16 74,4" />
<polygon fill="#baab93" fill-opacity="0.501961" points="1,88 -1,91 6,89" />
<polygon fill="#29537a" fill-opacity="0.501961" points="97,214 104,220 94,204" />
<polygon fill="#ffffff" fill-opacity="0.501961" points="2,29 2,50 -16,68" />
<polygon fill="#8392a3" fill-opacity="0.501961" points="106,34 84,32 106,28" />
<polygon fill="#102d47" fill-opacity="0.501961" points="87,133 73,168 90,178" />
<polygon fill="#a0a19d" fill-opacity="0.501961" points="21,84 17,84 20,78" />
<polygon fill="#504240" fill-opacity="0.501961" points="31,-1 -10,0 -16,16" />
<polygon fill="#dde2ec" fill-opacity="0.501961" points="113,192 114,194 120,194" />
<polygon fill="#9abfc7" fill-opacity="0.501961" points="129,20 98,26 112,29" />
<polygon fill="#dfb8ae" fill-opacity="0.501961" points="69,88 76,84 78,94" />
<polygon fill="#b6b3b0" fill-opacity="0.501961" points="77,118 72,116 73,101" />
<polygon fill="#ddd4c7" fill-opacity="0.501961" points="30,29 33,39 21,52" />
<polygon fill="#e2d8dd" fill-opacity="0.501961" points="123,82 124,90 144,86" />
<polygon fill="#ffffff" fill-opacity="0.501961" points="66,254 54,219 93,226" />
<polygon fill="#ccdae3" fill-opacity="0.501961" points="57,217 53,217 52,226" />
<polygon fill="#346faa" fill-opacity="0.501961" points="-16,103 -16,117 17,95" />
<polygon fill="#2d3b47" fill-opacity="0.501961" points="47,198 50,184 58,201" />
<polygon fill="#617991" fill-opacity="0.501961" points="47,217 52,211 52,215" />
<polygon fill="#928b98" fill-opacity="0.501961" points="105,235 119,271 135,271" />
<polygon fill="#cf65a2" fill-opacity="0.501961" points="49,30 38,32 29,49" />
<polygon fill="#020d20" fill-opacity="0.501961" points="7,212 10,222 35,208" />
<polygon fill="#6c7288" fill-opacity="0.501961" points="117,-6 103,19 79,22" />
<polygon fill="#0a1225" fill-opacity="0.501961" points="21,249 52,271 29,232" />
<polygon fill="#f9fcf8" fill-opacity="0.501961" points="16,61 -2,86 19,75" />
<polygon fill="#243b5c" fill-opacity="0.501961" points="48,227 45,252 58,238" />
<polygon fill="#b8a695" fill-opacity="0.501961" points="-16,82 9,71 -16,96" />
<polygon fill="#b992b0" fill-opacity="0.501961" points="74,50 86,42 86,55" />
<polygon fill="#0f182a" fill-opacity="0.501961" points="111,220 116,241 132,235" />
<polygon fill="#a2507b" fill-opacity="0.501961" points="28,63 42,56 32,56" />
<polygon fill="#071d34" fill-opacity="0.501961" points="45,199 48,209 11,219" />
<polygon fill="#3d596d" fill-opacity="0.501961" points="51,181 38,197 52,187" />
<polygon fill="#6c6f79" fill-opacity="0.501961" points="30,84 36,89 23,112" />
<polygon fill="#445667" fill-opacity="0.501961" points="31,-9 47,9 91,8" />
<polygon fill="#9295a9" fill-opacity="0.501961" points="90,218 96,218 90,224" />
<polygon fill="#6a6372" fill-opacity="0.501961" points="104,271 105,249 124,271" />
<polygon fill="#ccc1b6" fill-opacity="0.501961" points="26,69 24,73 12,71" />
<polygon fill="#ffffff" fill-opacity="0.501961" points="79,184 59,242 60,178" />
<polygon fill="#2e3441" fill-opacity="0.501961" points="38,129 63,130 33,106" />
<polygon fill="#727c8a" fill-opacity="0.501961" points="115,177 131,174 112,171" />
<polygon fill="#363c4a" fill-opacity="0.501961" points="99,226 103,220 98,223" />
<polygon fill="#c1aba7" fill-opacity="0.501961" points="64,67 56,61 42,62" />
<polygon fill="#5f666f" fill-opacity="0.501961" points="34,138 31,122 41,136" />
<polygon fill="#ffffff" fill-opacity="0.501961" points="95,268 86,199 55,204" />
<polygon fill="#fefefc" fill-opacity="0.501961" points="-4,83 16,85 18,76" />
<polygon fill="#5c6675" fill-opacity="0.501961" points="117,242 102,220 105,232" />
<polygon fill="#73526c" fill-opacity="0.501961" points="67,57 49,52 39,61" />
<polygon fill="#846f80" fill-opacity="0.501961" points="81,42 81,33 52,31" />
<polygon fill="#7a7f8f" fill-opacity="0.501961" points="32,20 62,23 50,17" />
<polygon fill="#ffffff" fill-opacity="0.501961" points="100,35 144,74 77,94" />
<polygon fill="#b5e2fb" fill-opacity="0.501961" points="116,36 126,31 123,23" />
<polygon fill="#c7b4a5" fill-opacity="0.501961" points="13,27 3,45 3,35" />
<polygon fill="#335067" fill-opacity="0.501961" points="54,156 72,160 69,155" />
<polygon fill="#43739c" fill-opacity="0.501961" points="96,131 95,141 101,145" />
<polygon fill="#c9b5a7" fill-opacity="0.501961" points="11,43 21,33 19,39" />
<polygon fill="#736c71" fill-opacity="0.501961" points="64,90 64,106 74,99" />
<polygon fill="#415e7c" fill-opacity="0.501961" points="25,119 25,111 20,108" />
<polygon fill="#c39b93" fill-opacity="0.501961" points="63,95 57,77 62,67" />
<polygon fill="#9e91aa" fill-opacity="0.501961" points="83,80 78,53 72,70" />
<polygon fill="#f0d1cc" fill-opacity="0.501961" points="36,75 28,78 38,66" />
<polygon fill="#6c6c79" fill-opacity="0.501961" points="62,72 64,83 75,79" />
<polygon fill="#526e82" fill-opacity="0.501961" points="76,19 48,4 48,19" />
<polygon fill="#3c648f" fill-opacity="0.501961" points="96,133 79,124 78,113" />
<polygon fill="#405d82" fill-opacity="0.501961" points="62,263 61,247 52,271" />
<polygon fill="#a88570" fill-opacity="0.501961" points="37,90 42,96 41,83" />
<polygon fill="#acb2c0" fill-opacity="0.501961" points="33,72 24,83 26,90" />
<polygon fill="#422c38" fill-opacity="0.501961" points="-16,32 12,22 -2,21" />
<polygon fill="#224462" fill-opacity="0.501961" points="75,128 99,144 99,159" />
<polygon fill="#f0f4f0" fill-opacity="0.501961" points="121,172 107,169 108,165" />
<polygon fill="#d0dfd4" fill-opacity="0.501961" points="107,147 105,160 101,154" />
<polygon fill="#605155" fill-opacity="0.501961" points="29,-5 -16,19 40,13" />
<polygon fill="#ffffff" fill-opacity="0.501961" points="116,135 101,137 102,147" />
<polygon fill="#ddbbaf" fill-opacity="0.501961" points="44,81 38,74 32,86" />
<polygon fill="#ffffff" fill-opacity="0.501961" points="119,102 111,128 75,104" />
<polygon fill="#8693a6" fill-opacity="0.501961" points="144,-9 94,26 124,17" />
<polygon fill="#cdcdd4" fill-opacity="0.501961" points="96,95 107,89 118,90" />
<polygon fill="#98bbd1" fill-opacity="0.501961" points="120,38 129,14 144,37" />
<polygon fill="#4480b3" fill-opacity="0.501961" points="19,100 15,105 15,90" />
<polygon fill="#bab3bd" fill-opacity="0.501961" points="106,237 107,250 97,230" />
<polygon fill="#4e718d" fill-opacity="0.501961" points="75,179 76,175 78,179" />
<polygon fill="#1f4868" fill-opacity="0.501961" points="107,178 94,184 105,164" />
<polygon fill="#bdc1cb" fill-opacity="0.501961" points="27,86 22,97 23,89" />
<polygon fill="#d5a6a0" fill-opacity="0.501961" points="58,79 48,89 52,81" />
<polygon fill="#c0b1a3" fill-opacity="0.501961" points="7,51 -16,103 -16,65" />
<polygon fill="#ffffff" fill-opacity="0.501961" points="23,76 29,77 29,72" />
<polygon fill="#08223c" fill-opacity="0.501961" points="27,236 50,188 12,230" />
<polygon fill="#907d84" fill-opacity="0.501961" points="76,71 64,74 53,64" />
<polygon fill="#15293e" fill-opacity="0.501961" points="31,148 21,128 29,118" />
<polygon fill="#9e7d75" fill-opacity="0.501961" points="43,80 40,64 46,69" />
<polygon fill="#4f3f47" fill-opacity="0.501961" points="41,117 41,100 59,105" />
<polygon fill="#285781" fill-opacity="0.501961" points="99,193 110,190 110,182" />
<polygon fill="#1b212d" fill-opacity="0.501961" points="1,216 -12,204 4,235" />
<polygon fill="#747b93" fill-opacity="0.501961" points="93,241 99,251 96,235" />
<polygon fill="#ffffff" fill-opacity="0.501961" points="65,243 53,218 93,225" />
<polygon fill="#8a6884" fill-opacity="0.501961" points="60,62 63,41 75,65" />
<polygon fill="#454750" fill-opacity="0.501961" points="13,242 6,230 12,257" />
<polygon fill="#223e51" fill-opacity="0.501961" points="53,205 30,198 51,196" />
<polygon fill="#33526d" fill-opacity="0.501961" points="60,175 49,182 60,170" />
<polygon fill="#55555c" fill-opacity="0.501961" points="124,244 144,258 122,271" />
<polygon fill="#121a25" fill-opacity="0.501961" points="7,260 4,242 18,271" />
<polygon fill="#3f4759" fill-opacity="0.501961" points="112,186 108,173 139,182" />
<polygon fill="#ffffff" fill-opacity="0.501961" points="77,87 88,74 128,90" />
<polygon fill="#ffffff" fill-opacity="0.501961" points="26,36 19,53 19,39" />
<polygon fill="#ad5984" fill-opacity="0.501961" points="37,55 26,65 46,56" />
<polygon fill="#8baac6" fill-opacity="0.501961" points="58,236 54,232 54,223" />
<polygon fill="#a7b1bc" fill-opacity="0.501961" points="106,31 92,33 106,35" />
<polygon fill="#cac1b5" fill-opacity="0.501961" points="23,49 20,57 17,57" />
<polygon fill="#1c3c58" fill-opacity="0.501961" points="65,135 79,147 76,130" />
<polygon fill="#d8b6ce" fill-opacity="0.501961" points="80,59 88,46 84,72" />
<polygon fill="#a36d6f" fill-opacity="0.501961" points="53,94 57,95 58,87" />
<polygon fill="#153857" fill-opacity="0.501961" points="-9,130 23,126 15,102" />
<polygon fill="#ffffff" fill-opacity="0.501961" points="59,177 59,199 54,184" />
<polygon fill="#feffff" fill-opacity="0.501961" points="5,54 8,65 17,43" />
<polygon fill="#4e515c" fill-opacity="0.501961" points="71,118 51,97 62,95" />
<polygon fill="#162e4d" fill-opacity="0.501961" points="47,223 55,233 34,241" />
<polygon fill="#fcfefc" fill-opacity="0.501961" points="12,66 14,83 2,89" />
<polygon fill="#7f7d89" fill-opacity="0.501961" points="108,229 112,249 99,225" />
<polygon fill="#f4f5ef" fill-opacity="0.501961" points="11,81 14,73 19,72" />
<polygon fill="#609fcf" fill-opacity="0.501961" points="83,117 85,115 90,120" />
<polygon fill="#ffffff" fill-opacity="0.501961" points="77,266 54,223 90,232" />
<polygon fill="#654947" fill-opacity="0.501961" points="42,88 45,92 47,87" />
<polygon fill="#756668" fill-opacity="0.501961" points="19,20 -1,15 3,21" />
<polygon fill="#e8e5de" fill-opacity="0.501961" points="22,63 26,69 28,48" />
<polygon fill="#0f2845" fill-opacity="0.501961" points="78,187 92,186 87,180" />
<polygon fill="#041f37" fill-opacity="0.501961" points="-16,128 -14,151 24,151" />
<polygon fill="#364558" fill-opacity="0.501961" points="14,93 21,89 19,92" />
<polygon fill="#628f98" fill-opacity="0.501961" points="64,17 81,25 57,23" />
<polygon fill="#cdced5" fill-opacity="0.501961" points="121,193 126,196 123,196" />
<polygon fill="#85c8f4" fill-opacity="0.501961" points="4,92 10,92 -2,96" />
<polygon fill="#566b79" fill-opacity="0.501961" points="32,29 49,24 62,29" />
<polygon fill="#1b356e" fill-opacity="0.501961" points="24,199 36,191 24,186" />
<polygon fill="#2e4d6b" fill-opacity="0.501961" points="95,207 92,196 83,188" />
<polygon fill="#143d66" fill-opacity="0.501961" points="114,194 103,198 110,212" />
<polygon fill="#21527f" fill-opacity="0.501961" points="9,113 14,99 -2,106" />
<polygon fill="#586172" fill-opacity="0.501961" points="122,201 136,199 111,193" />
</g>
</svg>