<svg xmlns="http://www.w3.org/2000/svg" version="1.1" width="1024" height="572">
<rect x="0" y="0" width="1024" height="572" fill="#353427" />
<g transform="scale(4.000000) translate(0.5 0.5)">
<polygon fill="#a0978c" fill-opacity="0.501961" points="219,38 122,-4 190,61" />
<polygon fill="#969386" fill-opacity="0.501961" points="25,70 40,-16 76,30" />
<polygon fill="#000000" fill-opacity="0.501961" points="103,94 -16,94 106,28" />
<polygon fill="#e3dabc" fill-opacity="0.501961" points="225,-16 165,0 258,6" />
<polygon fill="#000000" fill-opacity="0.501961" points="232,100 211,8 265,7" />
<polygon fill="#0d0a02" fill-opacity="0.501961" points="90,158 167,67 271,81" />
<polygon fill="#25808b" fill-opacity="0.501961" points="104,50 162,56 103,93" />
<polygon fill="#000000" fill-opacity="0.501961" points="66,17 9,16 -16,44" />
<polygon fill="#ffffff" fill-opacity="0.501961" points="47,59 42,41 48,23" />
<polygon fill="#cc8b53" fill-opacity="0.501961" points="133,69 131,9 120,27" />
<polygon fill="#605735" fill-opacity="0.501961" points="155,129 271,147 202,95" />
<polygon fill="#90a4bc" fill-opacity="0.501961" points="271,69 241,52 250,76" />
<polygon fill="#d8cab1" fill-opacity="0.501961" points="114,-1 49,-16 57,2" />
<polygon fill="#c2b59e" fill-opacity="0.501961" points="59,64 68,39 63,13" />
<polygon fill="#efe3c6" fill-opacity="0.501961" points="29,35 33,61 37,26" />
<polygon fill="#be844d" fill-opacity="0.501961" points="142,95 122,117 117,102" />
<polygon fill="#040500" fill-opacity="0.501961" points="271,16 148,2 258,53" />
<polygon fill="#0f0700" fill-opacity="0.501961" points="-16,113 35,112 20,32" />
<polygon fill="#000000" fill-opacity="0.501961" points="109,98 79,-16 71,91" />
<polygon fill="#0f0c06" fill-opacity="0.501961" points="179,93 169,13 149,149" />
<polygon fill="#63532d" fill-opacity="0.501961" points="59,155 106,115 -16,117" />
<polygon fill="#010505" fill-opacity="0.501961" points="33,61 44,85 41,26" />
<polygon fill="#0f0e0c" fill-opacity="0.501961" points="59,73 35,93 59,14" />
<polygon fill="#074246" fill-opacity="0.501961" points="158,97 105,94 154,38" />
<polygon fill="#f4f2ef" fill-opacity="0.501961" points="217,50 214,34 219,43" />
<polygon fill="#3f3c2d" fill-opacity="0.501961" points="44,15 191,-16 106,28" />
<polygon fill="#8c8271" fill-opacity="0.501961" points="161,11 163,52 135,8" />
<polygon fill="#ada796" fill-opacity="0.501961" points="172,39 172,12 194,37" />
<polygon fill="#020200" fill-opacity="0.501961" points="141,52 95,41 151,36" />
<polygon fill="#050606" fill-opacity="0.501961" points="268,101 169,95 235,63" />
<polygon fill="#dbd7d9" fill-opacity="0.501961" points="209,56 205,36 210,45" />
<polygon fill="#080601" fill-opacity="0.501961" points="200,24 206,44 200,54" />
<polygon fill="#1a1100" fill-opacity="0.501961" points="102,158 109,111 212,158" />
<polygon fill="#c2b49b" fill-opacity="0.501961" points="166,1 108,-1 164,-16" />
<polygon fill="#1d1a0e" fill-opacity="0.501961" points="142,43 143,-1 122,3" />
<polygon fill="#10110a" fill-opacity="0.501961" points="119,21 74,22 121,55" />
<polygon fill="#ab7c4d" fill-opacity="0.501961" points="135,27 128,58 125,25" />
<polygon fill="#120f08" fill-opacity="0.501961" points="217,13 212,58 208,34" />
<polygon fill="#443f3e" fill-opacity="0.501961" points="142,32 196,83 203,56" />
<polygon fill="#ffffff" fill-opacity="0.501961" points="45,40 50,23 45,25" />
<polygon fill="#989494" fill-opacity="0.501961" points="215,52 220,48 222,69" />
<polygon fill="#79848e" fill-opacity="0.501961" points="41,41 48,54 42,72" />
<polygon fill="#8a7c6d" fill-opacity="0.501961" points="24,31 36,49 30,82" />
<polygon fill="#4c4944" fill-opacity="0.501961" points="72,17 73,51 57,77" />
<polygon fill="#747060" fill-opacity="0.501961" points="92,7 112,17 122,6" />
<polygon fill="#947b4c" fill-opacity="0.501961" points="10,39 -16,37 5,54" />
<polygon fill="#ffffe8" fill-opacity="0.501961" points="49,5 49,11 45,4" />
<polygon fill="#0e0d06" fill-opacity="0.501961" points="241,47 232,-7 271,53" />
<polygon fill="#3d3821" fill-opacity="0.501961" points="164,98 160,128 271,100" />
<polygon fill="#5d5839" fill-opacity="0.501961" points="213,115 168,158 271,127" />
<polygon fill="#211605" fill-opacity="0.501961" points="33,2 -8,8 30,39" />
<polygon fill="#e8e2c5" fill-opacity="0.501961" points="194,43 190,27 189,39" />
<polygon fill="#140500" fill-opacity="0.501961" points="124,100 118,87 142,85" />
<polygon fill="#030800" fill-opacity="0.501961" points="58,19 18,17 -8,39" />
<polygon fill="#ffffff" fill-opacity="0.501961" points="205,28 208,38 205,36" />
<polygon fill="#6d5a3c" fill-opacity="0.501961" points="2,-16 -10,4 72,4" />
<polygon fill="#f4e7c9" fill-opacity="0.501961" points="61,26 67,21 67,30" />
<polygon fill="#a5a18d" fill-opacity="0.501961" points="157,8 136,9 168,22" />
<polygon fill="#37797d" fill-opacity="0.501961" points="106,48 102,82 125,57" />
<polygon fill="#27261d" fill-opacity="0.501961" points="69,50 69,15 100,-16" />
<polygon fill="#18120b" fill-opacity="0.501961" points="191,40 187,39 188,25" />
<polygon fill="#443b1f" fill-opacity="0.501961" points="-14,95 60,116 111,96" />
<polygon fill="#d4d2c4" fill-opacity="0.501961" points="202,47 196,26 196,39" />
<polygon fill="#040504" fill-opacity="0.501961" points="-11,94 70,92 14,62" />
<polygon fill="#a0967c" fill-opacity="0.501961" points="233,6 176,1 229,-16" />
<polygon fill="#fffffd" fill-opacity="0.501961" points="65,1 114,-8 42,-16" />
<polygon fill="#272726" fill-opacity="0.501961" points="195,40 205,78 194,81" />
<polygon fill="#282419" fill-opacity="0.501961" points="167,19 165,-1 218,6" />
<polygon fill="#000000" fill-opacity="0.501961" points="105,27 100,17 104,2" />
<polygon fill="#265c5e" fill-opacity="0.501961" points="156,41 159,83 137,60" />
<polygon fill="#5f4e2a" fill-opacity="0.501961" points="-1,20 7,14 24,21" />
<polygon fill="#0e0d04" fill-opacity="0.501961" points="252,0 258,92 271,47" />
<polygon fill="#1a1a15" fill-opacity="0.501961" points="41,45 36,43 42,25" />
<polygon fill="#70714b" fill-opacity="0.501961" points="50,19 72,11 37,9" />
<polygon fill="#847c65" fill-opacity="0.501961" points="96,28 98,5 101,21" />
<polygon fill="#909caa" fill-opacity="0.501961" points="250,56 262,100 271,77" />
<polygon fill="#39331e" fill-opacity="0.501961" points="165,98 123,137 139,95" />
<polygon fill="#cfd4c9" fill-opacity="0.501961" points="189,20 189,31 191,26" />
<polygon fill="#8a8172" fill-opacity="0.501961" points="178,61 185,20 175,36" />
<polygon fill="#c5d3cb" fill-opacity="0.501961" points="251,1 245,4 237,0" />
<polygon fill="#0c0d06" fill-opacity="0.501961" points="234,30 222,70 217,10" />
<polygon fill="#11110f" fill-opacity="0.501961" points="215,47 209,88 220,86" />
<polygon fill="#032425" fill-opacity="0.501961" points="139,86 118,72 153,69" />
<polygon fill="#262114" fill-opacity="0.501961" points="193,42 198,39 193,21" />
<polygon fill="#0f0f0b" fill-opacity="0.501961" points="178,108 157,102 170,28" />
<polygon fill="#e9e4cf" fill-opacity="0.501961" points="175,19 175,34 178,29" />
<polygon fill="#d0ceb5" fill-opacity="0.501961" points="31,49 31,30 39,26" />
<polygon fill="#656364" fill-opacity="0.501961" points="214,79 208,77 210,56" />
<polygon fill="#50473d" fill-opacity="0.501961" points="131,7 169,34 166,66" />
<polygon fill="#4c565c" fill-opacity="0.501961" points="242,66 260,89 243,47" />
<polygon fill="#000000" fill-opacity="0.501961" points="77,62 113,96 65,88" />
<polygon fill="#ebeccf" fill-opacity="0.501961" points="237,-7 213,-10 213,3" />
<polygon fill="#564f49" fill-opacity="0.501961" points="21,49 29,71 26,31" />
<polygon fill="#070a05" fill-opacity="0.501961" points="40,45 43,67 33,75" />
<polygon fill="#070506" fill-opacity="0.501961" points="210,70 203,66 204,47" />
<polygon fill="#aba784" fill-opacity="0.501961" points="83,14 81,21 81,12" />
<polygon fill="#bb8557" fill-opacity="0.501961" points="127,18 127,41 120,28" />
<polygon fill="#256469" fill-opacity="0.501961" points="115,85 120,102 103,83" />
<polygon fill="#201a0a" fill-opacity="0.501961" points="157,100 160,116 209,115" />
<polygon fill="#3b3016" fill-opacity="0.501961" points="61,151 110,144 120,98" />
<polygon fill="#eff5f3" fill-opacity="0.501961" points="44,25 51,25 45,43" />
<polygon fill="#307074" fill-opacity="0.501961" points="142,80 140,92 151,84" />
<polygon fill="#0c0b02" fill-opacity="0.501961" points="127,41 147,32 145,51" />
<polygon fill="#e5e0d3" fill-opacity="0.501961" points="176,31 172,27 172,17" />
<polygon fill="#000000" fill-opacity="0.501961" points="117,28 127,46 113,52" />
<polygon fill="#746b47" fill-opacity="0.501961" points="9,132 25,126 -3,127" />
<polygon fill="#444029" fill-opacity="0.501961" points="64,19 54,26 57,-16" />
<polygon fill="#99927f" fill-opacity="0.501961" points="74,24 71,34 71,21" />
<polygon fill="#484328" fill-opacity="0.501961" points="168,154 158,117 210,115" />
<polygon fill="#14120a" fill-opacity="0.501961" points="112,5 152,7 131,0" />
<polygon fill="#2a281b" fill-opacity="0.501961" points="184,29 182,0 177,9" />
<polygon fill="#211508" fill-opacity="0.501961" points="34,6 17,-1 -16,24" />
<polygon fill="#837b6c" fill-opacity="0.501961" points="181,31 196,67 193,42" />
<polygon fill="#6e6962" fill-opacity="0.501961" points="58,65 65,46 65,59" />
<polygon fill="#dad6cd" fill-opacity="0.501961" points="182,30 179,30 180,20" />
<polygon fill="#2f2f2b" fill-opacity="0.501961" points="194,74 189,42 185,77" />
<polygon fill="#4a452d" fill-opacity="0.501961" points="271,102 205,98 228,114" />
<polygon fill="#070804" fill-opacity="0.501961" points="54,36 43,94 60,60" />
<polygon fill="#c5bca4" fill-opacity="0.501961" points="24,14 29,11 25,12" />
<polygon fill="#000000" fill-opacity="0.501961" points="167,20 170,12 171,28" />
<polygon fill="#1b1101" fill-opacity="0.501961" points="167,137 142,111 122,158" />
<polygon fill="#1c1d10" fill-opacity="0.501961" points="213,5 207,28 148,5" />
<polygon fill="#272d2a" fill-opacity="0.501961" points="250,64 258,89 251,89" />
<polygon fill="#0a0801" fill-opacity="0.501961" points="221,51 263,101 228,96" />
<polygon fill="#bdbcb3" fill-opacity="0.501961" points="184,20 183,32 187,35" />
<polygon fill="#090b02" fill-opacity="0.501961" points="2,22 44,25 -15,38" />
<polygon fill="#d4d2bf" fill-opacity="0.501961" points="55,-9 102,1 100,-16" />
<polygon fill="#404541" fill-opacity="0.501961" points="235,56 234,68 229,45" />
<polygon fill="#3a3934" fill-opacity="0.501961" points="32,77 25,59 26,88" />
<polygon fill="#999fa2" fill-opacity="0.501961" points="44,61 50,43 43,51" />
<polygon fill="#4e3f1a" fill-opacity="0.501961" points="102,139 -13,128 23,155" />
<polygon fill="#87837f" fill-opacity="0.501961" points="198,57 200,44 202,55" />
<polygon fill="#1d1c12" fill-opacity="0.501961" points="226,3 203,30 179,8" />
<polygon fill="#1f230f" fill-opacity="0.501961" points="177,14 177,24 180,13" />
<polygon fill="#9e9b79" fill-opacity="0.501961" points="139,16 136,8 136,17" />
<polygon fill="#1b4e51" fill-opacity="0.501961" points="111,87 133,87 110,62" />
<polygon fill="#13120a" fill-opacity="0.501961" points="244,59 225,38 235,-2" />
<polygon fill="#1d1c14" fill-opacity="0.501961" points="105,51 91,5 89,38" />
<polygon fill="#b08b53" fill-opacity="0.501961" points="129,40 133,59 126,52" />
<polygon fill="#12120b" fill-opacity="0.501961" points="119,11 133,14 116,20" />
<polygon fill="#d2d1c3" fill-opacity="0.501961" points="196,34 197,27 201,43" />
<polygon fill="#343533" fill-opacity="0.501961" points="58,49 66,69 56,92" />
<polygon fill="#cfb48d" fill-opacity="0.501961" points="52,-16 35,1 11,-16" />
<polygon fill="#19150f" fill-opacity="0.501961" points="206,47 201,35 203,56" />
<polygon fill="#888672" fill-opacity="0.501961" points="122,15 120,9 124,7" />
<polygon fill="#3d7575" fill-opacity="0.501961" points="127,70 112,62 147,59" />
<polygon fill="#4b4643" fill-opacity="0.501961" points="187,70 183,29 174,72" />
<polygon fill="#a7a997" fill-opacity="0.501961" points="50,13 49,-3 43,15" />
<polygon fill="#899aac" fill-opacity="0.501961" points="249,63 246,57 247,69" />
<polygon fill="#767359" fill-opacity="0.501961" points="87,18 89,10 90,26" />
<polygon fill="#11120b" fill-opacity="0.501961" points="81,34 85,-4 89,21" />
<polygon fill="#adaba4" fill-opacity="0.501961" points="219,45 213,34 218,58" />
<polygon fill="#463e27" fill-opacity="0.501961" points="114,96 56,95 100,130" />
<polygon fill="#373935" fill-opacity="0.501961" points="219,66 227,83 222,90" />
<polygon fill="#292623" fill-opacity="0.501961" points="217,87 162,70 155,45" />
<polygon fill="#3b3521" fill-opacity="0.501961" points="252,120 163,107 205,97" />
<polygon fill="#2b291d" fill-opacity="0.501961" points="47,115 33,107 45,67" />
<polygon fill="#887f72" fill-opacity="0.501961" points="168,36 165,13 160,19" />
<polygon fill="#488d8f" fill-opacity="0.501961" points="104,61 109,66 108,45" />
<polygon fill="#dfd6bb" fill-opacity="0.501961" points="66,21 61,23 63,32" />
<polygon fill="#5a5238" fill-opacity="0.501961" points="47,124 105,126 66,114" />
<polygon fill="#000100" fill-opacity="0.501961" points="130,16 139,33 135,11" />
<polygon fill="#524d44" fill-opacity="0.501961" points="163,14 160,38 169,43" />
<polygon fill="#cfc4b2" fill-opacity="0.501961" points="159,12 162,16 162,23" />
<polygon fill="#6f6b4f" fill-opacity="0.501961" points="186,129 169,125 163,130" />
<polygon fill="#1a1e11" fill-opacity="0.501961" points="33,19 53,23 71,15" />
<polygon fill="#a69f8d" fill-opacity="0.501961" points="186,-1 145,-16 96,0" />
<polygon fill="#1e1607" fill-opacity="0.501961" points="20,65 26,8 11,39" />
<polygon fill="#4e4430" fill-opacity="0.501961" points="146,117 156,106 154,89" />
<polygon fill="#363220" fill-opacity="0.501961" points="143,12 112,-16 132,-16" />
<polygon fill="#956b43" fill-opacity="0.501961" points="119,101 135,102 125,117" />
<polygon fill="#2a291c" fill-opacity="0.501961" points="74,7 114,4 75,-4" />
<polygon fill="#101209" fill-opacity="0.501961" points="217,19 203,8 212,43" />
<polygon fill="#3b3e32" fill-opacity="0.501961" points="47,-8 41,16 40,-4" />
<polygon fill="#1a1401" fill-opacity="0.501961" points="145,80 121,94 129,99" />
<polygon fill="#11130c" fill-opacity="0.501961" points="84,42 72,65 75,7" />
<polygon fill="#79775c" fill-opacity="0.501961" points="60,3 53,18 41,14" />
<polygon fill="#21231b" fill-opacity="0.501961" points="37,35 38,18 43,31" />
<polygon fill="#0e1109" fill-opacity="0.501961" points="105,9 103,35 99,19" />
<polygon fill="#756f58" fill-opacity="0.501961" points="115,23 110,8 115,9" />
<polygon fill="#9a907c" fill-opacity="0.501961" points="172,25 182,47 183,32" />
<polygon fill="#2d2921" fill-opacity="0.501961" points="114,10 107,10 112,30" />
<polygon fill="#675b44" fill-opacity="0.501961" points="67,10 84,-1 70,3" />
<polygon fill="#0f0e04" fill-opacity="0.501961" points="114,147 117,101 125,140" />
<polygon fill="#514a39" fill-opacity="0.501961" points="99,23 96,32 98,40" />
<polygon fill="#0a0d0d" fill-opacity="0.501961" points="137,97 208,96 177,76" />
<polygon fill="#e1dbd8" fill-opacity="0.501961" points="208,43 208,36 206,36" />
<polygon fill="#8d7147" fill-opacity="0.501961" points="7,3 -16,8 8,-9" />
<polygon fill="#2c291a" fill-opacity="0.501961" points="187,-3 190,11 181,26" />
<polygon fill="#1c4d4e" fill-opacity="0.501961" points="143,104 160,66 150,44" />
<polygon fill="#1f1a0e" fill-opacity="0.501961" points="-2,8 19,2 43,11" />
<polygon fill="#b27e53" fill-opacity="0.501961" points="135,33 125,18 121,22" />
<polygon fill="#0e1008" fill-opacity="0.501961" points="263,49 216,29 219,46" />
<polygon fill="#ccc1a5" fill-opacity="0.501961" points="29,43 37,27 31,57" />
<polygon fill="#645e4a" fill-opacity="0.501961" points="83,26 80,17 80,29" />
<polygon fill="#a69b82" fill-opacity="0.501961" points="189,55 194,54 193,38" />
<polygon fill="#4c484a" fill-opacity="0.501961" points="252,56 243,50 249,59" />
<polygon fill="#e6e7db" fill-opacity="0.501961" points="191,27 191,30 189,32" />
<polygon fill="#777161" fill-opacity="0.501961" points="162,22 162,40 142,16" />
<polygon fill="#39311d" fill-opacity="0.501961" points="130,137 122,132 131,108" />
<polygon fill="#b9a973" fill-opacity="0.501961" points="4,39 5,48 2,46" />
<polygon fill="#845b3c" fill-opacity="0.501961" points="137,31 130,37 129,18" />
<polygon fill="#85807f" fill-opacity="0.501961" points="208,60 212,65 209,56" />
<polygon fill="#b8aa92" fill-opacity="0.501961" points="190,3 185,-9 200,1" />
<polygon fill="#0f0f08" fill-opacity="0.501961" points="142,17 140,55 131,47" />
<polygon fill="#7a785a" fill-opacity="0.501961" points="230,131 241,135 232,136" />
<polygon fill="#2d2b25" fill-opacity="0.501961" points="195,43 203,66 196,65" />
<polygon fill="#d8d6c5" fill-opacity="0.501961" points="154,15 152,15 152,8" />
<polygon fill="#040400" fill-opacity="0.501961" points="69,94 98,93 105,44" />
<polygon fill="#626459" fill-opacity="0.501961" points="132,10 129,3 129,15" />
<polygon fill="#2a230e" fill-opacity="0.501961" points="241,110 266,118 225,117" />
<polygon fill="#2c281f" fill-opacity="0.501961" points="162,21 170,-5 162,6" />
<polygon fill="#050200" fill-opacity="0.501961" points="212,55 214,72 218,69" />
<polygon fill="#080c08" fill-opacity="0.501961" points="172,34 168,30 168,45" />
<polygon fill="#958c6b" fill-opacity="0.501961" points="107,18 106,10 108,11" />
<polygon fill="#3b2b1a" fill-opacity="0.501961" points="9,59 6,41 0,74" />
<polygon fill="#3a3115" fill-opacity="0.501961" points="190,135 144,124 191,152" />
<polygon fill="#504e4b" fill-opacity="0.501961" points="203,75 198,57 203,59" />
<polygon fill="#5c5646" fill-opacity="0.501961" points="151,12 154,41 148,27" />
<polygon fill="#939880" fill-opacity="0.501961" points="41,6 35,7 38,10" />
<polygon fill="#17150a" fill-opacity="0.501961" points="199,30 200,15 205,36" />
<polygon fill="#f2f2e8" fill-opacity="0.501961" points="204,4 213,-16 204,-9" />
<polygon fill="#1c1d0e" fill-opacity="0.501961" points="184,10 187,26 193,7" />
<polygon fill="#655f45" fill-opacity="0.501961" points="223,117 221,129 200,119" />
<polygon fill="#958d7a" fill-opacity="0.501961" points="97,14 99,4 100,16" />
<polygon fill="#676257" fill-opacity="0.501961" points="176,61 172,34 186,49" />
<polygon fill="#443c36" fill-opacity="0.501961" points="31,33 22,45 23,64" />
<polygon fill="#231c08" fill-opacity="0.501961" points="83,140 87,131 111,129" />
<polygon fill="#49413b" fill-opacity="0.501961" points="71,52 67,27 74,29" />
<polygon fill="#0c0c02" fill-opacity="0.501961" points="122,17 129,14 123,9" />
<polygon fill="#2c2712" fill-opacity="0.501961" points="8,97 -16,114 66,112" />
<polygon fill="#15120c" fill-opacity="0.501961" points="246,71 233,46 234,83" />
<polygon fill="#090a05" fill-opacity="0.501961" points="261,86 271,66 247,19" />
<polygon fill="#1b494a" fill-opacity="0.501961" points="135,83 125,68 104,72" />
<polygon fill="#15130d" fill-opacity="0.501961" points="107,6 109,1 93,4" />
<polygon fill="#857d65" fill-opacity="0.501961" points="69,3 48,-7 51,3" />
<polygon fill="#0b0500" fill-opacity="0.501961" points="156,105 167,103 148,121" />
<polygon fill="#1e5a57" fill-opacity="0.501961" points="140,89 143,102 135,94" />
<polygon fill="#a3744c" fill-opacity="0.501961" points="125,39 128,34 120,32" />
<polygon fill="#252416" fill-opacity="0.501961" points="188,9 197,11 195,38" />
<polygon fill="#dddccb" fill-opacity="0.501961" points="101,-16 92,0 118,-3" />
<polygon fill="#7e796c" fill-opacity="0.501961" points="28,35 24,33 24,47" />
<polygon fill="#352c19" fill-opacity="0.501961" points="70,114 128,117 102,106" />
<polygon fill="#262724" fill-opacity="0.501961" points="216,89 212,73 192,68" />
<polygon fill="#4d4a32" fill-opacity="0.501961" points="25,131 1,115 65,114" />
<polygon fill="#282819" fill-opacity="0.501961" points="176,8 181,8 178,23" />
<polygon fill="#beb8a8" fill-opacity="0.501961" points="164,23 165,15 167,26" />
<polygon fill="#74726e" fill-opacity="0.501961" points="49,28 53,23 58,29" />
<polygon fill="#46423d" fill-opacity="0.501961" points="191,50 196,73 173,59" />
<polygon fill="#fffff6" fill-opacity="0.501961" points="63,1 98,-11 69,-16" />
<polygon fill="#0a2727" fill-opacity="0.501961" points="147,75 149,56 138,84" />
<polygon fill="#336e6f" fill-opacity="0.501961" points="121,65 131,72 125,49" />
<polygon fill="#9b9998" fill-opacity="0.501961" points="204,34 206,36 204,30" />
<polygon fill="#070704" fill-opacity="0.501961" points="181,100 169,94 171,55" />
<polygon fill="#1b1a0f" fill-opacity="0.501961" points="35,9 25,17 28,38" />
<polygon fill="#40797d" fill-opacity="0.501961" points="103,68 107,81 115,85" />
<polygon fill="#514d32" fill-opacity="0.501961" points="271,112 233,127 267,148" />
<polygon fill="#ccc6ba" fill-opacity="0.501961" points="199,38 196,39 198,28" />
<polygon fill="#97975a" fill-opacity="0.501961" points="52,12 65,12 55,15" />
<polygon fill="#9f9487" fill-opacity="0.501961" points="163,29 162,18 153,12" />
<polygon fill="#396c6a" fill-opacity="0.501961" points="148,70 157,57 154,47" />
<polygon fill="#f6e3d8" fill-opacity="0.501961" points="72,1 68,-9 78,-4" />
<polygon fill="#231e1a" fill-opacity="0.501961" points="50,42 59,58 58,32" />
<polygon fill="#423a30" fill-opacity="0.501961" points="164,31 162,25 164,18" />
<polygon fill="#114b4e" fill-opacity="0.501961" points="115,102 113,86 122,98" />
<polygon fill="#1a1b1a" fill-opacity="0.501961" points="71,84 57,94 68,50" />
<polygon fill="#362f25" fill-opacity="0.501961" points="208,33 213,42 210,49" />
<polygon fill="#738593" fill-opacity="0.501961" points="244,50 244,60 250,65" />
<polygon fill="#424b48" fill-opacity="0.501961" points="247,86 271,80 271,87" />
<polygon fill="#070903" fill-opacity="0.501961" points="-16,28 45,22 9,37" />
<polygon fill="#a49b85" fill-opacity="0.501961" points="225,6 233,6 228,-5" />
<polygon fill="#181811" fill-opacity="0.501961" points="83,36 99,65 96,14" />
<polygon fill="#0b0d05" fill-opacity="0.501961" points="110,50 119,23 122,51" />
<polygon fill="#6b5f48" fill-opacity="0.501961" points="240,6 233,4 241,2" />
<polygon fill="#28221b" fill-opacity="0.501961" points="205,36 200,36 198,25" />
<polygon fill="#736c62" fill-opacity="0.501961" points="59,54 64,53 59,37" />
<polygon fill="#010200" fill-opacity="0.501961" points="53,95 55,57 43,87" />
<polygon fill="#3b3023" fill-opacity="0.501961" points="61,7 52,12 63,11" />
<polygon fill="#615035" fill-opacity="0.501961" points="2,58 -16,60 13,43" />
<polygon fill="#a6b1b4" fill-opacity="0.501961" points="42,60 46,52 45,58" />
<polygon fill="#271c07" fill-opacity="0.501961" points="229,-16 235,3 247,-16" />
<polygon fill="#0b2f30" fill-opacity="0.501961" points="111,69 115,81 123,86" />
<polygon fill="#807c63" fill-opacity="0.501961" points="271,104 250,102 265,99" />
<polygon fill="#211d15" fill-opacity="0.501961" points="223,18 246,6 271,16" />
<polygon fill="#3f351a" fill-opacity="0.501961" points="61,132 47,122 44,155" />
<polygon fill="#262417" fill-opacity="0.501961" points="133,7 147,2 160,8" />
<polygon fill="#a79981" fill-opacity="0.501961" points="66,44 61,43 65,26" />
<polygon fill="#393622" fill-opacity="0.501961" points="63,94 2,95 44,108" />
<polygon fill="#b78c58" fill-opacity="0.501961" points="133,53 128,54 132,62" />
<polygon fill="#33321f" fill-opacity="0.501961" points="14,113 12,123 -16,131" />
<polygon fill="#7f7b69" fill-opacity="0.501961" points="94,5 94,12 96,8" />
<polygon fill="#9a9253" fill-opacity="0.501961" points="255,2 269,4 262,23" />
<polygon fill="#e2e8e8" fill-opacity="0.501961" points="47,3 45,7 48,6" />
<polygon fill="#eeeae7" fill-opacity="0.501961" points="179,18 179,20 180,21" />
<polygon fill="#69624d" fill-opacity="0.501961" points="166,125 160,126 162,130" />
<polygon fill="#18120b" fill-opacity="0.501961" points="27,82 26,61 7,56" />
<polygon fill="#a8a59f" fill-opacity="0.501961" points="219,60 216,46 220,52" />
<polygon fill="#595242" fill-opacity="0.501961" points="61,0 42,0 60,8" />
<polygon fill="#37312c" fill-opacity="0.501961" points="54,49 51,38 47,56" />
<polygon fill="#0d2e2b" fill-opacity="0.501961" points="139,95 160,82 143,104" />
</g>
</svg>