<svg xmlns="http://www.w3.org/2000/svg" version="1.1" width="1024" height="576">
<rect x="0" y="0" width="1024" height="576" fill="#484542" />
<g transform="scale(4.000000) translate(0.5 0.5)">
<polygon fill="#9cacab" fill-opacity="0.501961" points="171,-13 271,127 134,159" />
<polygon fill="#000000" fill-opacity="0.501961" points="142,142 7,-16 -16,142" />
<polygon fill="#231e1f" fill-opacity="0.501961" points="271,4 -2,-16 0,78" />
<polygon fill="#7c807e" fill-opacity="0.501961" points="271,15 243,159 91,40" />
<polygon fill="#160601" fill-opacity="0.501961" points="98,140 109,37 -11,141" />
<polygon fill="#80584b" fill-opacity="0.501961" points="127,118 78,103 175,-16" />
<polygon fill="#495159" fill-opacity="0.501961" points="219,43 88,54 153,-7" />
<polygon fill="#24201e" fill-opacity="0.501961" points="105,93 115,-16 -16,5" />
<polygon fill="#1c0600" fill-opacity="0.501961" points="189,23 271,14 227,-16" />
<polygon fill="#000000" fill-opacity="0.501961" points="143,105 132,142 111,141" />
<polygon fill="#818a8a" fill-opacity="0.501961" points="133,55 271,71 165,135" />
<polygon fill="#000000" fill-opacity="0.501961" points="79,102 -16,142 86,141" />
<polygon fill="#c78563" fill-opacity="0.501961" points="101,95 130,107 124,121" />
<polygon fill="#ab4940" fill-opacity="0.501961" points="96,67 115,49 145,79" />
<polygon fill="#6b7169" fill-opacity="0.501961" points="257,159 271,69 187,19" />
<polygon fill="#673222" fill-opacity="0.501961" points="91,118 113,101 113,136" />
<polygon fill="#292621" fill-opacity="0.501961" points="-10,-16 -16,127 115,86" />
<polygon fill="#1c0a01" fill-opacity="0.501961" points="140,87 144,104 119,71" />
<polygon fill="#c14942" fill-opacity="0.501961" points="145,81 147,95 121,67" />
<polygon fill="#61686a" fill-opacity="0.501961" points="196,6 98,59 188,60" />
<polygon fill="#403e43" fill-opacity="0.501961" points="243,-16 79,70 112,9" />
<polygon fill="#0b0200" fill-opacity="0.501961" points="124,142 7,110 -16,142" />
<polygon fill="#c38c73" fill-opacity="0.501961" points="117,75 99,75 121,82" />
<polygon fill="#110601" fill-opacity="0.501961" points="91,105 118,127 112,111" />
<polygon fill="#605453" fill-opacity="0.501961" points="143,85 139,147 158,159" />
<polygon fill="#3a230f" fill-opacity="0.501961" points="111,93 140,98 88,69" />
<polygon fill="#848c8b" fill-opacity="0.501961" points="185,44 143,113 221,120" />
<polygon fill="#815640" fill-opacity="0.501961" points="91,95 77,107 113,103" />
<polygon fill="#4d4d4a" fill-opacity="0.501961" points="210,23 266,46 271,12" />
<polygon fill="#2c2b27" fill-opacity="0.501961" points="34,5 -16,91 104,61" />
<polygon fill="#030200" fill-opacity="0.501961" points="141,114 135,141 124,126" />
<polygon fill="#8e4744" fill-opacity="0.501961" points="102,112 92,120 107,123" />
<polygon fill="#251104" fill-opacity="0.501961" points="195,17 201,-13 271,4" />
<polygon fill="#727678" fill-opacity="0.501961" points="204,34 108,59 249,71" />
<polygon fill="#1a1918" fill-opacity="0.501961" points="117,-16 56,68 84,-16" />
<polygon fill="#020301" fill-opacity="0.501961" points="83,67 77,142 57,131" />
<polygon fill="#4b4b4a" fill-opacity="0.501961" points="139,141 163,158 217,141" />
<polygon fill="#565756" fill-opacity="0.501961" points="197,-6 194,30 114,49" />
<polygon fill="#100902" fill-opacity="0.501961" points="94,88 103,81 119,83" />
<polygon fill="#201f1c" fill-opacity="0.501961" points="-16,114 106,50 54,121" />
<polygon fill="#6a726b" fill-opacity="0.501961" points="271,69 253,135 204,144" />
<polygon fill="#7d593d" fill-opacity="0.501961" points="137,100 120,122 137,112" />
<polygon fill="#b9a998" fill-opacity="0.501961" points="124,61 116,58 124,54" />
<polygon fill="#3c2318" fill-opacity="0.501961" points="100,110 91,66 106,69" />
<polygon fill="#8c3932" fill-opacity="0.501961" points="140,116 149,94 143,89" />
<polygon fill="#4a443b" fill-opacity="0.501961" points="241,12 214,17 219,10" />
<polygon fill="#a36b56" fill-opacity="0.501961" points="110,102 101,100 110,85" />
<polygon fill="#545654" fill-opacity="0.501961" points="271,5 254,-2 252,53" />
<polygon fill="#66332c" fill-opacity="0.501961" points="88,74 112,47 117,61" />
<polygon fill="#724c32" fill-opacity="0.501961" points="117,133 111,123 105,135" />
<polygon fill="#51565a" fill-opacity="0.501961" points="143,62 123,56 144,15" />
<polygon fill="#3a2920" fill-opacity="0.501961" points="258,141 212,159 218,143" />
<polygon fill="#33342b" fill-opacity="0.501961" points="45,96 56,44 17,117" />
<polygon fill="#110808" fill-opacity="0.501961" points="84,70 66,87 108,71" />
<polygon fill="#6f787a" fill-opacity="0.501961" points="144,137 175,139 149,73" />
<polygon fill="#1a1610" fill-opacity="0.501961" points="132,82 125,73 117,76" />
<polygon fill="#9f4d45" fill-opacity="0.501961" points="145,83 114,69 127,55" />
<polygon fill="#1a1007" fill-opacity="0.501961" points="98,141 108,125 73,117" />
<polygon fill="#1d1618" fill-opacity="0.501961" points="70,-16 -16,37 -12,1" />
<polygon fill="#674830" fill-opacity="0.501961" points="107,105 126,88 116,84" />
<polygon fill="#0b0600" fill-opacity="0.501961" points="94,105 81,112 108,112" />
<polygon fill="#2c2b2f" fill-opacity="0.501961" points="68,80 143,-16 88,18" />
<polygon fill="#1f0e00" fill-opacity="0.501961" points="114,94 120,101 111,95" />
<polygon fill="#9e735f" fill-opacity="0.501961" points="123,82 115,71 104,79" />
<polygon fill="#241809" fill-opacity="0.501961" points="141,90 127,105 141,97" />
<polygon fill="#7c857d" fill-opacity="0.501961" points="220,141 224,61 176,133" />
<polygon fill="#a0725b" fill-opacity="0.501961" points="124,117 107,106 135,103" />
<polygon fill="#785d49" fill-opacity="0.501961" points="134,98 134,87 126,80" />
<polygon fill="#89ec66" fill-opacity="0.501961" points="126,96 122,96 126,99" />
<polygon fill="#835744" fill-opacity="0.501961" points="91,105 80,95 95,94" />
<polygon fill="#1d1914" fill-opacity="0.501961" points="47,57 -16,123 21,113" />
<polygon fill="#666e77" fill-opacity="0.501961" points="129,62 162,36 157,75" />
<polygon fill="#2a1a13" fill-opacity="0.501961" points="142,126 134,118 141,102" />
<polygon fill="#37343f" fill-opacity="0.501961" points="187,-2 143,-16 105,30" />
<polygon fill="#261209" fill-opacity="0.501961" points="254,-16 253,8 198,17" />
<polygon fill="#444a44" fill-opacity="0.501961" points="199,16 201,21 214,16" />
<polygon fill="#a19c8d" fill-opacity="0.501961" points="123,48 120,47 123,52" />
<polygon fill="#475857" fill-opacity="0.501961" points="145,141 143,115 137,139" />
<polygon fill="#62402d" fill-opacity="0.501961" points="106,84 92,76 89,80" />
<polygon fill="#33302c" fill-opacity="0.501961" points="37,43 1,83 36,14" />
<polygon fill="#494b47" fill-opacity="0.501961" points="200,-16 245,-16 203,4" />
<polygon fill="#3a2413" fill-opacity="0.501961" points="118,134 135,115 113,124" />
<polygon fill="#5c5f5b" fill-opacity="0.501961" points="204,41 185,26 232,20" />
<polygon fill="#884643" fill-opacity="0.501961" points="124,63 149,93 139,69" />
<polygon fill="#412b1e" fill-opacity="0.501961" points="86,87 110,90 77,98" />
<polygon fill="#030300" fill-opacity="0.501961" points="199,17 195,25 198,7" />
<polygon fill="#6d716b" fill-opacity="0.501961" points="201,30 271,137 271,77" />
<polygon fill="#a8897a" fill-opacity="0.501961" points="116,77 112,82 125,82" />
<polygon fill="#878d8e" fill-opacity="0.501961" points="155,105 183,68 208,108" />
<polygon fill="#1c1a16" fill-opacity="0.501961" points="45,86 61,131 33,117" />
<polygon fill="#110807" fill-opacity="0.501961" points="92,73 60,102 77,100" />
<polygon fill="#6d4e3a" fill-opacity="0.501961" points="117,116 130,114 125,123" />
<polygon fill="#12100a" fill-opacity="0.501961" points="252,15 232,17 252,9" />
<polygon fill="#1a140c" fill-opacity="0.501961" points="112,85 105,80 125,84" />
<polygon fill="#030100" fill-opacity="0.501961" points="129,141 120,138 140,112" />
<polygon fill="#484440" fill-opacity="0.501961" points="247,8 248,13 232,13" />
<polygon fill="#825f45" fill-opacity="0.501961" points="118,82 134,89 114,87" />
<polygon fill="#798084" fill-opacity="0.501961" points="142,72 176,50 160,128" />
<polygon fill="#b07963" fill-opacity="0.501961" points="115,100 118,114 125,104" />
<polygon fill="#474447" fill-opacity="0.501961" points="147,6 201,-2 99,49" />
<polygon fill="#a87e6b" fill-opacity="0.501961" points="106,105 107,95 103,100" />
<polygon fill="#646e6b" fill-opacity="0.501961" points="183,144 138,139 145,121" />
<polygon fill="#8f3a34" fill-opacity="0.501961" points="91,69 130,67 118,60" />
<polygon fill="#987a6a" fill-opacity="0.501961" points="135,65 126,61 130,55" />
<polygon fill="#54392a" fill-opacity="0.501961" points="102,107 95,103 111,104" />
<polygon fill="#100e0a" fill-opacity="0.501961" points="140,89 133,85 141,99" />
<polygon fill="#281b13" fill-opacity="0.501961" points="79,126 79,93 90,127" />
<polygon fill="#70533e" fill-opacity="0.501961" points="101,78 120,72 114,69" />
<polygon fill="#533c33" fill-opacity="0.501961" points="104,55 125,53 109,50" />
<polygon fill="#110302" fill-opacity="0.501961" points="41,118 -15,123 27,142" />
<polygon fill="#353739" fill-opacity="0.501961" points="135,133 139,152 156,156" />
<polygon fill="#000000" fill-opacity="0.501961" points="103,79 114,87 112,82" />
<polygon fill="#737c75" fill-opacity="0.501961" points="201,140 234,90 239,141" />
<polygon fill="#27231f" fill-opacity="0.501961" points="72,-16 57,32 18,6" />
<polygon fill="#9f9c8f" fill-opacity="0.501961" points="118,54 115,61 126,58" />
<polygon fill="#0b0703" fill-opacity="0.501961" points="97,122 105,127 83,132" />
<polygon fill="#662a29" fill-opacity="0.501961" points="87,73 103,60 118,60" />
<polygon fill="#765c47" fill-opacity="0.501961" points="138,97 128,114 138,106" />
<polygon fill="#7c827f" fill-opacity="0.501961" points="178,57 229,95 212,54" />
<polygon fill="#af473f" fill-opacity="0.501961" points="106,67 133,72 118,64" />
<polygon fill="#3f393b" fill-opacity="0.501961" points="97,32 103,62 123,25" />
<polygon fill="#4d5254" fill-opacity="0.501961" points="127,32 123,54 167,12" />
<polygon fill="#2d2d26" fill-opacity="0.501961" points="44,80 30,117 18,116" />
<polygon fill="#565754" fill-opacity="0.501961" points="220,15 211,15 209,18" />
<polygon fill="#080803" fill-opacity="0.501961" points="91,74 108,72 103,69" />
<polygon fill="#252321" fill-opacity="0.501961" points="119,-8 67,29 43,92" />
<polygon fill="#5c6061" fill-opacity="0.501961" points="250,139 271,112 241,134" />
<polygon fill="#79463c" fill-opacity="0.501961" points="112,125 96,119 105,118" />
<polygon fill="#5c6369" fill-opacity="0.501961" points="141,42 136,65 167,33" />
<polygon fill="#080605" fill-opacity="0.501961" points="201,6 196,15 198,-2" />
<polygon fill="#060505" fill-opacity="0.501961" points="254,-2 249,15 249,-9" />
<polygon fill="#606164" fill-opacity="0.501961" points="155,159 201,141 112,143" />
<polygon fill="#786156" fill-opacity="0.501961" points="101,60 114,55 116,60" />
<polygon fill="#212a21" fill-opacity="0.501961" points="120,89 124,95 130,93" />
<polygon fill="#2a150b" fill-opacity="0.501961" points="251,7 227,-16 196,18" />
<polygon fill="#b94f47" fill-opacity="0.501961" points="143,88 136,84 132,72" />
<polygon fill="#7d8553" fill-opacity="0.501961" points="124,97 121,92 122,99" />
<polygon fill="#5c5f5b" fill-opacity="0.501961" points="271,53 242,28 189,24" />
<polygon fill="#1a110c" fill-opacity="0.501961" points="101,100 101,103 97,101" />
<polygon fill="#674231" fill-opacity="0.501961" points="106,86 110,84 106,93" />
<polygon fill="#030301" fill-opacity="0.501961" points="70,117 100,142 45,140" />
<polygon fill="#843830" fill-opacity="0.501961" points="143,99 139,113 145,105" />
<polygon fill="#794837" fill-opacity="0.501961" points="109,106 113,105 114,113" />
<polygon fill="#32322b" fill-opacity="0.501961" points="66,17 59,59 36,81" />
<polygon fill="#29160f" fill-opacity="0.501961" points="128,126 105,118 109,110" />
<polygon fill="#1b1a11" fill-opacity="0.501961" points="96,94 103,94 105,84" />
<polygon fill="#24130a" fill-opacity="0.501961" points="111,89 113,87 114,94" />
<polygon fill="#181914" fill-opacity="0.501961" points="124,80 124,75 134,81" />
<polygon fill="#544131" fill-opacity="0.501961" points="100,87 88,91 101,91" />
<polygon fill="#3e3b34" fill-opacity="0.501961" points="201,8 232,-16 203,-5" />
<polygon fill="#323033" fill-opacity="0.501961" points="87,34 81,69 129,1" />
<polygon fill="#5b442f" fill-opacity="0.501961" points="135,96 137,82 127,104" />
<polygon fill="#3e2c25" fill-opacity="0.501961" points="127,80 116,76 119,73" />
<polygon fill="#534940" fill-opacity="0.501961" points="198,143 241,141 243,159" />
<polygon fill="#17160e" fill-opacity="0.501961" points="219,17 224,20 237,14" />
<polygon fill="#69514a" fill-opacity="0.501961" points="134,60 125,49 124,56" />
<polygon fill="#682c2b" fill-opacity="0.501961" points="105,120 102,111 92,118" />
<polygon fill="#000000" fill-opacity="0.501961" points="141,88 141,90 138,88" />
<polygon fill="#4b4948" fill-opacity="0.501961" points="249,30 258,-16 271,13" />
<polygon fill="#986e5c" fill-opacity="0.501961" points="116,82 103,77 111,75" />
<polygon fill="#24241f" fill-opacity="0.501961" points="31,115 71,69 75,11" />
<polygon fill="#3b4443" fill-opacity="0.501961" points="138,121 143,115 144,122" />
<polygon fill="#755243" fill-opacity="0.501961" points="99,96 102,97 95,103" />
<polygon fill="#636a6e" fill-opacity="0.501961" points="136,63 146,83 145,50" />
<polygon fill="#443021" fill-opacity="0.501961" points="106,76 113,68 107,68" />
<polygon fill="#413028" fill-opacity="0.501961" points="81,91 79,105 87,108" />
<polygon fill="#2e190e" fill-opacity="0.501961" points="111,106 108,106 108,103" />
<polygon fill="#7b503e" fill-opacity="0.501961" points="106,90 111,87 114,104" />
<polygon fill="#707978" fill-opacity="0.501961" points="143,111 148,129 191,137" />
<polygon fill="#7d5443" fill-opacity="0.501961" points="84,93 93,95 89,103" />
<polygon fill="#b54f47" fill-opacity="0.501961" points="131,70 118,66 138,81" />
<polygon fill="#3d2419" fill-opacity="0.501961" points="87,118 94,122 91,114" />
<polygon fill="#6d7275" fill-opacity="0.501961" points="153,57 169,39 216,46" />
<polygon fill="#715034" fill-opacity="0.501961" points="120,92 121,104 114,91" />
<polygon fill="#261006" fill-opacity="0.501961" points="139,110 142,100 139,97" />
<polygon fill="#231c1f" fill-opacity="0.501961" points="100,64 73,75 101,53" />
<polygon fill="#1c1919" fill-opacity="0.501961" points="79,76 37,114 72,98" />
<polygon fill="#171113" fill-opacity="0.501961" points="-16,-16 17,-11 -6,23" />
<polygon fill="#0f0904" fill-opacity="0.501961" points="97,106 78,121 75,114" />
<polygon fill="#2d2e30" fill-opacity="0.501961" points="135,83 136,90 128,84" />
<polygon fill="#161209" fill-opacity="0.501961" points="203,19 208,21 194,23" />
<polygon fill="#7d8481" fill-opacity="0.501961" points="218,122 192,131 152,105" />
<polygon fill="#a37460" fill-opacity="0.501961" points="108,100 114,107 127,108" />
<polygon fill="#2a170e" fill-opacity="0.501961" points="98,128 111,138 101,137" />
<polygon fill="#757c76" fill-opacity="0.501961" points="215,47 226,132 239,75" />
<polygon fill="#603f2e" fill-opacity="0.501961" points="96,78 106,82 95,81" />
<polygon fill="#150d09" fill-opacity="0.501961" points="77,93 75,88 92,93" />
<polygon fill="#855b45" fill-opacity="0.501961" points="127,87 133,86 133,94" />
<polygon fill="#2a292a" fill-opacity="0.501961" points="105,53 67,58 66,76" />
<polygon fill="#3d1c18" fill-opacity="0.501961" points="109,122 102,113 112,116" />
<polygon fill="#8f5e4a" fill-opacity="0.501961" points="102,105 115,105 119,113" />
<polygon fill="#100d09" fill-opacity="0.501961" points="140,111 137,129 123,129" />
<polygon fill="#0e0c09" fill-opacity="0.501961" points="114,84 109,82 121,82" />
<polygon fill="#000000" fill-opacity="0.501961" points="200,3 199,-10 205,-16" />
<polygon fill="#25221f" fill-opacity="0.501961" points="57,34 41,73 1,99" />
<polygon fill="#b0816c" fill-opacity="0.501961" points="115,106 125,108 118,113" />
<polygon fill="#676a65" fill-opacity="0.501961" points="214,30 271,71 271,105" />
<polygon fill="#060601" fill-opacity="0.501961" points="140,142 115,139 125,132" />
<polygon fill="#1c1c13" fill-opacity="0.501961" points="100,85 97,88 94,81" />
<polygon fill="#6a706c" fill-opacity="0.501961" points="218,141 243,140 271,99" />
<polygon fill="#4b4646" fill-opacity="0.501961" points="168,11 200,-14 194,17" />
<polygon fill="#1d1a18" fill-opacity="0.501961" points="103,-12 82,-16 76,28" />
<polygon fill="#632924" fill-opacity="0.501961" points="101,61 98,69 89,73" />
<polygon fill="#5d6563" fill-opacity="0.501961" points="137,139 141,131 150,140" />
<polygon fill="#79504b" fill-opacity="0.501961" points="148,99 146,82 142,94" />
<polygon fill="#403b3a" fill-opacity="0.501961" points="237,-9 141,11 168,-16" />
<polygon fill="#744c44" fill-opacity="0.501961" points="106,60 118,56 113,54" />
<polygon fill="#848a8b" fill-opacity="0.501961" points="206,75 160,74 164,110" />
<polygon fill="#18110b" fill-opacity="0.501961" points="94,108 118,118 107,108" />
<polygon fill="#3f3226" fill-opacity="0.501961" points="122,123 140,107 133,118" />
<polygon fill="#545a5e" fill-opacity="0.501961" points="128,45 164,20 159,35" />
<polygon fill="#1c150d" fill-opacity="0.501961" points="120,134 125,123 107,141" />
<polygon fill="#91614b" fill-opacity="0.501961" points="92,104 93,96 87,104" />
<polygon fill="#2b261e" fill-opacity="0.501961" points="122,82 117,84 126,84" />
<polygon fill="#7c533d" fill-opacity="0.501961" points="110,131 114,132 111,127" />
<polygon fill="#997a70" fill-opacity="0.501961" points="135,63 130,59 136,70" />
<polygon fill="#56392c" fill-opacity="0.501961" points="84,96 97,95 81,92" />
<polygon fill="#030200" fill-opacity="0.501961" points="85,72 92,75 80,74" />
<polygon fill="#282329" fill-opacity="0.501961" points="92,12 140,-16 113,13" />
<polygon fill="#141109" fill-opacity="0.501961" points="234,18 227,17 243,13" />
<polygon fill="#c0c8be" fill-opacity="0.501961" points="119,59 120,56 121,60" />
<polygon fill="#312e29" fill-opacity="0.501961" points="0,94 5,62 32,35" />
<polygon fill="#2b2925" fill-opacity="0.501961" points="19,70 56,26 44,-3" />
<polygon fill="#110504" fill-opacity="0.501961" points="49,141 -15,140 12,118" />
<polygon fill="#464643" fill-opacity="0.501961" points="232,14 219,13 216,17" />
<polygon fill="#636766" fill-opacity="0.501961" points="228,41 157,38 206,27" />
<polygon fill="#8d4843" fill-opacity="0.501961" points="139,71 125,63 143,87" />
<polygon fill="#6d6055" fill-opacity="0.501961" points="114,49 119,47 117,54" />
<polygon fill="#70787d" fill-opacity="0.501961" points="141,65 169,51 148,89" />
<polygon fill="#763c37" fill-opacity="0.501961" points="116,65 122,62 110,60" />
<polygon fill="#865a49" fill-opacity="0.501961" points="113,72 111,75 123,79" />
<polygon fill="#71655c" fill-opacity="0.501961" points="129,83 126,85 122,79" />
<polygon fill="#2a160c" fill-opacity="0.501961" points="218,14 213,1 248,8" />
<polygon fill="#563628" fill-opacity="0.501961" points="111,137 110,129 102,129" />
<polygon fill="#2a2c2c" fill-opacity="0.501961" points="137,135 134,133 138,129" />
<polygon fill="#5a3425" fill-opacity="0.501961" points="90,107 95,97 94,105" />
<polygon fill="#525150" fill-opacity="0.501961" points="149,25 196,8 191,22" />
<polygon fill="#0d0602" fill-opacity="0.501961" points="102,91 104,80 106,84" />
<polygon fill="#a28376" fill-opacity="0.501961" points="117,78 114,81 127,82" />
<polygon fill="#17120c" fill-opacity="0.501961" points="226,16 217,21 205,20" />
<polygon fill="#231e1d" fill-opacity="0.501961" points="50,-16 3,8 -16,56" />
<polygon fill="#33241c" fill-opacity="0.501961" points="99,91 105,89 99,97" />
<polygon fill="#0c0702" fill-opacity="0.501961" points="76,101 85,81 80,75" />
<polygon fill="#2f1f1d" fill-opacity="0.501961" points="86,75 84,83 83,75" />
<polygon fill="#191210" fill-opacity="0.501961" points="61,106 38,118 62,131" />
<polygon fill="#7c8285" fill-opacity="0.501961" points="150,76 177,55 207,68" />
<polygon fill="#5b4d40" fill-opacity="0.501961" points="103,74 110,81 98,75" />
<polygon fill="#474548" fill-opacity="0.501961" points="140,23 112,50 106,40" />
<polygon fill="#53534f" fill-opacity="0.501961" points="82,142 56,151 34,142" />
<polygon fill="#362418" fill-opacity="0.501961" points="83,122 84,127 91,128" />
<polygon fill="#79817a" fill-opacity="0.501961" points="226,81 196,141 231,109" />
<polygon fill="#843f3a" fill-opacity="0.501961" points="147,102 140,108 145,95" />
<polygon fill="#534f4e" fill-opacity="0.501961" points="271,38 257,15 233,22" />
<polygon fill="#6b706c" fill-opacity="0.501961" points="179,37 248,67 221,40" />
<polygon fill="#452b15" fill-opacity="0.501961" points="116,101 117,99 120,100" />
<polygon fill="#33313e" fill-opacity="0.501961" points="149,-15 110,22 182,-16" />
<polygon fill="#bf514a" fill-opacity="0.501961" points="137,80 138,86 141,87" />
<polygon fill="#6a6d69" fill-opacity="0.501961" points="135,63 125,49 145,65" />
<polygon fill="#8b6651" fill-opacity="0.501961" points="120,119 134,109 125,103" />
<polygon fill="#15110d" fill-opacity="0.501961" points="105,73 100,72 106,69" />
<polygon fill="#3a4341" fill-opacity="0.501961" points="265,128 270,139 248,143" />
<polygon fill="#774f3e" fill-opacity="0.501961" points="115,74 121,71 105,68" />
<polygon fill="#030301" fill-opacity="0.501961" points="55,140 78,91 73,140" />
<polygon fill="#484844" fill-opacity="0.501961" points="207,16 211,18 203,18" />
<polygon fill="#7a8182" fill-opacity="0.501961" points="148,101 150,72 171,128" />
<polygon fill="#3a3b47" fill-opacity="0.501961" points="137,20 106,38 137,3" />
<polygon fill="#828984" fill-opacity="0.501961" points="197,64 192,126 214,93" />
<polygon fill="#1a1714" fill-opacity="0.501961" points="19,116 24,99 -16,123" />
<polygon fill="#2f1611" fill-opacity="0.501961" points="84,121 102,110 86,114" />
<polygon fill="#312f2b" fill-opacity="0.501961" points="45,6 28,25 23,50" />
<polygon fill="#26221f" fill-opacity="0.501961" points="132,87 131,81 141,89" />
<polygon fill="#1d130c" fill-opacity="0.501961" points="206,20 194,24 196,20" />
<polygon fill="#523c2c" fill-opacity="0.501961" points="103,82 100,82 103,86" />
<polygon fill="#8e4039" fill-opacity="0.501961" points="111,62 98,68 126,64" />
<polygon fill="#492321" fill-opacity="0.501961" points="107,113 107,119 104,118" />
<polygon fill="#221d1e" fill-opacity="0.501961" points="102,59 72,72 89,71" />
<polygon fill="#2d1c14" fill-opacity="0.501961" points="98,130 96,140 109,127" />
<polygon fill="#402c1e" fill-opacity="0.501961" points="117,90 122,88 131,92" />
<polygon fill="#1e1008" fill-opacity="0.501961" points="88,73 92,75 84,86" />
<polygon fill="#32312b" fill-opacity="0.501961" points="27,99 41,91 49,63" />
<polygon fill="#4d2f29" fill-opacity="0.501961" points="111,47 112,52 117,55" />
<polygon fill="#666863" fill-opacity="0.501961" points="166,150 218,159 213,141" />
<polygon fill="#868e88" fill-opacity="0.501961" points="132,57 129,56 128,57" />
<polygon fill="#272220" fill-opacity="0.501961" points="29,29 46,-9 19,12" />
<polygon fill="#665d57" fill-opacity="0.501961" points="111,50 112,54 104,60" />
<polygon fill="#1d211f" fill-opacity="0.501961" points="141,141 139,142 134,139" />
<polygon fill="#a26d59" fill-opacity="0.501961" points="108,93 112,102 108,99" />
<polygon fill="#3e2e1a" fill-opacity="0.501961" points="132,104 129,102 133,100" />
<polygon fill="#6e716c" fill-opacity="0.501961" points="221,47 258,110 251,70" />
<polygon fill="#29160c" fill-opacity="0.501961" points="227,12 201,17 202,7" />
<polygon fill="#3f3625" fill-opacity="0.501961" points="127,89 134,99 122,94" />
<polygon fill="#2e2923" fill-opacity="0.501961" points="94,73 97,76 104,74" />
<polygon fill="#302e2f" fill-opacity="0.501961" points="83,48 109,51 79,64" />
<polygon fill="#3a3333" fill-opacity="0.501961" points="89,49 96,37 111,56" />
<polygon fill="#47403e" fill-opacity="0.501961" points="120,51 106,48 113,47" />
<polygon fill="#85857c" fill-opacity="0.501961" points="123,46 122,47 121,47" />
<polygon fill="#080907" fill-opacity="0.501961" points="135,119 139,125 128,139" />
<polygon fill="#150f09" fill-opacity="0.501961" points="77,98 78,126 83,116" />
<polygon fill="#33312c" fill-opacity="0.501961" points="200,142 194,159 231,159" />
<polygon fill="#5c4a48" fill-opacity="0.501961" points="123,50 126,56 131,56" />
</g>
</svg>