<svg xmlns="http://www.w3.org/2000/svg" version="1.1" width="564" height="1024">
<rect x="0" y="0" width="564" height="1024" fill="#6e5949" />
<g transform="scale(4.000000) translate(0.5 0.5)">
<polygon fill="#448eec" fill-opacity="0.501961" points="156,4 111,164 34,-16" />
<polygon fill="#000000" fill-opacity="0.501961" points="101,139 -16,213 51,88" />
<polygon fill="#dd812e" fill-opacity="0.501961" points="74,252 101,107 149,238" />
<polygon fill="#000000" fill-opacity="0.501961" points="132,61 156,43 67,44" />
<polygon fill="#b06802" fill-opacity="0.501961" points="63,109 -16,148 12,-16" />
<polygon fill="#ffed7f" fill-opacity="0.501961" points="18,211 31,241 -16,246" />
<polygon fill="#000000" fill-opacity="0.501961" points="92,112 -16,246 25,124" />
<polygon fill="#6b2c07" fill-opacity="0.501961" points="102,225 24,247 75,95" />
<polygon fill="#beb8c0" fill-opacity="0.501961" points="106,143 99,58 50,52" />
<polygon fill="#529aff" fill-opacity="0.501961" points="52,46 51,-4 156,-1" />
<polygon fill="#6b0a00" fill-opacity="0.501961" points="156,245 119,271 95,213" />
<polygon fill="#000000" fill-opacity="0.501961" points="102,44 48,55 44,40" />
<polygon fill="#496b8c" fill-opacity="0.501961" points="85,51 150,56 138,159" />
<polygon fill="#000000" fill-opacity="0.501961" points="100,142 80,102 80,165" />
<polygon fill="#673c00" fill-opacity="0.501961" points="52,69 -16,7 49,-16" />
<polygon fill="#fbec90" fill-opacity="0.501961" points="103,233 79,219 81,253" />
<polygon fill="#e88229" fill-opacity="0.501961" points="13,189 48,173 62,198" />
<polygon fill="#3d1e00" fill-opacity="0.501961" points="68,238 -16,148 35,244" />
<polygon fill="#4693ff" fill-opacity="0.501961" points="52,49 91,57 53,73" />
<polygon fill="#ffaf69" fill-opacity="0.501961" points="137,218 106,227 126,175" />
<polygon fill="#9bced4" fill-opacity="0.501961" points="135,138 109,118 156,115" />
<polygon fill="#d08657" fill-opacity="0.501961" points="63,65 87,72 77,151" />
<polygon fill="#ad772d" fill-opacity="0.501961" points="45,109 43,-13 -16,175" />
<polygon fill="#000000" fill-opacity="0.501961" points="74,145 -5,196 53,103" />
<polygon fill="#af7038" fill-opacity="0.501961" points="76,152 104,218 51,155" />
<polygon fill="#588fe6" fill-opacity="0.501961" points="125,44 53,41 66,-16" />
<polygon fill="#45576e" fill-opacity="0.501961" points="103,63 107,162 156,61" />
<polygon fill="#ca590e" fill-opacity="0.501961" points="21,271 -16,265 -15,153" />
<polygon fill="#402318" fill-opacity="0.501961" points="48,122 45,69 97,125" />
<polygon fill="#311117" fill-opacity="0.501961" points="65,182 57,201 117,237" />
<polygon fill="#ffec93" fill-opacity="0.501961" points="26,232 10,215 16,252" />
<polygon fill="#000000" fill-opacity="0.501961" points="42,8 49,-15 49,34" />
<polygon fill="#020000" fill-opacity="0.501961" points="122,54 146,44 88,45" />
<polygon fill="#2b60a3" fill-opacity="0.501961" points="103,42 152,47 138,-16" />
<polygon fill="#840f00" fill-opacity="0.501961" points="109,81 117,70 106,60" />
<polygon fill="#591f22" fill-opacity="0.501961" points="119,179 54,164 53,184" />
<polygon fill="#e6ba54" fill-opacity="0.501961" points="104,152 94,118 103,89" />
<polygon fill="#e2965a" fill-opacity="0.501961" points="130,178 83,171 90,155" />
<polygon fill="#bc8b3e" fill-opacity="0.501961" points="27,252 51,271 83,234" />
<polygon fill="#b83800" fill-opacity="0.501961" points="156,225 121,221 132,271" />
<polygon fill="#7dafd0" fill-opacity="0.501961" points="130,115 110,114 115,141" />
<polygon fill="#638bca" fill-opacity="0.501961" points="54,50 96,54 114,96" />
<polygon fill="#fac350" fill-opacity="0.501961" points="72,151 77,161 75,135" />
<polygon fill="#0f0600" fill-opacity="0.501961" points="63,42 96,51 43,51" />
<polygon fill="#925502" fill-opacity="0.501961" points="-16,158 22,125 9,173" />
<polygon fill="#030000" fill-opacity="0.501961" points="20,129 88,115 11,183" />
<polygon fill="#7e561e" fill-opacity="0.501961" points="149,217 111,149 156,154" />
<polygon fill="#3d0900" fill-opacity="0.501961" points="111,234 130,243 105,271" />
<polygon fill="#000000" fill-opacity="0.501961" points="77,171 98,141 83,111" />
<polygon fill="#5a0000" fill-opacity="0.501961" points="50,224 69,239 80,221" />
<polygon fill="#763d16" fill-opacity="0.501961" points="61,130 86,100 53,107" />
<polygon fill="#00010a" fill-opacity="0.501961" points="45,45 47,85 52,63" />
<polygon fill="#80665d" fill-opacity="0.501961" points="100,213 34,214 55,201" />
<polygon fill="#9e6a5a" fill-opacity="0.501961" points="62,68 51,95 75,101" />
<polygon fill="#e79151" fill-opacity="0.501961" points="112,216 76,192 116,205" />
<polygon fill="#ffa34f" fill-opacity="0.501961" points="60,195 47,174 36,180" />
<polygon fill="#100000" fill-opacity="0.501961" points="-16,157 -16,219 18,210" />
<polygon fill="#f1aa98" fill-opacity="0.501961" points="66,67 83,67 76,103" />
<polygon fill="#103058" fill-opacity="0.501961" points="145,119 156,103 106,106" />
<polygon fill="#270701" fill-opacity="0.501961" points="14,244 10,247 8,232" />
<polygon fill="#f79333" fill-opacity="0.501961" points="33,199 45,208 32,188" />
<polygon fill="#f2b06b" fill-opacity="0.501961" points="19,217 -10,225 33,239" />
<polygon fill="#9f7736" fill-opacity="0.501961" points="106,259 113,211 77,271" />
<polygon fill="#63280c" fill-opacity="0.501961" points="45,206 31,184 85,209" />
<polygon fill="#48310e" fill-opacity="0.501961" points="51,233 18,171 41,271" />
<polygon fill="#f2d199" fill-opacity="0.501961" points="22,262 28,248 66,271" />
<polygon fill="#c78355" fill-opacity="0.501961" points="77,177 93,196 147,196" />
<polygon fill="#000000" fill-opacity="0.501961" points="119,143 112,140 103,145" />
<polygon fill="#958c7c" fill-opacity="0.501961" points="131,138 156,152 111,149" />
<polygon fill="#a07130" fill-opacity="0.501961" points="43,0 45,108 5,151" />
<polygon fill="#6597c5" fill-opacity="0.501961" points="83,110 95,60 97,121" />
<polygon fill="#7a4d16" fill-opacity="0.501961" points="33,-16 38,57 -16,44" />
<polygon fill="#fade99" fill-opacity="0.501961" points="114,95 98,91 112,90" />
<polygon fill="#000000" fill-opacity="0.501961" points="46,95 50,169 62,135" />
<polygon fill="#edc251" fill-opacity="0.501961" points="81,123 77,139 75,123" />
<polygon fill="#5681c4" fill-opacity="0.501961" points="53,52 87,72 130,54" />
<polygon fill="#ffe7a1" fill-opacity="0.501961" points="8,233 20,244 13,211" />
<polygon fill="#6b5a38" fill-opacity="0.501961" points="94,157 93,143 129,163" />
<polygon fill="#ffffff" fill-opacity="0.501961" points="57,35 53,31 50,33" />
<polygon fill="#4a1508" fill-opacity="0.501961" points="109,202 114,196 95,197" />
<polygon fill="#140000" fill-opacity="0.501961" points="23,250 4,259 34,271" />
<polygon fill="#000200" fill-opacity="0.501961" points="49,144 72,153 75,123" />
<polygon fill="#0f0900" fill-opacity="0.501961" points="109,227 88,224 89,214" />
<polygon fill="#edca65" fill-opacity="0.501961" points="69,244 100,228 83,224" />
<polygon fill="#3875c2" fill-opacity="0.501961" points="107,36 129,30 104,-16" />
<polygon fill="#281600" fill-opacity="0.501961" points="85,176 80,166 102,180" />
<polygon fill="#cb7e10" fill-opacity="0.501961" points="55,164 54,156 78,160" />
<polygon fill="#ca925d" fill-opacity="0.501961" points="117,165 104,176 99,134" />
<polygon fill="#adc49a" fill-opacity="0.501961" points="154,133 112,132 134,124" />
<polygon fill="#0e0400" fill-opacity="0.501961" points="131,54 156,45 103,45" />
<polygon fill="#110a00" fill-opacity="0.501961" points="121,52 98,44 81,51" />
<polygon fill="#af6537" fill-opacity="0.501961" points="51,108 75,119 81,112" />
<polygon fill="#ba8320" fill-opacity="0.501961" points="52,233 52,226 41,219" />
<polygon fill="#000000" fill-opacity="0.501961" points="11,174 25,129 53,173" />
<polygon fill="#4689e1" fill-opacity="0.501961" points="102,120 140,119 124,112" />
<polygon fill="#b47639" fill-opacity="0.501961" points="63,209 34,182 45,202" />
<polygon fill="#3d5471" fill-opacity="0.501961" points="156,85 101,95 110,116" />
<polygon fill="#230000" fill-opacity="0.501961" points="67,219 78,214 49,214" />
<polygon fill="#6e4f25" fill-opacity="0.501961" points="17,181 11,196 36,180" />
<polygon fill="#84450c" fill-opacity="0.501961" points="98,242 102,220 131,227" />
<polygon fill="#d49258" fill-opacity="0.501961" points="86,213 122,196 146,213" />
<polygon fill="#461010" fill-opacity="0.501961" points="91,208 58,186 67,209" />
<polygon fill="#573d16" fill-opacity="0.501961" points="123,174 128,160 110,149" />
<polygon fill="#a3712d" fill-opacity="0.501961" points="47,119 43,45 -16,113" />
<polygon fill="#a88e66" fill-opacity="0.501961" points="108,244 104,264 75,242" />
<polygon fill="#6f282b" fill-opacity="0.501961" points="52,180 80,162 76,209" />
<polygon fill="#54230e" fill-opacity="0.501961" points="59,218 55,196 42,184" />
<polygon fill="#9e7c3a" fill-opacity="0.501961" points="28,238 25,207 20,220" />
<polygon fill="#301702" fill-opacity="0.501961" points="76,110 55,99 82,104" />
<polygon fill="#502b13" fill-opacity="0.501961" points="94,156 104,160 115,157" />
<polygon fill="#fba35f" fill-opacity="0.501961" points="120,178 127,210 129,176" />
<polygon fill="#709eb0" fill-opacity="0.501961" points="89,112 98,113 97,131" />
<polygon fill="#c2c175" fill-opacity="0.501961" points="20,249 10,255 11,248" />
<polygon fill="#1f2423" fill-opacity="0.501961" points="43,46 50,27 52,74" />
<polygon fill="#61290f" fill-opacity="0.501961" points="121,183 118,175 93,175" />
<polygon fill="#281700" fill-opacity="0.501961" points="35,241 16,259 27,241" />
<polygon fill="#000300" fill-opacity="0.501961" points="90,116 95,132 75,121" />
<polygon fill="#223445" fill-opacity="0.501961" points="122,141 119,133 135,133" />
<polygon fill="#ffc650" fill-opacity="0.501961" points="101,119 97,99 103,99" />
<polygon fill="#000000" fill-opacity="0.501961" points="7,217 9,199 16,208" />
<polygon fill="#6e2a12" fill-opacity="0.501961" points="105,66 105,83 117,64" />
<polygon fill="#b77f60" fill-opacity="0.501961" points="70,85 78,96 70,111" />
<polygon fill="#5f2f00" fill-opacity="0.501961" points="8,221 -3,164 -16,221" />
<polygon fill="#000000" fill-opacity="0.501961" points="50,-16 49,20 42,-4" />
<polygon fill="#331f02" fill-opacity="0.501961" points="24,223 40,239 34,201" />
<polygon fill="#6299e4" fill-opacity="0.501961" points="70,56 54,75 53,51" />
<polygon fill="#6a1500" fill-opacity="0.501961" points="51,243 54,221 75,235" />
<polygon fill="#000000" fill-opacity="0.501961" points="76,161 92,153 83,131" />
<polygon fill="#010000" fill-opacity="0.501961" points="88,250 57,268 73,271" />
<polygon fill="#6780ab" fill-opacity="0.501961" points="122,85 94,91 90,71" />
<polygon fill="#bab1a5" fill-opacity="0.501961" points="40,214 50,212 40,211" />
<polygon fill="#5f7e92" fill-opacity="0.501961" points="107,141 104,116 128,125" />
<polygon fill="#ead29f" fill-opacity="0.501961" points="94,241 100,227 87,231" />
<polygon fill="#3e5e86" fill-opacity="0.501961" points="156,55 156,106 102,53" />
<polygon fill="#305589" fill-opacity="0.501961" points="141,-1 126,45 156,43" />
<polygon fill="#050301" fill-opacity="0.501961" points="5,179 40,179 65,131" />
<polygon fill="#744914" fill-opacity="0.501961" points="-6,-16 -15,67 44,1" />
<polygon fill="#cd9b45" fill-opacity="0.501961" points="72,148 74,158 80,135" />
<polygon fill="#5c8dd8" fill-opacity="0.501961" points="105,-16 98,43 51,40" />
<polygon fill="#9dbdb0" fill-opacity="0.501961" points="112,127 117,141 120,126" />
<polygon fill="#dd9e5a" fill-opacity="0.501961" points="93,158 81,167 110,161" />
<polygon fill="#a26d3c" fill-opacity="0.501961" points="121,223 110,232 96,205" />
<polygon fill="#4b1a00" fill-opacity="0.501961" points="121,263 124,247 102,224" />
<polygon fill="#79614e" fill-opacity="0.501961" points="77,242 80,265 36,253" />
<polygon fill="#ffeb9b" fill-opacity="0.501961" points="26,240 11,238 16,244" />
<polygon fill="#513206" fill-opacity="0.501961" points="0,191 17,157 -16,182" />
<polygon fill="#b88019" fill-opacity="0.501961" points="81,237 43,243 69,246" />
<polygon fill="#100801" fill-opacity="0.501961" points="52,125 74,125 71,156" />
<polygon fill="#ac806f" fill-opacity="0.501961" points="58,214 58,203 68,210" />
<polygon fill="#81a6bf" fill-opacity="0.501961" points="86,97 97,117 82,109" />
<polygon fill="#e68056" fill-opacity="0.501961" points="3,221 -14,245 9,244" />
<polygon fill="#e6f5de" fill-opacity="0.501961" points="122,63 118,63 119,60" />
<polygon fill="#211908" fill-opacity="0.501961" points="65,50 89,42 45,43" />
<polygon fill="#be862e" fill-opacity="0.501961" points="79,163 73,149 73,166" />
<polygon fill="#8c5e24" fill-opacity="0.501961" points="11,86 45,47 32,-9" />
<polygon fill="#070703" fill-opacity="0.501961" points="81,111 82,140 90,116" />
<polygon fill="#7c4b33" fill-opacity="0.501961" points="97,174 49,174 76,164" />
<polygon fill="#e4c08a" fill-opacity="0.501961" points="7,225 22,215 11,213" />
<polygon fill="#848995" fill-opacity="0.501961" points="121,9 138,8 122,4" />
<polygon fill="#846038" fill-opacity="0.501961" points="156,270 156,109 127,174" />
<polygon fill="#832e00" fill-opacity="0.501961" points="112,232 124,222 140,271" />
<polygon fill="#925f21" fill-opacity="0.501961" points="14,162 -16,151 18,118" />
<polygon fill="#3f1013" fill-opacity="0.501961" points="67,196 73,221 74,194" />
<polygon fill="#efc467" fill-opacity="0.501961" points="101,126 106,148 99,146" />
<polygon fill="#401300" fill-opacity="0.501961" points="39,198 46,199 36,188" />
<polygon fill="#d2b37b" fill-opacity="0.501961" points="126,68 132,68 129,71" />
<polygon fill="#0c0b0b" fill-opacity="0.501961" points="60,156 32,164 28,177" />
<polygon fill="#050200" fill-opacity="0.501961" points="35,122 63,116 10,189" />
<polygon fill="#999e92" fill-opacity="0.501961" points="80,210 85,211 74,215" />
<polygon fill="#a2906c" fill-opacity="0.501961" points="88,219 72,219 85,224" />
<polygon fill="#030000" fill-opacity="0.501961" points="-4,196 11,213 9,177" />
<polygon fill="#b05f00" fill-opacity="0.501961" points="3,271 9,244 -9,247" />
<polygon fill="#261800" fill-opacity="0.501961" points="101,214 78,215 100,221" />
<polygon fill="#594328" fill-opacity="0.501961" points="54,231 44,253 19,245" />
<polygon fill="#caa143" fill-opacity="0.501961" points="33,235 26,239 32,240" />
<polygon fill="#64463f" fill-opacity="0.501961" points="45,92 55,74 55,100" />
<polygon fill="#59181f" fill-opacity="0.501961" points="58,177 82,188 64,209" />
<polygon fill="#c55417" fill-opacity="0.501961" points="129,243 156,241 134,221" />
<polygon fill="#e08738" fill-opacity="0.501961" points="34,183 39,179 48,197" />
<polygon fill="#6f6048" fill-opacity="0.501961" points="15,203 25,217 29,209" />
<polygon fill="#a85d06" fill-opacity="0.501961" points="110,238 93,244 102,231" />
<polygon fill="#402408" fill-opacity="0.501961" points="15,214 30,186 27,205" />
<polygon fill="#a16731" fill-opacity="0.501961" points="87,186 73,207 83,173" />
<polygon fill="#9d6a27" fill-opacity="0.501961" points="8,153 42,103 -15,52" />
<polygon fill="#2c486b" fill-opacity="0.501961" points="138,58 134,107 156,94" />
<polygon fill="#e18c4d" fill-opacity="0.501961" points="60,194 51,174 45,185" />
<polygon fill="#340600" fill-opacity="0.501961" points="52,204 49,209 42,204" />
<polygon fill="#b1770f" fill-opacity="0.501961" points="41,216 39,223 46,222" />
<polygon fill="#dd9255" fill-opacity="0.501961" points="107,202 133,194 139,224" />
<polygon fill="#253b3c" fill-opacity="0.501961" points="114,134 109,133 110,145" />
<polygon fill="#868684" fill-opacity="0.501961" points="96,207 85,214 100,211" />
<polygon fill="#8c777a" fill-opacity="0.501961" points="54,222 64,219 73,222" />
<polygon fill="#af8b42" fill-opacity="0.501961" points="18,245 8,248 26,251" />
<polygon fill="#d2e6f2" fill-opacity="0.501961" points="57,32 53,36 51,29" />
<polygon fill="#000000" fill-opacity="0.501961" points="17,142 16,165 38,121" />
<polygon fill="#401e0e" fill-opacity="0.501961" points="60,198 64,209 97,208" />
<polygon fill="#898376" fill-opacity="0.501961" points="102,154 94,144 134,144" />
<polygon fill="#ae7f44" fill-opacity="0.501961" points="32,54 43,88 43,50" />
<polygon fill="#b08b37" fill-opacity="0.501961" points="56,161 57,155 65,152" />
<polygon fill="#1d0b00" fill-opacity="0.501961" points="28,211 39,208 39,218" />
<polygon fill="#bbd69e" fill-opacity="0.501961" points="135,127 134,137 156,120" />
<polygon fill="#e4e1d4" fill-opacity="0.501961" points="85,91 91,94 88,89" />
<polygon fill="#c7845f" fill-opacity="0.501961" points="100,187 115,179 114,189" />
<polygon fill="#6d2b2b" fill-opacity="0.501961" points="95,196 52,166 53,184" />
<polygon fill="#5e1300" fill-opacity="0.501961" points="78,231 61,221 62,242" />
<polygon fill="#4479be" fill-opacity="0.501961" points="98,44 118,34 123,-16" />
<polygon fill="#1d0f00" fill-opacity="0.501961" points="39,234 47,227 28,233" />
<polygon fill="#a98451" fill-opacity="0.501961" points="53,201 43,203 47,196" />
<polygon fill="#7a9eb1" fill-opacity="0.501961" points="99,135 96,109 90,113" />
<polygon fill="#351100" fill-opacity="0.501961" points="42,211 54,219 45,218" />
<polygon fill="#5b8ee0" fill-opacity="0.501961" points="134,-16 51,-11 52,31" />
<polygon fill="#48230c" fill-opacity="0.501961" points="65,131 53,121 76,123" />
<polygon fill="#688dc9" fill-opacity="0.501961" points="103,54 102,85 72,53" />
<polygon fill="#101309" fill-opacity="0.501961" points="136,141 156,135 156,143" />
<polygon fill="#daa140" fill-opacity="0.501961" points="79,236 65,240 87,245" />
<polygon fill="#bb663f" fill-opacity="0.501961" points="7,223 -6,226 10,234" />
<polygon fill="#47260c" fill-opacity="0.501961" points="113,181 81,170 93,181" />
<polygon fill="#d59d47" fill-opacity="0.501961" points="97,107 103,118 100,136" />
<polygon fill="#a56d19" fill-opacity="0.501961" points="72,157 74,166 57,165" />
<polygon fill="#c57d42" fill-opacity="0.501961" points="118,204 86,198 117,226" />
<polygon fill="#543f20" fill-opacity="0.501961" points="90,157 96,156 99,145" />
<polygon fill="#a66e40" fill-opacity="0.501961" points="106,182 89,194 75,179" />
<polygon fill="#b8a793" fill-opacity="0.501961" points="46,209 51,214 43,214" />
<polygon fill="#daa08b" fill-opacity="0.501961" points="61,67 83,94 80,68" />
<polygon fill="#314d76" fill-opacity="0.501961" points="103,101 114,99 105,120" />
<polygon fill="#553a0e" fill-opacity="0.501961" points="47,225 33,231 32,217" />
<polygon fill="#846a4c" fill-opacity="0.501961" points="50,271 84,251 65,241" />
<polygon fill="#221f17" fill-opacity="0.501961" points="46,66 51,77 51,48" />
<polygon fill="#000000" fill-opacity="0.501961" points="112,142 118,143 108,144" />
<polygon fill="#c0b089" fill-opacity="0.501961" points="132,193 156,199 156,209" />
<polygon fill="#8e8d8b" fill-opacity="0.501961" points="117,102 123,103 120,107" />
<polygon fill="#543628" fill-opacity="0.501961" points="140,207 138,195 133,195" />
<polygon fill="#060401" fill-opacity="0.501961" points="79,136 82,166 97,136" />
<polygon fill="#5d6275" fill-opacity="0.501961" points="104,80 105,90 113,90" />
<polygon fill="#684a0f" fill-opacity="0.501961" points="66,152 59,157 66,157" />
<polygon fill="#e3c07d" fill-opacity="0.501961" points="99,244 105,246 108,243" />
<polygon fill="#c98641" fill-opacity="0.501961" points="84,167 91,172 91,155" />
<polygon fill="#4d1901" fill-opacity="0.501961" points="44,185 50,192 42,188" />
<polygon fill="#18130e" fill-opacity="0.501961" points="84,102 77,103 74,109" />
<polygon fill="#97764b" fill-opacity="0.501961" points="43,4 43,36 38,20" />
<polygon fill="#96875f" fill-opacity="0.501961" points="17,186 20,182 15,185" />
<polygon fill="#020100" fill-opacity="0.501961" points="51,101 36,156 51,168" />
<polygon fill="#000000" fill-opacity="0.501961" points="11,209 4,199 22,209" />
<polygon fill="#4e6f8b" fill-opacity="0.501961" points="103,79 137,97 135,75" />
<polygon fill="#c96f48" fill-opacity="0.501961" points="59,193 46,188 58,198" />
<polygon fill="#441300" fill-opacity="0.501961" points="109,243 125,245 108,262" />
<polygon fill="#5f4727" fill-opacity="0.501961" points="123,151 118,170 130,177" />
<polygon fill="#0d0800" fill-opacity="0.501961" points="128,52 151,44 156,54" />
<polygon fill="#446081" fill-opacity="0.501961" points="127,57 105,57 104,65" />
<polygon fill="#150d00" fill-opacity="0.501961" points="101,49 86,44 72,50" />
<polygon fill="#d8aa2d" fill-opacity="0.501961" points="81,231 80,217 84,223" />
<polygon fill="#5f8bcd" fill-opacity="0.501961" points="57,52 55,70 87,57" />
<polygon fill="#9d5925" fill-opacity="0.501961" points="30,194 47,209 39,209" />
<polygon fill="#4a2709" fill-opacity="0.501961" points="36,200 12,196 17,185" />
<polygon fill="#4d1e00" fill-opacity="0.501961" points="26,254 5,254 23,268" />
<polygon fill="#653514" fill-opacity="0.501961" points="7,235 7,228 9,234" />
<polygon fill="#28466c" fill-opacity="0.501961" points="145,54 146,63 121,63" />
<polygon fill="#745126" fill-opacity="0.501961" points="120,149 132,158 103,149" />
<polygon fill="#461709" fill-opacity="0.501961" points="48,221 54,225 48,211" />
<polygon fill="#050301" fill-opacity="0.501961" points="72,149 11,169 50,115" />
<polygon fill="#de915d" fill-opacity="0.501961" points="102,161 118,172 114,160" />
<polygon fill="#b0945a" fill-opacity="0.501961" points="17,205 14,207 21,206" />
<polygon fill="#723900" fill-opacity="0.501961" points="4,208 10,220 -16,215" />
<polygon fill="#ebbd6b" fill-opacity="0.501961" points="99,148 106,147 103,124" />
<polygon fill="#7d9493" fill-opacity="0.501961" points="111,120 139,134 110,131" />
<polygon fill="#12304f" fill-opacity="0.501961" points="135,34 129,33 130,37" />
<polygon fill="#c7953b" fill-opacity="0.501961" points="75,129 79,140 73,147" />
<polygon fill="#4f1001" fill-opacity="0.501961" points="117,70 105,64 114,64" />
<polygon fill="#a7762a" fill-opacity="0.501961" points="36,120 44,118 44,93" />
<polygon fill="#835a1b" fill-opacity="0.501961" points="52,226 39,237 51,235" />
<polygon fill="#f9da92" fill-opacity="0.501961" points="9,219 11,237 26,242" />
<polygon fill="#4870ac" fill-opacity="0.501961" points="139,-1 122,-3 138,34" />
<polygon fill="#3b0e08" fill-opacity="0.501961" points="61,219 56,208 54,216" />
<polygon fill="#2f2e35" fill-opacity="0.501961" points="37,163 33,167 32,175" />
<polygon fill="#5788d1" fill-opacity="0.501961" points="67,34 61,17 122,24" />
<polygon fill="#d58455" fill-opacity="0.501961" points="78,115 69,112 79,112" />
<polygon fill="#ae7b46" fill-opacity="0.501961" points="79,184 82,173 83,189" />
<polygon fill="#dabe82" fill-opacity="0.501961" points="14,213 22,227 20,216" />
<polygon fill="#827565" fill-opacity="0.501961" points="118,138 156,146 129,156" />
<polygon fill="#988b94" fill-opacity="0.501961" points="61,214 70,211 69,214" />
<polygon fill="#6f6250" fill-opacity="0.501961" points="28,215 15,210 23,218" />
<polygon fill="#112335" fill-opacity="0.501961" points="147,81 138,113 148,122" />
<polygon fill="#e29341" fill-opacity="0.501961" points="30,190 39,205 37,196" />
<polygon fill="#462800" fill-opacity="0.501961" points="76,166 60,166 68,169" />
<polygon fill="#7f96b8" fill-opacity="0.501961" points="100,69 103,83 83,103" />
<polygon fill="#7a5429" fill-opacity="0.501961" points="100,207 100,219 110,231" />
<polygon fill="#85acbb" fill-opacity="0.501961" points="126,121 144,117 131,128" />
<polygon fill="#4a121b" fill-opacity="0.501961" points="66,213 63,193 69,200" />
<polygon fill="#a0643d" fill-opacity="0.501961" points="109,196 84,189 97,197" />
<polygon fill="#ff9315" fill-opacity="0.501961" points="56,159 55,162 64,159" />
<polygon fill="#572221" fill-opacity="0.501961" points="63,199 73,207 83,164" />
<polygon fill="#e49858" fill-opacity="0.501961" points="133,202 122,222 120,176" />
<polygon fill="#130500" fill-opacity="0.501961" points="6,204 21,208 5,215" />
<polygon fill="#2d1a06" fill-opacity="0.501961" points="30,246 40,239 21,244" />
<polygon fill="#764f41" fill-opacity="0.501961" points="58,98 59,70 52,79" />
<polygon fill="#6f8cb1" fill-opacity="0.501961" points="101,98 87,97 106,93" />
<polygon fill="#bb9860" fill-opacity="0.501961" points="91,245 78,239 79,254" />
<polygon fill="#4e75a9" fill-opacity="0.501961" points="117,29 117,44 136,44" />
<polygon fill="#3d413f" fill-opacity="0.501961" points="50,21 49,39 44,38" />
<polygon fill="#0f0c09" fill-opacity="0.501961" points="80,137 87,114 100,139" />
</g>
</svg>