<svg xmlns="http://www.w3.org/2000/svg" version="1.1" width="576" height="1024">
<rect x="0" y="0" width="576" height="1024" fill="#876955" />
<g transform="scale(4.000000) translate(0.5 0.5)">
<polygon fill="#1f120f" fill-opacity="0.501961" points="88,99 -15,271 69,271" />
<polygon fill="#ffdc89" fill-opacity="0.501961" points="2,246 51,118 -16,185" />
<polygon fill="#ffa266" fill-opacity="0.501961" points="133,70 89,227 82,74" />
<polygon fill="#b4b59f" fill-opacity="0.501961" points="5,105 -16,1 142,-15" />
<polygon fill="#102435" fill-opacity="0.501961" points="129,111 159,250 85,271" />
<polygon fill="#162e3f" fill-opacity="0.501961" points="31,19 159,37 95,47" />
<polygon fill="#ef906b" fill-opacity="0.501961" points="159,122 61,120 98,53" />
<polygon fill="#160809" fill-opacity="0.501961" points="59,115 74,74 11,142" />
<polygon fill="#170b07" fill-opacity="0.501961" points="24,194 46,139 85,115" />
<polygon fill="#fd8d51" fill-opacity="0.501961" points="102,150 90,271 62,256" />
<polygon fill="#3c1407" fill-opacity="0.501961" points="31,271 84,206 89,110" />
<polygon fill="#ffa871" fill-opacity="0.501961" points="7,237 44,121 -16,186" />
<polygon fill="#464742" fill-opacity="0.501961" points="96,49 94,74 10,40" />
<polygon fill="#c5b399" fill-opacity="0.501961" points="-16,26 159,4 15,-16" />
<polygon fill="#b2a083" fill-opacity="0.501961" points="-16,98 45,108 79,57" />
<polygon fill="#6c6c62" fill-opacity="0.501961" points="5,236 63,136 73,169" />
<polygon fill="#524340" fill-opacity="0.501961" points="94,206 151,192 159,49" />
<polygon fill="#ffc190" fill-opacity="0.501961" points="68,95 95,71 69,125" />
<polygon fill="#4e0006" fill-opacity="0.501961" points="122,86 116,67 116,104" />
<polygon fill="#673733" fill-opacity="0.501961" points="-10,192 -16,99 37,111" />
<polygon fill="#798380" fill-opacity="0.501961" points="159,7 61,9 149,43" />
<polygon fill="#23353c" fill-opacity="0.501961" points="103,54 148,61 131,73" />
<polygon fill="#faa16f" fill-opacity="0.501961" points="124,120 98,45 105,155" />
<polygon fill="#ffce88" fill-opacity="0.501961" points="39,254 25,261 32,247" />
<polygon fill="#39352f" fill-opacity="0.501961" points="93,234 111,144 117,215" />
<polygon fill="#d38154" fill-opacity="0.501961" points="-4,170 73,121 38,123" />
<polygon fill="#30180e" fill-opacity="0.501961" points="35,244 62,271 73,161" />
<polygon fill="#4f4d49" fill-opacity="0.501961" points="37,174 -12,271 44,224" />
<polygon fill="#311c15" fill-opacity="0.501961" points="99,140 46,149 58,125" />
<polygon fill="#ffba81" fill-opacity="0.501961" points="41,134 0,242 -16,205" />
<polygon fill="#b89a6c" fill-opacity="0.501961" points="81,51 117,46 53,38" />
<polygon fill="#a55937" fill-opacity="0.501961" points="60,253 90,159 88,212" />
<polygon fill="#502d27" fill-opacity="0.501961" points="68,87 97,65 89,50" />
<polygon fill="#7d443c" fill-opacity="0.501961" points="123,120 159,133 107,159" />
<polygon fill="#e98f76" fill-opacity="0.501961" points="108,65 123,66 138,95" />
<polygon fill="#c37752" fill-opacity="0.501961" points="83,73 87,164 109,84" />
<polygon fill="#1a212b" fill-opacity="0.501961" points="71,25 89,42 119,40" />
<polygon fill="#a79073" fill-opacity="0.501961" points="-16,110 -16,39 89,65" />
<polygon fill="#b8a483" fill-opacity="0.501961" points="121,-16 159,20 48,2" />
<polygon fill="#c4ad8c" fill-opacity="0.501961" points="64,40 -16,34 -16,12" />
<polygon fill="#455259" fill-opacity="0.501961" points="159,34 139,16 99,14" />
<polygon fill="#322316" fill-opacity="0.501961" points="12,153 26,126 -8,163" />
<polygon fill="#5b6265" fill-opacity="0.501961" points="15,21 66,33 45,20" />
<polygon fill="#837661" fill-opacity="0.501961" points="37,185 57,147 73,155" />
<polygon fill="#e69662" fill-opacity="0.501961" points="97,193 76,250 91,261" />
<polygon fill="#524a45" fill-opacity="0.501961" points="32,163 5,271 56,196" />
<polygon fill="#3b261f" fill-opacity="0.501961" points="28,123 68,96 58,121" />
<polygon fill="#f0aa74" fill-opacity="0.501961" points="56,128 33,153 46,124" />
<polygon fill="#9b9073" fill-opacity="0.501961" points="97,50 159,58 122,41" />
<polygon fill="#fcb085" fill-opacity="0.501961" points="75,80 70,125 90,85" />
<polygon fill="#807e6d" fill-opacity="0.501961" points="131,72 137,121 159,96" />
<polygon fill="#baa891" fill-opacity="0.501961" points="-16,13 117,26 10,-16" />
<polygon fill="#4b5158" fill-opacity="0.501961" points="114,18 95,9 78,12" />
<polygon fill="#4f524f" fill-opacity="0.501961" points="80,46 90,68 39,46" />
<polygon fill="#361c13" fill-opacity="0.501961" points="69,136 81,108 77,175" />
<polygon fill="#40494c" fill-opacity="0.501961" points="141,271 159,110 102,225" />
<polygon fill="#7b5450" fill-opacity="0.501961" points="26,105 44,137 14,108" />
<polygon fill="#ffa582" fill-opacity="0.501961" points="131,101 131,83 121,67" />
<polygon fill="#554a44" fill-opacity="0.501961" points="124,53 105,52 106,70" />
<polygon fill="#807566" fill-opacity="0.501961" points="86,62 7,40 57,71" />
<polygon fill="#464f57" fill-opacity="0.501961" points="97,26 45,22 85,38" />
<polygon fill="#b6694b" fill-opacity="0.501961" points="71,82 97,67 64,105" />
<polygon fill="#ac906e" fill-opacity="0.501961" points="41,44 77,34 88,46" />
<polygon fill="#ffb893" fill-opacity="0.501961" points="93,80 102,69 115,82" />
<polygon fill="#de8f60" fill-opacity="0.501961" points="95,208 113,140 89,159" />
<polygon fill="#574f48" fill-opacity="0.501961" points="26,271 32,209 -11,253" />
<polygon fill="#903e38" fill-opacity="0.501961" points="125,81 120,97 112,63" />
<polygon fill="#c37145" fill-opacity="0.501961" points="-16,181 23,140 5,177" />
<polygon fill="#5a433c" fill-opacity="0.501961" points="159,141 100,189 113,143" />
<polygon fill="#85452e" fill-opacity="0.501961" points="86,93 78,118 84,143" />
<polygon fill="#5e544b" fill-opacity="0.501961" points="159,176 98,142 121,167" />
<polygon fill="#3b2a28" fill-opacity="0.501961" points="83,69 84,76 62,81" />
<polygon fill="#24130c" fill-opacity="0.501961" points="82,130 68,127 43,156" />
<polygon fill="#4e565a" fill-opacity="0.501961" points="159,40 94,26 129,46" />
<polygon fill="#e45a40" fill-opacity="0.501961" points="127,120 130,91 122,105" />
<polygon fill="#2f180e" fill-opacity="0.501961" points="32,237 49,271 67,244" />
<polygon fill="#8d5a52" fill-opacity="0.501961" points="-16,106 45,107 31,121" />
<polygon fill="#989084" fill-opacity="0.501961" points="77,21 146,33 114,17" />
<polygon fill="#664937" fill-opacity="0.501961" points="78,144 100,142 88,135" />
<polygon fill="#5d3a29" fill-opacity="0.501961" points="38,187 17,213 38,154" />
<polygon fill="#bd7554" fill-opacity="0.501961" points="27,175 27,190 17,202" />
<polygon fill="#6f3924" fill-opacity="0.501961" points="68,253 72,215 50,271" />
<polygon fill="#ad977e" fill-opacity="0.501961" points="-16,89 50,98 -15,8" />
<polygon fill="#42261b" fill-opacity="0.501961" points="79,205 84,133 37,249" />
<polygon fill="#ffb981" fill-opacity="0.501961" points="3,238 20,203 -16,185" />
<polygon fill="#443225" fill-opacity="0.501961" points="104,238 97,210 92,267" />
<polygon fill="#9b906d" fill-opacity="0.501961" points="-16,167 9,143 -10,136" />
<polygon fill="#362726" fill-opacity="0.501961" points="86,77 85,55 92,52" />
<polygon fill="#f5a871" fill-opacity="0.501961" points="112,102 127,103 107,139" />
<polygon fill="#434745" fill-opacity="0.501961" points="154,81 114,60 159,58" />
<polygon fill="#d49b77" fill-opacity="0.501961" points="71,101 69,125 61,128" />
<polygon fill="#e5976e" fill-opacity="0.501961" points="121,66 86,74 70,101" />
<polygon fill="#9d8d76" fill-opacity="0.501961" points="49,1 110,5 71,14" />
<polygon fill="#e89764" fill-opacity="0.501961" points="33,134 27,177 40,148" />
<polygon fill="#83533c" fill-opacity="0.501961" points="48,122 23,138 38,121" />
<polygon fill="#3a2b24" fill-opacity="0.501961" points="66,81 56,123 43,114" />
<polygon fill="#9b8976" fill-opacity="0.501961" points="57,91 46,108 -14,89" />
<polygon fill="#7d4f46" fill-opacity="0.501961" points="128,120 159,125 114,142" />
<polygon fill="#6e6458" fill-opacity="0.501961" points="32,191 47,161 67,172" />
<polygon fill="#fc9b63" fill-opacity="0.501961" points="28,251 36,250 40,263" />
<polygon fill="#c49e67" fill-opacity="0.501961" points="25,57 11,68 53,58" />
<polygon fill="#ffcba0" fill-opacity="0.501961" points="75,118 76,92 83,96" />
<polygon fill="#b39261" fill-opacity="0.501961" points="136,55 159,50 113,44" />
<polygon fill="#e89768" fill-opacity="0.501961" points="99,140 99,92 129,118" />
<polygon fill="#978f83" fill-opacity="0.501961" points="31,13 -1,22 56,22" />
<polygon fill="#ca6a52" fill-opacity="0.501961" points="98,51 94,65 93,57" />
<polygon fill="#726652" fill-opacity="0.501961" points="126,70 155,69 136,84" />
<polygon fill="#a23d25" fill-opacity="0.501961" points="95,88 108,88 98,84" />
<polygon fill="#e89463" fill-opacity="0.501961" points="93,146 109,150 93,194" />
<polygon fill="#202026" fill-opacity="0.501961" points="114,35 113,44 85,36" />
<polygon fill="#bc9053" fill-opacity="0.501961" points="33,74 60,74 23,85" />
<polygon fill="#a05e3f" fill-opacity="0.501961" points="83,181 93,190 87,148" />
<polygon fill="#ea9462" fill-opacity="0.501961" points="-6,178 26,147 -4,199" />
<polygon fill="#b8a488" fill-opacity="0.501961" points="70,-16 144,18 65,5" />
<polygon fill="#e09465" fill-opacity="0.501961" points="85,222 100,188 88,191" />
<polygon fill="#714530" fill-opacity="0.501961" points="59,128 52,121 65,104" />
<polygon fill="#33241c" fill-opacity="0.501961" points="52,133 59,141 42,166" />
<polygon fill="#402f26" fill-opacity="0.501961" points="34,125 16,132 6,153" />
<polygon fill="#a3654c" fill-opacity="0.501961" points="74,80 92,76 99,65" />
<polygon fill="#b86a44" fill-opacity="0.501961" points="72,251 89,198 73,217" />
<polygon fill="#85745b" fill-opacity="0.501961" points="120,8 142,14 153,7" />
<polygon fill="#6d6d67" fill-opacity="0.501961" points="43,42 17,46 17,38" />
<polygon fill="#d2885e" fill-opacity="0.501961" points="82,102 113,154 98,88" />
<polygon fill="#756d63" fill-opacity="0.501961" points="90,47 127,49 123,59" />
<polygon fill="#978773" fill-opacity="0.501961" points="63,47 97,48 62,31" />
<polygon fill="#d5a360" fill-opacity="0.501961" points="68,41 47,44 53,37" />
<polygon fill="#c73f31" fill-opacity="0.501961" points="121,102 114,100 120,92" />
<polygon fill="#ffb278" fill-opacity="0.501961" points="38,147 21,150 10,201" />
<polygon fill="#f29d69" fill-opacity="0.501961" points="93,246 81,251 77,238" />
<polygon fill="#fc9985" fill-opacity="0.501961" points="134,107 128,105 133,113" />
<polygon fill="#b48c51" fill-opacity="0.501961" points="49,73 69,75 86,65" />
<polygon fill="#583232" fill-opacity="0.501961" points="113,155 148,142 159,163" />
<polygon fill="#84786c" fill-opacity="0.501961" points="55,87 30,83 74,73" />
<polygon fill="#bfaf96" fill-opacity="0.501961" points="32,-3 159,9 92,-16" />
<polygon fill="#96877a" fill-opacity="0.501961" points="8,83 70,67 36,62" />
<polygon fill="#555a5c" fill-opacity="0.501961" points="148,21 127,26 98,11" />
<polygon fill="#414544" fill-opacity="0.501961" points="115,155 96,269 127,271" />
<polygon fill="#706658" fill-opacity="0.501961" points="55,192 72,156 61,145" />
<polygon fill="#8a7a64" fill-opacity="0.501961" points="134,117 133,85 159,125" />
<polygon fill="#28190f" fill-opacity="0.501961" points="27,245 42,236 45,250" />
<polygon fill="#fd9d81" fill-opacity="0.501961" points="104,58 104,68 99,51" />
<polygon fill="#f7a385" fill-opacity="0.501961" points="127,79 121,96 131,90" />
<polygon fill="#c4705d" fill-opacity="0.501961" points="108,74 124,66 104,67" />
<polygon fill="#512519" fill-opacity="0.501961" points="116,82 116,92 122,82" />
<polygon fill="#d0b38a" fill-opacity="0.501961" points="-10,0 58,6 -1,-16" />
<polygon fill="#ffa58a" fill-opacity="0.501961" points="96,73 108,87 116,79" />
<polygon fill="#f2a874" fill-opacity="0.501961" points="118,122 105,121 114,83" />
<polygon fill="#595e5f" fill-opacity="0.501961" points="29,22 57,21 48,27" />
<polygon fill="#2d2822" fill-opacity="0.501961" points="55,215 43,216 64,181" />
<polygon fill="#c5a571" fill-opacity="0.501961" points="28,47 -16,59 -14,47" />
<polygon fill="#aea090" fill-opacity="0.501961" points="61,37 -8,32 -16,10" />
<polygon fill="#d69466" fill-opacity="0.501961" points="14,204 24,191 13,222" />
<polygon fill="#c27048" fill-opacity="0.501961" points="85,203 70,242 87,237" />
<polygon fill="#5f513e" fill-opacity="0.501961" points="53,142 41,137 45,141" />
<polygon fill="#4b4944" fill-opacity="0.501961" points="97,49 137,64 110,62" />
<polygon fill="#d4a765" fill-opacity="0.501961" points="-13,64 17,65 -2,70" />
<polygon fill="#f1ad74" fill-opacity="0.501961" points="54,130 52,121 44,136" />
<polygon fill="#6c4431" fill-opacity="0.501961" points="14,226 -3,263 -16,262" />
<polygon fill="#563827" fill-opacity="0.501961" points="102,223 95,222 100,196" />
<polygon fill="#3f2f28" fill-opacity="0.501961" points="55,121 68,77 47,108" />
<polygon fill="#4f3b34" fill-opacity="0.501961" points="33,121 32,127 42,134" />
<polygon fill="#ae9162" fill-opacity="0.501961" points="-16,30 -15,43 30,37" />
<polygon fill="#3a2a21" fill-opacity="0.501961" points="33,188 44,161 36,164" />
<polygon fill="#774d45" fill-opacity="0.501961" points="159,122 117,148 121,122" />
<polygon fill="#bf4c39" fill-opacity="0.501961" points="123,119 126,95 129,110" />
<polygon fill="#484e4e" fill-opacity="0.501961" points="48,54 40,46 71,51" />
<polygon fill="#a48357" fill-opacity="0.501961" points="85,51 109,45 89,43" />
<polygon fill="#504d48" fill-opacity="0.501961" points="33,241 -16,263 62,179" />
<polygon fill="#aa9067" fill-opacity="0.501961" points="43,-16 1,-3 62,3" />
<polygon fill="#c4b8ae" fill-opacity="0.501961" points="102,139 99,140 108,147" />
<polygon fill="#6fad93" fill-opacity="0.501961" points="62,148 58,150 57,147" />
<polygon fill="#c07651" fill-opacity="0.501961" points="27,144 42,147 41,143" />
<polygon fill="#7f7970" fill-opacity="0.501961" points="159,45 138,22 105,17" />
<polygon fill="#e17f57" fill-opacity="0.501961" points="102,88 117,91 115,83" />
<polygon fill="#767876" fill-opacity="0.501961" points="86,15 64,11 88,9" />
<polygon fill="#475056" fill-opacity="0.501961" points="62,24 115,29 77,36" />
<polygon fill="#cb815a" fill-opacity="0.501961" points="90,113 103,140 86,134" />
<polygon fill="#55544f" fill-opacity="0.501961" points="118,157 115,178 156,165" />
<polygon fill="#e29061" fill-opacity="0.501961" points="110,147 95,135 122,121" />
<polygon fill="#bd6f4c" fill-opacity="0.501961" points="81,109 91,118 88,87" />
<polygon fill="#684a41" fill-opacity="0.501961" points="74,139 75,148 70,142" />
<polygon fill="#b37858" fill-opacity="0.501961" points="71,107 60,124 70,92" />
<polygon fill="#9c9184" fill-opacity="0.501961" points="-16,68 20,50 36,58" />
<polygon fill="#503a31" fill-opacity="0.501961" points="43,149 69,126 54,132" />
<polygon fill="#a36546" fill-opacity="0.501961" points="85,164 92,142 86,138" />
<polygon fill="#eb9d71" fill-opacity="0.501961" points="73,86 71,101 110,74" />
<polygon fill="#694540" fill-opacity="0.501961" points="-16,123 12,139 25,126" />
<polygon fill="#855851" fill-opacity="0.501961" points="39,112 8,103 -16,132" />
<polygon fill="#343633" fill-opacity="0.501961" points="104,201 117,180 116,155" />
<polygon fill="#3b2826" fill-opacity="0.501961" points="82,73 92,66 91,52" />
<polygon fill="#7d6b58" fill-opacity="0.501961" points="54,151 42,169 70,150" />
<polygon fill="#ad6747" fill-opacity="0.501961" points="53,121 47,120 41,128" />
<polygon fill="#ada090" fill-opacity="0.501961" points="51,22 58,9 105,20" />
<polygon fill="#885340" fill-opacity="0.501961" points="70,80 79,76 65,103" />
<polygon fill="#40281d" fill-opacity="0.501961" points="80,178 70,148 83,118" />
<polygon fill="#9c9182" fill-opacity="0.501961" points="94,25 105,18 126,29" />
<polygon fill="#603624" fill-opacity="0.501961" points="83,181 81,203 65,223" />
<polygon fill="#9b8669" fill-opacity="0.501961" points="93,8 109,7 95,3" />
<polygon fill="#493d33" fill-opacity="0.501961" points="53,191 27,185 28,192" />
<polygon fill="#474949" fill-opacity="0.501961" points="117,165 99,245 143,251" />
<polygon fill="#a1886e" fill-opacity="0.501961" points="131,101 135,108 159,99" />
<polygon fill="#a65d3a" fill-opacity="0.501961" points="71,227 78,271 67,256" />
<polygon fill="#d98c65" fill-opacity="0.501961" points="95,87 70,88 100,67" />
<polygon fill="#8d7b63" fill-opacity="0.501961" points="68,53 37,76 49,55" />
<polygon fill="#e09560" fill-opacity="0.501961" points="34,248 34,256 29,249" />
<polygon fill="#d68f6e" fill-opacity="0.501961" points="126,78 117,64 122,64" />
<polygon fill="#54534b" fill-opacity="0.501961" points="55,48 88,51 84,61" />
<polygon fill="#fcb982" fill-opacity="0.501961" points="5,236 19,196 -16,232" />
<polygon fill="#f89e84" fill-opacity="0.501961" points="122,101 123,88 131,84" />
<polygon fill="#988475" fill-opacity="0.501961" points="-14,99 3,90 31,106" />
<polygon fill="#8c4438" fill-opacity="0.501961" points="118,71 114,74 124,87" />
<polygon fill="#cf6856" fill-opacity="0.501961" points="122,76 119,98 126,83" />
<polygon fill="#3b291e" fill-opacity="0.501961" points="12,145 -15,183 -16,167" />
<polygon fill="#9d6b4d" fill-opacity="0.501961" points="63,112 56,128 61,128" />
<polygon fill="#b9a792" fill-opacity="0.501961" points="-16,0 70,6 25,17" />
<polygon fill="#402117" fill-opacity="0.501961" points="64,243 36,250 75,162" />
<polygon fill="#cd8256" fill-opacity="0.501961" points="87,180 100,195 90,171" />
<polygon fill="#af987f" fill-opacity="0.501961" points="22,84 52,89 38,96" />
<polygon fill="#23130d" fill-opacity="0.501961" points="76,136 76,125 59,146" />
<polygon fill="#77726a" fill-opacity="0.501961" points="89,44 78,51 54,44" />
<polygon fill="#7d6a5e" fill-opacity="0.501961" points="134,98 159,99 132,75" />
<polygon fill="#7a6f5d" fill-opacity="0.501961" points="154,123 128,118 136,109" />
<polygon fill="#64443e" fill-opacity="0.501961" points="119,134 148,149 109,153" />
<polygon fill="#84847d" fill-opacity="0.501961" points="58,20 65,24 49,21" />
<polygon fill="#f3a371" fill-opacity="0.501961" points="114,116 109,108 129,102" />
<polygon fill="#8f563a" fill-opacity="0.501961" points="2,159 11,157 17,144" />
<polygon fill="#837e74" fill-opacity="0.501961" points="15,19 27,26 33,19" />
<polygon fill="#8e8b7f" fill-opacity="0.501961" points="63,12 66,8 49,8" />
<polygon fill="#6d4632" fill-opacity="0.501961" points="20,220 7,234 20,208" />
<polygon fill="#f0b688" fill-opacity="0.501961" points="44,136 47,129 41,130" />
<polygon fill="#333a3d" fill-opacity="0.501961" points="116,202 156,209 159,198" />
<polygon fill="#34211a" fill-opacity="0.501961" points="89,137 63,132 52,142" />
<polygon fill="#44433f" fill-opacity="0.501961" points="38,264 4,261 19,242" />
<polygon fill="#676762" fill-opacity="0.501961" points="148,61 127,58 159,52" />
<polygon fill="#eb6953" fill-opacity="0.501961" points="127,105 130,113 130,103" />
<polygon fill="#8c7e71" fill-opacity="0.501961" points="121,54 104,47 137,50" />
<polygon fill="#796e68" fill-opacity="0.501961" points="37,123 34,125 41,132" />
<polygon fill="#352c27" fill-opacity="0.501961" points="50,105 23,129 59,112" />
<polygon fill="#965d3d" fill-opacity="0.501961" points="94,229 96,242 91,240" />
<polygon fill="#5a5b59" fill-opacity="0.501961" points="159,49 118,41 159,35" />
<polygon fill="#9d8e7e" fill-opacity="0.501961" points="-16,73 59,63 15,84" />
<polygon fill="#5c544b" fill-opacity="0.501961" points="19,238 0,254 24,209" />
<polygon fill="#9b7e60" fill-opacity="0.501961" points="102,142 93,137 99,137" />
<polygon fill="#a99f89" fill-opacity="0.501961" points="135,7 127,0 159,1" />
<polygon fill="#dba37f" fill-opacity="0.501961" points="73,121 64,125 71,106" />
<polygon fill="#4d332b" fill-opacity="0.501961" points="70,76 60,88 62,111" />
<polygon fill="#3d3a36" fill-opacity="0.501961" points="32,241 48,204 45,225" />
<polygon fill="#375334" fill-opacity="0.501961" points="136,0 159,0 136,-11" />
<polygon fill="#8e8675" fill-opacity="0.501961" points="19,41 -1,35 10,44" />
<polygon fill="#bd815c" fill-opacity="0.501961" points="18,207 24,197 23,185" />
<polygon fill="#fd8d78" fill-opacity="0.501961" points="127,115 118,115 127,119" />
<polygon fill="#fdb078" fill-opacity="0.501961" points="27,147 -16,220 14,206" />
<polygon fill="#34251a" fill-opacity="0.501961" points="40,164 46,142 58,145" />
<polygon fill="#383533" fill-opacity="0.501961" points="98,209 101,235 110,187" />
<polygon fill="#4a4940" fill-opacity="0.501961" points="106,64 117,64 106,55" />
<polygon fill="#9b573a" fill-opacity="0.501961" points="78,113 82,106 88,119" />
<polygon fill="#353532" fill-opacity="0.501961" points="3,103 -16,123 -16,141" />
<polygon fill="#913425" fill-opacity="0.501961" points="118,89 116,96 118,103" />
<polygon fill="#7c5848" fill-opacity="0.501961" points="52,137 55,130 45,140" />
<polygon fill="#656458" fill-opacity="0.501961" points="110,161 113,165 110,174" />
<polygon fill="#2b292b" fill-opacity="0.501961" points="117,37 98,43 116,43" />
<polygon fill="#7a7366" fill-opacity="0.501961" points="57,56 24,45 37,56" />
<polygon fill="#bd7556" fill-opacity="0.501961" points="70,86 77,83 71,94" />
<polygon fill="#c37a52" fill-opacity="0.501961" points="84,191 85,201 92,187" />
<polygon fill="#404244" fill-opacity="0.501961" points="142,68 149,61 122,65" />
<polygon fill="#c98a5c" fill-opacity="0.501961" points="25,174 27,179 30,166" />
<polygon fill="#7f4a34" fill-opacity="0.501961" points="85,161 82,151 85,141" />
<polygon fill="#555367" fill-opacity="0.501961" points="40,254 45,259 22,267" />
<polygon fill="#c79a5a" fill-opacity="0.501961" points="23,80 31,83 37,76" />
<polygon fill="#807467" fill-opacity="0.501961" points="62,66 85,65 57,58" />
<polygon fill="#55504b" fill-opacity="0.501961" points="35,186 16,222 50,199" />
<polygon fill="#b94130" fill-opacity="0.501961" points="125,102 128,94 123,99" />
<polygon fill="#ffb395" fill-opacity="0.501961" points="132,100 132,97 130,100" />
<polygon fill="#c1754d" fill-opacity="0.501961" points="107,159 101,159 105,172" />
<polygon fill="#484f53" fill-opacity="0.501961" points="143,20 120,16 137,24" />
<polygon fill="#1c140e" fill-opacity="0.501961" points="62,266 52,271 34,242" />
<polygon fill="#57392c" fill-opacity="0.501961" points="54,117 38,125 30,121" />
<polygon fill="#553836" fill-opacity="0.501961" points="95,65 98,63 89,64" />
<polygon fill="#857861" fill-opacity="0.501961" points="54,3 60,3 57,-1" />
<polygon fill="#cc7f65" fill-opacity="0.501961" points="128,83 115,68 124,73" />
<polygon fill="#4f3023" fill-opacity="0.501961" points="58,124 54,116 50,118" />
<polygon fill="#b69f80" fill-opacity="0.501961" points="67,38 36,40 48,33" />
<polygon fill="#d08759" fill-opacity="0.501961" points="98,196 95,210 94,198" />
<polygon fill="#f0a36e" fill-opacity="0.501961" points="96,188 95,202 90,195" />
<polygon fill="#7f7974" fill-opacity="0.501961" points="57,30 68,39 82,37" />
<polygon fill="#b6754f" fill-opacity="0.501961" points="95,229 94,217 91,232" />
<polygon fill="#50595c" fill-opacity="0.501961" points="97,15 106,13 88,11" />
<polygon fill="#b59e8a" fill-opacity="0.501961" points="2,81 -15,89 21,85" />
<polygon fill="#e99175" fill-opacity="0.501961" points="97,56 101,69 102,54" />
<polygon fill="#6e6254" fill-opacity="0.501961" points="44,187 41,173 53,152" />
<polygon fill="#75452c" fill-opacity="0.501961" points="-16,175 8,154 -16,195" />
<polygon fill="#43251a" fill-opacity="0.501961" points="56,212 55,265 82,175" />
<polygon fill="#6f4641" fill-opacity="0.501961" points="158,148 139,120 132,142" />
<polygon fill="#7e7f7b" fill-opacity="0.501961" points="77,25 65,21 65,25" />
<polygon fill="#463834" fill-opacity="0.501961" points="19,134 13,131 10,124" />
<polygon fill="#7d5147" fill-opacity="0.501961" points="27,108 46,107 15,134" />
<polygon fill="#4f392b" fill-opacity="0.501961" points="27,187 24,206 37,181" />
<polygon fill="#8e877d" fill-opacity="0.501961" points="144,18 123,15 145,12" />
<polygon fill="#97553b" fill-opacity="0.501961" points="123,113 129,115 125,109" />
<polygon fill="#c49b68" fill-opacity="0.501961" points="68,38 80,43 57,42" />
</g>
</svg>