<svg xmlns="http://www.w3.org/2000/svg" version="1.1" width="1024" height="572">
<rect x="0" y="0" width="1024" height="572" fill="#94664f" />
<g transform="scale(4.000000) translate(0.5 0.5)">
<polygon fill="#ffa76f" fill-opacity="0.501961" points="124,-4 242,-4 178,151" />
<polygon fill="#0d0b0a" fill-opacity="0.501961" points="150,151 153,36 64,114" />
<polygon fill="#ffcc81" fill-opacity="0.501961" points="-5,137 47,153 98,53" />
<polygon fill="#09090d" fill-opacity="0.501961" points="127,-16 110,43 10,100" />
<polygon fill="#302b37" fill-opacity="0.501961" points="236,40 178,157 271,137" />
<polygon fill="#ffd6a7" fill-opacity="0.501961" points="156,-16 104,61 131,61" />
<polygon fill="#aaad99" fill-opacity="0.501961" points="113,-16 -16,7 80,34" />
<polygon fill="#5b3a3a" fill-opacity="0.501961" points="-10,23 1,142 76,33" />
<polygon fill="#251c16" fill-opacity="0.501961" points="147,70 48,158 98,68" />
<polygon fill="#7c7f70" fill-opacity="0.501961" points="61,158 107,92 130,127" />
<polygon fill="#ff9d6d" fill-opacity="0.501961" points="175,0 242,30 186,100" />
<polygon fill="#ffa36c" fill-opacity="0.501961" points="44,158 88,52 19,111" />
<polygon fill="#341b14" fill-opacity="0.501961" points="179,92 82,102 131,67" />
<polygon fill="#f8955c" fill-opacity="0.501961" points="160,158 201,158 154,89" />
<polygon fill="#33241f" fill-opacity="0.501961" points="73,46 117,-16 102,63" />
<polygon fill="#c88359" fill-opacity="0.501961" points="63,61 11,125 127,56" />
<polygon fill="#ffb88f" fill-opacity="0.501961" points="125,61 122,13 162,-16" />
<polygon fill="#770005" fill-opacity="0.501961" points="208,24 207,-16 218,-5" />
<polygon fill="#302114" fill-opacity="0.501961" points="24,110 49,62 -16,132" />
<polygon fill="#a55f41" fill-opacity="0.501961" points="172,74 151,151 146,20" />
<polygon fill="#74463f" fill-opacity="0.501961" points="216,56 190,126 271,57" />
<polygon fill="#3a1b13" fill-opacity="0.501961" points="118,86 144,158 145,28" />
<polygon fill="#808273" fill-opacity="0.501961" points="271,26 237,60 235,-16" />
<polygon fill="#3e2b22" fill-opacity="0.501961" points="74,98 106,66 69,156" />
<polygon fill="#a19484" fill-opacity="0.501961" points="-16,20 56,29 12,-16" />
<polygon fill="#ffb87f" fill-opacity="0.501961" points="71,81 45,154 -1,158" />
<polygon fill="#6e6657" fill-opacity="0.501961" points="76,135 124,93 123,158" />
<polygon fill="#bb4234" fill-opacity="0.501961" points="225,3 218,44 233,45" />
<polygon fill="#f8b984" fill-opacity="0.501961" points="104,66 81,86 72,70" />
<polygon fill="#5d4642" fill-opacity="0.501961" points="42,50 65,59 80,89" />
<polygon fill="#b9653d" fill-opacity="0.501961" points="6,158 41,86 -14,146" />
<polygon fill="#f7ab75" fill-opacity="0.501961" points="184,60 197,-16 217,54" />
<polygon fill="#998e6c" fill-opacity="0.501961" points="21,90 -14,128 -9,90" />
<polygon fill="#9f644a" fill-opacity="0.501961" points="125,-11 96,78 126,35" />
<polygon fill="#ff9484" fill-opacity="0.501961" points="238,21 214,9 232,-13" />
<polygon fill="#8f6158" fill-opacity="0.501961" points="-16,36 50,60 94,20" />
<polygon fill="#774d45" fill-opacity="0.501961" points="234,43 271,85 196,103" />
<polygon fill="#5d4637" fill-opacity="0.501961" points="174,92 211,115 210,131" />
<polygon fill="#ed9461" fill-opacity="0.501961" points="163,158 194,107 164,98" />
<polygon fill="#49403f" fill-opacity="0.501961" points="198,158 203,94 271,117" />
<polygon fill="#b25f42" fill-opacity="0.501961" points="157,-11 138,52 158,51" />
<polygon fill="#df9f7b" fill-opacity="0.501961" points="116,67 123,10 135,51" />
<polygon fill="#837561" fill-opacity="0.501961" points="108,100 82,128 127,113" />
<polygon fill="#463226" fill-opacity="0.501961" points="58,137 73,158 92,77" />
<polygon fill="#c13124" fill-opacity="0.501961" points="229,5 219,19 230,23" />
<polygon fill="#281812" fill-opacity="0.501961" points="144,82 86,108 131,57" />
<polygon fill="#351b11" fill-opacity="0.501961" points="136,96 122,144 140,147" />
<polygon fill="#535a55" fill-opacity="0.501961" points="231,158 198,119 271,130" />
<polygon fill="#d68f67" fill-opacity="0.501961" points="158,71 203,113 160,31" />
<polygon fill="#5a392a" fill-opacity="0.501961" points="109,84 96,56 105,36" />
<polygon fill="#807360" fill-opacity="0.501961" points="271,49 238,56 218,40" />
<polygon fill="#dd4640" fill-opacity="0.501961" points="209,24 215,-1 216,21" />
<polygon fill="#d2d1cc" fill-opacity="0.501961" points="186,92 178,92 195,104" />
<polygon fill="#ffbf99" fill-opacity="0.501961" points="127,36 147,19 133,53" />
<polygon fill="#f7a792" fill-opacity="0.501961" points="233,12 238,35 231,41" />
<polygon fill="#f4a472" fill-opacity="0.501961" points="193,25 226,22 201,72" />
<polygon fill="#482d23" fill-opacity="0.501961" points="148,56 119,104 148,101" />
<polygon fill="#b76a4a" fill-opacity="0.501961" points="44,97 81,94 63,101" />
<polygon fill="#ea8163" fill-opacity="0.501961" points="231,52 207,63 214,39" />
<polygon fill="#de8b5d" fill-opacity="0.501961" points="188,138 154,114 194,108" />
<polygon fill="#9e8b76" fill-opacity="0.501961" points="81,32 11,-16 -11,19" />
<polygon fill="#835641" fill-opacity="0.501961" points="75,114 61,126 80,89" />
<polygon fill="#474135" fill-opacity="0.501961" points="170,86 152,83 184,98" />
<polygon fill="#6f6154" fill-opacity="0.501961" points="99,105 72,145 134,158" />
<polygon fill="#4a352e" fill-opacity="0.501961" points="45,84 15,59 34,91" />
<polygon fill="#623b39" fill-opacity="0.501961" points="249,129 196,102 265,69" />
<polygon fill="#30251b" fill-opacity="0.501961" points="47,62 64,66 37,77" />
<polygon fill="#8e5940" fill-opacity="0.501961" points="69,56 62,71 95,54" />
<polygon fill="#e58e5d" fill-opacity="0.501961" points="-16,156 42,104 19,146" />
<polygon fill="#6a211d" fill-opacity="0.501961" points="221,-16 206,15 208,-5" />
<polygon fill="#ffa98d" fill-opacity="0.501961" points="217,25 233,-16 219,-16" />
<polygon fill="#f0a66d" fill-opacity="0.501961" points="79,92 69,76 47,91" />
<polygon fill="#ffb27a" fill-opacity="0.501961" points="24,158 72,97 43,102" />
<polygon fill="#d4835a" fill-opacity="0.501961" points="149,26 178,-15 187,97" />
<polygon fill="#402a1f" fill-opacity="0.501961" points="-16,154 29,91 -4,117" />
<polygon fill="#efa36f" fill-opacity="0.501961" points="79,80 86,57 101,69" />
<polygon fill="#726459" fill-opacity="0.501961" points="271,21 234,-16 237,14" />
<polygon fill="#e09161" fill-opacity="0.501961" points="213,66 196,104 166,74" />
<polygon fill="#72947d" fill-opacity="0.501961" points="101,103 91,113 119,101" />
<polygon fill="#9f876d" fill-opacity="0.501961" points="245,17 230,24 271,42" />
<polygon fill="#723a29" fill-opacity="0.501961" points="156,48 139,47 148,81" />
<polygon fill="#cf9170" fill-opacity="0.501961" points="125,62 119,26 113,67" />
<polygon fill="#292b27" fill-opacity="0.501961" points="209,123 200,146 203,115" />
<polygon fill="#231c16" fill-opacity="0.501961" points="125,78 158,83 138,86" />
<polygon fill="#753d28" fill-opacity="0.501961" points="146,134 149,102 159,158" />
<polygon fill="#794e48" fill-opacity="0.501961" points="270,52 255,93 216,59" />
<polygon fill="#b07c5b" fill-opacity="0.501961" points="152,66 181,92 151,79" />
<polygon fill="#504038" fill-opacity="0.501961" points="109,102 132,102 136,84" />
<polygon fill="#a63f29" fill-opacity="0.501961" points="227,43 219,41 226,27" />
<polygon fill="#835550" fill-opacity="0.501961" points="58,61 -16,60 15,21" />
<polygon fill="#3a2c26" fill-opacity="0.501961" points="94,20 54,60 101,52" />
<polygon fill="#af977f" fill-opacity="0.501961" points="89,-16 81,9 -6,0" />
<polygon fill="#6d6153" fill-opacity="0.501961" points="118,99 111,158 129,114" />
<polygon fill="#eb9162" fill-opacity="0.501961" points="205,-9 206,15 125,-7" />
<polygon fill="#875338" fill-opacity="0.501961" points="25,100 58,65 44,91" />
<polygon fill="#1c1507" fill-opacity="0.501961" points="128,97 131,113 120,97" />
<polygon fill="#4b3132" fill-opacity="0.501961" points="265,127 204,117 271,107" />
<polygon fill="#2c1f16" fill-opacity="0.501961" points="72,141 86,95 92,110" />
<polygon fill="#be7852" fill-opacity="0.501961" points="171,94 158,92 155,138" />
<polygon fill="#592f23" fill-opacity="0.501961" points="67,68 73,78 56,64" />
<polygon fill="#ab6848" fill-opacity="0.501961" points="163,47 152,67 146,27" />
<polygon fill="#4f372f" fill-opacity="0.501961" points="126,63 94,76 75,107" />
<polygon fill="#99887f" fill-opacity="0.501961" points="76,70 71,73 57,61" />
<polygon fill="#3f2f28" fill-opacity="0.501961" points="114,-16 83,36 96,57" />
<polygon fill="#31312e" fill-opacity="0.501961" points="-16,44 -16,63 7,23" />
<polygon fill="#6b443f" fill-opacity="0.501961" points="-16,66 16,93 44,68" />
<polygon fill="#c07b5c" fill-opacity="0.501961" points="127,-16 119,34 136,-2" />
<polygon fill="#847360" fill-opacity="0.501961" points="227,53 269,56 246,23" />
<polygon fill="#ce5851" fill-opacity="0.501961" points="211,12 215,-16 234,-16" />
<polygon fill="#96846d" fill-opacity="0.501961" points="14,22 98,11 81,31" />
<polygon fill="#22110a" fill-opacity="0.501961" points="124,85 137,48 137,79" />
<polygon fill="#936349" fill-opacity="0.501961" points="114,59 106,44 100,71" />
<polygon fill="#a0301e" fill-opacity="0.501961" points="214,21 206,12 207,19" />
<polygon fill="#5f3d32" fill-opacity="0.501961" points="111,40 121,9 110,21" />
<polygon fill="#ff847c" fill-opacity="0.501961" points="228,54 220,52 224,43" />
<polygon fill="#fcc199" fill-opacity="0.501961" points="134,46 151,7 133,17" />
<polygon fill="#f3a57a" fill-opacity="0.501961" points="178,-16 130,20 133,-14" />
<polygon fill="#5c4229" fill-opacity="0.501961" points="187,144 201,121 196,110" />
<polygon fill="#717261" fill-opacity="0.501961" points="200,112 202,130 196,138" />
<polygon fill="#714c43" fill-opacity="0.501961" points="248,93 215,59 208,104" />
<polygon fill="#8b5d55" fill-opacity="0.501961" points="10,24 -4,42 63,31" />
<polygon fill="#483328" fill-opacity="0.501961" points="67,121 70,158 83,90" />
<polygon fill="#c57b57" fill-opacity="0.501961" points="166,52 164,-16 149,37" />
<polygon fill="#cbbe9e" fill-opacity="0.501961" points="75,77 82,89 84,84" />
<polygon fill="#ef6c5c" fill-opacity="0.501961" points="231,22 227,43 233,40" />
<polygon fill="#804c31" fill-opacity="0.501961" points="17,110 4,132 -16,142" />
<polygon fill="#766454" fill-opacity="0.501961" points="129,118 70,148 93,110" />
<polygon fill="#4a3633" fill-opacity="0.501961" points="254,60 247,54 245,60" />
<polygon fill="#957e67" fill-opacity="0.501961" points="263,52 233,26 239,13" />
<polygon fill="#fdb37c" fill-opacity="0.501961" points="24,136 68,106 32,158" />
<polygon fill="#614033" fill-opacity="0.501961" points="198,104 206,110 211,77" />
<polygon fill="#834329" fill-opacity="0.501961" points="170,89 180,98 160,88" />
<polygon fill="#fca785" fill-opacity="0.501961" points="236,17 219,-9 233,2" />
<polygon fill="#5a554f" fill-opacity="0.501961" points="209,121 267,128 206,142" />
<polygon fill="#342c2d" fill-opacity="0.501961" points="28,75 25,67 15,62" />
<polygon fill="#7c5048" fill-opacity="0.501961" points="6,51 30,73 82,33" />
<polygon fill="#cd8254" fill-opacity="0.501961" points="68,66 93,56 75,73" />
<polygon fill="#aeafae" fill-opacity="0.501961" points="195,101 202,109 190,101" />
<polygon fill="#8f7b6c" fill-opacity="0.501961" points="11,12 32,3 -15,7" />
<polygon fill="#815249" fill-opacity="0.501961" points="214,68 256,85 229,52" />
<polygon fill="#f5a572" fill-opacity="0.501961" points="193,110 179,119 188,121" />
<polygon fill="#6f524a" fill-opacity="0.501961" points="120,104 123,95 130,89" />
<polygon fill="#b1704a" fill-opacity="0.501961" points="33,110 16,116 47,83" />
<polygon fill="#eda170" fill-opacity="0.501961" points="206,71 204,-3 179,45" />
<polygon fill="#db8b5e" fill-opacity="0.501961" points="169,-16 196,16 178,50" />
<polygon fill="#3a241c" fill-opacity="0.501961" points="115,67 91,94 121,100" />
<polygon fill="#3e241a" fill-opacity="0.501961" points="119,158 138,87 148,130" />
<polygon fill="#e99261" fill-opacity="0.501961" points="218,23 230,22 214,37" />
<polygon fill="#ca8455" fill-opacity="0.501961" points="68,75 60,70 39,95" />
<polygon fill="#7a6a5a" fill-opacity="0.501961" points="271,61 255,43 224,44" />
<polygon fill="#986545" fill-opacity="0.501961" points="152,85 150,104 169,93" />
<polygon fill="#6c4432" fill-opacity="0.501961" points="65,62 69,53 97,53" />
<polygon fill="#a7937e" fill-opacity="0.501961" points="20,12 13,24 -16,14" />
<polygon fill="#e59565" fill-opacity="0.501961" points="183,129 158,123 174,152" />
<polygon fill="#ffc2ab" fill-opacity="0.501961" points="234,41 237,34 235,31" />
<polygon fill="#32251c" fill-opacity="0.501961" points="80,90 99,105 86,107" />
<polygon fill="#dd5943" fill-opacity="0.501961" points="214,57 221,54 223,44" />
<polygon fill="#3f2d24" fill-opacity="0.501961" points="21,101 54,70 31,82" />
<polygon fill="#5a2f22" fill-opacity="0.501961" points="136,49 148,53 148,91" />
<polygon fill="#736e51" fill-opacity="0.501961" points="78,85 84,89 78,92" />
<polygon fill="#c47b54" fill-opacity="0.501961" points="151,79 176,57 167,83" />
<polygon fill="#b86a45" fill-opacity="0.501961" points="153,156 164,149 155,124" />
<polygon fill="#bd7249" fill-opacity="0.501961" points="-9,147 -3,158 19,119" />
<polygon fill="#c07951" fill-opacity="0.501961" points="194,115 183,154 182,135" />
<polygon fill="#935f49" fill-opacity="0.501961" points="118,31 124,16 120,0" />
<polygon fill="#f58665" fill-opacity="0.501961" points="225,28 215,20 215,9" />
<polygon fill="#bf8161" fill-opacity="0.501961" points="117,33 109,57 116,63" />
<polygon fill="#a83e2d" fill-opacity="0.501961" points="221,21 228,8 223,10" />
<polygon fill="#352725" fill-opacity="0.501961" points="44,64 60,62 66,69" />
<polygon fill="#e56550" fill-opacity="0.501961" points="230,0 226,9 230,22" />
<polygon fill="#a44f32" fill-opacity="0.501961" points="191,102 198,110 184,102" />
<polygon fill="#b57858" fill-opacity="0.501961" points="74,98 60,123 71,113" />
<polygon fill="#644537" fill-opacity="0.501961" points="83,102 66,119 77,98" />
<polygon fill="#675e54" fill-opacity="0.501961" points="76,142 118,150 124,129" />
<polygon fill="#de9464" fill-opacity="0.501961" points="191,44 174,83 189,97" />
<polygon fill="#46312a" fill-opacity="0.501961" points="107,36 95,15 123,-16" />
<polygon fill="#769f88" fill-opacity="0.501961" points="102,108 114,102 103,102" />
<polygon fill="#663c35" fill-opacity="0.501961" points="46,55 43,61 37,53" />
<polygon fill="#78503f" fill-opacity="0.501961" points="86,90 90,77 95,76" />
<polygon fill="#776657" fill-opacity="0.501961" points="87,156 123,106 98,106" />
<polygon fill="#e9c19a" fill-opacity="0.501961" points="85,80 71,72 77,79" />
<polygon fill="#66819c" fill-opacity="0.501961" points="54,61 57,63 60,63" />
<polygon fill="#b3583c" fill-opacity="0.501961" points="149,18 139,38 151,27" />
<polygon fill="#e39f6b" fill-opacity="0.501961" points="94,70 81,62 82,88" />
<polygon fill="#e3a680" fill-opacity="0.501961" points="136,47 130,12 118,64" />
<polygon fill="#332a26" fill-opacity="0.501961" points="91,47 89,30 53,59" />
<polygon fill="#613e2b" fill-opacity="0.501961" points="199,110 194,126 194,105" />
<polygon fill="#dd8c5c" fill-opacity="0.501961" points="175,98 158,158 190,105" />
<polygon fill="#7f6f62" fill-opacity="0.501961" points="271,10 235,9 243,-16" />
<polygon fill="#362823" fill-opacity="0.501961" points="13,100 30,90 12,110" />
<polygon fill="#d58658" fill-opacity="0.501961" points="26,111 19,134 45,94" />
<polygon fill="#4c4b49" fill-opacity="0.501961" points="229,158 271,132 181,143" />
<polygon fill="#d48c69" fill-opacity="0.501961" points="127,29 125,7 134,3" />
<polygon fill="#282f2e" fill-opacity="0.501961" points="199,142 205,124 203,158" />
<polygon fill="#8b745b" fill-opacity="0.501961" points="-16,85 18,92 -16,130" />
<polygon fill="#9b856d" fill-opacity="0.501961" points="87,5 114,-13 78,33" />
<polygon fill="#f4c098" fill-opacity="0.501961" points="142,25 128,47 139,1" />
<polygon fill="#9f8774" fill-opacity="0.501961" points="30,12 79,31 32,27" />
<polygon fill="#893d22" fill-opacity="0.501961" points="191,105 187,100 182,99" />
<polygon fill="#eaa56d" fill-opacity="0.501961" points="57,131 72,99 55,99" />
<polygon fill="#594030" fill-opacity="0.501961" points="71,35 79,37 70,31" />
<polygon fill="#41352b" fill-opacity="0.501961" points="157,86 148,82 162,84" />
<polygon fill="#b56547" fill-opacity="0.501961" points="54,100 67,96 47,96" />
<polygon fill="#95553a" fill-opacity="0.501961" points="148,49 156,41 153,76" />
<polygon fill="#665a46" fill-opacity="0.501961" points="29,23 32,20 28,20" />
<polygon fill="#a8724f" fill-opacity="0.501961" points="77,95 72,96 73,103" />
<polygon fill="#6b443f" fill-opacity="0.501961" points="131,104 129,98 135,90" />
<polygon fill="#674434" fill-opacity="0.501961" points="112,31 99,55 110,44" />
<polygon fill="#17160f" fill-opacity="0.501961" points="128,95 124,97 125,102" />
<polygon fill="#352019" fill-opacity="0.501961" points="98,98 120,69 108,102" />
<polygon fill="#c4855a" fill-opacity="0.501961" points="47,158 35,158 62,128" />
<polygon fill="#ffae9a" fill-opacity="0.501961" points="227,50 226,47 223,55" />
<polygon fill="#84675a" fill-opacity="0.501961" points="50,52 55,60 48,62" />
<polygon fill="#62433e" fill-opacity="0.501961" points="251,100 201,115 216,87" />
<polygon fill="#667a66" fill-opacity="0.501961" points="180,90 167,87 176,92" />
<polygon fill="#c77d57" fill-opacity="0.501961" points="169,64 181,91 152,74" />
<polygon fill="#e08f5f" fill-opacity="0.501961" points="219,52 208,61 218,28" />
<polygon fill="#7d4c37" fill-opacity="0.501961" points="40,87 29,105 10,114" />
<polygon fill="#eaa46e" fill-opacity="0.501961" points="79,92 67,80 51,96" />
<polygon fill="#d9865b" fill-opacity="0.501961" points="198,98 195,84 213,65" />
<polygon fill="#f1a282" fill-opacity="0.501961" points="222,-16 217,17 240,-9" />
<polygon fill="#506c59" fill-opacity="0.501961" points="112,106 121,102 114,98" />
<polygon fill="#724943" fill-opacity="0.501961" points="251,99 268,92 249,53" />
<polygon fill="#2a1d13" fill-opacity="0.501961" points="132,89 141,82 145,92" />
<polygon fill="#3c2f28" fill-opacity="0.501961" points="-16,62 4,66 -16,77" />
<polygon fill="#917e69" fill-opacity="0.501961" points="81,29 93,17 54,18" />
<polygon fill="#e49d6c" fill-opacity="0.501961" points="69,72 94,61 99,69" />
<polygon fill="#ed9f71" fill-opacity="0.501961" points="200,73 192,84 175,83" />
<polygon fill="#91543a" fill-opacity="0.501961" points="179,103 181,96 186,99" />
<polygon fill="#3a271d" fill-opacity="0.501961" points="76,118 88,119 77,130" />
<polygon fill="#2e1f16" fill-opacity="0.501961" points="87,101 100,104 84,113" />
<polygon fill="#9d6245" fill-opacity="0.501961" points="96,57 84,54 71,64" />
<polygon fill="#a78870" fill-opacity="0.501961" points="244,25 231,22 251,19" />
<polygon fill="#b5a089" fill-opacity="0.501961" points="201,113 200,114 199,112" />
<polygon fill="#ab947a" fill-opacity="0.501961" points="85,13 65,17 50,-16" />
<polygon fill="#6e3f37" fill-opacity="0.501961" points="17,39 21,36 13,34" />
<polygon fill="#b7704c" fill-opacity="0.501961" points="199,96 194,101 197,104" />
<polygon fill="#ce8257" fill-opacity="0.501961" points="164,136 155,129 164,104" />
<polygon fill="#563224" fill-opacity="0.501961" points="90,51 100,60 103,45" />
<polygon fill="#6b392a" fill-opacity="0.501961" points="136,48 151,65 148,46" />
<polygon fill="#522e24" fill-opacity="0.501961" points="138,51 129,64 120,66" />
<polygon fill="#f5a675" fill-opacity="0.501961" points="196,27 197,58 216,23" />
<polygon fill="#cb815b" fill-opacity="0.501961" points="154,58 162,46 194,64" />
<polygon fill="#eca06e" fill-opacity="0.501961" points="36,109 25,131 55,100" />
<polygon fill="#894d38" fill-opacity="0.501961" points="78,81 71,79 68,72" />
<polygon fill="#d99461" fill-opacity="0.501961" points="48,88 71,79 63,74" />
<polygon fill="#626558" fill-opacity="0.501961" points="200,133 190,147 199,142" />
<polygon fill="#cc8f6b" fill-opacity="0.501961" points="114,54 122,31 127,38" />
<polygon fill="#5a3b38" fill-opacity="0.501961" points="242,110 201,106 206,120" />
<polygon fill="#3c2a20" fill-opacity="0.501961" points="66,155 72,127 82,125" />
<polygon fill="#dba382" fill-opacity="0.501961" points="135,50 121,63 124,49" />
<polygon fill="#c46542" fill-opacity="0.501961" points="150,17 153,7 166,-2" />
<polygon fill="#8d5b40" fill-opacity="0.501961" points="54,70 46,82 62,71" />
<polygon fill="#432e26" fill-opacity="0.501961" points="104,71 87,99 125,67" />
<polygon fill="#615242" fill-opacity="0.501961" points="128,122 124,137 120,114" />
<polygon fill="#756557" fill-opacity="0.501961" points="82,158 76,139 84,124" />
<polygon fill="#ca4a38" fill-opacity="0.501961" points="209,24 210,6 214,17" />
<polygon fill="#4a3d31" fill-opacity="0.501961" points="105,0 103,14 85,29" />
<polygon fill="#40291d" fill-opacity="0.501961" points="136,103 136,109 114,103" />
<polygon fill="#ece7dc" fill-opacity="0.501961" points="78,82 76,83 78,81" />
<polygon fill="#623727" fill-opacity="0.501961" points="151,85 147,109 145,94" />
<polygon fill="#786958" fill-opacity="0.501961" points="103,107 125,107 128,116" />
<polygon fill="#d2815a" fill-opacity="0.501961" points="178,42 154,-16 175,-16" />
<polygon fill="#fac0a8" fill-opacity="0.501961" points="222,12 221,7 218,11" />
<polygon fill="#744d39" fill-opacity="0.501961" points="63,126 59,151 48,158" />
<polygon fill="#593321" fill-opacity="0.501961" points="199,113 196,111 193,120" />
<polygon fill="#5f937c" fill-opacity="0.501961" points="118,103 121,102 116,101" />
<polygon fill="#e1e9dc" fill-opacity="0.501961" points="178,92 181,92 185,96" />
<polygon fill="#645342" fill-opacity="0.501961" points="248,15 271,14 271,21" />
<polygon fill="#43281e" fill-opacity="0.501961" points="145,119 115,158 147,75" />
<polygon fill="#a78e75" fill-opacity="0.501961" points="97,11 103,-2 65,-15" />
<polygon fill="#815449" fill-opacity="0.501961" points="218,59 241,54 218,81" />
<polygon fill="#816e5b" fill-opacity="0.501961" points="242,36 259,59 230,44" />
<polygon fill="#ee9b6a" fill-opacity="0.501961" points="157,155 186,128 167,138" />
<polygon fill="#ffb29b" fill-opacity="0.501961" points="233,36 237,38 235,29" />
<polygon fill="#6a6052" fill-opacity="0.501961" points="8,23 -16,22 -10,33" />
<polygon fill="#82544c" fill-opacity="0.501961" points="1,83 13,73 16,60" />
<polygon fill="#311e14" fill-opacity="0.501961" points="113,88 104,93 124,101" />
<polygon fill="#8b452c" fill-opacity="0.501961" points="142,46 138,42 144,32" />
<polygon fill="#a19f8d" fill-opacity="0.501961" points="202,115 200,114 200,110" />
<polygon fill="#562618" fill-opacity="0.501961" points="207,-3 207,9 210,-1" />
<polygon fill="#291f19" fill-opacity="0.501961" points="56,66 48,62 45,65" />
<polygon fill="#d58960" fill-opacity="0.501961" points="170,82 170,51 190,98" />
<polygon fill="#ea9768" fill-opacity="0.501961" points="204,12 204,48 210,32" />
<polygon fill="#b13d2c" fill-opacity="0.501961" points="224,11 228,15 221,23" />
<polygon fill="#4b342b" fill-opacity="0.501961" points="88,52 56,61 70,51" />
<polygon fill="#657261" fill-opacity="0.501961" points="172,89 163,84 169,84" />
<polygon fill="#ed9c69" fill-opacity="0.501961" points="188,96 186,88 201,87" />
<polygon fill="#724f48" fill-opacity="0.501961" points="210,111 209,86 215,103" />
<polygon fill="#87554c" fill-opacity="0.501961" points="68,45 40,55 49,31" />
<polygon fill="#cb794f" fill-opacity="0.501961" points="177,125 180,129 190,123" />
<polygon fill="#fbaf79" fill-opacity="0.501961" points="222,28 225,23 221,24" />
<polygon fill="#433d2e" fill-opacity="0.501961" points="115,98 115,104 119,96" />
<polygon fill="#da8c5e" fill-opacity="0.501961" points="170,96 189,105 160,124" />
<polygon fill="#d45243" fill-opacity="0.501961" points="226,26 231,29 226,42" />
<polygon fill="#a4603b" fill-opacity="0.501961" points="74,96 67,95 68,97" />
<polygon fill="#774f4a" fill-opacity="0.501961" points="16,55 32,77 45,66" />
<polygon fill="#3d3129" fill-opacity="0.501961" points="38,81 36,73 50,68" />
<polygon fill="#e99b6b" fill-opacity="0.501961" points="191,3 190,36 206,-1" />
<polygon fill="#92523c" fill-opacity="0.501961" points="179,94 182,96 180,99" />
</g>
</svg>