<svg xmlns="http://www.w3.org/2000/svg" version="1.1" width="1024" height="764">
<rect x="0" y="0" width="1024" height="764" fill="#452727" />
<g transform="scale(4.000000) translate(0.5 0.5)">
<polygon fill="#ffe2d4" fill-opacity="0.501961" points="271,-7 165,206 271,189" />
<polygon fill="#ffffff" fill-opacity="0.501961" points="114,166 70,167 105,119" />
<polygon fill="#000000" fill-opacity="0.501961" points="135,-16 10,206 -16,1" />
<polygon fill="#000710" fill-opacity="0.501961" points="170,-16 264,128 166,146" />
<polygon fill="#fca78f" fill-opacity="0.501961" points="108,48 154,-15 161,57" />
<polygon fill="#ffe2d2" fill-opacity="0.501961" points="230,108 259,160 169,206" />
<polygon fill="#000000" fill-opacity="0.501961" points="194,-16 271,6 137,109" />
<polygon fill="#000000" fill-opacity="0.501961" points="157,105 33,-16 -16,72" />
<polygon fill="#cf725b" fill-opacity="0.501961" points="214,72 231,119 271,0" />
<polygon fill="#790213" fill-opacity="0.501961" points="15,146 180,122 45,87" />
<polygon fill="#fff5f7" fill-opacity="0.501961" points="81,170 78,131 113,139" />
<polygon fill="#00000b" fill-opacity="0.501961" points="162,129 136,160 250,128" />
<polygon fill="#000000" fill-opacity="0.501961" points="222,181 250,167 271,173" />
<polygon fill="#ffc6aa" fill-opacity="0.501961" points="215,206 176,164 219,134" />
<polygon fill="#400000" fill-opacity="0.501961" points="71,206 189,206 164,112" />
<polygon fill="#887e6d" fill-opacity="0.501961" points="191,95 113,107 181,118" />
<polygon fill="#250000" fill-opacity="0.501961" points="-16,206 -1,79 110,200" />
<polygon fill="#912d22" fill-opacity="0.501961" points="100,13 172,43 153,-16" />
<polygon fill="#000000" fill-opacity="0.501961" points="261,-5 186,102 159,-16" />
<polygon fill="#cd8476" fill-opacity="0.501961" points="122,74 170,44 106,29" />
<polygon fill="#ffd6bc" fill-opacity="0.501961" points="197,193 271,191 270,170" />
<polygon fill="#000000" fill-opacity="0.501961" points="110,107 -16,4 105,-14" />
<polygon fill="#652830" fill-opacity="0.501961" points="90,134 108,167 69,128" />
<polygon fill="#a96456" fill-opacity="0.501961" points="249,113 271,2 215,84" />
<polygon fill="#ffffff" fill-opacity="0.501961" points="79,145 77,167 101,165" />
<polygon fill="#20568e" fill-opacity="0.501961" points="188,114 217,138 271,109" />
<polygon fill="#000019" fill-opacity="0.501961" points="258,153 244,110 271,111" />
<polygon fill="#7d0c1d" fill-opacity="0.501961" points="112,191 156,147 110,96" />
<polygon fill="#000000" fill-opacity="0.501961" points="203,97 124,206 164,199" />
<polygon fill="#ffffe7" fill-opacity="0.501961" points="215,138 267,136 196,160" />
<polygon fill="#ffffff" fill-opacity="0.501961" points="89,138 110,155 109,134" />
<polygon fill="#6d2929" fill-opacity="0.501961" points="234,159 258,144 211,158" />
<polygon fill="#000000" fill-opacity="0.501961" points="225,112 201,-6 149,76" />
<polygon fill="#ffe9d2" fill-opacity="0.501961" points="271,145 245,170 219,158" />
<polygon fill="#d53736" fill-opacity="0.501961" points="129,-16 165,14 109,9" />
<polygon fill="#2e0000" fill-opacity="0.501961" points="125,50 150,55 105,61" />
<polygon fill="#000601" fill-opacity="0.501961" points="148,110 160,77 85,82" />
<polygon fill="#5e0c16" fill-opacity="0.501961" points="92,81 13,128 112,135" />
<polygon fill="#e6a29b" fill-opacity="0.501961" points="228,109 220,79 237,72" />
<polygon fill="#dbb2ab" fill-opacity="0.501961" points="120,33 152,36 158,61" />
<polygon fill="#50362b" fill-opacity="0.501961" points="131,23 129,45 170,14" />
<polygon fill="#fc8780" fill-opacity="0.501961" points="137,56 156,72 125,62" />
<polygon fill="#ffc0aa" fill-opacity="0.501961" points="134,105 133,112 114,103" />
<polygon fill="#621d0d" fill-opacity="0.501961" points="246,65 232,102 247,97" />
<polygon fill="#a3bdc9" fill-opacity="0.501961" points="230,130 243,116 215,115" />
<polygon fill="#e5e7df" fill-opacity="0.501961" points="240,102 271,97 249,109" />
<polygon fill="#f3d4cb" fill-opacity="0.501961" points="138,15 147,22 133,23" />
<polygon fill="#4a040e" fill-opacity="0.501961" points="11,134 81,202 75,127" />
<polygon fill="#000007" fill-opacity="0.501961" points="225,180 265,161 243,180" />
<polygon fill="#000001" fill-opacity="0.501961" points="109,55 -16,-16 31,101" />
<polygon fill="#fcae97" fill-opacity="0.501961" points="193,148 238,171 172,180" />
<polygon fill="#844429" fill-opacity="0.501961" points="225,58 271,14 231,30" />
<polygon fill="#492516" fill-opacity="0.501961" points="143,9 99,18 104,48" />
<polygon fill="#f1c9bf" fill-opacity="0.501961" points="111,49 124,52 127,30" />
<polygon fill="#110101" fill-opacity="0.501961" points="177,158 142,104 203,140" />
<polygon fill="#000015" fill-opacity="0.501961" points="253,148 254,110 271,143" />
<polygon fill="#676f61" fill-opacity="0.501961" points="149,100 174,123 180,93" />
<polygon fill="#001e4f" fill-opacity="0.501961" points="269,138 236,130 260,106" />
<polygon fill="#0c2246" fill-opacity="0.501961" points="194,141 225,135 182,104" />
<polygon fill="#000001" fill-opacity="0.501961" points="164,-4 271,3 174,65" />
<polygon fill="#000000" fill-opacity="0.501961" points="149,15 173,31 152,25" />
<polygon fill="#5a6665" fill-opacity="0.501961" points="-16,195 8,142 2,179" />
<polygon fill="#3b0d14" fill-opacity="0.501961" points="225,155 209,162 212,156" />
<polygon fill="#030704" fill-opacity="0.501961" points="224,110 195,21 192,114" />
<polygon fill="#c13837" fill-opacity="0.501961" points="169,27 123,-16 160,2" />
<polygon fill="#9f737a" fill-opacity="0.501961" points="107,172 112,162 82,146" />
<polygon fill="#ffbdac" fill-opacity="0.501961" points="186,164 188,192 267,160" />
<polygon fill="#140003" fill-opacity="0.501961" points="51,199 -16,191 56,152" />
<polygon fill="#8e4f2c" fill-opacity="0.501961" points="190,199 178,163 164,206" />
<polygon fill="#000400" fill-opacity="0.501961" points="106,22 137,15 126,10" />
<polygon fill="#824328" fill-opacity="0.501961" points="161,58 141,56 139,81" />
<polygon fill="#ffc8bb" fill-opacity="0.501961" points="271,173 238,179 247,189" />
<polygon fill="#000505" fill-opacity="0.501961" points="17,119 -16,200 -12,57" />
<polygon fill="#ffffff" fill-opacity="0.501961" points="92,135 109,137 109,155" />
<polygon fill="#ffffff" fill-opacity="0.501961" points="101,167 79,144 78,165" />
<polygon fill="#500712" fill-opacity="0.501961" points="152,173 56,166 127,206" />
<polygon fill="#ffdcc7" fill-opacity="0.501961" points="203,164 203,141 251,133" />
<polygon fill="#000002" fill-opacity="0.501961" points="-16,28 115,-16 71,86" />
<polygon fill="#3c2c25" fill-opacity="0.501961" points="26,97 0,100 26,68" />
<polygon fill="#5c1019" fill-opacity="0.501961" points="55,89 59,186 98,84" />
<polygon fill="#593422" fill-opacity="0.501961" points="116,19 100,32 156,26" />
<polygon fill="#caffff" fill-opacity="0.501961" points="120,35 128,31 131,39" />
<polygon fill="#450f0a" fill-opacity="0.501961" points="235,181 216,183 225,178" />
<polygon fill="#a58a8d" fill-opacity="0.501961" points="91,136 80,136 104,151" />
<polygon fill="#804a33" fill-opacity="0.501961" points="121,75 108,53 111,34" />
<polygon fill="#660d18" fill-opacity="0.501961" points="144,104 165,119 105,177" />
<polygon fill="#000000" fill-opacity="0.501961" points="154,190 172,144 196,139" />
<polygon fill="#11000f" fill-opacity="0.501961" points="254,145 253,149 245,148" />
<polygon fill="#c4f0dd" fill-opacity="0.501961" points="152,39 147,31 144,42" />
<polygon fill="#010000" fill-opacity="0.501961" points="271,-3 260,36 220,-14" />
<polygon fill="#b3857a" fill-opacity="0.501961" points="128,21 147,24 143,7" />
<polygon fill="#16192a" fill-opacity="0.501961" points="261,120 271,109 228,111" />
<polygon fill="#ffc6b3" fill-opacity="0.501961" points="271,142 207,164 221,180" />
<polygon fill="#b2a09f" fill-opacity="0.501961" points="84,132 92,140 75,139" />
<polygon fill="#030104" fill-opacity="0.501961" points="78,-16 124,88 -16,63" />
<polygon fill="#2b1f13" fill-opacity="0.501961" points="235,66 203,74 217,65" />
<polygon fill="#753624" fill-opacity="0.501961" points="168,38 146,42 168,48" />
<polygon fill="#6e131f" fill-opacity="0.501961" points="68,130 114,100 141,138" />
<polygon fill="#768798" fill-opacity="0.501961" points="228,111 219,126 215,112" />
<polygon fill="#3a3c2c" fill-opacity="0.501961" points="197,99 178,88 175,129" />
<polygon fill="#a8695b" fill-opacity="0.501961" points="243,32 226,52 271,47" />
<polygon fill="#8a4234" fill-opacity="0.501961" points="238,80 264,99 232,95" />
<polygon fill="#000000" fill-opacity="0.501961" points="135,23 135,27 150,25" />
<polygon fill="#733139" fill-opacity="0.501961" points="110,159 98,150 96,155" />
<polygon fill="#140e08" fill-opacity="0.501961" points="133,65 129,102 90,96" />
<polygon fill="#b33431" fill-opacity="0.501961" points="148,-16 158,3 103,17" />
<polygon fill="#864331" fill-opacity="0.501961" points="110,34 116,20 122,40" />
<polygon fill="#6b533a" fill-opacity="0.501961" points="162,40 135,26 161,31" />
<polygon fill="#040506" fill-opacity="0.501961" points="134,90 217,2 189,89" />
<polygon fill="#5e2d2e" fill-opacity="0.501961" points="231,149 223,157 246,149" />
<polygon fill="#b88677" fill-opacity="0.501961" points="261,61 219,66 271,36" />
<polygon fill="#fff8de" fill-opacity="0.501961" points="208,149 238,136 230,153" />
<polygon fill="#000007" fill-opacity="0.501961" points="237,178 260,164 259,172" />
<polygon fill="#370a0f" fill-opacity="0.501961" points="75,206 5,138 34,99" />
<polygon fill="#d9917c" fill-opacity="0.501961" points="197,172 195,164 222,158" />
<polygon fill="#ffc6b7" fill-opacity="0.501961" points="250,134 220,137 244,148" />
<polygon fill="#ffb5a9" fill-opacity="0.501961" points="159,46 155,56 146,45" />
<polygon fill="#e09183" fill-opacity="0.501961" points="140,29 136,49 147,45" />
<polygon fill="#3c1006" fill-opacity="0.501961" points="141,52 143,61 165,68" />
<polygon fill="#e8a28c" fill-opacity="0.501961" points="187,189 235,181 271,205" />
<polygon fill="#ffa6b1" fill-opacity="0.501961" points="129,62 143,61 141,65" />
<polygon fill="#000321" fill-opacity="0.501961" points="246,129 271,129 269,152" />
<polygon fill="#d19485" fill-opacity="0.501961" points="243,87 246,77 258,85" />
<polygon fill="#bf896b" fill-opacity="0.501961" points="141,71 151,66 147,74" />
<polygon fill="#6f1213" fill-opacity="0.501961" points="116,-9 138,-15 98,26" />
<polygon fill="#a75d45" fill-opacity="0.501961" points="135,25 121,20 113,24" />
<polygon fill="#bd7271" fill-opacity="0.501961" points="220,90 233,69 217,74" />
<polygon fill="#d89985" fill-opacity="0.501961" points="129,108 141,107 139,111" />
<polygon fill="#731520" fill-opacity="0.501961" points="117,152 102,111 148,112" />
<polygon fill="#3c1206" fill-opacity="0.501961" points="133,50 130,60 103,60" />
<polygon fill="#0d0f0b" fill-opacity="0.501961" points="155,100 96,57 131,105" />
<polygon fill="#2d2513" fill-opacity="0.501961" points="214,53 236,54 213,64" />
<polygon fill="#d0897f" fill-opacity="0.501961" points="110,38 113,53 130,38" />
<polygon fill="#602019" fill-opacity="0.501961" points="243,88 234,104 238,114" />
<polygon fill="#520e16" fill-opacity="0.501961" points="23,113 77,171 75,117" />
<polygon fill="#ffe0d2" fill-opacity="0.501961" points="234,171 271,153 235,155" />
<polygon fill="#824431" fill-opacity="0.501961" points="245,58 251,70 233,100" />
<polygon fill="#d4cfcf" fill-opacity="0.501961" points="97,157 106,168 90,157" />
<polygon fill="#561b15" fill-opacity="0.501961" points="100,35 99,25 124,39" />
<polygon fill="#000000" fill-opacity="0.501961" points="205,111 224,110 215,87" />
<polygon fill="#d7967b" fill-opacity="0.501961" points="209,139 180,160 182,173" />
<polygon fill="#000000" fill-opacity="0.501961" points="166,188 141,198 186,140" />
<polygon fill="#620e19" fill-opacity="0.501961" points="111,124 129,178 111,157" />
<polygon fill="#64492a" fill-opacity="0.501961" points="158,96 189,100 172,91" />
<polygon fill="#000000" fill-opacity="0.501961" points="31,77 58,80 22,107" />
<polygon fill="#5c121c" fill-opacity="0.501961" points="32,106 46,92 82,140" />
<polygon fill="#ba796b" fill-opacity="0.501961" points="150,38 137,54 163,39" />
<polygon fill="#ffdfd6" fill-opacity="0.501961" points="240,147 249,134 253,142" />
<polygon fill="#020204" fill-opacity="0.501961" points="188,68 271,-5 156,-14" />
<polygon fill="#52708d" fill-opacity="0.501961" points="242,128 223,137 242,113" />
<polygon fill="#ffffff" fill-opacity="0.501961" points="107,136 91,135 110,155" />
<polygon fill="#4d1c11" fill-opacity="0.501961" points="164,24 161,58 170,42" />
<polygon fill="#572814" fill-opacity="0.501961" points="142,84 123,64 143,67" />
<polygon fill="#5b0d18" fill-opacity="0.501961" points="118,181 85,174 101,166" />
<polygon fill="#190501" fill-opacity="0.501961" points="116,18 101,40 105,16" />
<polygon fill="#000100" fill-opacity="0.501961" points="133,18 120,14 133,12" />
<polygon fill="#c48a71" fill-opacity="0.501961" points="221,90 230,110 234,103" />
<polygon fill="#17030f" fill-opacity="0.501961" points="221,155 215,156 214,159" />
<polygon fill="#543220" fill-opacity="0.501961" points="175,203 176,167 164,198" />
<polygon fill="#6e3420" fill-opacity="0.501961" points="250,21 265,32 239,35" />
<polygon fill="#9e644e" fill-opacity="0.501961" points="130,103 120,106 111,100" />
<polygon fill="#310300" fill-opacity="0.501961" points="136,36 132,33 135,25" />
<polygon fill="#a95d49" fill-opacity="0.501961" points="152,27 129,47 136,29" />
<polygon fill="#c04a41" fill-opacity="0.501961" points="142,-1 166,20 128,6" />
<polygon fill="#f5a08a" fill-opacity="0.501961" points="224,166 240,152 219,159" />
<polygon fill="#030010" fill-opacity="0.501961" points="236,179 226,179 238,173" />
<polygon fill="#f5b4a3" fill-opacity="0.501961" points="187,161 212,138 184,188" />
<polygon fill="#41090e" fill-opacity="0.501961" points="153,110 132,206 163,157" />
<polygon fill="#fffdfd" fill-opacity="0.501961" points="107,156 102,152 105,153" />
<polygon fill="#6d746d" fill-opacity="0.501961" points="169,99 167,116 149,105" />
<polygon fill="#0d0002" fill-opacity="0.501961" points="6,162 10,167 -4,181" />
<polygon fill="#c2735b" fill-opacity="0.501961" points="120,70 130,71 121,63" />
<polygon fill="#212131" fill-opacity="0.501961" points="242,109 244,114 225,113" />
<polygon fill="#000000" fill-opacity="0.501961" points="12,123 -16,118 -4,174" />
<polygon fill="#aa6b56" fill-opacity="0.501961" points="234,87 225,93 253,94" />
<polygon fill="#020003" fill-opacity="0.501961" points="-5,-16 114,-2 -16,81" />
<polygon fill="#706566" fill-opacity="0.501961" points="8,145 2,154 2,167" />
<polygon fill="#422516" fill-opacity="0.501961" points="149,31 158,31 161,39" />
<polygon fill="#77454b" fill-opacity="0.501961" points="82,132 86,147 93,144" />
<polygon fill="#0c214d" fill-opacity="0.501961" points="191,120 205,139 227,133" />
<polygon fill="#61121c" fill-opacity="0.501961" points="61,125 66,137 82,144" />
<polygon fill="#1c3460" fill-opacity="0.501961" points="227,131 245,129 238,133" />
<polygon fill="#d79a98" fill-opacity="0.501961" points="222,83 241,71 228,88" />
<polygon fill="#86aa6d" fill-opacity="0.501961" points="130,29 128,33 119,31" />
<polygon fill="#d6cecf" fill-opacity="0.501961" points="89,136 84,142 83,140" />
<polygon fill="#c0787a" fill-opacity="0.501961" points="240,110 262,109 245,105" />
<polygon fill="#c28879" fill-opacity="0.501961" points="219,180 210,203 210,182" />
<polygon fill="#4f0b12" fill-opacity="0.501961" points="94,121 70,143 77,124" />
<polygon fill="#c5bcb2" fill-opacity="0.501961" points="249,108 271,103 241,99" />
<polygon fill="#120d04" fill-opacity="0.501961" points="148,18 152,15 160,20" />
<polygon fill="#f5fcff" fill-opacity="0.501961" points="150,38 149,42 145,37" />
<polygon fill="#33231d" fill-opacity="0.501961" points="7,79 5,112 22,70" />
<polygon fill="#f4fffd" fill-opacity="0.501961" points="82,147 97,164 79,168" />
<polygon fill="#1f2222" fill-opacity="0.501961" points="195,46 201,46 198,68" />
<polygon fill="#815056" fill-opacity="0.501961" points="94,144 103,161 93,152" />
<polygon fill="#d4bfc1" fill-opacity="0.501961" points="90,141 90,144 86,144" />
<polygon fill="#a06647" fill-opacity="0.501961" points="161,32 161,28 147,26" />
<polygon fill="#0e120c" fill-opacity="0.501961" points="170,40 140,108 163,92" />
<polygon fill="#6d2421" fill-opacity="0.501961" points="235,95 257,96 235,101" />
<polygon fill="#611c25" fill-opacity="0.501961" points="123,173 106,158 114,171" />
<polygon fill="#d1c1c3" fill-opacity="0.501961" points="105,169 111,164 111,160" />
<polygon fill="#6c7273" fill-opacity="0.501961" points="4,175 3,180 0,177" />
<polygon fill="#b3675b" fill-opacity="0.501961" points="130,38 124,50 139,52" />
<polygon fill="#541017" fill-opacity="0.501961" points="127,187 105,166 129,175" />
<polygon fill="#d5d0cf" fill-opacity="0.501961" points="96,139 96,144 90,148" />
<polygon fill="#7e434c" fill-opacity="0.501961" points="96,152 107,158 90,141" />
<polygon fill="#19375a" fill-opacity="0.501961" points="247,112 241,127 254,136" />
<polygon fill="#383b34" fill-opacity="0.501961" points="165,116 183,109 182,130" />
<polygon fill="#9f6e55" fill-opacity="0.501961" points="164,45 154,55 158,61" />
<polygon fill="#eeffff" fill-opacity="0.501961" points="125,38 129,35 122,36" />
<polygon fill="#5b3024" fill-opacity="0.501961" points="222,100 218,69 214,83" />
<polygon fill="#b2999b" fill-opacity="0.501961" points="111,164 95,151 101,160" />
<polygon fill="#500e16" fill-opacity="0.501961" points="104,195 141,174 75,167" />
<polygon fill="#693139" fill-opacity="0.501961" points="94,153 88,148 98,152" />
<polygon fill="#b36d55" fill-opacity="0.501961" points="112,34 120,31 119,36" />
<polygon fill="#c09084" fill-opacity="0.501961" points="133,22 141,12 150,24" />
<polygon fill="#000000" fill-opacity="0.501961" points="-16,148 -16,181 17,206" />
<polygon fill="#5e7a99" fill-opacity="0.501961" points="218,115 232,133 212,119" />
<polygon fill="#977e83" fill-opacity="0.501961" points="98,159 90,154 101,166" />
<polygon fill="#42080a" fill-opacity="0.501961" points="91,102 118,105 87,91" />
<polygon fill="#ffb1a5" fill-opacity="0.501961" points="244,141 229,150 248,146" />
<polygon fill="#8a4f31" fill-opacity="0.501961" points="191,157 189,153 178,159" />
<polygon fill="#814c42" fill-opacity="0.501961" points="144,40 149,42 146,44" />
<polygon fill="#e1aaa1" fill-opacity="0.501961" points="137,111 127,105 123,109" />
<polygon fill="#9fb2be" fill-opacity="0.501961" points="235,127 224,118 237,116" />
<polygon fill="#892323" fill-opacity="0.501961" points="161,-5 127,-7 155,5" />
<polygon fill="#5a1019" fill-opacity="0.501961" points="110,163 134,176 155,154" />
<polygon fill="#040204" fill-opacity="0.501961" points="92,84 22,46 110,46" />
<polygon fill="#ffbeb9" fill-opacity="0.501961" points="137,47 145,44 137,41" />
<polygon fill="#a2413d" fill-opacity="0.501961" points="136,55 149,65 145,67" />
<polygon fill="#000200" fill-opacity="0.501961" points="174,125 184,156 195,143" />
<polygon fill="#69111c" fill-opacity="0.501961" points="112,133 90,94 93,134" />
<polygon fill="#2a1423" fill-opacity="0.501961" points="227,155 239,150 232,150" />
<polygon fill="#542b1a" fill-opacity="0.501961" points="109,55 123,52 114,69" />
<polygon fill="#453120" fill-opacity="0.501961" points="166,48 146,75 157,71" />
<polygon fill="#764f42" fill-opacity="0.501961" points="124,17 135,22 130,31" />
<polygon fill="#020102" fill-opacity="0.501961" points="156,89 171,40 208,87" />
<polygon fill="#f7aaa1" fill-opacity="0.501961" points="121,50 127,43 115,40" />
<polygon fill="#cca99e" fill-opacity="0.501961" points="240,63 231,64 235,60" />
<polygon fill="#040707" fill-opacity="0.501961" points="-16,98 2,158 4,74" />
<polygon fill="#9d6350" fill-opacity="0.501961" points="135,17 156,15 136,9" />
<polygon fill="#0b0c0a" fill-opacity="0.501961" points="93,93 104,41 120,95" />
<polygon fill="#9f584d" fill-opacity="0.501961" points="219,63 218,86 225,74" />
<polygon fill="#5c212c" fill-opacity="0.501961" points="90,144 80,140 88,146" />
<polygon fill="#949898" fill-opacity="0.501961" points="215,113 223,114 226,111" />
<polygon fill="#f6979e" fill-opacity="0.501961" points="137,66 133,64 134,57" />
<polygon fill="#ffffeb" fill-opacity="0.501961" points="227,150 229,139 212,146" />
<polygon fill="#cc4239" fill-opacity="0.501961" points="166,22 165,27 161,15" />
<polygon fill="#9b5c4d" fill-opacity="0.501961" points="257,26 221,57 261,40" />
<polygon fill="#081125" fill-opacity="0.501961" points="205,140 201,131 189,145" />
<polygon fill="#e2e9e4" fill-opacity="0.501961" points="83,134 80,137 81,138" />
<polygon fill="#2d4670" fill-opacity="0.501961" points="202,122 206,114 220,115" />
<polygon fill="#693f2b" fill-opacity="0.501961" points="236,70 239,67 235,65" />
<polygon fill="#ad6450" fill-opacity="0.501961" points="265,104 271,85 240,54" />
<polygon fill="#06061d" fill-opacity="0.501961" points="252,147 269,150 271,113" />
<polygon fill="#3a1c11" fill-opacity="0.501961" points="111,30 120,25 129,28" />
<polygon fill="#ffddce" fill-opacity="0.501961" points="251,136 251,145 231,145" />
<polygon fill="#200304" fill-opacity="0.501961" points="41,171 60,136 44,206" />
<polygon fill="#b9b5b9" fill-opacity="0.501961" points="77,163 78,167 83,168" />
<polygon fill="#818a7f" fill-opacity="0.501961" points="2,165 -10,182 -2,177" />
<polygon fill="#a8674f" fill-opacity="0.501961" points="110,44 110,51 122,53" />
<polygon fill="#dacdd1" fill-opacity="0.501961" points="110,159 107,158 106,155" />
<polygon fill="#050305" fill-opacity="0.501961" points="200,0 165,37 225,42" />
<polygon fill="#feb1a4" fill-opacity="0.501961" points="148,55 149,45 155,55" />
<polygon fill="#372913" fill-opacity="0.501961" points="185,97 192,90 164,90" />
<polygon fill="#2e4975" fill-opacity="0.501961" points="210,128 208,118 231,134" />
<polygon fill="#dad1d0" fill-opacity="0.501961" points="80,141 80,144 88,147" />
<polygon fill="#ffbeae" fill-opacity="0.501961" points="225,154 234,149 218,149" />
<polygon fill="#2c070b" fill-opacity="0.501961" points="55,156 5,155 37,190" />
<polygon fill="#61121c" fill-opacity="0.501961" points="67,86 62,135 92,87" />
<polygon fill="#d3846c" fill-opacity="0.501961" points="267,145 271,152 247,150" />
<polygon fill="#60331d" fill-opacity="0.501961" points="229,34 235,41 220,65" />
<polygon fill="#c27a61" fill-opacity="0.501961" points="182,182 185,206 206,205" />
<polygon fill="#38372b" fill-opacity="0.501961" points="154,105 162,90 148,103" />
<polygon fill="#4e1c10" fill-opacity="0.501961" points="134,54 152,62 145,52" />
<polygon fill="#8b463f" fill-opacity="0.501961" points="128,39 133,43 136,33" />
<polygon fill="#bb847b" fill-opacity="0.501961" points="251,65 239,49 254,48" />
<polygon fill="#c3afb0" fill-opacity="0.501961" points="91,135 84,133 97,144" />
<polygon fill="#f5eeeb" fill-opacity="0.501961" points="80,140 82,143 77,139" />
<polygon fill="#510d13" fill-opacity="0.501961" points="92,128 88,135 79,125" />
<polygon fill="#ffc2b4" fill-opacity="0.501961" points="217,154 193,167 199,151" />
<polygon fill="#111c15" fill-opacity="0.501961" points="212,47 212,83 222,46" />
<polygon fill="#1a1c12" fill-opacity="0.501961" points="184,135 197,99 178,125" />
<polygon fill="#a22f34" fill-opacity="0.501961" points="125,59 132,56 137,60" />
<polygon fill="#100e0b" fill-opacity="0.501961" points="173,58 115,100 142,105" />
<polygon fill="#fafffd" fill-opacity="0.501961" points="82,150 81,165 98,163" />
<polygon fill="#b99fa2" fill-opacity="0.501961" points="99,152 100,155 95,154" />
<polygon fill="#4a0e14" fill-opacity="0.501961" points="18,123 83,88 36,96" />
<polygon fill="#00011b" fill-opacity="0.501961" points="233,178 246,170 258,171" />
<polygon fill="#100c09" fill-opacity="0.501961" points="143,30 137,24 147,24" />
<polygon fill="#a1634c" fill-opacity="0.501961" points="163,41 158,39 162,33" />
<polygon fill="#6d3228" fill-opacity="0.501961" points="236,86 243,77 245,93" />
<polygon fill="#60111b" fill-opacity="0.501961" points="61,100 37,100 85,135" />
<polygon fill="#fbc7bc" fill-opacity="0.501961" points="252,178 271,188 238,185" />
<polygon fill="#721722" fill-opacity="0.501961" points="136,150 105,104 134,113" />
<polygon fill="#6d333a" fill-opacity="0.501961" points="104,164 98,157 100,152" />
<polygon fill="#403129" fill-opacity="0.501961" points="20,94 26,83 7,82" />
<polygon fill="#5c1019" fill-opacity="0.501961" points="63,115 56,120 82,140" />
<polygon fill="#716e65" fill-opacity="0.501961" points="163,97 153,109 183,101" />
<polygon fill="#4b0b12" fill-opacity="0.501961" points="75,138 77,165 60,183" />
</g>
</svg>