<svg xmlns="http://www.w3.org/2000/svg" version="1.1" width="1024" height="764">
<rect x="0" y="0" width="1024" height="764" fill="#452727" />
<g transform="scale(4.000000) translate(0.5 0.5)">
<polygon fill="#ffe2d4" fill-opacity="0.501961" points="259,195 271,-7 165,206" />
<polygon fill="#000000" fill-opacity="0.501961" points="127,3 -16,-14 9,206" />
<polygon fill="#ffffff" fill-opacity="0.501961" points="80,177 77,133 126,139" />
<polygon fill="#000910" fill-opacity="0.501961" points="153,151 175,-16 264,127" />
<polygon fill="#ffb59c" fill-opacity="0.501961" points="108,50 163,56 146,-2" />
<polygon fill="#ffe1d1" fill-opacity="0.501961" points="229,109 169,206 262,158" />
<polygon fill="#000000" fill-opacity="0.501961" points="271,0 166,-7 171,96" />
<polygon fill="#000000" fill-opacity="0.501961" points="163,104 24,-16 -16,77" />
<polygon fill="#ed8d74" fill-opacity="0.501961" points="215,73 249,23 231,115" />
<polygon fill="#7d1822" fill-opacity="0.501961" points="109,206 191,93 111,109" />
<polygon fill="#feedf0" fill-opacity="0.501961" points="77,166 114,168 105,129" />
<polygon fill="#250000" fill-opacity="0.501961" points="11,153 -13,206 187,189" />
<polygon fill="#15446e" fill-opacity="0.501961" points="271,129 142,100 210,137" />
<polygon fill="#740212" fill-opacity="0.501961" points="5,147 64,79 146,124" />
<polygon fill="#ea3a32" fill-opacity="0.501961" points="165,17 151,-16 105,10" />
<polygon fill="#ffc4a7" fill-opacity="0.501961" points="223,206 212,137 175,165" />
<polygon fill="#000000" fill-opacity="0.501961" points="248,178 217,183 267,160" />
<polygon fill="#0a0000" fill-opacity="0.501961" points="153,116 137,206 209,132" />
<polygon fill="#000000" fill-opacity="0.501961" points="128,95 236,-16 213,93" />
<polygon fill="#d27864" fill-opacity="0.501961" points="114,68 166,35 148,73" />
<polygon fill="#757a5f" fill-opacity="0.501961" points="184,91 182,117 117,108" />
<polygon fill="#9f533f" fill-opacity="0.501961" points="223,51 271,8 247,113" />
<polygon fill="#000000" fill-opacity="0.501961" points="124,-16 41,101 -16,2" />
<polygon fill="#ffd6bb" fill-opacity="0.501961" points="271,170 214,187 271,206" />
<polygon fill="#682932" fill-opacity="0.501961" points="75,135 110,168 103,150" />
<polygon fill="#ffffff" fill-opacity="0.501961" points="79,145 77,167 100,166" />
<polygon fill="#000032" fill-opacity="0.501961" points="238,110 267,110 271,167" />
<polygon fill="#5b2d17" fill-opacity="0.501961" points="171,19 101,25 164,37" />
<polygon fill="#ffffe7" fill-opacity="0.501961" points="207,141 202,161 259,136" />
<polygon fill="#000000" fill-opacity="0.501961" points="56,-4 25,58 159,115" />
<polygon fill="#dea498" fill-opacity="0.501961" points="111,55 161,37 112,32" />
<polygon fill="#5d010e" fill-opacity="0.501961" points="111,127 170,143 112,206" />
<polygon fill="#611e20" fill-opacity="0.501961" points="213,160 234,146 255,146" />
<polygon fill="#000000" fill-opacity="0.501961" points="271,-5 146,-16 205,57" />
<polygon fill="#ffffff" fill-opacity="0.501961" points="107,152 91,135 110,136" />
<polygon fill="#7ca8c8" fill-opacity="0.501961" points="208,112 233,130 246,115" />
<polygon fill="#000000" fill-opacity="0.501961" points="203,48 226,111 194,110" />
<polygon fill="#ffdcc7" fill-opacity="0.501961" points="197,185 262,163 246,150" />
<polygon fill="#eedfd8" fill-opacity="0.501961" points="249,110 269,98 240,100" />
<polygon fill="#f9af9c" fill-opacity="0.501961" points="113,100 146,111 125,110" />
<polygon fill="#370004" fill-opacity="0.501961" points="73,206 78,142 -16,119" />
<polygon fill="#01133a" fill-opacity="0.501961" points="198,141 230,133 179,112" />
<polygon fill="#e29790" fill-opacity="0.501961" points="240,71 219,77 226,108" />
<polygon fill="#000000" fill-opacity="0.501961" points="152,172 158,206 194,125" />
<polygon fill="#550411" fill-opacity="0.501961" points="51,170 102,167 141,206" />
<polygon fill="#98451f" fill-opacity="0.501961" points="178,166 193,206 164,206" />
<polygon fill="#3a0005" fill-opacity="0.501961" points="216,154 226,155 207,162" />
<polygon fill="#ffeed6" fill-opacity="0.501961" points="218,138 246,146 204,159" />
<polygon fill="#320500" fill-opacity="0.501961" points="124,51 159,66 146,53" />
<polygon fill="#fdbcaf" fill-opacity="0.501961" points="158,46 134,41 158,60" />
<polygon fill="#ff9aa4" fill-opacity="0.501961" points="144,65 125,63 137,56" />
<polygon fill="#5d2d1f" fill-opacity="0.501961" points="139,40 103,12 135,10" />
<polygon fill="#7f3223" fill-opacity="0.501961" points="246,58 228,116 248,95" />
<polygon fill="#000001" fill-opacity="0.501961" points="252,168 270,175 230,177" />
<polygon fill="#ffb49f" fill-opacity="0.501961" points="240,160 180,158 189,202" />
<polygon fill="#000000" fill-opacity="0.501961" points="252,150 260,141 254,133" />
<polygon fill="#5f0d18" fill-opacity="0.501961" points="47,89 13,123 126,137" />
<polygon fill="#000002" fill-opacity="0.501961" points="27,97 85,-16 114,75" />
<polygon fill="#6f3a24" fill-opacity="0.501961" points="231,30 217,68 271,15" />
<polygon fill="#6b7162" fill-opacity="0.501961" points="180,126 150,105 167,90" />
<polygon fill="#dcfffe" fill-opacity="0.501961" points="121,34 128,30 126,43" />
<polygon fill="#000000" fill-opacity="0.501961" points="-16,127 38,87 -6,166" />
<polygon fill="#070905" fill-opacity="0.501961" points="145,104 221,49 87,98" />
<polygon fill="#6c3826" fill-opacity="0.501961" points="143,6 170,40 161,49" />
<polygon fill="#7b2b1e" fill-opacity="0.501961" points="115,-16 121,37 106,38" />
<polygon fill="#d8afa7" fill-opacity="0.501961" points="141,12 131,22 146,23" />
<polygon fill="#c8413d" fill-opacity="0.501961" points="119,-9 170,27 142,-16" />
<polygon fill="#ffffff" fill-opacity="0.501961" points="107,136 89,134 112,157" />
<polygon fill="#2f0e00" fill-opacity="0.501961" points="127,66 128,78 146,67" />
<polygon fill="#585f5e" fill-opacity="0.501961" points="-8,177 2,179 7,146" />
<polygon fill="#000000" fill-opacity="0.501961" points="106,22 125,10 136,14" />
<polygon fill="#000001" fill-opacity="0.501961" points="180,64 271,3 159,-16" />
<polygon fill="#5c0f19" fill-opacity="0.501961" points="95,83 65,172 39,93" />
<polygon fill="#001a3f" fill-opacity="0.501961" points="263,135 237,131 262,103" />
<polygon fill="#51080f" fill-opacity="0.501961" points="164,116 139,195 141,104" />
<polygon fill="#854b32" fill-opacity="0.501961" points="115,73 129,73 105,32" />
<polygon fill="#ffffff" fill-opacity="0.501961" points="98,165 81,146 77,163" />
<polygon fill="#b87f73" fill-opacity="0.501961" points="265,62 247,34 226,65" />
<polygon fill="#180005" fill-opacity="0.501961" points="56,144 -7,190 52,199" />
<polygon fill="#050504" fill-opacity="0.501961" points="146,81 225,110 190,10" />
<polygon fill="#cdffeb" fill-opacity="0.501961" points="147,41 146,29 152,38" />
<polygon fill="#44422f" fill-opacity="0.501961" points="182,127 167,87 195,97" />
<polygon fill="#ffd6c5" fill-opacity="0.501961" points="216,140 245,132 256,142" />
<polygon fill="#070502" fill-opacity="0.501961" points="153,15 167,28 146,19" />
<polygon fill="#73121f" fill-opacity="0.501961" points="115,105 110,159 149,123" />
<polygon fill="#00000a" fill-opacity="0.501961" points="243,150 271,144 271,132" />
<polygon fill="#98503d" fill-opacity="0.501961" points="156,27 133,32 126,48" />
<polygon fill="#b32e2d" fill-opacity="0.501961" points="153,3 104,17 132,-16" />
<polygon fill="#000000" fill-opacity="0.501961" points="153,24 140,28 132,24" />
<polygon fill="#c98868" fill-opacity="0.501961" points="177,183 182,159 196,146" />
<polygon fill="#3f2c23" fill-opacity="0.501961" points="5,80 20,105 29,70" />
<polygon fill="#060401" fill-opacity="0.501961" points="167,137 207,88 158,206" />
<polygon fill="#0f2945" fill-opacity="0.501961" points="240,113 229,109 224,114" />
<polygon fill="#ffc0b4" fill-opacity="0.501961" points="271,172 236,202 242,178" />
<polygon fill="#ffdac8" fill-opacity="0.501961" points="225,160 249,167 263,145" />
<polygon fill="#000002" fill-opacity="0.501961" points="110,1 0,-16 -2,76" />
<polygon fill="#aa9193" fill-opacity="0.501961" points="105,170 100,148 114,159" />
<polygon fill="#28150a" fill-opacity="0.501961" points="222,66 236,65 223,70" />
<polygon fill="#d89d90" fill-opacity="0.501961" points="245,87 246,78 267,82" />
<polygon fill="#90a4b7" fill-opacity="0.501961" points="212,118 239,115 227,129" />
<polygon fill="#30080d" fill-opacity="0.501961" points="0,175 58,165 26,92" />
<polygon fill="#342618" fill-opacity="0.501961" points="215,52 240,54 214,63" />
<polygon fill="#731522" fill-opacity="0.501961" points="90,133 112,99 151,139" />
<polygon fill="#6c2a31" fill-opacity="0.501961" points="99,156 91,143 107,158" />
<polygon fill="#2d4b79" fill-opacity="0.501961" points="214,112 191,118 229,134" />
<polygon fill="#feaaa0" fill-opacity="0.501961" points="115,42 127,38 122,50" />
<polygon fill="#8a3d2f" fill-opacity="0.501961" points="271,100 231,95 243,87" />
<polygon fill="#a0624c" fill-opacity="0.501961" points="111,27 132,21 119,20" />
<polygon fill="#23030d" fill-opacity="0.501961" points="219,157 216,155 210,160" />
<polygon fill="#000200" fill-opacity="0.501961" points="1,164 6,70 -16,135" />
<polygon fill="#6d1212" fill-opacity="0.501961" points="131,-7 98,27 117,-16" />
<polygon fill="#000000" fill-opacity="0.501961" points="221,102 225,110 193,113" />
<polygon fill="#997479" fill-opacity="0.501961" points="103,167 86,150 83,128" />
<polygon fill="#040009" fill-opacity="0.501961" points="235,181 249,173 221,180" />
<polygon fill="#4b1405" fill-opacity="0.501961" points="107,54 132,51 128,60" />
<polygon fill="#030104" fill-opacity="0.501961" points="60,-16 23,105 109,50" />
<polygon fill="#e49e88" fill-opacity="0.501961" points="207,188 265,204 236,180" />
<polygon fill="#c68278" fill-opacity="0.501961" points="228,71 234,111 219,88" />
<polygon fill="#000001" fill-opacity="0.501961" points="175,157 176,137 202,141" />
<polygon fill="#ffbcac" fill-opacity="0.501961" points="194,152 222,151 197,166" />
<polygon fill="#510e16" fill-opacity="0.501961" points="160,168 69,206 114,162" />
<polygon fill="#591a0f" fill-opacity="0.501961" points="99,33 123,39 100,26" />
<polygon fill="#7a402c" fill-opacity="0.501961" points="183,187 179,171 163,206" />
<polygon fill="#70716b" fill-opacity="0.501961" points="154,111 187,101 163,96" />
<polygon fill="#3a1808" fill-opacity="0.501961" points="271,9 235,27 271,31" />
<polygon fill="#33547a" fill-opacity="0.501961" points="224,135 248,114 246,127" />
<polygon fill="#684329" fill-opacity="0.501961" points="159,66 163,48 149,72" />
<polygon fill="#ffccc1" fill-opacity="0.501961" points="223,154 252,143 250,134" />
<polygon fill="#570e18" fill-opacity="0.501961" points="78,169 51,177 76,115" />
<polygon fill="#ba7155" fill-opacity="0.501961" points="163,35 161,29 152,27" />
<polygon fill="#b16454" fill-opacity="0.501961" points="131,59 121,61 120,73" />
<polygon fill="#41090f" fill-opacity="0.501961" points="101,167 55,171 69,206" />
<polygon fill="#171811" fill-opacity="0.501961" points="148,107 96,59 163,93" />
<polygon fill="#e59c91" fill-opacity="0.501961" points="135,48 139,27 144,47" />
<polygon fill="#ac413a" fill-opacity="0.501961" points="168,20 123,8 153,-13" />
<polygon fill="#3f1a20" fill-opacity="0.501961" points="241,150 232,151 234,154" />
<polygon fill="#4a0c12" fill-opacity="0.501961" points="34,161 29,133 90,127" />
<polygon fill="#ffffff" fill-opacity="0.501961" points="110,155 109,140 95,138" />
<polygon fill="#fcaa91" fill-opacity="0.501961" points="216,159 223,168 244,151" />
<polygon fill="#f0efed" fill-opacity="0.501961" points="86,135 111,160 109,136" />
<polygon fill="#091b38" fill-opacity="0.501961" points="241,111 255,139 271,107" />
<polygon fill="#63141f" fill-opacity="0.501961" points="126,175 104,153 128,166" />
<polygon fill="#102143" fill-opacity="0.501961" points="221,133 194,144 190,113" />
<polygon fill="#350407" fill-opacity="0.501961" points="170,121 122,206 164,167" />
<polygon fill="#dda99c" fill-opacity="0.501961" points="118,105 130,111 135,106" />
<polygon fill="#a1594d" fill-opacity="0.501961" points="130,38 136,50 122,38" />
<polygon fill="#a15b4d" fill-opacity="0.501961" points="259,42 224,54 250,28" />
<polygon fill="#bb7d7c" fill-opacity="0.501961" points="240,102 257,109 243,110" />
<polygon fill="#0f0400" fill-opacity="0.501961" points="118,16 105,16 104,31" />
<polygon fill="#000011" fill-opacity="0.501961" points="264,173 239,175 271,159" />
<polygon fill="#c67c66" fill-opacity="0.501961" points="204,168 212,160 193,168" />
<polygon fill="#ffb9b8" fill-opacity="0.501961" points="131,64 142,65 136,61" />
<polygon fill="#3b3931" fill-opacity="0.501961" points="183,128 167,121 189,95" />
<polygon fill="#5e131c" fill-opacity="0.501961" points="66,115 60,85 93,139" />
<polygon fill="#54361d" fill-opacity="0.501961" points="187,96 152,98 163,90" />
<polygon fill="#aa898d" fill-opacity="0.501961" points="100,146 92,149 84,132" />
<polygon fill="#c7fdf6" fill-opacity="0.501961" points="121,37 131,37 124,30" />
<polygon fill="#9a946c" fill-opacity="0.501961" points="115,32 131,34 129,29" />
<polygon fill="#010104" fill-opacity="0.501961" points="155,-16 175,37 271,16" />
<polygon fill="#af6760" fill-opacity="0.501961" points="221,70 216,87 235,68" />
<polygon fill="#c19083" fill-opacity="0.501961" points="136,22 140,11 151,24" />
<polygon fill="#834b35" fill-opacity="0.501961" points="142,108 131,102 120,103" />
<polygon fill="#582f1c" fill-opacity="0.501961" points="149,75 120,60 138,82" />
<polygon fill="#f9bdab" fill-opacity="0.501961" points="244,168 185,161 192,191" />
<polygon fill="#6a121e" fill-opacity="0.501961" points="150,107 116,181 109,125" />
<polygon fill="#000f2e" fill-opacity="0.501961" points="260,129 271,140 237,129" />
<polygon fill="#6d3329" fill-opacity="0.501961" points="138,34 132,44 131,25" />
<polygon fill="#df9d95" fill-opacity="0.501961" points="163,46 151,55 130,43" />
<polygon fill="#29271d" fill-opacity="0.501961" points="218,91 210,72 216,46" />
<polygon fill="#b07062" fill-opacity="0.501961" points="143,53 134,52 155,38" />
<polygon fill="#0f0406" fill-opacity="0.501961" points="22,206 3,171 13,139" />
<polygon fill="#f8ffff" fill-opacity="0.501961" points="81,165 95,166 79,145" />
<polygon fill="#622519" fill-opacity="0.501961" points="242,87 235,88 245,71" />
<polygon fill="#0e0a07" fill-opacity="0.501961" points="146,26 136,23 132,28" />
<polygon fill="#b3806a" fill-opacity="0.501961" points="223,113 235,107 231,98" />
<polygon fill="#fca793" fill-opacity="0.501961" points="206,139 196,153 216,139" />
<polygon fill="#a8898d" fill-opacity="0.501961" points="106,170 112,161 104,158" />
<polygon fill="#510f17" fill-opacity="0.501961" points="135,183 134,198 107,160" />
<polygon fill="#d4cecd" fill-opacity="0.501961" points="106,166 97,162 92,154" />
<polygon fill="#efffff" fill-opacity="0.501961" points="148,41 150,35 146,38" />
<polygon fill="#651915" fill-opacity="0.501961" points="235,111 242,111 239,98" />
<polygon fill="#5d141c" fill-opacity="0.501961" points="113,177 104,163 122,177" />
<polygon fill="#815459" fill-opacity="0.501961" points="81,131 91,150 97,148" />
<polygon fill="#744348" fill-opacity="0.501961" points="89,149 102,161 96,151" />
<polygon fill="#ceb7ba" fill-opacity="0.501961" points="91,149 89,142 95,149" />
<polygon fill="#a86752" fill-opacity="0.501961" points="112,101 121,107 123,101" />
<polygon fill="#fffff1" fill-opacity="0.501961" points="228,141 205,150 228,148" />
<polygon fill="#9c584b" fill-opacity="0.501961" points="223,184 212,183 220,179" />
<polygon fill="#040004" fill-opacity="0.501961" points="72,85 113,-8 -16,60" />
<polygon fill="#731521" fill-opacity="0.501961" points="87,104 147,118 96,135" />
<polygon fill="#532414" fill-opacity="0.501961" points="160,60 153,66 130,51" />
<polygon fill="#5f5557" fill-opacity="0.501961" points="5,162 8,143 3,152" />
<polygon fill="#c3c6bc" fill-opacity="0.501961" points="268,107 244,106 247,100" />
<polygon fill="#916550" fill-opacity="0.501961" points="139,10 153,14 133,17" />
<polygon fill="#040506" fill-opacity="0.501961" points="211,91 142,89 214,-13" />
<polygon fill="#000100" fill-opacity="0.501961" points="164,173 182,135 192,147" />
<polygon fill="#000300" fill-opacity="0.501961" points="133,13 136,17 121,15" />
<polygon fill="#666760" fill-opacity="0.501961" points="182,103 148,105 166,116" />
<polygon fill="#b67f71" fill-opacity="0.501961" points="256,44 221,65 264,63" />
<polygon fill="#d79e9b" fill-opacity="0.501961" points="242,71 225,80 228,86" />
<polygon fill="#5e190f" fill-opacity="0.501961" points="167,24 162,46 170,48" />
<polygon fill="#a67862" fill-opacity="0.501961" points="159,47 147,35 160,39" />
<polygon fill="#b77e62" fill-opacity="0.501961" points="183,179 183,156 178,162" />
<polygon fill="#5b1119" fill-opacity="0.501961" points="33,103 72,151 97,83" />
<polygon fill="#000001" fill-opacity="0.501961" points="-5,176 -16,129 13,121" />
<polygon fill="#a9735a" fill-opacity="0.501961" points="158,61 162,48 152,56" />
<polygon fill="#b97c69" fill-opacity="0.501961" points="120,70 118,62 129,71" />
<polygon fill="#523326" fill-opacity="0.501961" points="222,68 241,67 229,64" />
<polygon fill="#5a291a" fill-opacity="0.501961" points="154,42 153,44 159,44" />
<polygon fill="#2c0303" fill-opacity="0.501961" points="94,102 93,89 116,104" />
<polygon fill="#935444" fill-opacity="0.501961" points="234,40 250,68 228,51" />
<polygon fill="#a76952" fill-opacity="0.501961" points="249,92 232,87 224,96" />
<polygon fill="#c0b2af" fill-opacity="0.501961" points="86,139 83,141 82,135" />
<polygon fill="#506d87" fill-opacity="0.501961" points="221,111 215,116 238,115" />
<polygon fill="#272a2b" fill-opacity="0.501961" points="200,58 199,44 195,63" />
<polygon fill="#571019" fill-opacity="0.501961" points="75,171 102,167 124,186" />
<polygon fill="#e0dddf" fill-opacity="0.501961" points="110,164 110,166 106,163" />
<polygon fill="#e38972" fill-opacity="0.501961" points="265,147 259,152 245,150" />
<polygon fill="#738c9f" fill-opacity="0.501961" points="242,126 224,129 212,120" />
<polygon fill="#b7805e" fill-opacity="0.501961" points="145,74 146,64 152,68" />
<polygon fill="#783a27" fill-opacity="0.501961" points="266,19 231,36 271,31" />
<polygon fill="#ffdecf" fill-opacity="0.501961" points="271,150 236,169 232,158" />
<polygon fill="#472a1d" fill-opacity="0.501961" points="108,62 108,47 126,79" />
<polygon fill="#cf453d" fill-opacity="0.501961" points="159,17 167,26 165,17" />
<polygon fill="#ffffff" fill-opacity="0.501961" points="108,135 94,138 110,156" />
<polygon fill="#d1c2c5" fill-opacity="0.501961" points="85,146 96,155 88,154" />
<polygon fill="#000000" fill-opacity="0.501961" points="149,191 156,206 178,160" />
<polygon fill="#1e1f16" fill-opacity="0.501961" points="203,113 207,100 178,89" />
<polygon fill="#f3ffff" fill-opacity="0.501961" points="125,33 129,33 122,38" />
<polygon fill="#ffc0b2" fill-opacity="0.501961" points="232,134 245,134 244,148" />
<polygon fill="#3d0f12" fill-opacity="0.501961" points="50,88 49,103 86,85" />
<polygon fill="#8f5c49" fill-opacity="0.501961" points="132,27 120,22 134,20" />
<polygon fill="#3c2c24" fill-opacity="0.501961" points="8,78 26,82 7,101" />
<polygon fill="#040205" fill-opacity="0.501961" points="117,81 5,-16 28,90" />
<polygon fill="#c2c1c5" fill-opacity="0.501961" points="78,168 82,164 77,156" />
<polygon fill="#0c0c09" fill-opacity="0.501961" points="96,93 99,39 133,103" />
<polygon fill="#271606" fill-opacity="0.501961" points="218,56 227,49 228,36" />
<polygon fill="#cb433f" fill-opacity="0.501961" points="159,10 141,1 123,8" />
<polygon fill="#86575d" fill-opacity="0.501961" points="95,146 92,152 103,162" />
<polygon fill="#9f6451" fill-opacity="0.501961" points="135,38 144,34 138,26" />
<polygon fill="#040603" fill-opacity="0.501961" points="206,72 225,110 207,112" />
<polygon fill="#ba766b" fill-opacity="0.501961" points="115,40 110,36 113,51" />
<polygon fill="#c67d64" fill-opacity="0.501961" points="194,146 207,140 188,157" />
<polygon fill="#faffff" fill-opacity="0.501961" points="79,160 79,145 100,166" />
<polygon fill="#000103" fill-opacity="0.501961" points="-16,177 23,206 -13,159" />
<polygon fill="#c4b4b2" fill-opacity="0.501961" points="100,156 96,161 103,156" />
<polygon fill="#362111" fill-opacity="0.501961" points="161,35 147,31 156,31" />
<polygon fill="#671f17" fill-opacity="0.501961" points="235,100 251,96 232,95" />
<polygon fill="#fbfbf9" fill-opacity="0.501961" points="92,145 90,146 94,147" />
<polygon fill="#a4594f" fill-opacity="0.501961" points="249,100 270,84 263,45" />
<polygon fill="#211611" fill-opacity="0.501961" points="153,25 150,18 165,28" />
<polygon fill="#fdcdc1" fill-opacity="0.501961" points="271,188 267,175 238,183" />
<polygon fill="#842121" fill-opacity="0.501961" points="124,-16 155,-8 166,14" />
<polygon fill="#ffcebc" fill-opacity="0.501961" points="218,181 215,161 226,172" />
<polygon fill="#db967f" fill-opacity="0.501961" points="193,166 200,170 218,160" />
<polygon fill="#5d121d" fill-opacity="0.501961" points="61,118 78,142 77,169" />
<polygon fill="#220609" fill-opacity="0.501961" points="16,139 41,206 5,156" />
<polygon fill="#9baeba" fill-opacity="0.501961" points="228,127 240,117 224,116" />
<polygon fill="#7d847c" fill-opacity="0.501961" points="-16,184 3,164 -11,198" />
<polygon fill="#81402c" fill-opacity="0.501961" points="249,72 246,66 234,86" />
<polygon fill="#e4fffe" fill-opacity="0.501961" points="145,37 147,35 150,41" />
<polygon fill="#1c100e" fill-opacity="0.501961" points="1,68 -5,88 29,72" />
<polygon fill="#6e2c19" fill-opacity="0.501961" points="219,95 222,89 226,108" />
<polygon fill="#b9775f" fill-opacity="0.501961" points="183,185 173,205 210,200" />
<polygon fill="#500e15" fill-opacity="0.501961" points="155,111 140,132 150,166" />
<polygon fill="#c29d8e" fill-opacity="0.501961" points="237,59 228,65 240,63" />
<polygon fill="#2c0e07" fill-opacity="0.501961" points="137,69 131,67 131,77" />
<polygon fill="#bfacaf" fill-opacity="0.501961" points="91,159 95,159 100,151" />
<polygon fill="#59131c" fill-opacity="0.501961" points="92,143 88,147 88,144" />
<polygon fill="#eeb5a3" fill-opacity="0.501961" points="215,181 181,160 195,206" />
<polygon fill="#ffe7db" fill-opacity="0.501961" points="245,147 253,141 250,136" />
<polygon fill="#4d0e16" fill-opacity="0.501961" points="35,101 26,116 82,144" />
<polygon fill="#60111b" fill-opacity="0.501961" points="54,98 52,119 81,139" />
<polygon fill="#7c4435" fill-opacity="0.501961" points="227,58 216,82 216,70" />
<polygon fill="#62101b" fill-opacity="0.501961" points="134,172 111,158 116,130" />
<polygon fill="#2f4065" fill-opacity="0.501961" points="225,131 239,133 239,128" />
<polygon fill="#4e4e4a" fill-opacity="0.501961" points="190,100 174,97 170,120" />
<polygon fill="#311007" fill-opacity="0.501961" points="132,31 135,24 134,34" />
<polygon fill="#020003" fill-opacity="0.501961" points="202,105 164,57 184,6" />
<polygon fill="#57202c" fill-opacity="0.501961" points="107,167 102,162 106,163" />
<polygon fill="#010526" fill-opacity="0.501961" points="254,146 271,157 256,136" />
<polygon fill="#35090e" fill-opacity="0.501961" points="7,140 60,179 24,110" />
<polygon fill="#feb9b1" fill-opacity="0.501961" points="148,48 154,45 151,56" />
<polygon fill="#0f100c" fill-opacity="0.501961" points="131,104 170,46 157,97" />
<polygon fill="#572e2e" fill-opacity="0.501961" points="81,138 83,135 86,136" />
<polygon fill="#c3837b" fill-opacity="0.501961" points="226,74 221,92 231,110" />
<polygon fill="#ce9788" fill-opacity="0.501961" points="209,184 217,180 228,206" />
<polygon fill="#803732" fill-opacity="0.501961" points="234,95 245,110 234,107" />
<polygon fill="#c8bdbd" fill-opacity="0.501961" points="104,161 105,162 106,158" />
<polygon fill="#384e78" fill-opacity="0.501961" points="218,128 213,112 208,129" />
<polygon fill="#8c8382" fill-opacity="0.501961" points="7,151 3,154 3,151" />
<polygon fill="#1e3d61" fill-opacity="0.501961" points="241,114 249,112 250,131" />
<polygon fill="#e5a093" fill-opacity="0.501961" points="114,53 114,40 128,42" />
<polygon fill="#70434c" fill-opacity="0.501961" points="91,154 88,153 86,150" />
<polygon fill="#1b0f07" fill-opacity="0.501961" points="161,21 149,15 154,22" />
<polygon fill="#61101a" fill-opacity="0.501961" points="59,147 100,121 68,93" />
<polygon fill="#351a0d" fill-opacity="0.501961" points="128,28 119,25 113,28" />
<polygon fill="#372917" fill-opacity="0.501961" points="165,90 189,99 190,90" />
<polygon fill="#3b1a21" fill-opacity="0.501961" points="231,152 241,150 236,149" />
<polygon fill="#45130c" fill-opacity="0.501961" points="129,51 114,60 131,58" />
</g>
</svg>