<svg xmlns="http://www.w3.org/2000/svg" version="1.1" width="1024" height="1024">
<rect x="0" y="0" width="1024" height="1024" fill="#63534d" />
<g transform="scale(4.000000) translate(0.5 0.5)">
<polygon fill="#ffd3a7" fill-opacity="0.501961" points="162,45 79,228 54,29" />
<polygon fill="#000000" fill-opacity="0.501961" points="158,-16 241,98 160,271" />
<polygon fill="#cfd7d7" fill-opacity="0.501961" points="68,-8 2,81 -16,1" />
<polygon fill="#11262f" fill-opacity="0.501961" points="70,266 271,254 170,110" />
<polygon fill="#370000" fill-opacity="0.501961" points="192,59 271,1 50,-16" />
<polygon fill="#fdaa86" fill-opacity="0.501961" points="170,100 59,77 102,187" />
<polygon fill="#4d6573" fill-opacity="0.501961" points="-14,142 215,221 5,271" />
<polygon fill="#282a2e" fill-opacity="0.501961" points="29,158 7,85 102,-4" />
<polygon fill="#ffefce" fill-opacity="0.501961" points="120,21 61,138 67,63" />
<polygon fill="#070503" fill-opacity="0.501961" points="175,171 237,102 147,-16" />
<polygon fill="#bc6c48" fill-opacity="0.501961" points="132,11 170,75 107,179" />
<polygon fill="#80847d" fill-opacity="0.501961" points="190,159 271,221 265,104" />
<polygon fill="#980000" fill-opacity="0.501961" points="158,0 260,-16 271,43" />
<polygon fill="#171314" fill-opacity="0.501961" points="14,165 68,160 56,95" />
<polygon fill="#757e82" fill-opacity="0.501961" points="170,260 105,263 147,188" />
<polygon fill="#c72025" fill-opacity="0.501961" points="28,151 -16,154 1,72" />
<polygon fill="#8a9398" fill-opacity="0.501961" points="78,163 0,168 15,219" />
<polygon fill="#0a0300" fill-opacity="0.501961" points="110,184 178,187 169,123" />
<polygon fill="#847c73" fill-opacity="0.501961" points="208,26 271,205 270,45" />
<polygon fill="#ffcda8" fill-opacity="0.501961" points="61,102 72,171 107,155" />
<polygon fill="#e09772" fill-opacity="0.501961" points="88,33 152,140 128,23" />
<polygon fill="#040000" fill-opacity="0.501961" points="127,202 91,231 100,271" />
<polygon fill="#000006" fill-opacity="0.501961" points="11,249 -10,182 10,198" />
<polygon fill="#db9266" fill-opacity="0.501961" points="164,79 115,176 156,133" />
<polygon fill="#1e1e1e" fill-opacity="0.501961" points="227,60 158,-16 54,1" />
<polygon fill="#676b68" fill-opacity="0.501961" points="106,7 1,82 53,-9" />
<polygon fill="#3f484f" fill-opacity="0.501961" points="6,271 59,186 143,165" />
<polygon fill="#212223" fill-opacity="0.501961" points="155,127 255,224 166,267" />
<polygon fill="#0f0d0d" fill-opacity="0.501961" points="167,69 246,102 149,189" />
<polygon fill="#77838b" fill-opacity="0.501961" points="119,203 60,210 65,249" />
<polygon fill="#5a2618" fill-opacity="0.501961" points="108,91 84,80 105,78" />
<polygon fill="#4b4744" fill-opacity="0.501961" points="38,110 14,81 120,-9" />
<polygon fill="#ffe0c6" fill-opacity="0.501961" points="82,44 60,111 87,112" />
<polygon fill="#af7256" fill-opacity="0.501961" points="98,183 138,28 163,69" />
<polygon fill="#ffe0c5" fill-opacity="0.501961" points="119,115 120,82 104,111" />
<polygon fill="#e8b08c" fill-opacity="0.501961" points="64,168 76,115 122,164" />
<polygon fill="#b4b4b1" fill-opacity="0.501961" points="1,-16 -12,103 29,16" />
<polygon fill="#829096" fill-opacity="0.501961" points="13,166 10,259 28,217" />
<polygon fill="#151111" fill-opacity="0.501961" points="202,23 138,170 234,129" />
<polygon fill="#221a1a" fill-opacity="0.501961" points="69,140 9,133 62,163" />
<polygon fill="#953f38" fill-opacity="0.501961" points="136,141 132,128 90,129" />
<polygon fill="#484f52" fill-opacity="0.501961" points="204,262 203,194 181,184" />
<polygon fill="#62686e" fill-opacity="0.501961" points="57,163 146,207 22,188" />
<polygon fill="#c5764f" fill-opacity="0.501961" points="95,30 128,21 166,58" />
<polygon fill="#75000e" fill-opacity="0.501961" points="246,-16 176,15 271,39" />
<polygon fill="#1f2024" fill-opacity="0.501961" points="76,196 45,226 52,199" />
<polygon fill="#837b73" fill-opacity="0.501961" points="271,123 198,146 204,167" />
<polygon fill="#97a2a7" fill-opacity="0.501961" points="14,198 20,170 -2,160" />
<polygon fill="#ffc6ab" fill-opacity="0.501961" points="100,30 111,64 71,60" />
<polygon fill="#1c1313" fill-opacity="0.501961" points="165,108 218,56 161,10" />
<polygon fill="#241714" fill-opacity="0.501961" points="141,86 133,92 153,92" />
<polygon fill="#241b1b" fill-opacity="0.501961" points="83,31 127,-16 165,7" />
<polygon fill="#4b5154" fill-opacity="0.501961" points="191,264 175,186 171,238" />
<polygon fill="#343536" fill-opacity="0.501961" points="146,159 161,201 95,185" />
<polygon fill="#88827e" fill-opacity="0.501961" points="48,-4 2,77 51,33" />
<polygon fill="#5e6970" fill-opacity="0.501961" points="39,254 18,208 50,172" />
<polygon fill="#c68c6f" fill-opacity="0.501961" points="86,65 157,131 122,60" />
<polygon fill="#443f3b" fill-opacity="0.501961" points="202,172 216,184 262,166" />
<polygon fill="#a96345" fill-opacity="0.501961" points="163,108 162,52 134,26" />
<polygon fill="#32353d" fill-opacity="0.501961" points="89,201 63,192 90,219" />
<polygon fill="#7c7369" fill-opacity="0.501961" points="226,94 220,51 271,94" />
<polygon fill="#bf8762" fill-opacity="0.501961" points="80,178 163,112 137,158" />
<polygon fill="#fec4aa" fill-opacity="0.501961" points="61,118 65,80 92,161" />
<polygon fill="#38302d" fill-opacity="0.501961" points="19,140 56,163 63,62" />
<polygon fill="#727b7f" fill-opacity="0.501961" points="125,215 158,214 114,264" />
<polygon fill="#080d0f" fill-opacity="0.501961" points="194,222 180,212 196,261" />
<polygon fill="#818083" fill-opacity="0.501961" points="21,158 37,151 16,153" />
<polygon fill="#b98264" fill-opacity="0.501961" points="108,104 81,111 87,138" />
<polygon fill="#3f3835" fill-opacity="0.501961" points="144,28 85,-16 58,9" />
<polygon fill="#504b48" fill-opacity="0.501961" points="46,43 12,77 47,143" />
<polygon fill="#0f0c0c" fill-opacity="0.501961" points="145,150 166,116 168,229" />
<polygon fill="#1d2123" fill-opacity="0.501961" points="82,254 113,271 116,205" />
<polygon fill="#75878b" fill-opacity="0.501961" points="8,261 1,210 -5,237" />
<polygon fill="#161312" fill-opacity="0.501961" points="226,138 142,151 217,59" />
<polygon fill="#6b757a" fill-opacity="0.501961" points="102,180 64,266 94,233" />
<polygon fill="#d09471" fill-opacity="0.501961" points="142,89 96,30 135,33" />
<polygon fill="#6d6b67" fill-opacity="0.501961" points="42,32 66,48 100,3" />
<polygon fill="#333f47" fill-opacity="0.501961" points="18,259 53,260 20,231" />
<polygon fill="#2a2422" fill-opacity="0.501961" points="68,143 51,105 52,163" />
<polygon fill="#9c5a40" fill-opacity="0.501961" points="123,146 124,81 133,113" />
<polygon fill="#342524" fill-opacity="0.501961" points="37,89 24,143 15,110" />
<polygon fill="#e4b18b" fill-opacity="0.501961" points="67,167 93,176 76,105" />
<polygon fill="#4a4340" fill-opacity="0.501961" points="51,101 40,42 76,52" />
<polygon fill="#ffe8c6" fill-opacity="0.501961" points="64,79 78,108 78,56" />
<polygon fill="#2b2f33" fill-opacity="0.501961" points="60,254 45,215 54,196" />
<polygon fill="#696561" fill-opacity="0.501961" points="29,85 23,108 11,60" />
<polygon fill="#424547" fill-opacity="0.501961" points="140,220 132,191 155,180" />
<polygon fill="#ca967e" fill-opacity="0.501961" points="129,121 157,129 149,94" />
<polygon fill="#6c5853" fill-opacity="0.501961" points="207,25 271,41 219,65" />
<polygon fill="#58504b" fill-opacity="0.501961" points="248,150 186,161 203,173" />
<polygon fill="#50070b" fill-opacity="0.501961" points="231,27 138,-16 183,22" />
<polygon fill="#0b1d22" fill-opacity="0.501961" points="6,271 7,240 16,271" />
<polygon fill="#242326" fill-opacity="0.501961" points="167,190 199,168 245,210" />
<polygon fill="#614843" fill-opacity="0.501961" points="190,30 179,20 218,29" />
<polygon fill="#221312" fill-opacity="0.501961" points="184,12 144,0 169,81" />
<polygon fill="#754934" fill-opacity="0.501961" points="91,77 80,80 104,86" />
<polygon fill="#405356" fill-opacity="0.501961" points="234,252 207,259 221,224" />
<polygon fill="#bc8a69" fill-opacity="0.501961" points="158,80 163,95 120,69" />
<polygon fill="#390001" fill-opacity="0.501961" points="230,30 271,16 271,29" />
<polygon fill="#ab4747" fill-opacity="0.501961" points="19,138 -16,109 1,74" />
<polygon fill="#000d0d" fill-opacity="0.501961" points="194,271 249,246 237,264" />
<polygon fill="#303438" fill-opacity="0.501961" points="33,155 -2,159 23,168" />
<polygon fill="#a2623c" fill-opacity="0.501961" points="136,159 116,175 92,178" />
<polygon fill="#e54c48" fill-opacity="0.501961" points="-12,136 18,145 -13,147" />
<polygon fill="#6b757b" fill-opacity="0.501961" points="82,271 83,204 56,214" />
<polygon fill="#f3b8a8" fill-opacity="0.501961" points="64,133 85,87 96,97" />
<polygon fill="#787f86" fill-opacity="0.501961" points="97,183 82,184 99,218" />
<polygon fill="#646b6f" fill-opacity="0.501961" points="40,171 95,177 22,211" />
<polygon fill="#393e40" fill-opacity="0.501961" points="80,264 108,214 88,230" />
<polygon fill="#fccdb2" fill-opacity="0.501961" points="117,110 103,115 117,79" />
<polygon fill="#12191f" fill-opacity="0.501961" points="10,238 12,205 -1,205" />
<polygon fill="#00090b" fill-opacity="0.501961" points="210,249 203,246 202,271" />
<polygon fill="#7b7b74" fill-opacity="0.501961" points="271,96 242,148 233,111" />
<polygon fill="#b17a5b" fill-opacity="0.501961" points="157,125 101,114 149,140" />
<polygon fill="#41474b" fill-opacity="0.501961" points="119,189 107,207 98,179" />
<polygon fill="#6b6660" fill-opacity="0.501961" points="210,137 199,156 249,208" />
<polygon fill="#880b16" fill-opacity="0.501961" points="268,27 185,4 242,-16" />
<polygon fill="#0f1c1c" fill-opacity="0.501961" points="235,245 248,237 244,215" />
<polygon fill="#181110" fill-opacity="0.501961" points="184,40 233,105 204,29" />
<polygon fill="#842424" fill-opacity="0.501961" points="20,124 22,143 -16,135" />
<polygon fill="#312a25" fill-opacity="0.501961" points="199,155 188,123 185,162" />
<polygon fill="#302321" fill-opacity="0.501961" points="44,122 47,92 29,135" />
<polygon fill="#48545a" fill-opacity="0.501961" points="107,271 171,259 161,226" />
<polygon fill="#b18361" fill-opacity="0.501961" points="75,153 114,170 95,169" />
<polygon fill="#dda586" fill-opacity="0.501961" points="92,38 107,24 120,72" />
<polygon fill="#322724" fill-opacity="0.501961" points="93,18 81,39 120,10" />
<polygon fill="#2d2522" fill-opacity="0.501961" points="157,177 143,154 102,184" />
<polygon fill="#1b1b1e" fill-opacity="0.501961" points="158,201 173,257 174,225" />
<polygon fill="#85796f" fill-opacity="0.501961" points="216,55 244,70 271,56" />
<polygon fill="#7a7670" fill-opacity="0.501961" points="223,156 249,144 226,126" />
<polygon fill="#ba7e5d" fill-opacity="0.501961" points="105,92 113,85 86,89" />
<polygon fill="#b2897c" fill-opacity="0.501961" points="94,62 74,67 107,68" />
<polygon fill="#67757c" fill-opacity="0.501961" points="13,186 11,205 -8,159" />
<polygon fill="#444e4f" fill-opacity="0.501961" points="200,261 204,211 188,204" />
<polygon fill="#5e686e" fill-opacity="0.501961" points="18,216 34,191 48,245" />
<polygon fill="#ffdec5" fill-opacity="0.501961" points="88,49 79,61 101,64" />
<polygon fill="#734837" fill-opacity="0.501961" points="141,72 164,83 153,73" />
<polygon fill="#ffcbac" fill-opacity="0.501961" points="66,76 73,63 99,78" />
<polygon fill="#b1ada8" fill-opacity="0.501961" points="3,-11 -16,61 9,78" />
<polygon fill="#8f4c33" fill-opacity="0.501961" points="155,54 140,30 156,42" />
<polygon fill="#353437" fill-opacity="0.501961" points="168,208 206,190 173,178" />
<polygon fill="#6c6562" fill-opacity="0.501961" points="45,87 61,82 37,99" />
<polygon fill="#701e20" fill-opacity="0.501961" points="-16,153 -1,145 27,153" />
<polygon fill="#4a575d" fill-opacity="0.501961" points="73,236 26,243 68,271" />
<polygon fill="#12100f" fill-opacity="0.501961" points="151,177 189,177 164,102" />
<polygon fill="#f3bea2" fill-opacity="0.501961" points="79,146 101,133 97,165" />
<polygon fill="#857f75" fill-opacity="0.501961" points="247,95 271,70 227,85" />
<polygon fill="#000817" fill-opacity="0.501961" points="-16,250 -2,237 4,271" />
<polygon fill="#141519" fill-opacity="0.501961" points="203,174 206,220 214,191" />
<polygon fill="#b88d74" fill-opacity="0.501961" points="91,38 77,47 69,65" />
<polygon fill="#52594e" fill-opacity="0.501961" points="271,227 224,186 271,256" />
<polygon fill="#98644a" fill-opacity="0.501961" points="129,28 114,22 97,27" />
<polygon fill="#8a4646" fill-opacity="0.501961" points="15,110 4,76 0,110" />
<polygon fill="#fac6ab" fill-opacity="0.501961" points="65,133 61,114 81,134" />
<polygon fill="#4a4b4b" fill-opacity="0.501961" points="69,12 46,37 65,0" />
<polygon fill="#d59e7b" fill-opacity="0.501961" points="123,154 101,143 107,168" />
<polygon fill="#bb8d70" fill-opacity="0.501961" points="82,155 66,134 69,145" />
<polygon fill="#6c767b" fill-opacity="0.501961" points="125,270 135,202 120,231" />
<polygon fill="#1a1917" fill-opacity="0.501961" points="178,121 218,142 232,121" />
<polygon fill="#7b7874" fill-opacity="0.501961" points="67,-16 7,66 46,39" />
<polygon fill="#9c9b97" fill-opacity="0.501961" points="40,13 5,-16 25,45" />
<polygon fill="#323437" fill-opacity="0.501961" points="130,204 113,237 117,206" />
<polygon fill="#c68c6d" fill-opacity="0.501961" points="126,84 145,47 89,77" />
<polygon fill="#231918" fill-opacity="0.501961" points="170,26 124,-16 176,79" />
<polygon fill="#8a877f" fill-opacity="0.501961" points="240,155 266,150 228,169" />
<polygon fill="#e0b498" fill-opacity="0.501961" points="96,113 97,129 112,126" />
<polygon fill="#3b3936" fill-opacity="0.501961" points="228,192 248,192 228,198" />
<polygon fill="#cf9b7a" fill-opacity="0.501961" points="125,115 114,116 120,96" />
<polygon fill="#13100f" fill-opacity="0.501961" points="162,128 165,63 244,105" />
<polygon fill="#5a5f5f" fill-opacity="0.501961" points="159,220 138,200 153,187" />
<polygon fill="#ffd6b1" fill-opacity="0.501961" points="75,161 88,163 72,152" />
<polygon fill="#aa6f4f" fill-opacity="0.501961" points="124,169 146,145 125,138" />
<polygon fill="#b6795e" fill-opacity="0.501961" points="76,119 107,106 88,122" />
<polygon fill="#d9a978" fill-opacity="0.501961" points="105,178 90,162 73,171" />
<polygon fill="#52453e" fill-opacity="0.501961" points="225,79 218,64 231,77" />
<polygon fill="#b37459" fill-opacity="0.501961" points="152,95 158,125 163,89" />
<polygon fill="#645854" fill-opacity="0.501961" points="27,127 39,96 40,111" />
<polygon fill="#2c1e1e" fill-opacity="0.501961" points="20,116 24,144 41,131" />
<polygon fill="#060d0f" fill-opacity="0.501961" points="189,229 189,261 205,269" />
<polygon fill="#5e5350" fill-opacity="0.501961" points="51,120 43,136 43,113" />
<polygon fill="#31221f" fill-opacity="0.501961" points="135,89 145,87 142,91" />
<polygon fill="#3b312f" fill-opacity="0.501961" points="62,138 59,95 37,106" />
<polygon fill="#413c38" fill-opacity="0.501961" points="236,114 225,110 238,122" />
<polygon fill="#ca9378" fill-opacity="0.501961" points="133,93 146,144 158,108" />
<polygon fill="#807f7b" fill-opacity="0.501961" points="73,16 62,35 56,27" />
<polygon fill="#999594" fill-opacity="0.501961" points="17,60 23,49 33,48" />
<polygon fill="#3b4448" fill-opacity="0.501961" points="218,215 206,246 209,205" />
<polygon fill="#3c3f45" fill-opacity="0.501961" points="92,209 86,196 48,195" />
<polygon fill="#71787e" fill-opacity="0.501961" points="73,207 65,246 61,206" />
<polygon fill="#d98286" fill-opacity="0.501961" points="108,141 86,130 121,137" />
<polygon fill="#58544e" fill-opacity="0.501961" points="49,63 72,58 94,10" />
<polygon fill="#232021" fill-opacity="0.501961" points="48,162 63,164 48,128" />
<polygon fill="#6e767b" fill-opacity="0.501961" points="68,184 29,175 41,201" />
<polygon fill="#828177" fill-opacity="0.501961" points="271,202 240,201 246,208" />
<polygon fill="#4e565b" fill-opacity="0.501961" points="17,168 52,164 38,159" />
<polygon fill="#899499" fill-opacity="0.501961" points="11,245 12,207 17,226" />
<polygon fill="#161e21" fill-opacity="0.501961" points="207,245 227,200 225,223" />
<polygon fill="#7e868a" fill-opacity="0.501961" points="95,224 79,226 113,204" />
<polygon fill="#914535" fill-opacity="0.501961" points="136,132 120,129 124,142" />
<polygon fill="#414f50" fill-opacity="0.501961" points="249,227 212,248 207,271" />
<polygon fill="#39312f" fill-opacity="0.501961" points="96,85 103,82 90,79" />
<polygon fill="#353230" fill-opacity="0.501961" points="117,4 72,7 101,-16" />
<polygon fill="#272a2d" fill-opacity="0.501961" points="153,166 105,192 155,182" />
<polygon fill="#292c29" fill-opacity="0.501961" points="252,170 261,164 247,168" />
<polygon fill="#929b9b" fill-opacity="0.501961" points="-4,159 0,169 12,165" />
<polygon fill="#343d3f" fill-opacity="0.501961" points="231,252 227,212 211,242" />
<polygon fill="#3d3230" fill-opacity="0.501961" points="6,92 19,74 17,106" />
<polygon fill="#ffedce" fill-opacity="0.501961" points="74,72 84,99 66,100" />
<polygon fill="#1d1615" fill-opacity="0.501961" points="170,29 163,95 216,69" />
<polygon fill="#7f6e67" fill-opacity="0.501961" points="218,45 243,38 214,31" />
<polygon fill="#616669" fill-opacity="0.501961" points="48,195 108,187 64,167" />
<polygon fill="#5d5a55" fill-opacity="0.501961" points="216,173 255,159 222,188" />
<polygon fill="#434e52" fill-opacity="0.501961" points="110,243 116,266 120,221" />
<polygon fill="#6f7980" fill-opacity="0.501961" points="40,222 40,210 20,227" />
<polygon fill="#c3825f" fill-opacity="0.501961" points="129,30 157,74 121,57" />
<polygon fill="#a97d65" fill-opacity="0.501961" points="99,27 83,41 116,25" />
<polygon fill="#efb591" fill-opacity="0.501961" points="77,79 91,79 100,69" />
<polygon fill="#7d7974" fill-opacity="0.501961" points="246,179 255,171 230,177" />
<polygon fill="#bd3b3b" fill-opacity="0.501961" points="-4,140 -5,149 28,148" />
<polygon fill="#605651" fill-opacity="0.501961" points="49,88 62,89 62,77" />
<polygon fill="#703e26" fill-opacity="0.501961" points="129,168 111,171 109,179" />
<polygon fill="#555a5d" fill-opacity="0.501961" points="87,221 73,204 92,210" />
<polygon fill="#191d20" fill-opacity="0.501961" points="120,205 88,253 105,265" />
<polygon fill="#576067" fill-opacity="0.501961" points="44,182 20,212 16,246" />
<polygon fill="#3f3a38" fill-opacity="0.501961" points="46,89 66,70 43,45" />
<polygon fill="#544d44" fill-opacity="0.501961" points="248,100 237,113 243,97" />
<polygon fill="#475957" fill-opacity="0.501961" points="255,244 253,237 228,249" />
<polygon fill="#d49e70" fill-opacity="0.501961" points="65,158 81,166 64,164" />
<polygon fill="#432a29" fill-opacity="0.501961" points="243,29 254,36 231,30" />
<polygon fill="#151312" fill-opacity="0.501961" points="235,130 211,72 205,109" />
<polygon fill="#ab785a" fill-opacity="0.501961" points="102,178 100,169 132,161" />
<polygon fill="#332726" fill-opacity="0.501961" points="136,9 157,34 112,16" />
<polygon fill="#bb5c58" fill-opacity="0.501961" points="105,139 112,144 127,137" />
<polygon fill="#790c15" fill-opacity="0.501961" points="271,23 204,23 176,-5" />
<polygon fill="#75777b" fill-opacity="0.501961" points="129,197 118,197 110,208" />
<polygon fill="#b6846c" fill-opacity="0.501961" points="89,82 110,91 97,91" />
<polygon fill="#d5a28d" fill-opacity="0.501961" points="97,94 79,129 74,118" />
<polygon fill="#fec9a9" fill-opacity="0.501961" points="66,75 62,102 72,127" />
<polygon fill="#454f57" fill-opacity="0.501961" points="-7,177 7,188 13,207" />
<polygon fill="#857f78" fill-opacity="0.501961" points="263,130 208,155 245,124" />
<polygon fill="#c94c4a" fill-opacity="0.501961" points="-16,109 2,124 13,121" />
<polygon fill="#6f7070" fill-opacity="0.501961" points="19,158 9,152 31,152" />
<polygon fill="#b17b5b" fill-opacity="0.501961" points="125,83 153,56 129,99" />
<polygon fill="#322219" fill-opacity="0.501961" points="68,155 62,140 67,140" />
<polygon fill="#756f68" fill-opacity="0.501961" points="207,163 257,143 206,145" />
<polygon fill="#b57d60" fill-opacity="0.501961" points="111,67 98,65 110,91" />
<polygon fill="#5f5d58" fill-opacity="0.501961" points="25,90 19,81 49,79" />
<polygon fill="#4f6063" fill-opacity="0.501961" points="222,269 269,256 258,247" />
<polygon fill="#3a342e" fill-opacity="0.501961" points="181,165 203,139 192,167" />
<polygon fill="#48423d" fill-opacity="0.501961" points="197,167 219,162 207,170" />
<polygon fill="#151412" fill-opacity="0.501961" points="227,136 209,134 216,113" />
<polygon fill="#58403e" fill-opacity="0.501961" points="192,25 188,32 215,26" />
<polygon fill="#42484b" fill-opacity="0.501961" points="169,194 182,261 185,223" />
<polygon fill="#171514" fill-opacity="0.501961" points="172,161 156,129 209,138" />
<polygon fill="#b98667" fill-opacity="0.501961" points="120,161 158,109 153,135" />
<polygon fill="#7b7876" fill-opacity="0.501961" points="27,42 16,74 15,51" />
<polygon fill="#222224" fill-opacity="0.501961" points="195,233 181,183 181,224" />
<polygon fill="#515c61" fill-opacity="0.501961" points="170,266 132,239 159,229" />
<polygon fill="#7e7a73" fill-opacity="0.501961" points="244,155 214,166 224,170" />
<polygon fill="#241e1c" fill-opacity="0.501961" points="210,54 215,85 192,69" />
<polygon fill="#444b50" fill-opacity="0.501961" points="48,208 36,209 61,192" />
<polygon fill="#798a8f" fill-opacity="0.501961" points="17,256 10,260 12,242" />
<polygon fill="#141314" fill-opacity="0.501961" points="159,187 201,171 147,156" />
<polygon fill="#5c5b57" fill-opacity="0.501961" points="271,131 271,144 236,156" />
<polygon fill="#4b4f58" fill-opacity="0.501961" points="54,175 35,172 42,177" />
<polygon fill="#635f5c" fill-opacity="0.501961" points="47,64 65,55 72,36" />
<polygon fill="#aa6c50" fill-opacity="0.501961" points="134,123 132,132 105,114" />
<polygon fill="#e4a683" fill-opacity="0.501961" points="117,36 103,34 111,65" />
<polygon fill="#585754" fill-opacity="0.501961" points="62,3 50,17 51,37" />
<polygon fill="#5b4c4a" fill-opacity="0.501961" points="271,27 255,52 243,42" />
<polygon fill="#f2b89d" fill-opacity="0.501961" points="79,88 90,82 88,105" />
<polygon fill="#3c3330" fill-opacity="0.501961" points="53,110 64,133 58,148" />
<polygon fill="#818175" fill-opacity="0.501961" points="245,102 262,97 255,114" />
<polygon fill="#ffd7b7" fill-opacity="0.501961" points="72,67 64,88 94,70" />
<polygon fill="#ffe6cd" fill-opacity="0.501961" points="113,109 115,95 108,111" />
<polygon fill="#545759" fill-opacity="0.501961" points="0,199 -16,189 4,229" />
<polygon fill="#373f44" fill-opacity="0.501961" points="27,229 27,256 18,248" />
<polygon fill="#e4b59a" fill-opacity="0.501961" points="89,127 65,129 69,142" />
<polygon fill="#546164" fill-opacity="0.501961" points="198,260 202,271 237,247" />
<polygon fill="#838b8d" fill-opacity="0.501961" points="4,243 -16,234 -5,189" />
<polygon fill="#652e18" fill-opacity="0.501961" points="141,152 124,168 137,162" />
<polygon fill="#ba7c5c" fill-opacity="0.501961" points="162,114 159,93 135,93" />
<polygon fill="#504844" fill-opacity="0.501961" points="73,50 85,7 104,4" />
<polygon fill="#676e74" fill-opacity="0.501961" points="102,177 87,200 77,190" />
<polygon fill="#8e8c87" fill-opacity="0.501961" points="34,36 47,23 47,32" />
<polygon fill="#707b81" fill-opacity="0.501961" points="12,222 30,222 10,237" />
<polygon fill="#1c2328" fill-opacity="0.501961" points="235,238 244,239 223,252" />
<polygon fill="#444041" fill-opacity="0.501961" points="13,79 10,78 12,67" />
<polygon fill="#6b5d57" fill-opacity="0.501961" points="256,72 229,71 223,84" />
<polygon fill="#5e4741" fill-opacity="0.501961" points="228,50 210,43 217,55" />
<polygon fill="#4d4e51" fill-opacity="0.501961" points="144,210 130,187 114,192" />
<polygon fill="#4d0b0f" fill-opacity="0.501961" points="172,-15 196,24 134,-11" />
<polygon fill="#70787b" fill-opacity="0.501961" points="142,237 156,207 146,207" />
<polygon fill="#312e2a" fill-opacity="0.501961" points="239,208 250,210 239,211" />
<polygon fill="#4d3c39" fill-opacity="0.501961" points="127,24 142,21 138,13" />
<polygon fill="#cb957a" fill-opacity="0.501961" points="118,60 109,91 138,63" />
<polygon fill="#200e0e" fill-opacity="0.501961" points="184,17 124,3 129,-14" />
<polygon fill="#573e31" fill-opacity="0.501961" points="148,91 136,87 150,87" />
<polygon fill="#838d93" fill-opacity="0.501961" points="2,181 13,190 27,169" />
<polygon fill="#e8b59f" fill-opacity="0.501961" points="95,133 100,146 105,134" />
</g>
</svg>