<svg xmlns="http://www.w3.org/2000/svg" version="1.1" width="1024" height="680">
<rect x="0" y="0" width="1024" height="680" fill="#71574d" />
<g transform="scale(4.000000) translate(0.5 0.5)">
<polygon fill="#ffe0b3" fill-opacity="0.501961" points="73,185 59,24 163,43" />
<polygon fill="#000000" fill-opacity="0.501961" points="247,107 172,-16 148,185" />
<polygon fill="#ffb691" fill-opacity="0.501961" points="83,185 57,73 170,102" />
<polygon fill="#c2d5d8" fill-opacity="0.501961" points="-16,3 3,74 68,-16" />
<polygon fill="#090000" fill-opacity="0.501961" points="213,-16 224,140 110,-16" />
<polygon fill="#1b262d" fill-opacity="0.501961" points="34,179 9,77 85,5" />
<polygon fill="#000001" fill-opacity="0.501961" points="203,178 193,53 129,168" />
<polygon fill="#ffeccc" fill-opacity="0.501961" points="119,15 65,61 62,125" />
<polygon fill="#7a0000" fill-opacity="0.501961" points="267,33 252,-16 160,4" />
<polygon fill="#d8815a" fill-opacity="0.501961" points="91,19 156,134 157,29" />
<polygon fill="#04090c" fill-opacity="0.501961" points="68,151 55,86 40,157" />
<polygon fill="#15181b" fill-opacity="0.501961" points="102,-16 137,-3 72,42" />
<polygon fill="#be7957" fill-opacity="0.501961" points="93,185 143,26 152,131" />
<polygon fill="#7b8985" fill-opacity="0.501961" points="218,165 258,34 271,154" />
<polygon fill="#bb1c25" fill-opacity="0.501961" points="2,67 -16,145 27,144" />
<polygon fill="#7ea1b2" fill-opacity="0.501961" points="-1,159 -7,184 73,157" />
<polygon fill="#626a6a" fill-opacity="0.501961" points="-2,77 101,6 50,-10" />
<polygon fill="#b27355" fill-opacity="0.501961" points="162,50 163,99 82,74" />
<polygon fill="#140f11" fill-opacity="0.501961" points="109,-16 237,127 170,-16" />
<polygon fill="#0b0d0e" fill-opacity="0.501961" points="170,74 246,96 139,180" />
<polygon fill="#f1bb96" fill-opacity="0.501961" points="65,161 72,109 124,159" />
<polygon fill="#78736e" fill-opacity="0.501961" points="271,36 208,24 232,94" />
<polygon fill="#e5a483" fill-opacity="0.501961" points="90,25 129,18 119,100" />
<polygon fill="#770006" fill-opacity="0.501961" points="255,29 140,-9 271,-16" />
<polygon fill="#ffdbbf" fill-opacity="0.501961" points="83,42 72,140 59,103" />
<polygon fill="#4e4a47" fill-opacity="0.501961" points="11,62 104,4 31,116" />
<polygon fill="#666c69" fill-opacity="0.501961" points="271,181 218,129 184,153" />
<polygon fill="#0f1315" fill-opacity="0.501961" points="149,143 215,169 97,182" />
<polygon fill="#91342f" fill-opacity="0.501961" points="129,133 137,122 88,122" />
<polygon fill="#322c2c" fill-opacity="0.501961" points="65,156 56,68 14,160" />
<polygon fill="#362a27" fill-opacity="0.501961" points="148,25 132,-16 61,0" />
<polygon fill="#411e16" fill-opacity="0.501961" points="107,80 101,72 79,72" />
<polygon fill="#c88f6d" fill-opacity="0.501961" points="158,121 163,74 122,164" />
<polygon fill="#b7b5b1" fill-opacity="0.501961" points="24,16 -16,108 2,-16" />
<polygon fill="#5e6d78" fill-opacity="0.501961" points="18,175 101,174 39,152" />
<polygon fill="#b96b46" fill-opacity="0.501961" points="139,19 162,58 102,18" />
<polygon fill="#39251c" fill-opacity="0.501961" points="146,78 155,87 133,83" />
<polygon fill="#b47a5c" fill-opacity="0.501961" points="107,95 80,108 89,132" />
<polygon fill="#ffe2cb" fill-opacity="0.501961" points="120,74 104,105 117,105" />
<polygon fill="#271b1a" fill-opacity="0.501961" points="20,136 21,105 63,156" />
<polygon fill="#151111" fill-opacity="0.501961" points="234,97 203,24 142,152" />
<polygon fill="#a76646" fill-opacity="0.501961" points="124,72 139,124 119,168" />
<polygon fill="#ba886d" fill-opacity="0.501961" points="139,58 160,85 81,57" />
<polygon fill="#171412" fill-opacity="0.501961" points="240,98 157,26 179,158" />
<polygon fill="#ffe0c3" fill-opacity="0.501961" points="63,77 80,104 89,34" />
<polygon fill="#87837f" fill-opacity="0.501961" points="42,-10 52,23 12,69" />
<polygon fill="#6c4745" fill-opacity="0.501961" points="215,22 189,25 181,13" />
<polygon fill="#d09e84" fill-opacity="0.501961" points="131,84 152,95 148,136" />
<polygon fill="#f3bba0" fill-opacity="0.501961" points="64,95 100,151 65,128" />
<polygon fill="#87837c" fill-opacity="0.501961" points="237,120 268,122 195,154" />
<polygon fill="#93a2a8" fill-opacity="0.501961" points="26,166 6,171 -1,153" />
<polygon fill="#48403c" fill-opacity="0.501961" points="41,34 43,138 69,56" />
<polygon fill="#243641" fill-opacity="0.501961" points="21,161 -3,152 54,146" />
<polygon fill="#fdc5aa" fill-opacity="0.501961" points="111,57 73,52 98,25" />
<polygon fill="#716f6b" fill-opacity="0.501961" points="63,38 104,-4 38,28" />
<polygon fill="#261b1b" fill-opacity="0.501961" points="127,16 91,15 150,-16" />
<polygon fill="#a66041" fill-opacity="0.501961" points="157,102 143,25 162,51" />
<polygon fill="#daab7f" fill-opacity="0.501961" points="72,131 117,185 64,157" />
<polygon fill="#6e6b65" fill-opacity="0.501961" points="36,73 19,98 19,73" />
<polygon fill="#817c74" fill-opacity="0.501961" points="261,139 257,98 232,104" />
<polygon fill="#c38c67" fill-opacity="0.501961" points="93,161 150,122 123,160" />
<polygon fill="#141211" fill-opacity="0.501961" points="226,128 223,64 137,148" />
<polygon fill="#a4664c" fill-opacity="0.501961" points="134,125 99,106 129,113" />
<polygon fill="#847f73" fill-opacity="0.501961" points="236,91 224,75 271,67" />
<polygon fill="#4d040e" fill-opacity="0.501961" points="271,12 207,19 271,29" />
<polygon fill="#636872" fill-opacity="0.501961" points="34,146 12,153 -9,145" />
<polygon fill="#c48b6c" fill-opacity="0.501961" points="131,27 147,80 94,72" />
<polygon fill="#372d28" fill-opacity="0.501961" points="113,167 166,184 142,150" />
<polygon fill="#ba896c" fill-opacity="0.501961" points="122,19 78,38 99,20" />
<polygon fill="#ffddc9" fill-opacity="0.501961" points="90,86 63,79 83,102" />
<polygon fill="#28211e" fill-opacity="0.501961" points="67,148 23,133 68,133" />
<polygon fill="#840413" fill-opacity="0.501961" points="271,4 160,-13 233,20" />
<polygon fill="#af4c4c" fill-opacity="0.501961" points="15,121 1,67 -3,115" />
<polygon fill="#c93c3b" fill-opacity="0.501961" points="-4,141 32,143 -16,127" />
<polygon fill="#382c29" fill-opacity="0.501961" points="37,100 62,84 59,105" />
<polygon fill="#4c504d" fill-opacity="0.501961" points="258,159 216,177 198,159" />
<polygon fill="#434646" fill-opacity="0.501961" points="105,-15 50,23 67,-16" />
<polygon fill="#14100f" fill-opacity="0.501961" points="162,120 166,58 245,94" />
<polygon fill="#3a2e2d" fill-opacity="0.501961" points="11,69 6,87 24,110" />
<polygon fill="#1c1414" fill-opacity="0.501961" points="127,-14 212,43 219,138" />
<polygon fill="#6c6761" fill-opacity="0.501961" points="200,159 271,139 199,137" />
<polygon fill="#6c4336" fill-opacity="0.501961" points="80,73 106,81 105,73" />
<polygon fill="#704334" fill-opacity="0.501961" points="165,76 140,65 152,65" />
<polygon fill="#f0bda0" fill-opacity="0.501961" points="61,118 85,152 63,80" />
<polygon fill="#ed989e" fill-opacity="0.501961" points="119,130 95,131 99,125" />
<polygon fill="#5d666d" fill-opacity="0.501961" points="110,185 22,172 66,160" />
<polygon fill="#685552" fill-opacity="0.501961" points="217,50 271,34 213,19" />
<polygon fill="#ac6348" fill-opacity="0.501961" points="107,84 90,83 110,74" />
<polygon fill="#6d1a1f" fill-opacity="0.501961" points="-16,148 26,144 -15,137" />
<polygon fill="#d5a686" fill-opacity="0.501961" points="107,107 70,143 67,128" />
<polygon fill="#362a29" fill-opacity="0.501961" points="28,120 15,114 36,81" />
<polygon fill="#751f1e" fill-opacity="0.501961" points="-2,131 22,122 20,136" />
<polygon fill="#310a0d" fill-opacity="0.501961" points="148,4 205,19 162,-16" />
<polygon fill="#665f5d" fill-opacity="0.501961" points="61,73 35,98 39,84" />
<polygon fill="#afaba7" fill-opacity="0.501961" points="10,73 1,-16 -16,52" />
<polygon fill="#ffd9b6" fill-opacity="0.501961" points="76,155 83,153 69,142" />
<polygon fill="#ad8578" fill-opacity="0.501961" points="106,61 75,62 86,56" />
<polygon fill="#49413d" fill-opacity="0.501961" points="74,45 124,-16 90,-16" />
<polygon fill="#392927" fill-opacity="0.501961" points="144,4 104,2 156,32" />
<polygon fill="#837970" fill-opacity="0.501961" points="236,66 271,49 222,49" />
<polygon fill="#b26e54" fill-opacity="0.501961" points="146,138 98,129 135,149" />
<polygon fill="#f2bc9d" fill-opacity="0.501961" points="102,127 102,158 75,135" />
<polygon fill="#322b29" fill-opacity="0.501961" points="58,110 68,138 23,157" />
<polygon fill="#b88964" fill-opacity="0.501961" points="104,158 110,174 77,146" />
<polygon fill="#8a837b" fill-opacity="0.501961" points="237,149 220,165 263,146" />
<polygon fill="#262521" fill-opacity="0.501961" points="186,164 185,114 199,138" />
<polygon fill="#635952" fill-opacity="0.501961" points="250,99 250,89 225,85" />
<polygon fill="#120f0f" fill-opacity="0.501961" points="194,181 165,99 147,151" />
<polygon fill="#888c86" fill-opacity="0.501961" points="238,169 271,158 231,185" />
<polygon fill="#c07d5d" fill-opacity="0.501961" points="142,89 161,106 162,84" />
<polygon fill="#5b5652" fill-opacity="0.501961" points="258,141 211,159 235,140" />
<polygon fill="#7c766e" fill-opacity="0.501961" points="250,139 211,154 207,135" />
<polygon fill="#ca8d6a" fill-opacity="0.501961" points="133,87 139,33 109,21" />
<polygon fill="#903c35" fill-opacity="0.501961" points="120,122 133,127 121,136" />
<polygon fill="#160d0e" fill-opacity="0.501961" points="203,22 180,37 216,52" />
<polygon fill="#b48363" fill-opacity="0.501961" points="132,123 159,112 150,133" />
<polygon fill="#e0a27c" fill-opacity="0.501961" points="100,62 98,73 79,73" />
<polygon fill="#f1b1a0" fill-opacity="0.501961" points="91,75 92,95 70,112" />
<polygon fill="#e1aa8b" fill-opacity="0.501961" points="116,28 114,61 91,30" />
<polygon fill="#605048" fill-opacity="0.501961" points="209,30 225,75 226,48" />
<polygon fill="#675c58" fill-opacity="0.501961" points="43,114 44,130 49,113" />
<polygon fill="#a09f9c" fill-opacity="0.501961" points="23,38 35,18 4,-16" />
<polygon fill="#7e7975" fill-opacity="0.501961" points="44,34 2,65 64,-16" />
<polygon fill="#9f5d45" fill-opacity="0.501961" points="127,16 105,18 146,27" />
<polygon fill="#bb7a61" fill-opacity="0.501961" points="107,98 86,116 93,96" />
<polygon fill="#7a6861" fill-opacity="0.501961" points="219,43 248,32 209,22" />
<polygon fill="#302725" fill-opacity="0.501961" points="126,2 78,32 100,8" />
<polygon fill="#494844" fill-opacity="0.501961" points="181,155 206,165 215,156" />
<polygon fill="#7f7e79" fill-opacity="0.501961" points="53,38 73,11 59,17" />
<polygon fill="#d69a75" fill-opacity="0.501961" points="126,155 101,130 107,153" />
<polygon fill="#ffdcc2" fill-opacity="0.501961" points="90,42 71,59 98,53" />
<polygon fill="#c64945" fill-opacity="0.501961" points="-9,131 -16,141 25,139" />
<polygon fill="#5c5651" fill-opacity="0.501961" points="48,57 92,-3 74,50" />
<polygon fill="#10100f" fill-opacity="0.501961" points="222,74 234,123 173,86" />
<polygon fill="#ffd4b4" fill-opacity="0.501961" points="70,61 92,69 64,72" />
<polygon fill="#5b0c12" fill-opacity="0.501961" points="165,-11 185,14 235,23" />
<polygon fill="#716765" fill-opacity="0.501961" points="24,148 38,144 28,143" />
<polygon fill="#ffdfc5" fill-opacity="0.501961" points="105,106 114,106 116,89" />
<polygon fill="#824546" fill-opacity="0.501961" points="12,94 2,99 4,70" />
<polygon fill="#fefad5" fill-opacity="0.501961" points="76,69 79,93 69,87" />
<polygon fill="#7b736d" fill-opacity="0.501961" points="209,160 232,153 219,166" />
<polygon fill="#d89e88" fill-opacity="0.501961" points="123,75 87,92 72,121" />
<polygon fill="#3c322f" fill-opacity="0.501961" points="50,74 41,98 68,139" />
<polygon fill="#b08568" fill-opacity="0.501961" points="69,139 70,133 79,148" />
<polygon fill="#1f1514" fill-opacity="0.501961" points="217,58 152,-16 167,82" />
<polygon fill="#242221" fill-opacity="0.501961" points="44,154 63,156 53,121" />
<polygon fill="#b07f60" fill-opacity="0.501961" points="157,73 132,63 162,88" />
<polygon fill="#8e8a87" fill-opacity="0.501961" points="33,41 10,45 20,53" />
<polygon fill="#524b48" fill-opacity="0.501961" points="231,115 231,105 239,108" />
<polygon fill="#7b7874" fill-opacity="0.501961" points="259,135 232,133 224,120" />
<polygon fill="#4c4b49" fill-opacity="0.501961" points="39,79 48,32 11,73" />
<polygon fill="#151615" fill-opacity="0.501961" points="212,133 225,129 223,95" />
<polygon fill="#b16055" fill-opacity="0.501961" points="121,129 95,124 113,120" />
<polygon fill="#2f3231" fill-opacity="0.501961" points="268,156 242,162 271,164" />
<polygon fill="#ffc9af" fill-opacity="0.501961" points="62,98 65,126 77,96" />
<polygon fill="#7b7f85" fill-opacity="0.501961" points="16,163 23,178 42,161" />
<polygon fill="#a35d41" fill-opacity="0.501961" points="126,85 122,95 132,109" />
<polygon fill="#8f5131" fill-opacity="0.501961" points="96,185 107,167 126,159" />
<polygon fill="#4a2d23" fill-opacity="0.501961" points="142,80 139,85 155,84" />
<polygon fill="#8e979a" fill-opacity="0.501961" points="21,172 -10,152 10,157" />
<polygon fill="#3e3937" fill-opacity="0.501961" points="54,77 67,62 42,40" />
<polygon fill="#6d7678" fill-opacity="0.501961" points="14,151 29,146 0,147" />
<polygon fill="#30363c" fill-opacity="0.501961" points="20,160 29,151 0,150" />
<polygon fill="#523b35" fill-opacity="0.501961" points="123,19 137,8 142,17" />
<polygon fill="#790c15" fill-opacity="0.501961" points="209,16 259,15 161,-16" />
<polygon fill="#cf977c" fill-opacity="0.501961" points="135,90 155,107 134,120" />
<polygon fill="#584746" fill-opacity="0.501961" points="248,33 263,25 260,57" />
<polygon fill="#f3be9e" fill-opacity="0.501961" points="75,137 92,155 106,148" />
<polygon fill="#34302e" fill-opacity="0.501961" points="34,113 38,146 56,159" />
<polygon fill="#6b554e" fill-opacity="0.501961" points="240,66 271,56 271,70" />
<polygon fill="#5f5d5b" fill-opacity="0.501961" points="11,60 9,74 33,47" />
<polygon fill="#2b1e1d" fill-opacity="0.501961" points="43,105 28,139 22,130" />
<polygon fill="#6e7174" fill-opacity="0.501961" points="87,170 47,156 66,185" />
<polygon fill="#4e3b38" fill-opacity="0.501961" points="197,21 193,33 186,15" />
<polygon fill="#bc947d" fill-opacity="0.501961" points="98,26 83,34 82,44" />
<polygon fill="#50423a" fill-opacity="0.501961" points="100,80 97,72 89,72" />
<polygon fill="#bf7b57" fill-opacity="0.501961" points="151,66 117,18 136,25" />
<polygon fill="#3a2724" fill-opacity="0.501961" points="251,29 239,21 226,21" />
<polygon fill="#ac725a" fill-opacity="0.501961" points="67,63 73,54 70,53" />
<polygon fill="#181514" fill-opacity="0.501961" points="168,153 164,76 207,134" />
<polygon fill="#363530" fill-opacity="0.501961" points="250,153 242,157 246,157" />
<polygon fill="#272b2d" fill-opacity="0.501961" points="148,153 113,170 157,180" />
<polygon fill="#514d4b" fill-opacity="0.501961" points="48,30 54,22 52,11" />
<polygon fill="#ecb799" fill-opacity="0.501961" points="121,84 101,99 116,78" />
<polygon fill="#c15052" fill-opacity="0.501961" points="6,70 2,77 -16,60" />
<polygon fill="#281d18" fill-opacity="0.501961" points="68,136 61,143 63,127" />
<polygon fill="#c28c65" fill-opacity="0.501961" points="84,133 88,105 93,125" />
<polygon fill="#edbea3" fill-opacity="0.501961" points="62,117 67,129 88,120" />
<polygon fill="#7b776e" fill-opacity="0.501961" points="271,85 245,96 233,130" />
<polygon fill="#9f3636" fill-opacity="0.501961" points="23,136 31,142 12,140" />
<polygon fill="#7d3736" fill-opacity="0.501961" points="14,103 21,123 16,133" />
<polygon fill="#605550" fill-opacity="0.501961" points="40,105 28,118 39,86" />
<polygon fill="#b58064" fill-opacity="0.501961" points="96,58 110,83 112,60" />
<polygon fill="#d8a486" fill-opacity="0.501961" points="113,106 126,108 119,97" />
<polygon fill="#f9b798" fill-opacity="0.501961" points="82,79 83,87 89,76" />
<polygon fill="#625e5a" fill-opacity="0.501961" points="50,56 74,27 66,48" />
<polygon fill="#6e6761" fill-opacity="0.501961" points="198,160 213,155 209,132" />
<polygon fill="#24201d" fill-opacity="0.501961" points="211,48 192,61 212,75" />
<polygon fill="#826150" fill-opacity="0.501961" points="79,39 87,27 100,21" />
<polygon fill="#271917" fill-opacity="0.501961" points="170,62 174,29 131,-16" />
<polygon fill="#c34b4b" fill-opacity="0.501961" points="10,107 15,113 -8,120" />
<polygon fill="#0f0a07" fill-opacity="0.501961" points="137,155 146,139 162,138" />
<polygon fill="#cb957a" fill-opacity="0.501961" points="120,85 134,56 115,58" />
<polygon fill="#e1b197" fill-opacity="0.501961" points="90,114 111,113 100,108" />
<polygon fill="#b67e5f" fill-opacity="0.501961" points="122,71 146,59 121,95" />
<polygon fill="#626461" fill-opacity="0.501961" points="44,35 36,31 29,54" />
<polygon fill="#17181a" fill-opacity="0.501961" points="223,185 150,158 203,162" />
<polygon fill="#5c6369" fill-opacity="0.501961" points="34,156 31,162 19,160" />
<polygon fill="#ffd4b7" fill-opacity="0.501961" points="65,75 85,61 91,66" />
<polygon fill="#120c0d" fill-opacity="0.501961" points="202,38 181,46 173,16" />
<polygon fill="#2d1c19" fill-opacity="0.501961" points="28,138 38,140 29,145" />
<polygon fill="#ad7759" fill-opacity="0.501961" points="95,158 125,159 105,166" />
<polygon fill="#d26970" fill-opacity="0.501961" points="121,129 121,133 108,132" />
<polygon fill="#37302f" fill-opacity="0.501961" points="21,113 30,85 41,85" />
<polygon fill="#4b2211" fill-opacity="0.501961" points="132,162 126,161 138,150" />
<polygon fill="#5d413e" fill-opacity="0.501961" points="210,27 203,18 228,23" />
<polygon fill="#ba8266" fill-opacity="0.501961" points="125,101 116,125 111,117" />
<polygon fill="#8c8c86" fill-opacity="0.501961" points="36,27 45,28 48,15" />
<polygon fill="#6d6564" fill-opacity="0.501961" points="38,92 54,80 42,84" />
<polygon fill="#716e6a" fill-opacity="0.501961" points="69,35 66,12 55,39" />
<polygon fill="#7d7875" fill-opacity="0.501961" points="16,43 13,74 28,34" />
<polygon fill="#645f5b" fill-opacity="0.501961" points="28,81 18,63 23,96" />
<polygon fill="#81796e" fill-opacity="0.501961" points="242,69 271,84 226,85" />
<polygon fill="#a3a09f" fill-opacity="0.501961" points="25,23 20,-16 3,66" />
<polygon fill="#bb8869" fill-opacity="0.501961" points="128,144 158,101 147,136" />
<polygon fill="#362c28" fill-opacity="0.501961" points="50,107 61,111 58,84" />
<polygon fill="#342b2a" fill-opacity="0.501961" points="48,98 36,103 47,85" />
<polygon fill="#6f6a65" fill-opacity="0.501961" points="39,15 34,26 53,7" />
<polygon fill="#58534f" fill-opacity="0.501961" points="115,-10 70,7 85,18" />
<polygon fill="#925431" fill-opacity="0.501961" points="138,150 127,159 139,142" />
<polygon fill="#c28666" fill-opacity="0.501961" points="111,86 95,78 87,83" />
<polygon fill="#392e2c" fill-opacity="0.501961" points="15,109 42,130 15,93" />
<polygon fill="#696563" fill-opacity="0.501961" points="51,70 39,74 44,75" />
<polygon fill="#434a54" fill-opacity="0.501961" points="45,166 -3,185 85,185" />
<polygon fill="#962c2c" fill-opacity="0.501961" points="19,123 8,135 -2,116" />
<polygon fill="#ab6e4c" fill-opacity="0.501961" points="152,81 161,72 163,97" />
<polygon fill="#7b7068" fill-opacity="0.501961" points="271,49 218,48 234,69" />
<polygon fill="#deaa97" fill-opacity="0.501961" points="86,102 72,105 74,114" />
<polygon fill="#1e0705" fill-opacity="0.501961" points="215,21 227,21 220,19" />
<polygon fill="#322e29" fill-opacity="0.501961" points="192,133 194,127 186,119" />
<polygon fill="#d9ab7d" fill-opacity="0.501961" points="73,163 89,157 97,172" />
<polygon fill="#894e34" fill-opacity="0.501961" points="162,78 163,60 158,71" />
<polygon fill="#a5674d" fill-opacity="0.501961" points="130,116 108,109 117,116" />
<polygon fill="#3e3a39" fill-opacity="0.501961" points="44,70 56,36 45,36" />
<polygon fill="#ae6547" fill-opacity="0.501961" points="157,43 161,71 132,22" />
<polygon fill="#0c0b0a" fill-opacity="0.501961" points="178,92 215,121 197,86" />
<polygon fill="#fed4b6" fill-opacity="0.501961" points="79,46 97,43 67,69" />
<polygon fill="#e0a887" fill-opacity="0.501961" points="107,145 107,156 94,156" />
<polygon fill="#585752" fill-opacity="0.501961" points="244,157 270,148 257,147" />
<polygon fill="#362f2b" fill-opacity="0.501961" points="198,148 198,141 180,153" />
<polygon fill="#b57b5f" fill-opacity="0.501961" points="79,112 89,114 99,104" />
<polygon fill="#544b43" fill-opacity="0.501961" points="76,33 63,47 64,69" />
<polygon fill="#403635" fill-opacity="0.501961" points="44,88 49,123 61,79" />
<polygon fill="#b47555" fill-opacity="0.501961" points="147,65 145,43 155,67" />
<polygon fill="#646769" fill-opacity="0.501961" points="112,185 61,158 57,177" />
<polygon fill="#312221" fill-opacity="0.501961" points="108,-16 142,21 114,10" />
<polygon fill="#1a1816" fill-opacity="0.501961" points="234,124 203,97 220,97" />
<polygon fill="#994e4c" fill-opacity="0.501961" points="5,72 2,105 -16,82" />
<polygon fill="#39312b" fill-opacity="0.501961" points="216,56 226,70 224,78" />
<polygon fill="#ba7958" fill-opacity="0.501961" points="105,95 101,108 99,103" />
<polygon fill="#ffc7a6" fill-opacity="0.501961" points="68,93 66,68 63,82" />
<polygon fill="#58413e" fill-opacity="0.501961" points="218,49 212,41 225,41" />
<polygon fill="#834e33" fill-opacity="0.501961" points="68,149 62,152 66,147" />
<polygon fill="#bb7f63" fill-opacity="0.501961" points="146,84 161,108 157,94" />
<polygon fill="#f0bb9f" fill-opacity="0.501961" points="106,34 100,58 89,34" />
<polygon fill="#959290" fill-opacity="0.501961" points="24,43 32,42 16,53" />
<polygon fill="#45312c" fill-opacity="0.501961" points="146,81 145,86 136,82" />
<polygon fill="#4a3e3f" fill-opacity="0.501961" points="8,89 6,74 16,69" />
<polygon fill="#b88869" fill-opacity="0.501961" points="76,143 79,149 88,153" />
<polygon fill="#695d55" fill-opacity="0.501961" points="240,66 226,67 225,79" />
<polygon fill="#747a7f" fill-opacity="0.501961" points="51,158 65,168 26,161" />
<polygon fill="#7b0810" fill-opacity="0.501961" points="270,11 239,-16 231,22" />
<polygon fill="#ae7956" fill-opacity="0.501961" points="129,140 149,135 119,162" />
<polygon fill="#fff2ca" fill-opacity="0.501961" points="72,71 68,81 83,77" />
<polygon fill="#261a1a" fill-opacity="0.501961" points="31,128 22,137 24,121" />
<polygon fill="#d5997b" fill-opacity="0.501961" points="102,85 108,100 92,96" />
<polygon fill="#f7bcaa" fill-opacity="0.501961" points="83,103 93,88 67,104" />
<polygon fill="#383834" fill-opacity="0.501961" points="203,161 233,182 194,178" />
<polygon fill="#514d49" fill-opacity="0.501961" points="83,28 82,18 63,28" />
<polygon fill="#372f2b" fill-opacity="0.501961" points="107,4 89,14 90,27" />
<polygon fill="#6d4634" fill-opacity="0.501961" points="153,33 142,25 149,27" />
<polygon fill="#4e4945" fill-opacity="0.501961" points="220,156 216,154 230,150" />
<polygon fill="#58524c" fill-opacity="0.501961" points="194,162 194,148 203,152" />
<polygon fill="#853e2c" fill-opacity="0.501961" points="134,126 123,128 122,124" />
<polygon fill="#77716b" fill-opacity="0.501961" points="252,157 236,162 223,158" />
<polygon fill="#423a38" fill-opacity="0.501961" points="56,132 60,112 62,143" />
<polygon fill="#480005" fill-opacity="0.501961" points="237,22 249,18 254,23" />
<polygon fill="#af7655" fill-opacity="0.501961" points="104,75 92,71 108,71" />
<polygon fill="#786a62" fill-opacity="0.501961" points="212,25 228,37 248,30" />
<polygon fill="#e5b197" fill-opacity="0.501961" points="91,70 99,63 89,61" />
<polygon fill="#621f23" fill-opacity="0.501961" points="17,146 -1,146 6,142" />
<polygon fill="#625651" fill-opacity="0.501961" points="234,117 235,102 240,117" />
<polygon fill="#c37e4e" fill-opacity="0.501961" points="81,71 87,72 85,74" />
<polygon fill="#dfab93" fill-opacity="0.501961" points="91,127 109,126 85,134" />
<polygon fill="#9d2b2e" fill-opacity="0.501961" points="-4,142 -11,132 17,144" />
<polygon fill="#433e3a" fill-opacity="0.501961" points="114,5 62,-2 93,-16" />
<polygon fill="#b8aba5" fill-opacity="0.501961" points="7,65 -16,74 1,53" />
<polygon fill="#5f5c57" fill-opacity="0.501961" points="217,185 244,155 194,185" />
<polygon fill="#847f78" fill-opacity="0.501961" points="266,121 217,143 234,125" />
<polygon fill="#8f3334" fill-opacity="0.501961" points="13,96 15,102 0,109" />
</g>
</svg>