<svg xmlns="http://www.w3.org/2000/svg" version="1.1" width="460" height="1024">
<rect x="0" y="0" width="460" height="1024" fill="#806a5f" />
<g transform="scale(4.000000) translate(0.5 0.5)">
<polygon fill="#ffffff" fill-opacity="0.501961" points="130,-13 -16,2 103,32" />
<polygon fill="#f1f4e8" fill-opacity="0.501961" points="126,182 130,93 9,184" />
<polygon fill="#000000" fill-opacity="0.501961" points="58,144 76,31 12,139" />
<polygon fill="#5c1c0a" fill-opacity="0.501961" points="130,249 -16,263 19,165" />
<polygon fill="#ffffff" fill-opacity="0.501961" points="76,151 43,207 44,146" />
<polygon fill="#000000" fill-opacity="0.501961" points="86,133 74,97 119,74" />
<polygon fill="#000000" fill-opacity="0.501961" points="-16,6 3,79 25,26" />
<polygon fill="#000102" fill-opacity="0.501961" points="45,147 76,66 50,18" />
<polygon fill="#ffffff" fill-opacity="0.501961" points="-16,-5 106,-1 19,20" />
<polygon fill="#090000" fill-opacity="0.501961" points="-3,137 -16,102 89,141" />
<polygon fill="#211009" fill-opacity="0.501961" points="45,218 130,205 45,271" />
<polygon fill="#d59076" fill-opacity="0.501961" points="50,95 35,12 7,122" />
<polygon fill="#e7f6ed" fill-opacity="0.501961" points="79,112 73,134 60,80" />
<polygon fill="#e9ffff" fill-opacity="0.501961" points="61,25 61,42 103,16" />
<polygon fill="#a76544" fill-opacity="0.501961" points="39,271 39,148 -16,110" />
<polygon fill="#2b0000" fill-opacity="0.501961" points="-1,271 29,188 -15,202" />
<polygon fill="#001c24" fill-opacity="0.501961" points="34,16 70,17 53,38" />
<polygon fill="#f9d0b9" fill-opacity="0.501961" points="113,52 96,46 100,85" />
<polygon fill="#ad9281" fill-opacity="0.501961" points="55,179 112,205 111,141" />
<polygon fill="#d1b1a2" fill-opacity="0.501961" points="35,80 24,7 51,44" />
<polygon fill="#b0735c" fill-opacity="0.501961" points="79,246 98,211 126,271" />
<polygon fill="#ffffff" fill-opacity="0.501961" points="62,141 84,161 41,179" />
<polygon fill="#d3e2de" fill-opacity="0.501961" points="130,68 95,117 130,133" />
<polygon fill="#000000" fill-opacity="0.501961" points="52,148 26,121 60,82" />
<polygon fill="#000000" fill-opacity="0.501961" points="122,265 124,194 106,217" />
<polygon fill="#ffffff" fill-opacity="0.501961" points="101,197 108,190 112,204" />
<polygon fill="#ffffff" fill-opacity="0.501961" points="-16,2 56,14 121,-12" />
<polygon fill="#0a191f" fill-opacity="0.501961" points="22,62 12,10 -16,63" />
<polygon fill="#ab7858" fill-opacity="0.501961" points="42,182 43,271 12,251" />
<polygon fill="#565245" fill-opacity="0.501961" points="111,18 81,80 61,57" />
<polygon fill="#9f5f4a" fill-opacity="0.501961" points="25,119 45,98 -16,53" />
<polygon fill="#2c4144" fill-opacity="0.501961" points="79,129 78,150 60,132" />
<polygon fill="#a6c5bd" fill-opacity="0.501961" points="69,41 107,-16 130,17" />
<polygon fill="#402311" fill-opacity="0.501961" points="35,148 -16,64 4,137" />
<polygon fill="#9d6450" fill-opacity="0.501961" points="120,182 57,230 58,176" />
<polygon fill="#c5a285" fill-opacity="0.501961" points="22,155 3,195 25,184" />
<polygon fill="#0c0a0b" fill-opacity="0.501961" points="83,221 48,234 75,271" />
<polygon fill="#08090a" fill-opacity="0.501961" points="78,102 51,67 53,27" />
<polygon fill="#000008" fill-opacity="0.501961" points="-16,239 11,271 6,219" />
<polygon fill="#fffffd" fill-opacity="0.501961" points="41,158 85,149 43,184" />
<polygon fill="#8f8c82" fill-opacity="0.501961" points="59,131 61,107 101,144" />
<polygon fill="#c69585" fill-opacity="0.501961" points="72,84 104,86 113,54" />
<polygon fill="#050705" fill-opacity="0.501961" points="82,110 114,86 87,128" />
<polygon fill="#f9ffff" fill-opacity="0.501961" points="94,3 -16,14 54,-16" />
<polygon fill="#607f90" fill-opacity="0.501961" points="47,14 17,24 7,10" />
<polygon fill="#ffffff" fill-opacity="0.501961" points="89,17 64,24 64,34" />
<polygon fill="#650e1a" fill-opacity="0.501961" points="36,94 9,88 27,102" />
<polygon fill="#805039" fill-opacity="0.501961" points="32,143 46,214 3,129" />
<polygon fill="#be906f" fill-opacity="0.501961" points="44,93 8,110 25,118" />
<polygon fill="#31221c" fill-opacity="0.501961" points="41,70 49,81 88,50" />
<polygon fill="#fffff6" fill-opacity="0.501961" points="57,158 51,190 46,143" />
<polygon fill="#424e36" fill-opacity="0.501961" points="128,20 96,20 117,28" />
<polygon fill="#8a081c" fill-opacity="0.501961" points="-8,232 -16,201 31,186" />
<polygon fill="#5d2c1d" fill-opacity="0.501961" points="64,233 39,215 56,185" />
<polygon fill="#cda593" fill-opacity="0.501961" points="51,49 49,73 28,19" />
<polygon fill="#000004" fill-opacity="0.501961" points="43,141 9,123 51,111" />
<polygon fill="#1c1b14" fill-opacity="0.501961" points="105,95 122,41 120,88" />
<polygon fill="#a59e93" fill-opacity="0.501961" points="96,191 130,110 60,178" />
<polygon fill="#7a9480" fill-opacity="0.501961" points="130,44 78,34 130,25" />
<polygon fill="#ffffff" fill-opacity="0.501961" points="23,-10 64,-5 55,19" />
<polygon fill="#b0c7cb" fill-opacity="0.501961" points="59,128 82,126 87,135" />
<polygon fill="#4e554e" fill-opacity="0.501961" points="37,140 44,144 46,159" />
<polygon fill="#050a0b" fill-opacity="0.501961" points="77,130 71,140 79,145" />
<polygon fill="#d1b49b" fill-opacity="0.501961" points="39,137 34,151 42,162" />
<polygon fill="#ffffff" fill-opacity="0.501961" points="109,189 101,200 108,201" />
<polygon fill="#3e6359" fill-opacity="0.501961" points="56,27 66,16 87,12" />
<polygon fill="#e1fcfb" fill-opacity="0.501961" points="68,111 66,91 77,112" />
<polygon fill="#403c32" fill-opacity="0.501961" points="58,115 62,91 67,129" />
<polygon fill="#0e1910" fill-opacity="0.501961" points="66,43 83,39 51,67" />
<polygon fill="#85513b" fill-opacity="0.501961" points="11,271 12,220 37,185" />
<polygon fill="#c0917b" fill-opacity="0.501961" points="37,61 6,71 46,87" />
<polygon fill="#5a3931" fill-opacity="0.501961" points="91,64 62,71 66,52" />
<polygon fill="#ffffff" fill-opacity="0.501961" points="61,177 64,139 75,160" />
<polygon fill="#d69789" fill-opacity="0.501961" points="87,84 72,75 74,93" />
<polygon fill="#000e09" fill-opacity="0.501961" points="102,209 89,217 89,208" />
<polygon fill="#000205" fill-opacity="0.501961" points="-16,160 5,107 -16,59" />
<polygon fill="#0a1a21" fill-opacity="0.501961" points="8,12 4,72 -16,46" />
<polygon fill="#6d4134" fill-opacity="0.501961" points="83,265 73,244 95,211" />
<polygon fill="#1f1812" fill-opacity="0.501961" points="88,134 74,90 96,111" />
<polygon fill="#340000" fill-opacity="0.501961" points="104,247 107,256 100,254" />
<polygon fill="#282315" fill-opacity="0.501961" points="120,68 122,52 108,46" />
<polygon fill="#b0b6b0" fill-opacity="0.501961" points="113,140 80,149 105,99" />
<polygon fill="#fdffff" fill-opacity="0.501961" points="96,-2 34,15 -3,-16" />
<polygon fill="#ffffff" fill-opacity="0.501961" points="45,193 46,200 50,193" />
<polygon fill="#d3eff5" fill-opacity="0.501961" points="84,147 79,152 79,130" />
<polygon fill="#00080a" fill-opacity="0.501961" points="42,149 35,124 52,88" />
<polygon fill="#834e3b" fill-opacity="0.501961" points="68,226 93,204 45,187" />
<polygon fill="#c9e1da" fill-opacity="0.501961" points="27,-6 -5,19 -8,3" />
<polygon fill="#c7cfc9" fill-opacity="0.501961" points="65,81 64,91 61,81" />
<polygon fill="#b49b94" fill-opacity="0.501961" points="77,54 88,44 66,55" />
<polygon fill="#af7c5a" fill-opacity="0.501961" points="26,140 -16,201 23,177" />
<polygon fill="#ffffff" fill-opacity="0.501961" points="130,6 130,22 107,7" />
<polygon fill="#a88c7f" fill-opacity="0.501961" points="85,194 107,174 48,175" />
<polygon fill="#a4715b" fill-opacity="0.501961" points="89,271 111,234 90,227" />
<polygon fill="#9f6e54" fill-opacity="0.501961" points="34,63 25,21 17,57" />
<polygon fill="#ffffff" fill-opacity="0.501961" points="53,188 43,180 58,179" />
<polygon fill="#000003" fill-opacity="0.501961" points="108,223 123,260 130,173" />
<polygon fill="#f3faff" fill-opacity="0.501961" points="22,19 20,13 27,13" />
<polygon fill="#795136" fill-opacity="0.501961" points="130,192 98,177 130,216" />
<polygon fill="#2d3232" fill-opacity="0.501961" points="21,52 21,23 6,11" />
<polygon fill="#070f0d" fill-opacity="0.501961" points="57,82 68,78 40,68" />
<polygon fill="#344636" fill-opacity="0.501961" points="59,47 110,45 82,38" />
<polygon fill="#a2c3be" fill-opacity="0.501961" points="87,6 54,20 65,6" />
<polygon fill="#06090b" fill-opacity="0.501961" points="47,28 56,64 59,25" />
<polygon fill="#0b1112" fill-opacity="0.501961" points="41,111 54,81 57,151" />
<polygon fill="#21100b" fill-opacity="0.501961" points="108,93 91,86 74,96" />
<polygon fill="#374953" fill-opacity="0.501961" points="23,10 20,13 29,14" />
<polygon fill="#9b745b" fill-opacity="0.501961" points="83,125 62,126 80,109" />
<polygon fill="#937771" fill-opacity="0.501961" points="81,156 70,190 59,183" />
<polygon fill="#bdc8c1" fill-opacity="0.501961" points="92,34 98,37 82,37" />
<polygon fill="#5c605a" fill-opacity="0.501961" points="89,129 82,143 81,123" />
<polygon fill="#8a514d" fill-opacity="0.501961" points="102,97 92,102 84,96" />
<polygon fill="#ffffff" fill-opacity="0.501961" points="50,191 45,198 46,191" />
<polygon fill="#623a27" fill-opacity="0.501961" points="46,191 23,187 25,200" />
<polygon fill="#b48062" fill-opacity="0.501961" points="42,103 26,118 8,118" />
<polygon fill="#29130c" fill-opacity="0.501961" points="48,240 43,205 60,244" />
<polygon fill="#84584b" fill-opacity="0.501961" points="90,89 100,84 65,62" />
<polygon fill="#01060a" fill-opacity="0.501961" points="65,228 89,215 74,239" />
<polygon fill="#e8f3ec" fill-opacity="0.501961" points="71,141 57,152 59,143" />
<polygon fill="#fffffc" fill-opacity="0.501961" points="41,161 52,151 47,188" />
<polygon fill="#3d4d56" fill-opacity="0.501961" points="70,136 77,147 72,151" />
<polygon fill="#e0eeea" fill-opacity="0.501961" points="77,15 96,22 59,31" />
<polygon fill="#9f7057" fill-opacity="0.501961" points="26,190 36,140 43,186" />
<polygon fill="#99654c" fill-opacity="0.501961" points="81,194 99,193 84,218" />
<polygon fill="#8d5839" fill-opacity="0.501961" points="3,195 -16,177 7,119" />
<polygon fill="#ffffff" fill-opacity="0.501961" points="109,109 110,121 114,104" />
<polygon fill="#cfd7dc" fill-opacity="0.501961" points="30,26 31,17 38,31" />
<polygon fill="#e0f2ec" fill-opacity="0.501961" points="98,12 79,12 90,7" />
<polygon fill="#ccd6ce" fill-opacity="0.501961" points="95,28 106,27 111,32" />
<polygon fill="#8a7a5e" fill-opacity="0.501961" points="111,158 130,151 93,154" />
<polygon fill="#a87660" fill-opacity="0.501961" points="48,92 19,88 49,78" />
<polygon fill="#caad9b" fill-opacity="0.501961" points="113,57 109,71 93,46" />
<polygon fill="#af785a" fill-opacity="0.501961" points="19,271 41,253 22,233" />
<polygon fill="#9f816a" fill-opacity="0.501961" points="62,108 63,128 58,118" />
<polygon fill="#ffffff" fill-opacity="0.501961" points="48,194 46,203 44,194" />
<polygon fill="#04040d" fill-opacity="0.501961" points="-16,250 16,207 -8,271" />
<polygon fill="#0b1010" fill-opacity="0.501961" points="63,91 36,110 52,149" />
<polygon fill="#4d5c62" fill-opacity="0.501961" points="48,15 31,15 38,24" />
<polygon fill="#82968c" fill-opacity="0.501961" points="78,12 98,13 74,19" />
<polygon fill="#c0ccc7" fill-opacity="0.501961" points="130,29 100,15 84,-10" />
<polygon fill="#1a1713" fill-opacity="0.501961" points="26,62 -16,53 4,48" />
<polygon fill="#000713" fill-opacity="0.501961" points="68,250 87,256 50,259" />
<polygon fill="#ccdfdf" fill-opacity="0.501961" points="77,124 79,132 86,136" />
<polygon fill="#d3e6e2" fill-opacity="0.501961" points="93,208 96,204 91,206" />
<polygon fill="#0e1516" fill-opacity="0.501961" points="56,25 53,70 70,90" />
<polygon fill="#512e18" fill-opacity="0.501961" points="42,242 48,271 69,233" />
<polygon fill="#6f7f77" fill-opacity="0.501961" points="81,34 61,38 61,46" />
<polygon fill="#b1ad9e" fill-opacity="0.501961" points="128,190 76,165 87,140" />
<polygon fill="#83503b" fill-opacity="0.501961" points="34,141 36,207 24,182" />
<polygon fill="#b48471" fill-opacity="0.501961" points="19,62 4,75 48,83" />
<polygon fill="#ffffff" fill-opacity="0.501961" points="68,166 53,167 45,144" />
<polygon fill="#31271f" fill-opacity="0.501961" points="117,83 96,86 102,104" />
<polygon fill="#372622" fill-opacity="0.501961" points="80,60 86,70 71,68" />
<polygon fill="#482419" fill-opacity="0.501961" points="36,138 28,138 25,159" />
<polygon fill="#814a32" fill-opacity="0.501961" points="101,213 95,225 112,230" />
<polygon fill="#000608" fill-opacity="0.501961" points="12,119 25,135 45,117" />
<polygon fill="#cedcd6" fill-opacity="0.501961" points="66,31 63,37 85,31" />
<polygon fill="#f7faf2" fill-opacity="0.501961" points="74,163 81,149 50,154" />
<polygon fill="#73817a" fill-opacity="0.501961" points="79,32 69,31 85,28" />
<polygon fill="#fffff6" fill-opacity="0.501961" points="107,192 102,199 111,205" />
<polygon fill="#716d61" fill-opacity="0.501961" points="74,135 57,143 63,135" />
<polygon fill="#606255" fill-opacity="0.501961" points="52,140 59,148 51,150" />
<polygon fill="#75553e" fill-opacity="0.501961" points="93,194 109,216 106,204" />
<polygon fill="#a0685b" fill-opacity="0.501961" points="70,93 74,100 76,87" />
<polygon fill="#4e6564" fill-opacity="0.501961" points="60,105 66,108 65,97" />
<polygon fill="#8f7a5d" fill-opacity="0.501961" points="100,165 124,164 130,173" />
<polygon fill="#bcb9ae" fill-opacity="0.501961" points="47,184 39,180 44,189" />
<polygon fill="#60453a" fill-opacity="0.501961" points="1,69 -10,73 10,113" />
<polygon fill="#5b4337" fill-opacity="0.501961" points="16,39 28,53 13,52" />
<polygon fill="#4b513f" fill-opacity="0.501961" points="93,30 107,33 94,35" />
<polygon fill="#b09083" fill-opacity="0.501961" points="93,79 108,86 88,57" />
<polygon fill="#2f0c0a" fill-opacity="0.501961" points="23,197 14,211 32,195" />
<polygon fill="#bb8b74" fill-opacity="0.501961" points="31,32 23,42 42,74" />
<polygon fill="#dde2a6" fill-opacity="0.501961" points="47,174 62,170 57,182" />
<polygon fill="#694738" fill-opacity="0.501961" points="-4,-16 -16,7 24,-9" />
<polygon fill="#9c897c" fill-opacity="0.501961" points="108,50 83,48 95,45" />
<polygon fill="#aa7c5e" fill-opacity="0.501961" points="-3,147 8,194 25,167" />
<polygon fill="#94a39c" fill-opacity="0.501961" points="85,6 113,12 103,4" />
<polygon fill="#b78a72" fill-opacity="0.501961" points="8,95 24,117 26,100" />
<polygon fill="#b08e79" fill-opacity="0.501961" points="25,183 9,194 23,160" />
<polygon fill="#223134" fill-opacity="0.501961" points="33,17 62,23 59,33" />
<polygon fill="#44291b" fill-opacity="0.501961" points="62,112 64,126 68,123" />
<polygon fill="#7b4c39" fill-opacity="0.501961" points="9,66 8,60 30,64" />
<polygon fill="#ffffff" fill-opacity="0.501961" points="68,128 68,130 74,129" />
<polygon fill="#1c1d0b" fill-opacity="0.501961" points="95,56 91,54 86,57" />
<polygon fill="#8e5634" fill-opacity="0.501961" points="37,211 45,240 45,219" />
<polygon fill="#bbc4bf" fill-opacity="0.501961" points="93,20 80,15 112,14" />
<polygon fill="#88826c" fill-opacity="0.501961" points="104,102 101,110 113,100" />
<polygon fill="#b4c4bd" fill-opacity="0.501961" points="78,15 68,19 70,21" />
<polygon fill="#130c09" fill-opacity="0.501961" points="93,93 75,93 75,101" />
<polygon fill="#784b3c" fill-opacity="0.501961" points="63,178 47,197 63,193" />
<polygon fill="#5b341c" fill-opacity="0.501961" points="43,59 51,63 50,59" />
<polygon fill="#83563f" fill-opacity="0.501961" points="35,110 31,97 49,91" />
<polygon fill="#191100" fill-opacity="0.501961" points="46,191 49,189 44,189" />
<polygon fill="#7d4b44" fill-opacity="0.501961" points="18,77 23,75 30,90" />
<polygon fill="#704c3e" fill-opacity="0.501961" points="67,54 64,68 79,69" />
<polygon fill="#0f1212" fill-opacity="0.501961" points="65,133 28,121 32,140" />
<polygon fill="#6c452f" fill-opacity="0.501961" points="-16,147 28,138 13,128" />
<polygon fill="#151014" fill-opacity="0.501961" points="43,156 44,152 41,155" />
<polygon fill="#e5ece7" fill-opacity="0.501961" points="86,8 63,10 65,4" />
<polygon fill="#15100c" fill-opacity="0.501961" points="78,56 69,58 77,61" />
<polygon fill="#b18671" fill-opacity="0.501961" points="7,71 50,67 44,56" />
<polygon fill="#1b2729" fill-opacity="0.501961" points="78,147 81,148 77,145" />
<polygon fill="#eff3ec" fill-opacity="0.501961" points="63,143 61,147 74,145" />
<polygon fill="#9b664a" fill-opacity="0.501961" points="15,118 3,95 8,67" />
<polygon fill="#9f917f" fill-opacity="0.501961" points="94,52 97,67 101,51" />
<polygon fill="#122014" fill-opacity="0.501961" points="106,207 91,213 104,213" />
<polygon fill="#1b2325" fill-opacity="0.501961" points="22,26 1,74 -16,29" />
<polygon fill="#c9dcd4" fill-opacity="0.501961" points="67,102 65,91 73,99" />
<polygon fill="#cfd1cf" fill-opacity="0.501961" points="64,160 54,146 54,152" />
<polygon fill="#040709" fill-opacity="0.501961" points="58,147 41,106 30,117" />
<polygon fill="#664c39" fill-opacity="0.501961" points="102,88 130,66 130,33" />
<polygon fill="#2f3a37" fill-opacity="0.501961" points="58,87 64,99 60,76" />
<polygon fill="#cfada3" fill-opacity="0.501961" points="49,58 45,45 27,48" />
<polygon fill="#13120d" fill-opacity="0.501961" points="69,78 40,69 73,69" />
<polygon fill="#a18688" fill-opacity="0.501961" points="95,66 92,75 79,74" />
<polygon fill="#6f6860" fill-opacity="0.501961" points="68,137 77,129 70,132" />
<polygon fill="#020b13" fill-opacity="0.501961" points="15,269 2,228 -13,245" />
<polygon fill="#a37762" fill-opacity="0.501961" points="37,29 39,21 51,41" />
<polygon fill="#c2ccc8" fill-opacity="0.501961" points="81,32 63,38 60,30" />
<polygon fill="#fffff7" fill-opacity="0.501961" points="64,172 47,143 47,169" />
<polygon fill="#616b59" fill-opacity="0.501961" points="111,26 104,19 95,19" />
<polygon fill="#372823" fill-opacity="0.501961" points="66,90 71,93 64,81" />
<polygon fill="#595f4f" fill-opacity="0.501961" points="104,30 109,36 85,33" />
<polygon fill="#171918" fill-opacity="0.501961" points="62,141 55,120 45,141" />
<polygon fill="#e7f0e9" fill-opacity="0.501961" points="-13,7 -3,16 12,6" />
<polygon fill="#111714" fill-opacity="0.501961" points="122,77 113,91 108,86" />
<polygon fill="#7f8a90" fill-opacity="0.501961" points="19,25 28,12 33,16" />
<polygon fill="#936048" fill-opacity="0.501961" points="44,190 16,261 17,217" />
<polygon fill="#546251" fill-opacity="0.501961" points="88,36 76,48 113,42" />
<polygon fill="#897e6a" fill-opacity="0.501961" points="83,154 105,153 95,157" />
<polygon fill="#ada59c" fill-opacity="0.501961" points="90,52 112,53 105,47" />
<polygon fill="#bc8f80" fill-opacity="0.501961" points="76,89 71,74 88,83" />
<polygon fill="#b0b1a9" fill-opacity="0.501961" points="83,150 113,153 95,117" />
<polygon fill="#3e3228" fill-opacity="0.501961" points="89,105 73,99 82,115" />
<polygon fill="#b19787" fill-opacity="0.501961" points="66,112 78,130 79,113" />
<polygon fill="#835d46" fill-opacity="0.501961" points="122,200 130,169 105,211" />
<polygon fill="#c2c5b9" fill-opacity="0.501961" points="104,103 112,93 129,90" />
<polygon fill="#fafffd" fill-opacity="0.501961" points="34,16 48,-16 13,-2" />
<polygon fill="#5c6d6c" fill-opacity="0.501961" points="45,13 50,19 51,16" />
<polygon fill="#845338" fill-opacity="0.501961" points="2,130 3,118 11,117" />
<polygon fill="#c5a895" fill-opacity="0.501961" points="36,159 41,161 39,141" />
<polygon fill="#64494b" fill-opacity="0.501961" points="89,79 82,79 94,72" />
<polygon fill="#5d3c34" fill-opacity="0.501961" points="7,247 17,263 10,221" />
<polygon fill="#54646a" fill-opacity="0.501961" points="15,13 22,10 27,12" />
<polygon fill="#271712" fill-opacity="0.501961" points="62,78 72,80 71,91" />
<polygon fill="#a6aa9f" fill-opacity="0.501961" points="99,39 107,38 93,35" />
<polygon fill="#3e1c11" fill-opacity="0.501961" points="39,205 48,205 50,217" />
<polygon fill="#242623" fill-opacity="0.501961" points="77,144 76,136 66,138" />
<polygon fill="#c5a192" fill-opacity="0.501961" points="34,76 35,83 22,80" />
<polygon fill="#876552" fill-opacity="0.501961" points="21,24 28,22 23,43" />
<polygon fill="#3f5a54" fill-opacity="0.501961" points="67,15 75,14 63,20" />
<polygon fill="#3b4336" fill-opacity="0.501961" points="70,35 68,38 77,35" />
<polygon fill="#cfccc5" fill-opacity="0.501961" points="69,41 71,37 76,38" />
<polygon fill="#fcfffd" fill-opacity="0.501961" points="7,-8 55,17 65,-16" />
<polygon fill="#6a1c22" fill-opacity="0.501961" points="36,96 24,90 16,92" />
<polygon fill="#211f14" fill-opacity="0.501961" points="74,48 73,40 59,49" />
<polygon fill="#4d5b4f" fill-opacity="0.501961" points="82,12 84,14 91,12" />
<polygon fill="#996852" fill-opacity="0.501961" points="112,229 86,271 94,227" />
<polygon fill="#6f755f" fill-opacity="0.501961" points="104,22 121,21 130,62" />
<polygon fill="#352a1a" fill-opacity="0.501961" points="74,72 85,79 78,77" />
<polygon fill="#382119" fill-opacity="0.501961" points="86,49 95,49 78,55" />
<polygon fill="#a17663" fill-opacity="0.501961" points="110,181 65,198 96,197" />
<polygon fill="#edfef8" fill-opacity="0.501961" points="17,12 19,-1 12,8" />
<polygon fill="#cbdad5" fill-opacity="0.501961" points="103,1 104,8 89,2" />
<polygon fill="#7a8f88" fill-opacity="0.501961" points="81,9 68,13 68,9" />
<polygon fill="#fcfef7" fill-opacity="0.501961" points="81,150 62,154 63,174" />
<polygon fill="#d0c6af" fill-opacity="0.501961" points="74,154 70,154 72,159" />
<polygon fill="#804e3b" fill-opacity="0.501961" points="58,204 94,204 69,223" />
<polygon fill="#06080a" fill-opacity="0.501961" points="49,95 50,144 26,130" />
<polygon fill="#4d5d63" fill-opacity="0.501961" points="12,12 -2,15 0,19" />
<polygon fill="#151c20" fill-opacity="0.501961" points="44,26 47,32 49,17" />
<polygon fill="#d9e3e3" fill-opacity="0.501961" points="60,130 66,130 61,128" />
<polygon fill="#93705c" fill-opacity="0.501961" points="71,113 67,123 72,127" />
<polygon fill="#4d261a" fill-opacity="0.501961" points="85,246 90,271 96,266" />
<polygon fill="#ecf5f0" fill-opacity="0.501961" points="74,20 63,26 81,28" />
<polygon fill="#6e7973" fill-opacity="0.501961" points="78,110 73,105 80,108" />
<polygon fill="#a8a5a3" fill-opacity="0.501961" points="38,154 46,151 37,151" />
<polygon fill="#ad928d" fill-opacity="0.501961" points="71,182 78,166 109,185" />
<polygon fill="#ffffff" fill-opacity="0.501961" points="111,7 130,4 120,20" />
<polygon fill="#866f61" fill-opacity="0.501961" points="87,51 81,55 98,68" />
<polygon fill="#89654f" fill-opacity="0.501961" points="32,200 44,190 40,218" />
<polygon fill="#bcbdbb" fill-opacity="0.501961" points="112,103 101,135 91,130" />
<polygon fill="#140a09" fill-opacity="0.501961" points="48,231 64,230 45,241" />
<polygon fill="#703d2e" fill-opacity="0.501961" points="56,231 52,202 73,221" />
<polygon fill="#9aafa9" fill-opacity="0.501961" points="58,19 65,8 55,17" />
<polygon fill="#754427" fill-opacity="0.501961" points="2,172 -16,174 1,198" />
<polygon fill="#7c4a36" fill-opacity="0.501961" points="25,168 35,142 26,149" />
<polygon fill="#0f1112" fill-opacity="0.501961" points="87,131 89,104 98,109" />
<polygon fill="#d8ded8" fill-opacity="0.501961" points="117,16 108,11 97,12" />
<polygon fill="#b2ad9e" fill-opacity="0.501961" points="81,155 105,165 122,157" />
<polygon fill="#dae2e8" fill-opacity="0.501961" points="18,16 21,20 27,15" />
<polygon fill="#b68468" fill-opacity="0.501961" points="23,49 25,29 38,35" />
<polygon fill="#472817" fill-opacity="0.501961" points="20,130 3,133 9,123" />
<polygon fill="#0b0a08" fill-opacity="0.501961" points="70,75 65,76 75,65" />
<polygon fill="#1f1a14" fill-opacity="0.501961" points="-16,82 -16,137 8,110" />
<polygon fill="#b18179" fill-opacity="0.501961" points="81,91 71,77 76,93" />
<polygon fill="#bfdbde" fill-opacity="0.501961" points="81,129 83,137 78,128" />
<polygon fill="#171a14" fill-opacity="0.501961" points="63,104 62,116 65,114" />
<polygon fill="#7a5337" fill-opacity="0.501961" points="117,211 107,182 130,191" />
</g>
</svg>