<svg xmlns="http://www.w3.org/2000/svg" version="1.1" width="1024" height="572">
<rect x="0" y="0" width="1024" height="572" fill="#5b4740" />
<g transform="scale(4.000000) translate(0.5 0.5)">
<polygon fill="#f8ecdc" fill-opacity="0.501961" points="91,-16 -16,101 160,30" />
<polygon fill="#000000" fill-opacity="0.501961" points="146,158 251,-16 271,143" />
<polygon fill="#000000" fill-opacity="0.501961" points="141,158 66,70 271,119" />
<polygon fill="#e0948e" fill-opacity="0.501961" points="197,87 201,40 117,39" />
<polygon fill="#1a0000" fill-opacity="0.501961" points="271,5 153,50 142,-16" />
<polygon fill="#9da095" fill-opacity="0.501961" points="-16,141 -7,36 114,38" />
<polygon fill="#f1ead3" fill-opacity="0.501961" points="39,36 115,-16 145,6" />
<polygon fill="#1a0000" fill-opacity="0.501961" points="39,36 -16,7 88,-16" />
<polygon fill="#935b5a" fill-opacity="0.501961" points="122,7 143,91 79,55" />
<polygon fill="#0e0000" fill-opacity="0.501961" points="186,7 243,142 225,11" />
<polygon fill="#000000" fill-opacity="0.501961" points="162,158 271,135 207,62" />
<polygon fill="#975c51" fill-opacity="0.501961" points="196,25 165,152 160,35" />
<polygon fill="#83765d" fill-opacity="0.501961" points="78,94 34,142 131,143" />
<polygon fill="#000000" fill-opacity="0.501961" points="70,81 205,156 124,137" />
<polygon fill="#e0abaa" fill-opacity="0.501961" points="132,64 151,40 127,-16" />
<polygon fill="#dd7d62" fill-opacity="0.501961" points="121,85 99,88 128,100" />
<polygon fill="#682322" fill-opacity="0.501961" points="271,96 204,81 255,21" />
<polygon fill="#b1a897" fill-opacity="0.501961" points="65,12 80,75 -5,77" />
<polygon fill="#000000" fill-opacity="0.501961" points="79,79 103,115 95,55" />
<polygon fill="#000000" fill-opacity="0.501961" points="156,97 117,127 149,72" />
<polygon fill="#010000" fill-opacity="0.501961" points="151,28 152,48 201,2" />
<polygon fill="#b98076" fill-opacity="0.501961" points="169,30 200,38 188,97" />
<polygon fill="#000000" fill-opacity="0.501961" points="212,54 219,26 176,10" />
<polygon fill="#472c24" fill-opacity="0.501961" points="110,40 93,56 132,49" />
<polygon fill="#888781" fill-opacity="0.501961" points="99,55 -4,74 -16,124" />
<polygon fill="#573627" fill-opacity="0.501961" points="166,136 195,91 130,107" />
<polygon fill="#120001" fill-opacity="0.501961" points="-16,26 52,24 76,-2" />
<polygon fill="#5b5b4d" fill-opacity="0.501961" points="2,70 50,25 -16,31" />
<polygon fill="#f2edd2" fill-opacity="0.501961" points="134,12 142,-16 103,8" />
<polygon fill="#000000" fill-opacity="0.501961" points="271,95 192,84 250,158" />
<polygon fill="#7a2027" fill-opacity="0.501961" points="150,28 165,18 132,-16" />
<polygon fill="#811022" fill-opacity="0.501961" points="45,-16 41,17 -6,2" />
<polygon fill="#bb766a" fill-opacity="0.501961" points="146,81 101,53 100,71" />
<polygon fill="#8f775c" fill-opacity="0.501961" points="68,118 112,117 119,135" />
<polygon fill="#cda6ac" fill-opacity="0.501961" points="150,29 151,58 122,36" />
<polygon fill="#c0b7a6" fill-opacity="0.501961" points="56,70 16,60 104,-16" />
<polygon fill="#673733" fill-opacity="0.501961" points="165,113 172,58 150,44" />
<polygon fill="#de9e8b" fill-opacity="0.501961" points="200,74 202,52 185,77" />
<polygon fill="#5c4f3b" fill-opacity="0.501961" points="0,127 74,70 90,114" />
<polygon fill="#000000" fill-opacity="0.501961" points="120,138 128,90 149,141" />
<polygon fill="#501b21" fill-opacity="0.501961" points="246,12 227,-3 216,73" />
<polygon fill="#432111" fill-opacity="0.501961" points="94,76 126,76 101,97" />
<polygon fill="#a57b7d" fill-opacity="0.501961" points="129,10 145,36 98,44" />
<polygon fill="#0a0801" fill-opacity="0.501961" points="243,47 168,22 180,4" />
<polygon fill="#a26761" fill-opacity="0.501961" points="114,62 135,92 146,74" />
<polygon fill="#808484" fill-opacity="0.501961" points="-16,51 -16,157 34,91" />
<polygon fill="#3a2528" fill-opacity="0.501961" points="184,57 181,63 193,63" />
<polygon fill="#aa6e6d" fill-opacity="0.501961" points="149,61 156,71 175,55" />
<polygon fill="#bd7f70" fill-opacity="0.501961" points="177,30 172,78 198,35" />
<polygon fill="#030302" fill-opacity="0.501961" points="202,90 205,37 222,31" />
<polygon fill="#2e0610" fill-opacity="0.501961" points="-15,27 21,26 4,-15" />
<polygon fill="#291410" fill-opacity="0.501961" points="208,63 223,83 263,-1" />
<polygon fill="#471312" fill-opacity="0.501961" points="139,12 156,31 143,2" />
<polygon fill="#130e0c" fill-opacity="0.501961" points="123,43 130,50 110,44" />
<polygon fill="#755962" fill-opacity="0.501961" points="169,70 197,80 187,95" />
<polygon fill="#060601" fill-opacity="0.501961" points="196,153 159,142 265,68" />
<polygon fill="#9a9183" fill-opacity="0.501961" points="61,19 23,46 53,36" />
<polygon fill="#6e493a" fill-opacity="0.501961" points="165,135 162,111 144,117" />
<polygon fill="#7e6d5f" fill-opacity="0.501961" points="75,84 51,85 90,53" />
<polygon fill="#020300" fill-opacity="0.501961" points="91,103 184,144 156,158" />
<polygon fill="#251614" fill-opacity="0.501961" points="125,58 109,53 119,60" />
<polygon fill="#807266" fill-opacity="0.501961" points="136,141 60,130 90,158" />
<polygon fill="#572824" fill-opacity="0.501961" points="177,81 158,89 131,64" />
<polygon fill="#9e644b" fill-opacity="0.501961" points="116,86 129,94 122,105" />
<polygon fill="#632829" fill-opacity="0.501961" points="258,18 225,82 271,67" />
<polygon fill="#744831" fill-opacity="0.501961" points="171,29 154,44 189,30" />
<polygon fill="#7c272f" fill-opacity="0.501961" points="151,31 177,5 149,21" />
<polygon fill="#8c3e42" fill-opacity="0.501961" points="196,-16 138,10 142,-16" />
<polygon fill="#a76f6a" fill-opacity="0.501961" points="133,47 131,81 120,75" />
<polygon fill="#010000" fill-opacity="0.501961" points="135,99 153,94 147,76" />
<polygon fill="#040000" fill-opacity="0.501961" points="232,-4 271,36 271,11" />
<polygon fill="#8d7673" fill-opacity="0.501961" points="73,74 107,14 140,12" />
<polygon fill="#cac1ae" fill-opacity="0.501961" points="67,38 71,5 143,-1" />
<polygon fill="#5e5950" fill-opacity="0.501961" points="-16,158 74,133 58,108" />
<polygon fill="#4e3e2f" fill-opacity="0.501961" points="88,71 28,103 40,116" />
<polygon fill="#622025" fill-opacity="0.501961" points="269,29 224,32 217,18" />
<polygon fill="#0b0800" fill-opacity="0.501961" points="97,110 93,60 80,83" />
<polygon fill="#625c50" fill-opacity="0.501961" points="15,30 -16,81 44,29" />
<polygon fill="#c5876e" fill-opacity="0.501961" points="203,56 178,44 202,44" />
<polygon fill="#040603" fill-opacity="0.501961" points="266,93 231,158 185,94" />
<polygon fill="#6f1e20" fill-opacity="0.501961" points="202,14 199,0 225,-12" />
<polygon fill="#d3b3c4" fill-opacity="0.501961" points="135,41 151,60 149,48" />
<polygon fill="#e1c69e" fill-opacity="0.501961" points="114,88 121,88 120,92" />
<polygon fill="#2f170e" fill-opacity="0.501961" points="107,76 101,85 134,86" />
<polygon fill="#591417" fill-opacity="0.501961" points="67,9 56,5 85,-16" />
<polygon fill="#080b03" fill-opacity="0.501961" points="62,-2 57,21 41,21" />
<polygon fill="#2e1e1c" fill-opacity="0.501961" points="165,55 153,55 151,42" />
<polygon fill="#5a1f1a" fill-opacity="0.501961" points="183,9 191,-9 190,19" />
<polygon fill="#8c625a" fill-opacity="0.501961" points="125,54 90,53 117,46" />
<polygon fill="#0a0409" fill-opacity="0.501961" points="141,57 150,66 147,57" />
<polygon fill="#070601" fill-opacity="0.501961" points="123,108 201,158 118,136" />
<polygon fill="#7c3031" fill-opacity="0.501961" points="172,15 162,-16 181,-14" />
<polygon fill="#512d1a" fill-opacity="0.501961" points="129,100 113,110 97,89" />
<polygon fill="#696c70" fill-opacity="0.501961" points="-6,138 15,100 47,86" />
<polygon fill="#eee1c8" fill-opacity="0.501961" points="139,1 109,-16 120,10" />
<polygon fill="#151d1a" fill-opacity="0.501961" points="153,5 163,21 165,2" />
<polygon fill="#938e83" fill-opacity="0.501961" points="67,75 -8,62 -16,106" />
<polygon fill="#000100" fill-opacity="0.501961" points="171,19 152,47 152,35" />
<polygon fill="#261e12" fill-opacity="0.501961" points="20,52 17,48 25,49" />
<polygon fill="#aea490" fill-opacity="0.501961" points="79,27 118,11 50,70" />
<polygon fill="#907859" fill-opacity="0.501961" points="118,133 102,116 113,122" />
<polygon fill="#4b2d21" fill-opacity="0.501961" points="155,123 189,91 170,134" />
<polygon fill="#955c53" fill-opacity="0.501961" points="129,75 138,58 100,75" />
<polygon fill="#020000" fill-opacity="0.501961" points="193,-3 201,6 192,25" />
<polygon fill="#7b4b45" fill-opacity="0.501961" points="178,97 175,71 155,94" />
<polygon fill="#2b2720" fill-opacity="0.501961" points="243,68 267,52 256,36" />
<polygon fill="#6f483f" fill-opacity="0.501961" points="148,69 158,41 180,27" />
<polygon fill="#958a7d" fill-opacity="0.501961" points="89,56 58,76 97,30" />
<polygon fill="#796144" fill-opacity="0.501961" points="67,79 82,95 81,87" />
<polygon fill="#c58a7e" fill-opacity="0.501961" points="201,62 181,63 195,82" />
<polygon fill="#7f2b30" fill-opacity="0.501961" points="251,45 248,57 234,52" />
<polygon fill="#5d1e20" fill-opacity="0.501961" points="242,88 237,76 207,84" />
<polygon fill="#933943" fill-opacity="0.501961" points="251,73 271,67 250,63" />
<polygon fill="#bdb6a5" fill-opacity="0.501961" points="60,56 21,64 29,40" />
<polygon fill="#b08786" fill-opacity="0.501961" points="124,44 111,34 138,7" />
<polygon fill="#1e1911" fill-opacity="0.501961" points="243,9 246,44 228,42" />
<polygon fill="#592325" fill-opacity="0.501961" points="236,71 254,95 258,88" />
<polygon fill="#371b1a" fill-opacity="0.501961" points="240,65 204,78 228,35" />
<polygon fill="#807b6b" fill-opacity="0.501961" points="-16,61 2,35 19,37" />
<polygon fill="#291209" fill-opacity="0.501961" points="155,87 160,107 152,111" />
<polygon fill="#392b1c" fill-opacity="0.501961" points="50,94 75,91 65,86" />
<polygon fill="#070d0e" fill-opacity="0.501961" points="47,26 20,25 23,13" />
<polygon fill="#c69790" fill-opacity="0.501961" points="149,28 150,51 132,9" />
<polygon fill="#250601" fill-opacity="0.501961" points="257,-16 224,-1 271,14" />
<polygon fill="#2a1b10" fill-opacity="0.501961" points="127,83 150,108 127,103" />
<polygon fill="#120a04" fill-opacity="0.501961" points="200,22 179,6 150,34" />
<polygon fill="#74554b" fill-opacity="0.501961" points="186,52 204,61 195,52" />
<polygon fill="#c6887e" fill-opacity="0.501961" points="170,70 179,71 179,50" />
<polygon fill="#382a2a" fill-opacity="0.501961" points="147,73 135,62 134,70" />
<polygon fill="#080800" fill-opacity="0.501961" points="109,111 82,95 90,85" />
<polygon fill="#936d7a" fill-opacity="0.501961" points="148,65 132,62 122,51" />
<polygon fill="#261515" fill-opacity="0.501961" points="215,30 229,9 197,6" />
<polygon fill="#b95b59" fill-opacity="0.501961" points="119,91 121,98 108,90" />
<polygon fill="#28191a" fill-opacity="0.501961" points="2,49 12,46 9,49" />
<polygon fill="#a9a193" fill-opacity="0.501961" points="91,7 76,-3 71,5" />
<polygon fill="#732f31" fill-opacity="0.501961" points="245,11 221,4 235,4" />
<polygon fill="#372925" fill-opacity="0.501961" points="132,53 111,43 121,42" />
<polygon fill="#625849" fill-opacity="0.501961" points="44,110 47,96 32,82" />
<polygon fill="#705043" fill-opacity="0.501961" points="104,43 100,79 93,53" />
<polygon fill="#3d261e" fill-opacity="0.501961" points="196,95 186,106 157,101" />
<polygon fill="#8a3332" fill-opacity="0.501961" points="248,33 255,23 271,34" />
<polygon fill="#101008" fill-opacity="0.501961" points="45,1 38,23 64,12" />
<polygon fill="#806166" fill-opacity="0.501961" points="179,93 197,82 180,71" />
<polygon fill="#644b40" fill-opacity="0.501961" points="158,117 148,102 147,122" />
<polygon fill="#7e513c" fill-opacity="0.501961" points="188,33 196,32 204,45" />
<polygon fill="#906059" fill-opacity="0.501961" points="174,59 165,43 171,37" />
<polygon fill="#b97c75" fill-opacity="0.501961" points="108,70 118,68 104,61" />
<polygon fill="#130f12" fill-opacity="0.501961" points="183,61 191,61 186,59" />
<polygon fill="#51332d" fill-opacity="0.501961" points="121,52 108,54 127,64" />
<polygon fill="#744234" fill-opacity="0.501961" points="114,87 104,98 102,89" />
<polygon fill="#621b23" fill-opacity="0.501961" points="41,18 -13,0 40,-16" />
<polygon fill="#090401" fill-opacity="0.501961" points="202,68 222,111 190,110" />
<polygon fill="#151006" fill-opacity="0.501961" points="101,114 147,94 125,124" />
<polygon fill="#69533f" fill-opacity="0.501961" points="82,94 52,106 102,116" />
<polygon fill="#742725" fill-opacity="0.501961" points="236,74 241,68 221,70" />
<polygon fill="#d3c9ba" fill-opacity="0.501961" points="135,11 91,13 102,0" />
<polygon fill="#49312c" fill-opacity="0.501961" points="169,47 157,45 151,49" />
<polygon fill="#8a826f" fill-opacity="0.501961" points="17,53 8,44 17,48" />
<polygon fill="#633430" fill-opacity="0.501961" points="164,66 150,74 180,84" />
<polygon fill="#240d11" fill-opacity="0.501961" points="-16,4 55,21 -16,23" />
<polygon fill="#110f0a" fill-opacity="0.501961" points="187,19 207,47 242,38" />
<polygon fill="#3c2e17" fill-opacity="0.501961" points="115,135 120,138 108,136" />
<polygon fill="#816f72" fill-opacity="0.501961" points="95,42 78,70 107,43" />
<polygon fill="#2c291b" fill-opacity="0.501961" points="81,84 79,75 87,65" />
<polygon fill="#292425" fill-opacity="0.501961" points="131,51 124,52 121,47" />
<polygon fill="#a56c66" fill-opacity="0.501961" points="169,59 157,68 154,55" />
<polygon fill="#6e695e" fill-opacity="0.501961" points="26,29 37,35 43,31" />
<polygon fill="#9d998f" fill-opacity="0.501961" points="64,66 11,63 15,80" />
<polygon fill="#0f0e07" fill-opacity="0.501961" points="266,149 127,158 210,123" />
<polygon fill="#a39a8d" fill-opacity="0.501961" points="70,7 51,42 27,49" />
<polygon fill="#818374" fill-opacity="0.501961" points="138,13 137,2 142,-7" />
<polygon fill="#2c1b15" fill-opacity="0.501961" points="150,24 143,10 139,12" />
<polygon fill="#af7774" fill-opacity="0.501961" points="132,78 125,81 132,56" />
<polygon fill="#4c151b" fill-opacity="0.501961" points="63,8 93,-15 39,-4" />
<polygon fill="#514a3e" fill-opacity="0.501961" points="4,54 10,61 18,55" />
<polygon fill="#524c41" fill-opacity="0.501961" points="34,98 48,117 -16,158" />
<polygon fill="#1e0800" fill-opacity="0.501961" points="190,-16 175,9 211,-16" />
<polygon fill="#030504" fill-opacity="0.501961" points="271,150 242,85 211,121" />
<polygon fill="#6c5742" fill-opacity="0.501961" points="78,85 62,79 52,87" />
<polygon fill="#363a35" fill-opacity="0.501961" points="19,34 19,41 27,34" />
<polygon fill="#c5827a" fill-opacity="0.501961" points="143,52 134,58 133,48" />
<polygon fill="#0f0a0e" fill-opacity="0.501961" points="143,111 150,102 145,79" />
<polygon fill="#9a7574" fill-opacity="0.501961" points="96,37 127,45 110,30" />
<polygon fill="#7f605d" fill-opacity="0.501961" points="110,20 122,16 102,30" />
<polygon fill="#975e4d" fill-opacity="0.501961" points="167,37 194,34 184,30" />
<polygon fill="#cbc1ae" fill-opacity="0.501961" points="80,2 84,27 61,34" />
<polygon fill="#938879" fill-opacity="0.501961" points="28,79 84,59 48,87" />
<polygon fill="#92303b" fill-opacity="0.501961" points="157,24 157,16 150,20" />
<polygon fill="#361712" fill-opacity="0.501961" points="246,83 237,76 247,73" />
<polygon fill="#824d43" fill-opacity="0.501961" points="121,70 99,73 114,76" />
<polygon fill="#191305" fill-opacity="0.501961" points="221,70 231,76 206,72" />
<polygon fill="#c49a96" fill-opacity="0.501961" points="128,44 149,37 123,36" />
<polygon fill="#1a1313" fill-opacity="0.501961" points="216,2 211,17 232,15" />
<polygon fill="#2a180e" fill-opacity="0.501961" points="121,98 109,96 110,111" />
<polygon fill="#a26e66" fill-opacity="0.501961" points="142,82 143,75 130,86" />
<polygon fill="#836b5a" fill-opacity="0.501961" points="69,98 87,102 80,97" />
<polygon fill="#2b2a1e" fill-opacity="0.501961" points="38,35 31,35 34,37" />
<polygon fill="#522e25" fill-opacity="0.501961" points="216,86 206,78 221,75" />
<polygon fill="#766e5d" fill-opacity="0.501961" points="15,53 19,59 24,51" />
<polygon fill="#603927" fill-opacity="0.501961" points="184,27 163,36 174,27" />
<polygon fill="#a59a88" fill-opacity="0.501961" points="53,58 91,42 56,76" />
<polygon fill="#6b2126" fill-opacity="0.501961" points="198,3 211,7 218,-8" />
<polygon fill="#bda680" fill-opacity="0.501961" points="114,87 120,91 120,88" />
<polygon fill="#363733" fill-opacity="0.501961" points="15,29 33,28 14,24" />
<polygon fill="#482a1b" fill-opacity="0.501961" points="129,97 114,82 137,92" />
<polygon fill="#3e3b33" fill-opacity="0.501961" points="136,110 145,99 140,117" />
<polygon fill="#a2889a" fill-opacity="0.501961" points="150,60 150,58 147,58" />
<polygon fill="#7c6857" fill-opacity="0.501961" points="82,112 111,135 67,120" />
<polygon fill="#0d0400" fill-opacity="0.501961" points="249,22 246,3 270,19" />
<polygon fill="#5f242e" fill-opacity="0.501961" points="216,26 228,26 236,15" />
<polygon fill="#4d191d" fill-opacity="0.501961" points="163,13 153,31 170,14" />
<polygon fill="#42312f" fill-opacity="0.501961" points="194,62 186,58 187,62" />
<polygon fill="#ae7c7c" fill-opacity="0.501961" points="181,43 175,57 195,59" />
<polygon fill="#bd8883" fill-opacity="0.501961" points="198,76 201,67 181,78" />
<polygon fill="#afa69e" fill-opacity="0.501961" points="116,15 119,12 112,0" />
<polygon fill="#82746a" fill-opacity="0.501961" points="69,133 91,144 104,139" />
<polygon fill="#c6bdad" fill-opacity="0.501961" points="51,47 29,62 52,61" />
<polygon fill="#794e53" fill-opacity="0.501961" points="145,70 148,65 133,60" />
<polygon fill="#b2a797" fill-opacity="0.501961" points="54,43 65,58 112,11" />
<polygon fill="#b9afa2" fill-opacity="0.501961" points="52,30 90,6 94,-16" />
<polygon fill="#372217" fill-opacity="0.501961" points="121,79 103,75 96,91" />
<polygon fill="#938a74" fill-opacity="0.501961" points="6,45 -7,53 -8,44" />
<polygon fill="#55534e" fill-opacity="0.501961" points="8,47 12,43 8,32" />
<polygon fill="#0e0500" fill-opacity="0.501961" points="263,68 251,77 271,101" />
<polygon fill="#ad8486" fill-opacity="0.501961" points="145,19 136,12 128,22" />
<polygon fill="#34282d" fill-opacity="0.501961" points="152,63 142,55 140,61" />
<polygon fill="#7b5b5a" fill-opacity="0.501961" points="115,46 123,51 127,62" />
<polygon fill="#8b8981" fill-opacity="0.501961" points="23,104 -16,102 6,67" />
<polygon fill="#a1726b" fill-opacity="0.501961" points="169,54 176,50 156,49" />
<polygon fill="#822b30" fill-opacity="0.501961" points="143,-16 141,6 152,7" />
<polygon fill="#080705" fill-opacity="0.501961" points="216,54 211,25 202,68" />
<polygon fill="#6e675f" fill-opacity="0.501961" points="15,29 23,33 3,32" />
<polygon fill="#502b2f" fill-opacity="0.501961" points="271,-13 253,4 243,-16" />
<polygon fill="#56372c" fill-opacity="0.501961" points="180,106 157,127 159,95" />
<polygon fill="#6e635c" fill-opacity="0.501961" points="44,146 107,158 63,128" />
<polygon fill="#805e5e" fill-opacity="0.501961" points="193,86 179,69 178,91" />
<polygon fill="#38171a" fill-opacity="0.501961" points="53,22 41,18 37,27" />
<polygon fill="#daccac" fill-opacity="0.501961" points="129,6 136,11 137,-1" />
<polygon fill="#311219" fill-opacity="0.501961" points="231,55 212,17 232,37" />
<polygon fill="#722931" fill-opacity="0.501961" points="254,94 270,83 250,89" />
<polygon fill="#1b0e07" fill-opacity="0.501961" points="234,91 213,89 225,84" />
<polygon fill="#472925" fill-opacity="0.501961" points="150,64 156,92 146,73" />
<polygon fill="#7e7469" fill-opacity="0.501961" points="80,74 74,77 72,63" />
<polygon fill="#7f7d75" fill-opacity="0.501961" points="32,85 27,70 48,93" />
<polygon fill="#352419" fill-opacity="0.501961" points="224,17 252,18 241,8" />
<polygon fill="#72757d" fill-opacity="0.501961" points="15,98 3,132 -7,123" />
<polygon fill="#62503e" fill-opacity="0.501961" points="62,126 78,89 39,122" />
<polygon fill="#2e2214" fill-opacity="0.501961" points="99,93 93,77 98,65" />
<polygon fill="#5a534e" fill-opacity="0.501961" points="91,56 92,61 81,66" />
<polygon fill="#441c1a" fill-opacity="0.501961" points="220,0 236,31 255,37" />
<polygon fill="#797364" fill-opacity="0.501961" points="27,37 22,42 32,41" />
<polygon fill="#411b14" fill-opacity="0.501961" points="204,23 212,9 199,0" />
<polygon fill="#7f5152" fill-opacity="0.501961" points="183,56 181,59 186,65" />
<polygon fill="#a58480" fill-opacity="0.501961" points="150,38 146,37 151,48" />
<polygon fill="#532324" fill-opacity="0.501961" points="231,51 242,46 236,60" />
<polygon fill="#7a4f41" fill-opacity="0.501961" points="139,91 128,83 134,79" />
<polygon fill="#ad7e7f" fill-opacity="0.501961" points="140,61 128,58 135,48" />
<polygon fill="#a7a190" fill-opacity="0.501961" points="24,62 18,56 12,67" />
<polygon fill="#2c1c16" fill-opacity="0.501961" points="121,45 111,43 106,46" />
<polygon fill="#81534a" fill-opacity="0.501961" points="168,56 175,56 168,74" />
<polygon fill="#80574c" fill-opacity="0.501961" points="179,86 173,98 160,93" />
<polygon fill="#413226" fill-opacity="0.501961" points="54,90 46,105 67,87" />
<polygon fill="#211c19" fill-opacity="0.501961" points="194,91 189,92 196,95" />
<polygon fill="#b7836f" fill-opacity="0.501961" points="188,57 201,60 202,67" />
<polygon fill="#58261e" fill-opacity="0.501961" points="191,-1 192,10 182,9" />
<polygon fill="#4a201a" fill-opacity="0.501961" points="210,64 232,67 226,73" />
<polygon fill="#5f3a29" fill-opacity="0.501961" points="101,85 102,90 116,85" />
<polygon fill="#826b51" fill-opacity="0.501961" points="119,134 88,131 107,121" />
<polygon fill="#6a3e36" fill-opacity="0.501961" points="152,59 151,77 160,94" />
<polygon fill="#422818" fill-opacity="0.501961" points="178,115 167,138 169,118" />
<polygon fill="#7c6356" fill-opacity="0.501961" points="151,39 151,34 148,43" />
<polygon fill="#665138" fill-opacity="0.501961" points="92,136 107,135 87,130" />
<polygon fill="#050300" fill-opacity="0.501961" points="177,118 204,95 165,158" />
<polygon fill="#1c1613" fill-opacity="0.501961" points="249,35 237,48 220,35" />
<polygon fill="#231912" fill-opacity="0.501961" points="199,75 209,68 229,77" />
<polygon fill="#472929" fill-opacity="0.501961" points="168,56 153,48 158,54" />
<polygon fill="#554631" fill-opacity="0.501961" points="103,116 95,109 91,114" />
<polygon fill="#ab6d63" fill-opacity="0.501961" points="167,43 172,47 189,35" />
<polygon fill="#7d7569" fill-opacity="0.501961" points="1,56 9,56 15,60" />
<polygon fill="#1a1409" fill-opacity="0.501961" points="84,72 92,61 99,93" />
<polygon fill="#201e19" fill-opacity="0.501961" points="218,56 235,59 230,68" />
<polygon fill="#574533" fill-opacity="0.501961" points="60,91 73,91 42,117" />
<polygon fill="#cca5ab" fill-opacity="0.501961" points="149,38 131,43 151,56" />
<polygon fill="#5e5650" fill-opacity="0.501961" points="29,153 58,123 18,132" />
<polygon fill="#471c1e" fill-opacity="0.501961" points="153,3 143,-16 215,-11" />
<polygon fill="#c38675" fill-opacity="0.501961" points="177,49 195,39 199,51" />
<polygon fill="#978880" fill-opacity="0.501961" points="80,62 96,47 89,32" />
<polygon fill="#442826" fill-opacity="0.501961" points="248,35 260,47 243,45" />
<polygon fill="#361e11" fill-opacity="0.501961" points="181,103 175,123 196,92" />
<polygon fill="#8d6051" fill-opacity="0.501961" points="102,63 113,46 99,54" />
<polygon fill="#bc8378" fill-opacity="0.501961" points="123,40 150,56 135,53" />
<polygon fill="#4c1210" fill-opacity="0.501961" points="156,27 153,34 149,24" />
<polygon fill="#772626" fill-opacity="0.501961" points="256,23 250,31 249,23" />
<polygon fill="#7d2b32" fill-opacity="0.501961" points="153,14 151,29 155,25" />
<polygon fill="#080f0f" fill-opacity="0.501961" points="41,19 24,14 29,24" />
<polygon fill="#4e443d" fill-opacity="0.501961" points="151,100 147,112 151,106" />
<polygon fill="#393932" fill-opacity="0.501961" points="24,35 31,36 26,37" />
<polygon fill="#c69a93" fill-opacity="0.501961" points="148,26 134,22 149,47" />
<polygon fill="#070701" fill-opacity="0.501961" points="84,80 84,95 102,112" />
<polygon fill="#b3aa9e" fill-opacity="0.501961" points="59,21 69,37 43,46" />
</g>
</svg>