<svg xmlns="http://www.w3.org/2000/svg" version="1.1" width="460" height="1024">
<rect x="0" y="0" width="460" height="1024" fill="#7a858b" />
<g transform="scale(4.000000) translate(0.5 0.5)">
<polygon fill="#000001" fill-opacity="0.501961" points="52,99 -16,172 130,178" />
<polygon fill="#ffffff" fill-opacity="0.501961" points="106,-13 -16,3 11,37" />
<polygon fill="#d1e4ee" fill-opacity="0.501961" points="3,271 130,192 -15,183" />
<polygon fill="#00031c" fill-opacity="0.501961" points="126,118 69,53 111,60" />
<polygon fill="#ffffff" fill-opacity="0.501961" points="-16,30 17,-16 76,12" />
<polygon fill="#000810" fill-opacity="0.501961" points="130,135 12,158 130,177" />
<polygon fill="#000d0a" fill-opacity="0.501961" points="82,271 79,203 109,271" />
<polygon fill="#d9a59f" fill-opacity="0.501961" points="127,143 59,54 67,130" />
<polygon fill="#ad9a9c" fill-opacity="0.501961" points="21,27 50,125 22,152" />
<polygon fill="#0b1e2d" fill-opacity="0.501961" points="64,54 31,110 56,102" />
<polygon fill="#092129" fill-opacity="0.501961" points="18,182 -16,104 52,179" />
<polygon fill="#cac6c6" fill-opacity="0.501961" points="55,173 122,271 127,216" />
<polygon fill="#abc1ca" fill-opacity="0.501961" points="-16,142 74,239 42,271" />
<polygon fill="#082025" fill-opacity="0.501961" points="130,118 82,195 75,166" />
<polygon fill="#ffffff" fill-opacity="0.501961" points="-16,6 95,-16 39,26" />
<polygon fill="#5b8591" fill-opacity="0.501961" points="130,-7 2,33 65,68" />
<polygon fill="#e6cdd0" fill-opacity="0.501961" points="90,67 60,102 58,76" />
<polygon fill="#06222b" fill-opacity="0.501961" points="41,146 130,190 62,120" />
<polygon fill="#b2c1cb" fill-opacity="0.501961" points="70,164 82,187 9,230" />
<polygon fill="#bbbabe" fill-opacity="0.501961" points="89,168 124,205 106,260" />
<polygon fill="#0d3851" fill-opacity="0.501961" points="48,76 68,55 103,53" />
<polygon fill="#001c23" fill-opacity="0.501961" points="130,54 104,73 121,157" />
<polygon fill="#414148" fill-opacity="0.501961" points="37,105 9,95 -3,114" />
<polygon fill="#ddb3b6" fill-opacity="0.501961" points="14,128 54,112 8,114" />
<polygon fill="#547c8c" fill-opacity="0.501961" points="31,38 93,-16 130,28" />
<polygon fill="#596e73" fill-opacity="0.501961" points="91,271 70,248 81,192" />
<polygon fill="#fff3f8" fill-opacity="0.501961" points="45,96 16,94 34,89" />
<polygon fill="#859a9b" fill-opacity="0.501961" points="88,45 8,25 5,97" />
<polygon fill="#2d2726" fill-opacity="0.501961" points="32,125 2,135 52,133" />
<polygon fill="#b18b88" fill-opacity="0.501961" points="107,144 78,136 103,93" />
<polygon fill="#ffffff" fill-opacity="0.501961" points="-10,28 53,18 18,-16" />
<polygon fill="#1a2d32" fill-opacity="0.501961" points="45,170 53,71 73,172" />
<polygon fill="#273940" fill-opacity="0.501961" points="2,110 34,193 0,156" />
<polygon fill="#ddbebe" fill-opacity="0.501961" points="79,97 106,94 67,124" />
<polygon fill="#b4c9d3" fill-opacity="0.501961" points="46,197 62,271 81,196" />
<polygon fill="#000908" fill-opacity="0.501961" points="86,224 112,271 94,271" />
<polygon fill="#102029" fill-opacity="0.501961" points="101,158 130,239 130,88" />
<polygon fill="#849297" fill-opacity="0.501961" points="12,197 40,200 -9,148" />
<polygon fill="#bb8f8f" fill-opacity="0.501961" points="16,144 44,140 29,131" />
<polygon fill="#8c6760" fill-opacity="0.501961" points="76,134 75,112 104,113" />
<polygon fill="#0e2732" fill-opacity="0.501961" points="80,194 82,154 90,189" />
<polygon fill="#d1bcc1" fill-opacity="0.501961" points="70,66 54,90 93,80" />
<polygon fill="#c08c7f" fill-opacity="0.501961" points="50,113 28,124 53,126" />
<polygon fill="#7e9095" fill-opacity="0.501961" points="51,21 0,27 44,97" />
<polygon fill="#1d485e" fill-opacity="0.501961" points="83,54 97,93 121,65" />
<polygon fill="#7e949a" fill-opacity="0.501961" points="-16,234 -12,271 49,252" />
<polygon fill="#ffffff" fill-opacity="0.501961" points="104,-16 -16,5 25,24" />
<polygon fill="#b8aaaa" fill-opacity="0.501961" points="17,104 5,127 7,106" />
<polygon fill="#3f637d" fill-opacity="0.501961" points="65,48 46,33 65,9" />
<polygon fill="#939190" fill-opacity="0.501961" points="130,173 121,204 73,221" />
<polygon fill="#bed9f2" fill-opacity="0.501961" points="82,205 99,181 108,196" />
<polygon fill="#222e33" fill-opacity="0.501961" points="118,79 84,97 115,68" />
<polygon fill="#9eb4b6" fill-opacity="0.501961" points="74,6 79,37 68,17" />
<polygon fill="#c9aba9" fill-opacity="0.501961" points="107,98 69,126 64,114" />
<polygon fill="#916d65" fill-opacity="0.501961" points="115,130 92,104 110,100" />
<polygon fill="#f3d7da" fill-opacity="0.501961" points="30,108 25,123 37,121" />
<polygon fill="#1f323b" fill-opacity="0.501961" points="16,181 86,162 5,149" />
<polygon fill="#eed0d1" fill-opacity="0.501961" points="39,92 28,104 25,94" />
<polygon fill="#adbfca" fill-opacity="0.501961" points="-11,211 29,254 1,158" />
<polygon fill="#627681" fill-opacity="0.501961" points="63,167 94,173 43,181" />
<polygon fill="#604f5e" fill-opacity="0.501961" points="51,106 36,97 33,115" />
<polygon fill="#b79f97" fill-opacity="0.501961" points="96,144 74,128 111,135" />
<polygon fill="#2d302f" fill-opacity="0.501961" points="74,104 46,131 55,113" />
<polygon fill="#071718" fill-opacity="0.501961" points="90,170 78,138 130,154" />
<polygon fill="#7c6c68" fill-opacity="0.501961" points="20,121 7,127 24,151" />
<polygon fill="#6e8f91" fill-opacity="0.501961" points="115,65 84,46 94,-15" />
<polygon fill="#1a2e37" fill-opacity="0.501961" points="87,194 83,144 45,98" />
<polygon fill="#07201f" fill-opacity="0.501961" points="6,101 4,116 2,106" />
<polygon fill="#d8d7e6" fill-opacity="0.501961" points="101,118 89,125 94,128" />
<polygon fill="#b09691" fill-opacity="0.501961" points="65,108 88,70 94,87" />
<polygon fill="#90aab1" fill-opacity="0.501961" points="31,69 -16,97 46,80" />
<polygon fill="#546c71" fill-opacity="0.501961" points="24,89 44,83 48,91" />
<polygon fill="#011c2b" fill-opacity="0.501961" points="50,91 51,79 62,67" />
<polygon fill="#acb6bd" fill-opacity="0.501961" points="34,189 73,174 80,185" />
<polygon fill="#8fa7b8" fill-opacity="0.501961" points="122,210 93,182 103,174" />
<polygon fill="#899a99" fill-opacity="0.501961" points="69,210 65,233 49,249" />
<polygon fill="#685450" fill-opacity="0.501961" points="19,150 52,124 44,145" />
<polygon fill="#736b68" fill-opacity="0.501961" points="55,175 17,182 26,190" />
<polygon fill="#1b3241" fill-opacity="0.501961" points="59,66 85,66 78,55" />
<polygon fill="#bfa8a9" fill-opacity="0.501961" points="59,100 56,81 83,84" />
<polygon fill="#182c34" fill-opacity="0.501961" points="46,97 54,79 67,133" />
<polygon fill="#b5d0df" fill-opacity="0.501961" points="72,225 57,271 44,265" />
<polygon fill="#54696d" fill-opacity="0.501961" points="-15,137 14,176 -6,123" />
<polygon fill="#5c8187" fill-opacity="0.501961" points="5,66 39,64 7,81" />
<polygon fill="#4e4b54" fill-opacity="0.501961" points="14,97 27,114 25,97" />
<polygon fill="#536866" fill-opacity="0.501961" points="6,36 9,67 1,56" />
<polygon fill="#172c35" fill-opacity="0.501961" points="27,174 3,117 3,145" />
<polygon fill="#9e9f9f" fill-opacity="0.501961" points="66,176 32,185 31,199" />
<polygon fill="#92a4a6" fill-opacity="0.501961" points="91,36 88,54 68,47" />
<polygon fill="#5f7074" fill-opacity="0.501961" points="66,271 85,255 81,204" />
<polygon fill="#81615b" fill-opacity="0.501961" points="75,125 93,131 79,115" />
<polygon fill="#454954" fill-opacity="0.501961" points="53,117 55,100 40,109" />
<polygon fill="#ffffff" fill-opacity="0.501961" points="-16,23 51,18 91,-16" />
<polygon fill="#4c3f34" fill-opacity="0.501961" points="104,143 116,154 130,112" />
<polygon fill="#b59995" fill-opacity="0.501961" points="78,129 66,122 61,103" />
<polygon fill="#b19190" fill-opacity="0.501961" points="100,87 93,120 108,98" />
<polygon fill="#162526" fill-opacity="0.501961" points="94,77 130,132 127,103" />
<polygon fill="#a4a09c" fill-opacity="0.501961" points="114,266 89,227 130,255" />
<polygon fill="#b8b9b2" fill-opacity="0.501961" points="55,65 47,43 54,53" />
<polygon fill="#3b3b3f" fill-opacity="0.501961" points="34,131 26,125 8,138" />
<polygon fill="#d0bfc3" fill-opacity="0.501961" points="103,137 110,126 89,139" />
<polygon fill="#254a63" fill-opacity="0.501961" points="98,48 85,70 106,73" />
<polygon fill="#6591a3" fill-opacity="0.501961" points="91,-16 101,-1 49,21" />
<polygon fill="#bfafab" fill-opacity="0.501961" points="6,124 14,113 13,131" />
<polygon fill="#cdbdc3" fill-opacity="0.501961" points="87,82 70,94 65,68" />
<polygon fill="#919789" fill-opacity="0.501961" points="3,126 -9,134 -8,83" />
<polygon fill="#6e534b" fill-opacity="0.501961" points="102,104 110,106 103,117" />
<polygon fill="#c0bbb7" fill-opacity="0.501961" points="130,222 93,198 98,234" />
<polygon fill="#b5c7d2" fill-opacity="0.501961" points="63,180 40,245 82,187" />
<polygon fill="#324853" fill-opacity="0.501961" points="92,183 61,164 88,168" />
<polygon fill="#7e908e" fill-opacity="0.501961" points="31,266 -16,266 62,240" />
<polygon fill="#956a60" fill-opacity="0.501961" points="49,128 33,112 39,128" />
<polygon fill="#99857f" fill-opacity="0.501961" points="60,101 56,90 81,102" />
<polygon fill="#2d4040" fill-opacity="0.501961" points="90,226 83,214 87,244" />
<polygon fill="#11436e" fill-opacity="0.501961" points="-16,7 13,-16 45,-16" />
<polygon fill="#38322f" fill-opacity="0.501961" points="35,124 32,132 53,140" />
<polygon fill="#8e9589" fill-opacity="0.501961" points="6,96 -14,109 4,39" />
<polygon fill="#89736f" fill-opacity="0.501961" points="28,111 17,128 6,130" />
<polygon fill="#4d4756" fill-opacity="0.501961" points="19,113 11,109 37,103" />
<polygon fill="#b8d3e4" fill-opacity="0.501961" points="26,243 58,234 47,245" />
<polygon fill="#c69ea5" fill-opacity="0.501961" points="29,134 23,140 37,140" />
<polygon fill="#75888c" fill-opacity="0.501961" points="-1,26 51,34 14,49" />
<polygon fill="#958281" fill-opacity="0.501961" points="95,84 84,67 74,66" />
<polygon fill="#1a2c31" fill-opacity="0.501961" points="88,149 56,115 33,173" />
<polygon fill="#486167" fill-opacity="0.501961" points="108,23 103,-16 98,-1" />
<polygon fill="#a4afad" fill-opacity="0.501961" points="20,63 20,35 27,61" />
<polygon fill="#b3a5ec" fill-opacity="0.501961" points="40,119 38,111 41,111" />
<polygon fill="#58747f" fill-opacity="0.501961" points="79,34 112,31 76,14" />
<polygon fill="#5d7873" fill-opacity="0.501961" points="107,33 116,60 108,62" />
<polygon fill="#93a7b0" fill-opacity="0.501961" points="-11,151 12,200 18,183" />
<polygon fill="#7c909a" fill-opacity="0.501961" points="78,197 93,186 84,200" />
<polygon fill="#68848b" fill-opacity="0.501961" points="17,102 14,85 -1,101" />
<polygon fill="#6c4f48" fill-opacity="0.501961" points="85,93 90,97 100,88" />
<polygon fill="#2f485a" fill-opacity="0.501961" points="70,59 57,63 56,79" />
<polygon fill="#b5a8a9" fill-opacity="0.501961" points="34,96 41,93 50,97" />
<polygon fill="#99a7ac" fill-opacity="0.501961" points="37,220 42,197 47,232" />
<polygon fill="#556c85" fill-opacity="0.501961" points="119,212 105,176 130,207" />
<polygon fill="#dbcbd1" fill-opacity="0.501961" points="21,91 36,97 14,95" />
<polygon fill="#827e82" fill-opacity="0.501961" points="29,150 20,137 18,146" />
<polygon fill="#0d2027" fill-opacity="0.501961" points="91,184 84,179 82,194" />
<polygon fill="#af9c93" fill-opacity="0.501961" points="25,97 34,104 24,104" />
<polygon fill="#ae9ea1" fill-opacity="0.501961" points="99,123 112,134 109,113" />
<polygon fill="#f2e0e8" fill-opacity="0.501961" points="29,119 32,109 27,109" />
<polygon fill="#3a4644" fill-opacity="0.501961" points="60,154 56,140 61,126" />
<polygon fill="#968072" fill-opacity="0.501961" points="105,199 124,216 118,201" />
<polygon fill="#8eaca6" fill-opacity="0.501961" points="117,47 108,33 108,17" />
<polygon fill="#8e8a8a" fill-opacity="0.501961" points="6,105 12,103 4,118" />
<polygon fill="#a0a19f" fill-opacity="0.501961" points="102,247 92,202 84,213" />
<polygon fill="#274d68" fill-opacity="0.501961" points="73,56 99,55 130,81" />
<polygon fill="#776360" fill-opacity="0.501961" points="126,100 130,117 104,142" />
<polygon fill="#71888d" fill-opacity="0.501961" points="46,84 1,95 25,81" />
<polygon fill="#4e3538" fill-opacity="0.501961" points="90,122 80,127 87,126" />
<polygon fill="#718a8b" fill-opacity="0.501961" points="97,30 119,63 92,53" />
<polygon fill="#97766e" fill-opacity="0.501961" points="73,123 76,133 95,110" />
<polygon fill="#adb8bb" fill-opacity="0.501961" points="68,35 72,48 67,42" />
<polygon fill="#0a1c22" fill-opacity="0.501961" points="78,136 84,168 125,167" />
<polygon fill="#a68785" fill-opacity="0.501961" points="21,125 46,115 32,126" />
<polygon fill="#424b4a" fill-opacity="0.501961" points="43,183 34,172 55,173" />
<polygon fill="#ffffff" fill-opacity="0.501961" points="-16,4 8,25 87,-6" />
<polygon fill="#333f4b" fill-opacity="0.501961" points="14,98 22,96 21,102" />
<polygon fill="#656062" fill-opacity="0.501961" points="89,83 98,86 90,73" />
<polygon fill="#cbb5b9" fill-opacity="0.501961" points="105,99 99,93 89,98" />
<polygon fill="#dbc2c3" fill-opacity="0.501961" points="92,108 80,99 86,114" />
<polygon fill="#223a49" fill-opacity="0.501961" points="74,134 81,153 65,158" />
<polygon fill="#939895" fill-opacity="0.501961" points="49,46 51,75 33,59" />
<polygon fill="#6e7a7a" fill-opacity="0.501961" points="24,197 18,190 26,193" />
<polygon fill="#103755" fill-opacity="0.501961" points="115,154 110,181 119,184" />
<polygon fill="#63797f" fill-opacity="0.501961" points="42,56 47,49 40,30" />
<polygon fill="#6c848e" fill-opacity="0.501961" points="100,178 92,179 88,170" />
<polygon fill="#825e58" fill-opacity="0.501961" points="35,134 42,134 42,147" />
<polygon fill="#c8b7bb" fill-opacity="0.501961" points="76,68 58,81 91,82" />
<polygon fill="#9d7c78" fill-opacity="0.501961" points="109,99 103,91 107,112" />
<polygon fill="#242d2d" fill-opacity="0.501961" points="28,104 25,106 35,107" />
<polygon fill="#8dabb7" fill-opacity="0.501961" points="24,25 44,28 53,19" />
<polygon fill="#b7cbd5" fill-opacity="0.501961" points="9,203 -8,147 -16,181" />
<polygon fill="#d8c0c5" fill-opacity="0.501961" points="66,116 77,110 69,120" />
<polygon fill="#08181a" fill-opacity="0.501961" points="90,149 113,162 107,142" />
<polygon fill="#a6a9db" fill-opacity="0.501961" points="24,110 25,115 20,114" />
<polygon fill="#4c4e54" fill-opacity="0.501961" points="24,152 44,146 27,142" />
<polygon fill="#657070" fill-opacity="0.501961" points="80,201 86,218 80,234" />
<polygon fill="#77939c" fill-opacity="0.501961" points="101,7 89,-16 96,38" />
<polygon fill="#395b6e" fill-opacity="0.501961" points="70,35 66,21 72,31" />
<polygon fill="#fffffc" fill-opacity="0.501961" points="50,17 32,23 -6,-16" />
<polygon fill="#81949c" fill-opacity="0.501961" points="73,244 75,227 64,252" />
<polygon fill="#3d5f6d" fill-opacity="0.501961" points="93,0 100,13 95,9" />
<polygon fill="#71888e" fill-opacity="0.501961" points="62,37 58,56 81,54" />
<polygon fill="#94a8b1" fill-opacity="0.501961" points="29,249 -16,214 -1,271" />
<polygon fill="#36596f" fill-opacity="0.501961" points="113,-10 112,6 106,-4" />
<polygon fill="#27343b" fill-opacity="0.501961" points="65,111 54,97 36,99" />
<polygon fill="#c7dbf0" fill-opacity="0.501961" points="107,196 82,200 90,193" />
<polygon fill="#97807b" fill-opacity="0.501961" points="79,91 86,84 87,98" />
<polygon fill="#b4c1cc" fill-opacity="0.501961" points="92,191 107,188 95,180" />
<polygon fill="#516865" fill-opacity="0.501961" points="109,57 104,55 102,43" />
<polygon fill="#0f2229" fill-opacity="0.501961" points="109,78 115,119 130,102" />
<polygon fill="#29354c" fill-opacity="0.501961" points="126,208 112,186 116,202" />
<polygon fill="#132529" fill-opacity="0.501961" points="52,141 54,93 63,115" />
<polygon fill="#bab1b1" fill-opacity="0.501961" points="19,116 6,124 7,110" />
<polygon fill="#766d7e" fill-opacity="0.501961" points="46,107 50,103 35,106" />
<polygon fill="#7c6b6f" fill-opacity="0.501961" points="14,119 21,117 8,117" />
<polygon fill="#6e8996" fill-opacity="0.501961" points="4,158 17,181 -1,165" />
<polygon fill="#748c92" fill-opacity="0.501961" points="72,41 96,45 71,22" />
<polygon fill="#38596e" fill-opacity="0.501961" points="59,33 62,19 66,37" />
<polygon fill="#183748" fill-opacity="0.501961" points="113,81 100,88 92,58" />
<polygon fill="#37484e" fill-opacity="0.501961" points="105,174 92,177 97,171" />
<polygon fill="#2c4150" fill-opacity="0.501961" points="45,112 49,77 54,100" />
<polygon fill="#273b3d" fill-opacity="0.501961" points="9,98 5,113 -4,114" />
<polygon fill="#071e1f" fill-opacity="0.501961" points="100,248 91,271 91,237" />
<polygon fill="#98827a" fill-opacity="0.501961" points="67,124 92,131 92,142" />
<polygon fill="#7f534f" fill-opacity="0.501961" points="89,117 92,117 95,108" />
<polygon fill="#667b81" fill-opacity="0.501961" points="27,64 44,63 46,73" />
<polygon fill="#afc4d0" fill-opacity="0.501961" points="31,248 -7,214 48,239" />
<polygon fill="#43697a" fill-opacity="0.501961" points="88,0 84,1 91,15" />
<polygon fill="#abb3b9" fill-opacity="0.501961" points="81,185 26,203 61,180" />
<polygon fill="#98abb2" fill-opacity="0.501961" points="46,78 11,79 25,72" />
<polygon fill="#5d6563" fill-opacity="0.501961" points="14,52 12,39 11,48" />
<polygon fill="#304840" fill-opacity="0.501961" points="111,50 130,69 117,62" />
<polygon fill="#1b2e34" fill-opacity="0.501961" points="59,144 20,156 26,177" />
<polygon fill="#b2bdc3" fill-opacity="0.501961" points="44,217 2,222 15,192" />
<polygon fill="#493738" fill-opacity="0.501961" points="104,116 106,110 100,116" />
<polygon fill="#6a726f" fill-opacity="0.501961" points="34,49 31,58 30,43" />
<polygon fill="#a7b1ae" fill-opacity="0.501961" points="33,60 38,64 32,49" />
<polygon fill="#929792" fill-opacity="0.501961" points="7,57 21,44 12,70" />
<polygon fill="#a59aa8" fill-opacity="0.501961" points="10,108 19,105 16,104" />
<polygon fill="#b3a89f" fill-opacity="0.501961" points="95,200 105,197 121,216" />
<polygon fill="#8aa0a9" fill-opacity="0.501961" points="83,200 79,186 78,196" />
<polygon fill="#8fa29f" fill-opacity="0.501961" points="100,44 100,51 108,60" />
<polygon fill="#957d77" fill-opacity="0.501961" points="75,96 65,99 78,105" />
<polygon fill="#8b6f69" fill-opacity="0.501961" points="113,115 108,104 94,105" />
<polygon fill="#d8849d" fill-opacity="0.501961" points="130,216 114,188 130,138" />
<polygon fill="#a7b6bc" fill-opacity="0.501961" points="64,204 55,239 72,212" />
<polygon fill="#9eb6bb" fill-opacity="0.501961" points="70,10 69,16 77,23" />
<polygon fill="#536e74" fill-opacity="0.501961" points="103,31 96,9 96,24" />
<polygon fill="#334b52" fill-opacity="0.501961" points="7,51 4,54 6,42" />
<polygon fill="#bfacae" fill-opacity="0.501961" points="60,93 69,97 60,74" />
<polygon fill="#bcadab" fill-opacity="0.501961" points="86,87 84,94 92,85" />
<polygon fill="#41645c" fill-opacity="0.501961" points="128,54 112,27 127,87" />
<polygon fill="#97a4a4" fill-opacity="0.501961" points="54,44 54,68 45,37" />
<polygon fill="#8b9c99" fill-opacity="0.501961" points="106,51 103,32 116,61" />
<polygon fill="#dac9cf" fill-opacity="0.501961" points="31,118 29,108 23,123" />
<polygon fill="#cbc4cc" fill-opacity="0.501961" points="90,124 99,125 99,118" />
<polygon fill="#122429" fill-opacity="0.501961" points="75,160 75,172 103,161" />
<polygon fill="#44676e" fill-opacity="0.501961" points="108,39 109,30 106,26" />
<polygon fill="#413e3e" fill-opacity="0.501961" points="51,132 33,136 41,127" />
<polygon fill="#3f555e" fill-opacity="0.501961" points="21,181 11,174 6,159" />
<polygon fill="#6a909e" fill-opacity="0.501961" points="90,15 83,-14 73,10" />
<polygon fill="#4a6266" fill-opacity="0.501961" points="96,41 99,50 96,59" />
<polygon fill="#293b42" fill-opacity="0.501961" points="-3,131 27,155 9,130" />
<polygon fill="#b59a9a" fill-opacity="0.501961" points="92,117 94,108 102,112" />
<polygon fill="#909185" fill-opacity="0.501961" points="-16,86 -3,151 3,62" />
<polygon fill="#90a9ae" fill-opacity="0.501961" points="95,16 98,27 92,17" />
<polygon fill="#102834" fill-opacity="0.501961" points="68,63 82,59 84,64" />
<polygon fill="#3b5663" fill-opacity="0.501961" points="88,33 92,27 95,30" />
<polygon fill="#9e817d" fill-opacity="0.501961" points="90,96 102,92 96,91" />
<polygon fill="#fffffe" fill-opacity="0.501961" points="59,12 74,-3 42,7" />
<polygon fill="#446776" fill-opacity="0.501961" points="84,24 82,7 79,26" />
<polygon fill="#717c7d" fill-opacity="0.501961" points="-16,27 8,73 2,41" />
<polygon fill="#3c6067" fill-opacity="0.501961" points="112,17 117,24 112,6" />
<polygon fill="#353835" fill-opacity="0.501961" points="128,98 124,200 110,142" />
<polygon fill="#fdfffb" fill-opacity="0.501961" points="53,21 10,-16 28,-16" />
<polygon fill="#597886" fill-opacity="0.501961" points="49,20 69,55 47,34" />
<polygon fill="#525e63" fill-opacity="0.501961" points="65,163 65,172 50,177" />
<polygon fill="#767a79" fill-opacity="0.501961" points="45,183 31,181 55,177" />
<polygon fill="#4e4f54" fill-opacity="0.501961" points="31,188 18,176 31,178" />
<polygon fill="#a5a6a6" fill-opacity="0.501961" points="43,203 36,190 18,187" />
<polygon fill="#a9b2af" fill-opacity="0.501961" points="73,50 71,53 68,42" />
<polygon fill="#6f909a" fill-opacity="0.501961" points="51,26 40,24 45,39" />
<polygon fill="#5e6064" fill-opacity="0.501961" points="29,88 34,90 41,88" />
<polygon fill="#517a93" fill-opacity="0.501961" points="66,10 68,27 48,25" />
<polygon fill="#b39b98" fill-opacity="0.501961" points="87,118 80,118 84,123" />
<polygon fill="#ada1a7" fill-opacity="0.501961" points="42,117 49,116 46,113" />
<polygon fill="#65646c" fill-opacity="0.501961" points="24,116 24,99 27,109" />
<polygon fill="#899ea4" fill-opacity="0.501961" points="0,90 13,79 41,86" />
<polygon fill="#bbceda" fill-opacity="0.501961" points="78,210 75,193 69,225" />
<polygon fill="#7a969a" fill-opacity="0.501961" points="105,22 99,19 107,36" />
<polygon fill="#a38086" fill-opacity="0.501961" points="91,135 103,127 88,126" />
<polygon fill="#84605b" fill-opacity="0.501961" points="36,114 42,122 40,124" />
<polygon fill="#5e504d" fill-opacity="0.501961" points="74,105 63,110 69,110" />
<polygon fill="#8fa194" fill-opacity="0.501961" points="109,38 130,56 115,55" />
<polygon fill="#ac8e92" fill-opacity="0.501961" points="20,140 39,138 28,133" />
<polygon fill="#1c3340" fill-opacity="0.501961" points="49,96 49,79 59,73" />
<polygon fill="#74949c" fill-opacity="0.501961" points="114,23 109,15 110,2" />
<polygon fill="#bbcdda" fill-opacity="0.501961" points="56,199 50,229 67,201" />
<polygon fill="#aeacac" fill-opacity="0.501961" points="87,207 102,241 97,199" />
<polygon fill="#b7cbd4" fill-opacity="0.501961" points="29,202 39,204 43,222" />
<polygon fill="#88999c" fill-opacity="0.501961" points="29,57 26,26 17,34" />
<polygon fill="#5d7279" fill-opacity="0.501961" points="71,36 70,44 76,52" />
<polygon fill="#617d81" fill-opacity="0.501961" points="92,51 99,55 88,38" />
<polygon fill="#122324" fill-opacity="0.501961" points="47,147 55,122 58,147" />
<polygon fill="#99b6bf" fill-opacity="0.501961" points="97,34 96,38 99,40" />
<polygon fill="#2e4f69" fill-opacity="0.501961" points="90,54 100,78 76,54" />
<polygon fill="#6f818e" fill-opacity="0.501961" points="69,173 74,174 73,168" />
<polygon fill="#54727c" fill-opacity="0.501961" points="50,75 47,86 47,74" />
<polygon fill="#849fa6" fill-opacity="0.501961" points="95,2 100,8 100,15" />
<polygon fill="#b6d0dc" fill-opacity="0.501961" points="31,227 42,223 42,229" />
<polygon fill="#8f9795" fill-opacity="0.501961" points="8,54 12,42 7,26" />
<polygon fill="#264146" fill-opacity="0.501961" points="87,237 86,271 93,260" />
<polygon fill="#405158" fill-opacity="0.501961" points="52,90 38,90 48,95" />
<polygon fill="#93a6a6" fill-opacity="0.501961" points="91,50 82,40 79,51" />
<polygon fill="#8a9c9c" fill-opacity="0.501961" points="57,248 49,248 64,228" />
<polygon fill="#fffffd" fill-opacity="0.501961" points="28,22 22,-16 -16,27" />
</g>
</svg>