<svg xmlns="http://www.w3.org/2000/svg" version="1.1" width="1024" height="564">
<rect x="0" y="0" width="1024" height="564" fill="#463a32" />
<g transform="scale(4.000000) translate(0.5 0.5)">
<polygon fill="#ebc49e" fill-opacity="0.501961" points="72,95 33,156 -16,94" />
<polygon fill="#ffc995" fill-opacity="0.501961" points="173,97 78,75 146,62" />
<polygon fill="#00040a" fill-opacity="0.501961" points="271,2 213,68 -16,-9" />
<polygon fill="#000000" fill-opacity="0.501961" points="91,151 253,145 120,108" />
<polygon fill="#7d7871" fill-opacity="0.501961" points="271,61 220,154 203,81" />
<polygon fill="#b3895b" fill-opacity="0.501961" points="61,96 57,43 102,70" />
<polygon fill="#d3eaff" fill-opacity="0.501961" points="10,156 25,118 4,108" />
<polygon fill="#ca906e" fill-opacity="0.501961" points="141,62 127,107 177,92" />
<polygon fill="#422408" fill-opacity="0.501961" points="83,97 10,101 98,150" />
<polygon fill="#0a0300" fill-opacity="0.501961" points="-16,111 27,48 -6,-16" />
<polygon fill="#9eb6ba" fill-opacity="0.501961" points="224,69 270,69 203,89" />
<polygon fill="#171b1d" fill-opacity="0.501961" points="113,-16 73,72 271,34" />
<polygon fill="#b79477" fill-opacity="0.501961" points="70,114 45,143 -15,137" />
<polygon fill="#5f5149" fill-opacity="0.501961" points="179,138 179,27 149,37" />
<polygon fill="#a56e5b" fill-opacity="0.501961" points="118,105 89,99 95,137" />
<polygon fill="#000000" fill-opacity="0.501961" points="76,110 45,151 111,148" />
<polygon fill="#ea8a47" fill-opacity="0.501961" points="169,128 173,105 186,118" />
<polygon fill="#bb968b" fill-opacity="0.501961" points="208,109 204,122 245,141" />
<polygon fill="#2c231d" fill-opacity="0.501961" points="184,102 271,72 184,135" />
<polygon fill="#f1ffff" fill-opacity="0.501961" points="77,19 64,15 73,14" />
<polygon fill="#a9faff" fill-opacity="0.501961" points="132,122 131,133 127,128" />
<polygon fill="#fff0ad" fill-opacity="0.501961" points="73,52 61,56 71,63" />
<polygon fill="#0f1314" fill-opacity="0.501961" points="217,0 190,150 174,-16" />
<polygon fill="#ffe9d7" fill-opacity="0.501961" points="247,128 258,128 249,120" />
<polygon fill="#53625b" fill-opacity="0.501961" points="193,38 193,103 182,65" />
<polygon fill="#c5cbc3" fill-opacity="0.501961" points="227,101 257,100 243,94" />
<polygon fill="#eab69c" fill-opacity="0.501961" points="114,78 160,78 130,63" />
<polygon fill="#55381b" fill-opacity="0.501961" points="153,90 99,75 62,98" />
<polygon fill="#b18955" fill-opacity="0.501961" points="20,3 13,22 35,20" />
<polygon fill="#292828" fill-opacity="0.501961" points="44,99 25,64 81,75" />
<polygon fill="#422621" fill-opacity="0.501961" points="227,99 254,104 214,143" />
<polygon fill="#b17740" fill-opacity="0.501961" points="67,127 57,105 4,111" />
<polygon fill="#b9d3d3" fill-opacity="0.501961" points="73,73 50,68 68,67" />
<polygon fill="#fffff2" fill-opacity="0.501961" points="30,97 37,91 40,99" />
<polygon fill="#242428" fill-opacity="0.501961" points="111,74 74,30 166,38" />
<polygon fill="#cbffff" fill-opacity="0.501961" points="19,113 25,128 8,126" />
<polygon fill="#1a0c00" fill-opacity="0.501961" points="155,156 182,88 136,130" />
<polygon fill="#746052" fill-opacity="0.501961" points="228,99 199,91 200,126" />
<polygon fill="#ffb071" fill-opacity="0.501961" points="-16,123 14,117 4,101" />
<polygon fill="#1d2425" fill-opacity="0.501961" points="243,47 256,66 185,79" />
<polygon fill="#abb8b9" fill-opacity="0.501961" points="254,45 264,53 237,45" />
<polygon fill="#e1c9be" fill-opacity="0.501961" points="37,58 36,62 22,59" />
<polygon fill="#161a22" fill-opacity="0.501961" points="163,-4 135,59 152,68" />
<polygon fill="#ffffff" fill-opacity="0.501961" points="211,124 219,121 215,115" />
<polygon fill="#946545" fill-opacity="0.501961" points="148,81 109,82 189,117" />
<polygon fill="#53a8db" fill-opacity="0.501961" points="39,18 21,25 31,15" />
<polygon fill="#070300" fill-opacity="0.501961" points="74,106 69,143 97,82" />
<polygon fill="#000800" fill-opacity="0.501961" points="182,66 189,48 189,92" />
<polygon fill="#12120f" fill-opacity="0.501961" points="254,47 89,7 263,-16" />
<polygon fill="#94c8ff" fill-opacity="0.501961" points="240,135 241,142 230,133" />
<polygon fill="#808f8c" fill-opacity="0.501961" points="89,26 74,15 89,34" />
<polygon fill="#706d75" fill-opacity="0.501961" points="46,144 -15,118 19,156" />
<polygon fill="#ffc998" fill-opacity="0.501961" points="207,82 215,87 225,78" />
<polygon fill="#29292a" fill-opacity="0.501961" points="19,56 100,17 17,25" />
<polygon fill="#000000" fill-opacity="0.501961" points="124,105 91,156 128,156" />
<polygon fill="#34251b" fill-opacity="0.501961" points="234,110 133,105 179,92" />
<polygon fill="#d7aa73" fill-opacity="0.501961" points="89,69 105,70 67,87" />
<polygon fill="#352c27" fill-opacity="0.501961" points="19,17 44,-7 82,14" />
<polygon fill="#c89875" fill-opacity="0.501961" points="176,90 127,101 152,86" />
<polygon fill="#6b4929" fill-opacity="0.501961" points="54,104 31,117 6,105" />
<polygon fill="#46524d" fill-opacity="0.501961" points="186,75 178,23 152,45" />
<polygon fill="#a1aa90" fill-opacity="0.501961" points="218,5 222,-15 231,-3" />
<polygon fill="#b1775f" fill-opacity="0.501961" points="5,4 17,-16 10,13" />
<polygon fill="#865f53" fill-opacity="0.501961" points="95,132 111,89 84,107" />
<polygon fill="#cca98f" fill-opacity="0.501961" points="38,139 62,119 6,139" />
<polygon fill="#524131" fill-opacity="0.501961" points="62,86 88,41 104,62" />
<polygon fill="#95afb8" fill-opacity="0.501961" points="3,91 29,100 4,99" />
<polygon fill="#7f5237" fill-opacity="0.501961" points="135,113 149,121 164,87" />
<polygon fill="#0f141a" fill-opacity="0.501961" points="238,75 249,75 263,89" />
<polygon fill="#453530" fill-opacity="0.501961" points="26,18 69,69 35,59" />
<polygon fill="#271710" fill-opacity="0.501961" points="53,140 35,156 -16,139" />
<polygon fill="#857e81" fill-opacity="0.501961" points="191,67 190,39 195,53" />
<polygon fill="#d8dfde" fill-opacity="0.501961" points="244,44 244,47 234,49" />
<polygon fill="#11151c" fill-opacity="0.501961" points="188,120 229,137 144,156" />
<polygon fill="#98e8ff" fill-opacity="0.501961" points="50,95 59,95 60,100" />
<polygon fill="#76878f" fill-opacity="0.501961" points="16,76 34,79 27,83" />
<polygon fill="#c6ded4" fill-opacity="0.501961" points="250,57 257,66 270,67" />
<polygon fill="#561d19" fill-opacity="0.501961" points="184,91 162,85 182,62" />
<polygon fill="#a1a4a6" fill-opacity="0.501961" points="197,95 210,94 220,100" />
<polygon fill="#f5ffff" fill-opacity="0.501961" points="88,28 82,27 78,29" />
<polygon fill="#b87c4c" fill-opacity="0.501961" points="68,87 51,133 40,124" />
<polygon fill="#332f2d" fill-opacity="0.501961" points="28,96 13,63 -1,94" />
<polygon fill="#1c1815" fill-opacity="0.501961" points="246,50 231,61 257,71" />
<polygon fill="#c6ffff" fill-opacity="0.501961" points="24,122 6,119 12,130" />
<polygon fill="#cda37d" fill-opacity="0.501961" points="130,86 138,75 91,70" />
<polygon fill="#676e66" fill-opacity="0.501961" points="238,47 213,63 227,62" />
<polygon fill="#432e26" fill-opacity="0.501961" points="143,80 145,94 135,83" />
<polygon fill="#513320" fill-opacity="0.501961" points="198,93 200,74 219,97" />
<polygon fill="#eab18a" fill-opacity="0.501961" points="164,91 133,64 156,72" />
<polygon fill="#59432b" fill-opacity="0.501961" points="56,111 72,120 75,88" />
<polygon fill="#ecfaf3" fill-opacity="0.501961" points="248,85 271,85 269,91" />
<polygon fill="#382f2b" fill-opacity="0.501961" points="221,92 233,75 236,106" />
<polygon fill="#d59050" fill-opacity="0.501961" points="169,107 188,116 175,120" />
<polygon fill="#948d8a" fill-opacity="0.501961" points="190,92 194,95 193,79" />
<polygon fill="#fffff2" fill-opacity="0.501961" points="68,60 64,52 70,56" />
<polygon fill="#e9eed5" fill-opacity="0.501961" points="235,20 233,21 233,24" />
<polygon fill="#8a674d" fill-opacity="0.501961" points="60,54 61,45 91,51" />
<polygon fill="#acebff" fill-opacity="0.501961" points="164,89 175,88 176,92" />
<polygon fill="#98d7ec" fill-opacity="0.501961" points="242,69 267,74 266,82" />
<polygon fill="#31423b" fill-opacity="0.501961" points="154,66 170,63 171,96" />
<polygon fill="#6e7a89" fill-opacity="0.501961" points="30,33 34,39 45,38" />
<polygon fill="#2e2523" fill-opacity="0.501961" points="-6,55 39,63 59,96" />
<polygon fill="#0f0a00" fill-opacity="0.501961" points="131,127 163,111 157,156" />
<polygon fill="#b14f35" fill-opacity="0.501961" points="216,124 204,115 202,123" />
<polygon fill="#c0c8d4" fill-opacity="0.501961" points="53,12 52,14 58,13" />
<polygon fill="#535460" fill-opacity="0.501961" points="5,121 -1,134 15,136" />
<polygon fill="#0d0200" fill-opacity="0.501961" points="56,127 68,156 73,125" />
<polygon fill="#000000" fill-opacity="0.501961" points="176,-4 197,45 198,-16" />
<polygon fill="#616b62" fill-opacity="0.501961" points="43,73 37,61 69,76" />
<polygon fill="#a3aea8" fill-opacity="0.501961" points="68,35 63,30 76,35" />
<polygon fill="#ffebdb" fill-opacity="0.501961" points="249,127 251,121 245,125" />
<polygon fill="#282219" fill-opacity="0.501961" points="86,30 43,21 40,35" />
<polygon fill="#070c08" fill-opacity="0.501961" points="185,151 198,129 187,90" />
<polygon fill="#8f504e" fill-opacity="0.501961" points="238,135 228,103 229,130" />
<polygon fill="#868c97" fill-opacity="0.501961" points="135,137 131,128 131,137" />
<polygon fill="#2f1e0c" fill-opacity="0.501961" points="128,86 113,94 119,115" />
<polygon fill="#3e3437" fill-opacity="0.501961" points="242,126 239,144 271,128" />
<polygon fill="#7d6247" fill-opacity="0.501961" points="81,137 75,133 75,156" />
<polygon fill="#afd6ee" fill-opacity="0.501961" points="58,23 56,20 55,23" />
<polygon fill="#050501" fill-opacity="0.501961" points="242,49 269,52 250,56" />
<polygon fill="#08070a" fill-opacity="0.501961" points="203,62 195,88 194,40" />
<polygon fill="#658892" fill-opacity="0.501961" points="178,35 171,30 161,35" />
<polygon fill="#2b292c" fill-opacity="0.501961" points="117,73 92,65 159,24" />
<polygon fill="#252425" fill-opacity="0.501961" points="155,66 63,38 155,28" />
<polygon fill="#22221d" fill-opacity="0.501961" points="201,67 199,22 271,26" />
<polygon fill="#0a0503" fill-opacity="0.501961" points="11,105 11,109 16,110" />
<polygon fill="#3a3636" fill-opacity="0.501961" points="202,123 198,139 232,139" />
<polygon fill="#603f2b" fill-opacity="0.501961" points="178,125 168,133 167,106" />
<polygon fill="#008ab5" fill-opacity="0.501961" points="28,25 25,20 19,24" />
<polygon fill="#01d285" fill-opacity="0.501961" points="184,74 181,68 184,69" />
<polygon fill="#775140" fill-opacity="0.501961" points="115,119 104,91 102,129" />
<polygon fill="#df9368" fill-opacity="0.501961" points="144,98 135,96 131,84" />
<polygon fill="#bc8047" fill-opacity="0.501961" points="60,94 82,74 72,93" />
<polygon fill="#996856" fill-opacity="0.501961" points="137,89 130,111 126,102" />
<polygon fill="#7e9eaa" fill-opacity="0.501961" points="235,72 218,72 217,84" />
<polygon fill="#adaea3" fill-opacity="0.501961" points="235,95 255,97 234,102" />
<polygon fill="#9f7144" fill-opacity="0.501961" points="24,120 40,128 34,98" />
<polygon fill="#100100" fill-opacity="0.501961" points="30,9 22,10 32,15" />
<polygon fill="#3e2a1a" fill-opacity="0.501961" points="45,37 39,64 63,68" />
<polygon fill="#1b1d1e" fill-opacity="0.501961" points="271,98 249,98 268,105" />
<polygon fill="#da975c" fill-opacity="0.501961" points="149,79 152,103 157,94" />
<polygon fill="#707b7c" fill-opacity="0.501961" points="168,45 169,38 154,53" />
<polygon fill="#b6bfb4" fill-opacity="0.501961" points="247,88 264,88 255,91" />
<polygon fill="#392f27" fill-opacity="0.501961" points="253,91 220,83 228,96" />
<polygon fill="#332416" fill-opacity="0.501961" points="112,80 111,91 74,90" />
<polygon fill="#18120d" fill-opacity="0.501961" points="36,34 -1,34 18,24" />
<polygon fill="#272725" fill-opacity="0.501961" points="231,73 227,61 207,66" />
<polygon fill="#34352c" fill-opacity="0.501961" points="67,18 102,21 97,30" />
<polygon fill="#592622" fill-opacity="0.501961" points="166,87 181,68 180,90" />
<polygon fill="#677378" fill-opacity="0.501961" points="27,31 42,28 30,27" />
<polygon fill="#787769" fill-opacity="0.501961" points="-3,94 24,96 7,90" />
<polygon fill="#261a09" fill-opacity="0.501961" points="169,119 161,130 158,90" />
<polygon fill="#7b7969" fill-opacity="0.501961" points="210,107 198,109 204,117" />
<polygon fill="#ff0729" fill-opacity="0.501961" points="179,79 181,76 180,85" />
<polygon fill="#6b9ad0" fill-opacity="0.501961" points="127,127 136,121 133,127" />
<polygon fill="#b67733" fill-opacity="0.501961" points="19,4 15,23 27,8" />
<polygon fill="#70b3ee" fill-opacity="0.501961" points="23,130 22,123 8,129" />
<polygon fill="#ebb4a2" fill-opacity="0.501961" points="17,117 1,111 18,111" />
<polygon fill="#ffffff" fill-opacity="0.501961" points="219,120 211,119 217,123" />
<polygon fill="#0a0400" fill-opacity="0.501961" points="150,156 92,132 124,129" />
<polygon fill="#3b342b" fill-opacity="0.501961" points="271,101 236,102 238,130" />
<polygon fill="#0f1015" fill-opacity="0.501961" points="190,55 184,-1 152,-16" />
<polygon fill="#8fa4a9" fill-opacity="0.501961" points="45,84 49,82 42,82" />
<polygon fill="#8f8c88" fill-opacity="0.501961" points="49,6 53,6 53,2" />
<polygon fill="#1f100d" fill-opacity="0.501961" points="8,16 10,29 17,1" />
<polygon fill="#a6b8bf" fill-opacity="0.501961" points="63,14 69,19 79,18" />
<polygon fill="#749290" fill-opacity="0.501961" points="211,96 220,96 225,104" />
<polygon fill="#272725" fill-opacity="0.501961" points="76,19 44,14 82,31" />
<polygon fill="#513724" fill-opacity="0.501961" points="3,87 -16,89 -7,140" />
<polygon fill="#1c151c" fill-opacity="0.501961" points="23,102 16,104 12,99" />
<polygon fill="#a3c8e0" fill-opacity="0.501961" points="238,84 242,81 235,81" />
<polygon fill="#ffdeac" fill-opacity="0.501961" points="211,84 210,79 220,86" />
<polygon fill="#6b4b35" fill-opacity="0.501961" points="216,79 217,100 227,90" />
<polygon fill="#ffd284" fill-opacity="0.501961" points="-16,106 6,104 -2,100" />
<polygon fill="#9bdae9" fill-opacity="0.501961" points="236,70 229,75 246,70" />
<polygon fill="#262419" fill-opacity="0.501961" points="220,40 258,47 222,13" />
<polygon fill="#41342e" fill-opacity="0.501961" points="30,37 93,43 7,60" />
<polygon fill="#886739" fill-opacity="0.501961" points="92,75 98,83 77,83" />
<polygon fill="#3b3630" fill-opacity="0.501961" points="99,27 82,77 105,52" />
<polygon fill="#cad3d2" fill-opacity="0.501961" points="3,99 17,98 8,96" />
<polygon fill="#2e2928" fill-opacity="0.501961" points="229,100 235,85 257,77" />
<polygon fill="#c59881" fill-opacity="0.501961" points="134,62 124,66 153,83" />
<polygon fill="#ddf8ff" fill-opacity="0.501961" points="9,118 24,120 8,129" />
<polygon fill="#7e5a4e" fill-opacity="0.501961" points="117,100 99,90 110,118" />
<polygon fill="#b67c78" fill-opacity="0.501961" points="146,110 140,113 140,108" />
<polygon fill="#3e2516" fill-opacity="0.501961" points="134,100 149,122 136,120" />
<polygon fill="#4e5867" fill-opacity="0.501961" points="5,131 23,129 8,135" />
<polygon fill="#272420" fill-opacity="0.501961" points="250,70 235,57 268,68" />
<polygon fill="#342c27" fill-opacity="0.501961" points="182,34 185,63 165,35" />
<polygon fill="#7e6a55" fill-opacity="0.501961" points="160,94 167,90 168,106" />
<polygon fill="#d7b283" fill-opacity="0.501961" points="115,76 89,72 99,68" />
<polygon fill="#7f562f" fill-opacity="0.501961" points="24,116 19,102 65,119" />
<polygon fill="#332d2b" fill-opacity="0.501961" points="58,95 -4,84 65,77" />
<polygon fill="#cbe1df" fill-opacity="0.501961" points="57,67 65,70 52,70" />
<polygon fill="#d6844a" fill-opacity="0.501961" points="69,50 61,55 76,55" />
<polygon fill="#5c4630" fill-opacity="0.501961" points="62,68 58,37 49,66" />
<polygon fill="#83563b" fill-opacity="0.501961" points="220,79 206,82 211,74" />
<polygon fill="#1f0e01" fill-opacity="0.501961" points="23,19 30,15 20,15" />
<polygon fill="#13150f" fill-opacity="0.501961" points="183,109 196,125 197,95" />
<polygon fill="#241f16" fill-opacity="0.501961" points="57,12 103,19 46,-16" />
<polygon fill="#949695" fill-opacity="0.501961" points="194,94 190,92 191,99" />
<polygon fill="#4e4841" fill-opacity="0.501961" points="241,97 245,99 235,98" />
<polygon fill="#e5d3cc" fill-opacity="0.501961" points="40,98 27,98 34,93" />
<polygon fill="#685445" fill-opacity="0.501961" points="27,93 29,85 49,96" />
<polygon fill="#4c3521" fill-opacity="0.501961" points="106,101 134,96 129,86" />
<polygon fill="#87d1ff" fill-opacity="0.501961" points="127,128 131,130 128,131" />
<polygon fill="#ade0e8" fill-opacity="0.501961" points="219,77 227,77 232,73" />
<polygon fill="#25160a" fill-opacity="0.501961" points="185,91 181,72 190,76" />
<polygon fill="#99857a" fill-opacity="0.501961" points="-8,142 -5,156 26,126" />
<polygon fill="#0f0a02" fill-opacity="0.501961" points="132,117 119,104 111,156" />
<polygon fill="#fff1c4" fill-opacity="0.501961" points="122,74 116,75 119,78" />
<polygon fill="#ffffff" fill-opacity="0.501961" points="255,3 264,-3 271,4" />
<polygon fill="#836748" fill-opacity="0.501961" points="59,136 44,133 56,139" />
<polygon fill="#aa763c" fill-opacity="0.501961" points="12,9 24,19 19,20" />
<polygon fill="#c0cfc1" fill-opacity="0.501961" points="206,111 212,111 206,109" />
<polygon fill="#281c19" fill-opacity="0.501961" points="18,71 53,71 25,63" />
<polygon fill="#7e4933" fill-opacity="0.501961" points="215,115 206,125 203,111" />
<polygon fill="#d21d2c" fill-opacity="0.501961" points="173,68 178,71 175,72" />
<polygon fill="#8d8689" fill-opacity="0.501961" points="192,43 193,39 194,48" />
<polygon fill="#dd8847" fill-opacity="0.501961" points="67,61 76,55 73,63" />
<polygon fill="#332f2a" fill-opacity="0.501961" points="61,34 29,19 80,27" />
<polygon fill="#a5c3fd" fill-opacity="0.501961" points="238,139 242,135 235,135" />
<polygon fill="#46535b" fill-opacity="0.501961" points="228,81 228,76 243,72" />
<polygon fill="#74796e" fill-opacity="0.501961" points="231,119 236,122 233,137" />
<polygon fill="#66502d" fill-opacity="0.501961" points="97,79 105,75 125,90" />
<polygon fill="#991b24" fill-opacity="0.501961" points="227,106 232,115 227,123" />
<polygon fill="#838081" fill-opacity="0.501961" points="192,73 194,70 191,62" />
<polygon fill="#2c2e32" fill-opacity="0.501961" points="161,75 161,51 126,50" />
<polygon fill="#c29680" fill-opacity="0.501961" points="136,62 156,79 116,81" />
<polygon fill="#99c1d1" fill-opacity="0.501961" points="251,76 244,73 252,73" />
<polygon fill="#42352f" fill-opacity="0.501961" points="210,98 201,109 236,109" />
<polygon fill="#2e2d2c" fill-opacity="0.501961" points="49,9 20,10 53,23" />
<polygon fill="#93b0c3" fill-opacity="0.501961" points="23,22 39,19 30,17" />
<polygon fill="#868b7c" fill-opacity="0.501961" points="250,102 261,86 271,102" />
<polygon fill="#213a2d" fill-opacity="0.501961" points="176,89 179,71 171,88" />
<polygon fill="#b78a57" fill-opacity="0.501961" points="63,118 64,127 37,120" />
<polygon fill="#060e16" fill-opacity="0.501961" points="255,140 230,139 215,156" />
<polygon fill="#4c3124" fill-opacity="0.501961" points="105,107 109,114 101,123" />
<polygon fill="#564d4c" fill-opacity="0.501961" points="42,96 56,98 52,109" />
<polygon fill="#936d5c" fill-opacity="0.501961" points="104,128 99,107 91,128" />
<polygon fill="#563f28" fill-opacity="0.501961" points="60,111 74,86 66,126" />
<polygon fill="#130d06" fill-opacity="0.501961" points="81,133 87,90 67,126" />
<polygon fill="#ffffff" fill-opacity="0.501961" points="175,92 172,91 175,90" />
<polygon fill="#6b4e32" fill-opacity="0.501961" points="78,48 70,75 84,74" />
<polygon fill="#e6a282" fill-opacity="0.501961" points="-4,118 16,119 5,106" />
<polygon fill="#927b66" fill-opacity="0.501961" points="40,99 32,106 23,96" />
<polygon fill="#070306" fill-opacity="0.501961" points="190,59 189,73 183,47" />
<polygon fill="#c1804c" fill-opacity="0.501961" points="213,88 209,80 205,88" />
<polygon fill="#c28a4e" fill-opacity="0.501961" points="18,6 17,10 28,8" />
<polygon fill="#1f1e1e" fill-opacity="0.501961" points="233,21 216,67 191,71" />
<polygon fill="#2e2e34" fill-opacity="0.501961" points="56,33 26,18 46,22" />
<polygon fill="#bca79f" fill-opacity="0.501961" points="25,138 19,129 44,133" />
<polygon fill="#b7864b" fill-opacity="0.501961" points="99,75 121,70 114,77" />
<polygon fill="#78b6e0" fill-opacity="0.501961" points="176,67 175,66 176,63" />
<polygon fill="#2e2112" fill-opacity="0.501961" points="76,89 96,98 76,102" />
<polygon fill="#ffeedf" fill-opacity="0.501961" points="212,80 216,82 214,86" />
<polygon fill="#725c4a" fill-opacity="0.501961" points="256,118 237,132 220,132" />
<polygon fill="#22252d" fill-opacity="0.501961" points="26,37 27,21 32,21" />
<polygon fill="#758279" fill-opacity="0.501961" points="48,67 32,68 40,65" />
<polygon fill="#100b05" fill-opacity="0.501961" points="132,128 190,156 161,123" />
<polygon fill="#322619" fill-opacity="0.501961" points="88,44 29,33 55,28" />
<polygon fill="#c48942" fill-opacity="0.501961" points="26,14 19,10 22,15" />
<polygon fill="#a2723b" fill-opacity="0.501961" points="17,24 22,10 13,22" />
<polygon fill="#d0d3ca" fill-opacity="0.501961" points="251,101 235,101 244,98" />
<polygon fill="#6b5036" fill-opacity="0.501961" points="66,73 82,72 63,89" />
<polygon fill="#453730" fill-opacity="0.501961" points="236,85 204,94 234,100" />
<polygon fill="#119668" fill-opacity="0.501961" points="219,111 217,113 220,120" />
<polygon fill="#b22e36" fill-opacity="0.501961" points="174,84 171,74 170,85" />
<polygon fill="#a9876f" fill-opacity="0.501961" points="53,101 57,115 57,100" />
<polygon fill="#150a09" fill-opacity="0.501961" points="7,58 -16,53 2,89" />
<polygon fill="#779396" fill-opacity="0.501961" points="183,90 184,93 180,94" />
<polygon fill="#5d1d1e" fill-opacity="0.501961" points="173,107 179,101 184,112" />
<polygon fill="#403f31" fill-opacity="0.501961" points="253,87 270,91 252,97" />
<polygon fill="#1c120b" fill-opacity="0.501961" points="18,60 22,41 -16,29" />
<polygon fill="#9acdff" fill-opacity="0.501961" points="24,120 20,114 16,120" />
<polygon fill="#201918" fill-opacity="0.501961" points="264,114 239,105 271,103" />
<polygon fill="#ab6f44" fill-opacity="0.501961" points="62,49 67,64 58,57" />
<polygon fill="#694b43" fill-opacity="0.501961" points="88,121 104,111 86,104" />
<polygon fill="#373534" fill-opacity="0.501961" points="228,73 224,62 257,60" />
<polygon fill="#b6b8a9" fill-opacity="0.501961" points="32,59 22,57 25,60" />
<polygon fill="#785b4c" fill-opacity="0.501961" points="5,132 -6,130 6,122" />
<polygon fill="#56544d" fill-opacity="0.501961" points="215,129 207,125 206,116" />
<polygon fill="#38312c" fill-opacity="0.501961" points="54,70 65,72 42,76" />
<polygon fill="#59675f" fill-opacity="0.501961" points="69,24 77,25 77,28" />
<polygon fill="#1c100c" fill-opacity="0.501961" points="30,9 12,-4 54,10" />
<polygon fill="#595c55" fill-opacity="0.501961" points="228,56 239,55 225,50" />
<polygon fill="#981b33" fill-opacity="0.501961" points="32,59 42,59 31,56" />
<polygon fill="#332922" fill-opacity="0.501961" points="7,87 13,55 20,95" />
<polygon fill="#8ea2a9" fill-opacity="0.501961" points="29,80 30,77 18,77" />
<polygon fill="#4a565b" fill-opacity="0.501961" points="269,83 250,73 271,77" />
<polygon fill="#717567" fill-opacity="0.501961" points="1,28 1,26 3,25" />
<polygon fill="#3c2f28" fill-opacity="0.501961" points="172,53 166,83 174,69" />
<polygon fill="#2a201f" fill-opacity="0.501961" points="29,78 21,61 41,63" />
<polygon fill="#b8bfb5" fill-opacity="0.501961" points="249,89 264,89 271,95" />
<polygon fill="#1f2022" fill-opacity="0.501961" points="147,42 87,31 183,20" />
<polygon fill="#bb8765" fill-opacity="0.501961" points="217,89 215,86 222,81" />
<polygon fill="#452f1c" fill-opacity="0.501961" points="138,80 136,85 145,81" />
<polygon fill="#442b17" fill-opacity="0.501961" points="161,110 166,102 133,102" />
<polygon fill="#3c2e22" fill-opacity="0.501961" points="203,96 201,111 207,114" />
<polygon fill="#2b2b24" fill-opacity="0.501961" points="105,17 67,8 102,-3" />
</g>
</svg>