<svg xmlns="http://www.w3.org/2000/svg" version="1.1" width="460" height="1024">
<rect x="0" y="0" width="460" height="1024" fill="#87837f" />
<g transform="scale(4.000000) translate(0.5 0.5)">
<polygon fill="#2b100f" fill-opacity="0.501961" points="-16,214 5,114 106,191" />
<polygon fill="#f4b38a" fill-opacity="0.501961" points="58,106 130,129 5,171" />
<polygon fill="#b7cfc4" fill-opacity="0.501961" points="44,251 102,271 127,138" />
<polygon fill="#2e1819" fill-opacity="0.501961" points="30,125 66,205 95,167" />
<polygon fill="#ecd9d7" fill-opacity="0.501961" points="18,45 -16,8 59,-16" />
<polygon fill="#f5fbf3" fill-opacity="0.501961" points="24,195 39,201 -7,240" />
<polygon fill="#000000" fill-opacity="0.501961" points="-16,208 34,180 -1,228" />
<polygon fill="#ada8a7" fill-opacity="0.501961" points="108,234 69,6 130,18" />
<polygon fill="#3c86af" fill-opacity="0.501961" points="49,-16 122,-16 25,65" />
<polygon fill="#ffd5d1" fill-opacity="0.501961" points="43,140 38,168 21,141" />
<polygon fill="#000e11" fill-opacity="0.501961" points="44,157 47,200 95,196" />
<polygon fill="#331811" fill-opacity="0.501961" points="58,128 3,135 65,144" />
<polygon fill="#505a69" fill-opacity="0.501961" points="109,110 44,110 26,55" />
<polygon fill="#efb790" fill-opacity="0.501961" points="100,125 53,108 73,175" />
<polygon fill="#e38c7d" fill-opacity="0.501961" points="-16,187 22,158 18,191" />
<polygon fill="#b0c8ba" fill-opacity="0.501961" points="40,207 51,242 108,199" />
<polygon fill="#0c1523" fill-opacity="0.501961" points="33,128 -16,196 -8,132" />
<polygon fill="#c9beb2" fill-opacity="0.501961" points="-13,133 20,126 22,111" />
<polygon fill="#080401" fill-opacity="0.501961" points="21,167 31,188 58,162" />
<polygon fill="#663a3c" fill-opacity="0.501961" points="86,36 74,80 91,75" />
<polygon fill="#ffffff" fill-opacity="0.501961" points="3,256 12,230 -16,271" />
<polygon fill="#b99f9c" fill-opacity="0.501961" points="77,10 49,43 69,91" />
<polygon fill="#53634e" fill-opacity="0.501961" points="86,265 57,208 62,239" />
<polygon fill="#22282e" fill-opacity="0.501961" points="96,187 91,150 66,201" />
<polygon fill="#9e665e" fill-opacity="0.501961" points="64,179 38,125 79,131" />
<polygon fill="#e6c4be" fill-opacity="0.501961" points="104,150 49,146 109,134" />
<polygon fill="#0172b7" fill-opacity="0.501961" points="130,-12 102,26 108,-16" />
<polygon fill="#708973" fill-opacity="0.501961" points="47,265 15,226 40,182" />
<polygon fill="#503f32" fill-opacity="0.501961" points="-6,103 4,87 27,105" />
<polygon fill="#b3b0b2" fill-opacity="0.501961" points="106,192 86,121 129,99" />
<polygon fill="#ffd86f" fill-opacity="0.501961" points="41,132 65,108 87,124" />
<polygon fill="#00010a" fill-opacity="0.501961" points="18,195 -16,192 -1,229" />
<polygon fill="#5a6e81" fill-opacity="0.501961" points="80,116 45,86 130,96" />
<polygon fill="#ffffff" fill-opacity="0.501961" points="-6,248 11,220 -2,231" />
<polygon fill="#a3685f" fill-opacity="0.501961" points="70,38 69,75 104,32" />
<polygon fill="#c9c1bd" fill-opacity="0.501961" points="15,204 10,233 35,188" />
<polygon fill="#a28d7e" fill-opacity="0.501961" points="33,130 1,58 59,108" />
<polygon fill="#2d363e" fill-opacity="0.501961" points="-4,245 7,242 13,222" />
<polygon fill="#452223" fill-opacity="0.501961" points="56,158 62,150 92,159" />
<polygon fill="#5f7665" fill-opacity="0.501961" points="130,211 99,193 122,243" />
<polygon fill="#b6c4bd" fill-opacity="0.501961" points="94,202 130,249 57,203" />
<polygon fill="#3b432e" fill-opacity="0.501961" points="45,70 60,62 37,59" />
<polygon fill="#cbb6b1" fill-opacity="0.501961" points="96,34 81,35 86,-2" />
<polygon fill="#d5c3bb" fill-opacity="0.501961" points="75,86 76,102 86,78" />
<polygon fill="#9cb8aa" fill-opacity="0.501961" points="6,271 60,267 7,233" />
<polygon fill="#0f0b08" fill-opacity="0.501961" points="47,154 35,129 49,142" />
<polygon fill="#f5baae" fill-opacity="0.501961" points="18,141 38,139 46,155" />
<polygon fill="#201f26" fill-opacity="0.501961" points="-11,169 -16,112 23,155" />
<polygon fill="#a3b4a7" fill-opacity="0.501961" points="35,209 20,212 47,249" />
<polygon fill="#bdb4b1" fill-opacity="0.501961" points="102,27 129,-3 110,87" />
<polygon fill="#1f2a1c" fill-opacity="0.501961" points="62,91 67,80 51,88" />
<polygon fill="#102733" fill-opacity="0.501961" points="49,85 59,73 47,74" />
<polygon fill="#9a887f" fill-opacity="0.501961" points="-16,29 27,31 33,124" />
<polygon fill="#1c5042" fill-opacity="0.501961" points="58,11 70,24 70,14" />
<polygon fill="#c2aca5" fill-opacity="0.501961" points="57,17 81,32 81,54" />
<polygon fill="#2370a0" fill-opacity="0.501961" points="89,-9 92,22 102,-2" />
<polygon fill="#ffffff" fill-opacity="0.501961" points="8,241 -6,270 -16,257" />
<polygon fill="#596757" fill-opacity="0.501961" points="32,221 33,187 52,248" />
<polygon fill="#291515" fill-opacity="0.501961" points="18,175 -2,144 -8,159" />
<polygon fill="#aa625a" fill-opacity="0.501961" points="19,189 30,180 -16,165" />
<polygon fill="#5c373d" fill-opacity="0.501961" points="68,127 76,130 75,142" />
<polygon fill="#eabebc" fill-opacity="0.501961" points="35,152 12,162 14,169" />
<polygon fill="#efaea6" fill-opacity="0.501961" points="46,152 74,144 67,136" />
<polygon fill="#6e3d35" fill-opacity="0.501961" points="58,126 66,152 48,136" />
<polygon fill="#231f20" fill-opacity="0.501961" points="78,176 21,177 26,161" />
<polygon fill="#b9cec6" fill-opacity="0.501961" points="54,219 38,200 53,242" />
<polygon fill="#ccb8ab" fill-opacity="0.501961" points="58,76 48,88 74,73" />
<polygon fill="#4b8cab" fill-opacity="0.501961" points="33,23 53,54 29,59" />
<polygon fill="#ffea9c" fill-opacity="0.501961" points="66,112 93,141 82,115" />
<polygon fill="#19679b" fill-opacity="0.501961" points="67,-6 81,-14 83,23" />
<polygon fill="#d3c4c6" fill-opacity="0.501961" points="102,18 103,1 96,16" />
<polygon fill="#c2b5b2" fill-opacity="0.501961" points="-16,51 51,0 -16,-2" />
<polygon fill="#cdb4a7" fill-opacity="0.501961" points="45,26 64,34 56,38" />
<polygon fill="#326d8e" fill-opacity="0.501961" points="67,35 39,20 48,4" />
<polygon fill="#acb1b0" fill-opacity="0.501961" points="62,60 40,60 71,31" />
<polygon fill="#294838" fill-opacity="0.501961" points="114,268 130,260 110,241" />
<polygon fill="#a1968a" fill-opacity="0.501961" points="-11,109 48,134 30,114" />
<polygon fill="#5d6856" fill-opacity="0.501961" points="23,237 52,258 24,219" />
<polygon fill="#86a271" fill-opacity="0.501961" points="130,96 89,103 85,86" />
<polygon fill="#b4a199" fill-opacity="0.501961" points="73,83 73,65 56,104" />
<polygon fill="#3d3f4a" fill-opacity="0.501961" points="-15,130 21,129 24,155" />
<polygon fill="#a0b0a4" fill-opacity="0.501961" points="33,232 34,204 44,243" />
<polygon fill="#afa3a2" fill-opacity="0.501961" points="119,108 92,169 117,222" />
<polygon fill="#45427d" fill-opacity="0.501961" points="67,111 79,76 59,104" />
<polygon fill="#030100" fill-opacity="0.501961" points="35,182 47,150 48,165" />
<polygon fill="#8b716e" fill-opacity="0.501961" points="88,58 100,64 115,39" />
<polygon fill="#bca993" fill-opacity="0.501961" points="111,57 102,101 88,63" />
<polygon fill="#0a0a0b" fill-opacity="0.501961" points="33,129 45,139 19,136" />
<polygon fill="#3c0600" fill-opacity="0.501961" points="0,121 0,116 8,119" />
<polygon fill="#050d0c" fill-opacity="0.501961" points="32,193 32,182 14,193" />
<polygon fill="#30439b" fill-opacity="0.501961" points="85,86 87,103 74,109" />
<polygon fill="#abb8b0" fill-opacity="0.501961" points="87,264 103,187 63,215" />
<polygon fill="#bb7a62" fill-opacity="0.501961" points="44,154 38,171 34,162" />
<polygon fill="#bb8486" fill-opacity="0.501961" points="81,162 77,172 63,157" />
<polygon fill="#366a8f" fill-opacity="0.501961" points="40,41 52,34 61,43" />
<polygon fill="#bda7a0" fill-opacity="0.501961" points="70,24 70,-1 81,27" />
<polygon fill="#efc5cf" fill-opacity="0.501961" points="66,126 68,143 59,128" />
<polygon fill="#885554" fill-opacity="0.501961" points="77,72 74,37 65,56" />
<polygon fill="#d0933e" fill-opacity="0.501961" points="44,135 64,124 48,118" />
<polygon fill="#d1ae98" fill-opacity="0.501961" points="-16,173 3,188 13,184" />
<polygon fill="#636465" fill-opacity="0.501961" points="98,177 81,200 91,201" />
<polygon fill="#5b715e" fill-opacity="0.501961" points="59,214 41,203 56,199" />
<polygon fill="#1d2324" fill-opacity="0.501961" points="40,194 49,204 81,169" />
<polygon fill="#cd8775" fill-opacity="0.501961" points="51,158 48,145 65,144" />
<polygon fill="#5e2b2b" fill-opacity="0.501961" points="70,140 80,140 70,135" />
<polygon fill="#c7baa6" fill-opacity="0.501961" points="45,74 41,71 56,69" />
<polygon fill="#3a2119" fill-opacity="0.501961" points="57,165 69,150 48,161" />
<polygon fill="#ffcdcf" fill-opacity="0.501961" points="86,140 87,152 66,144" />
<polygon fill="#c6b7a7" fill-opacity="0.501961" points="40,43 53,42 57,49" />
<polygon fill="#685d40" fill-opacity="0.501961" points="22,110 16,92 6,109" />
<polygon fill="#db9d44" fill-opacity="0.501961" points="92,153 85,132 92,142" />
<polygon fill="#aeaaaf" fill-opacity="0.501961" points="110,147 77,115 109,113" />
<polygon fill="#5698be" fill-opacity="0.501961" points="35,50 39,24 58,3" />
<polygon fill="#f3e6e0" fill-opacity="0.501961" points="17,204 26,204 7,220" />
<polygon fill="#112445" fill-opacity="0.501961" points="-7,113 -16,100 7,88" />
<polygon fill="#f5eaf0" fill-opacity="0.501961" points="-3,244 9,225 1,230" />
<polygon fill="#5e522f" fill-opacity="0.501961" points="41,10 42,20 47,12" />
<polygon fill="#fafbfc" fill-opacity="0.501961" points="10,231 16,226 15,221" />
<polygon fill="#b3a5a3" fill-opacity="0.501961" points="93,82 89,103 84,71" />
<polygon fill="#b7aaa6" fill-opacity="0.501961" points="23,45 49,-5 32,-16" />
<polygon fill="#111e25" fill-opacity="0.501961" points="21,197 -16,223 4,222" />
<polygon fill="#648169" fill-opacity="0.501961" points="112,108 94,113 91,84" />
<polygon fill="#6f735d" fill-opacity="0.501961" points="28,67 65,99 55,112" />
<polygon fill="#afb1b2" fill-opacity="0.501961" points="89,37 95,40 79,53" />
<polygon fill="#378560" fill-opacity="0.501961" points="109,76 130,83 125,103" />
<polygon fill="#ad958c" fill-opacity="0.501961" points="4,66 14,100 -16,51" />
<polygon fill="#33769d" fill-opacity="0.501961" points="68,13 67,-13 46,7" />
<polygon fill="#58312f" fill-opacity="0.501961" points="89,68 76,70 90,74" />
<polygon fill="#dca791" fill-opacity="0.501961" points="37,187 41,191 34,191" />
<polygon fill="#a5613c" fill-opacity="0.501961" points="107,70 96,60 103,72" />
<polygon fill="#8d675f" fill-opacity="0.501961" points="68,170 93,144 78,173" />
<polygon fill="#676a5c" fill-opacity="0.501961" points="99,195 112,197 114,205" />
<polygon fill="#ce918e" fill-opacity="0.501961" points="72,147 87,151 71,155" />
<polygon fill="#656ba3" fill-opacity="0.501961" points="97,111 56,97 68,111" />
<polygon fill="#34493b" fill-opacity="0.501961" points="124,235 110,214 119,243" />
<polygon fill="#427798" fill-opacity="0.501961" points="39,43 38,57 55,53" />
<polygon fill="#b7cac1" fill-opacity="0.501961" points="62,261 50,234 81,262" />
<polygon fill="#cebfb3" fill-opacity="0.501961" points="99,45 110,56 103,39" />
<polygon fill="#3f281c" fill-opacity="0.501961" points="59,130 50,131 45,139" />
<polygon fill="#1e1f22" fill-opacity="0.501961" points="43,171 62,201 79,173" />
<polygon fill="#243439" fill-opacity="0.501961" points="6,258 -3,266 7,248" />
<polygon fill="#294475" fill-opacity="0.501961" points="111,48 106,46 111,43" />
<polygon fill="#ffc665" fill-opacity="0.501961" points="89,132 51,116 62,111" />
<polygon fill="#ab9d94" fill-opacity="0.501961" points="77,48 43,75 69,64" />
<polygon fill="#875b45" fill-opacity="0.501961" points="97,28 103,32 95,45" />
<polygon fill="#deaaa5" fill-opacity="0.501961" points="22,142 31,138 31,161" />
<polygon fill="#473b3f" fill-opacity="0.501961" points="80,168 96,165 89,151" />
<polygon fill="#919f91" fill-opacity="0.501961" points="58,200 53,226 64,248" />
<polygon fill="#5d7350" fill-opacity="0.501961" points="95,84 96,96 88,86" />
<polygon fill="#92877e" fill-opacity="0.501961" points="4,70 53,104 43,134" />
<polygon fill="#db8e94" fill-opacity="0.501961" points="64,160 61,164 76,161" />
<polygon fill="#3d373c" fill-opacity="0.501961" points="42,172 32,161 20,166" />
<polygon fill="#a2776d" fill-opacity="0.501961" points="13,94 1,105 14,107" />
<polygon fill="#e4d7d0" fill-opacity="0.501961" points="6,7 18,9 10,17" />
<polygon fill="#807c79" fill-opacity="0.501961" points="18,210 12,222 16,220" />
<polygon fill="#5b715b" fill-opacity="0.501961" points="45,230 55,253 45,241" />
<polygon fill="#485b95" fill-opacity="0.501961" points="105,56 106,52 95,47" />
<polygon fill="#bfafac" fill-opacity="0.501961" points="100,27 102,1 87,35" />
<polygon fill="#6f3634" fill-opacity="0.501961" points="10,183 11,161 6,172" />
<polygon fill="#e8c3cb" fill-opacity="0.501961" points="87,138 75,136 78,133" />
<polygon fill="#c7ab9e" fill-opacity="0.501961" points="64,29 56,13 68,25" />
<polygon fill="#afa49d" fill-opacity="0.501961" points="64,64 83,89 63,74" />
<polygon fill="#7c9e74" fill-opacity="0.501961" points="130,102 103,111 102,85" />
<polygon fill="#5a715a" fill-opacity="0.501961" points="102,205 104,212 108,215" />
<polygon fill="#374542" fill-opacity="0.501961" points="52,88 66,79 59,96" />
<polygon fill="#9d9188" fill-opacity="0.501961" points="21,107 6,130 32,124" />
<polygon fill="#acaeae" fill-opacity="0.501961" points="93,78 104,103 102,77" />
<polygon fill="#427580" fill-opacity="0.501961" points="38,34 28,45 37,18" />
<polygon fill="#d79e8a" fill-opacity="0.501961" points="44,155 35,163 43,147" />
<polygon fill="#beb6b4" fill-opacity="0.501961" points="106,76 117,21 130,73" />
<polygon fill="#2b3032" fill-opacity="0.501961" points="90,155 70,201 90,192" />
<polygon fill="#7f9589" fill-opacity="0.501961" points="104,263 92,230 89,242" />
<polygon fill="#afbdb5" fill-opacity="0.501961" points="57,199 79,223 73,241" />
<polygon fill="#fff7f7" fill-opacity="0.501961" points="8,224 14,216 6,222" />
<polygon fill="#463333" fill-opacity="0.501961" points="85,44 85,38 81,40" />
<polygon fill="#645e51" fill-opacity="0.501961" points="28,71 28,49 44,94" />
<polygon fill="#928178" fill-opacity="0.501961" points="22,43 45,111 -13,31" />
<polygon fill="#222c2a" fill-opacity="0.501961" points="7,209 30,189 18,190" />
<polygon fill="#3d4a53" fill-opacity="0.501961" points="49,84 44,77 66,69" />
<polygon fill="#9b6254" fill-opacity="0.501961" points="16,169 10,193 26,183" />
<polygon fill="#5a6f66" fill-opacity="0.501961" points="15,238 17,224 7,242" />
<polygon fill="#8e5658" fill-opacity="0.501961" points="71,71 78,67 64,55" />
<polygon fill="#644848" fill-opacity="0.501961" points="82,45 87,62 90,56" />
<polygon fill="#2b7093" fill-opacity="0.501961" points="73,76 79,80 75,72" />
<polygon fill="#beb4b1" fill-opacity="0.501961" points="75,43 88,43 73,49" />
<polygon fill="#954336" fill-opacity="0.501961" points="74,39 70,43 73,56" />
<polygon fill="#3e4042" fill-opacity="0.501961" points="12,226 15,219 10,224" />
<polygon fill="#3c3a40" fill-opacity="0.501961" points="17,129 0,160 33,127" />
<polygon fill="#3f3562" fill-opacity="0.501961" points="74,86 72,102 65,100" />
<polygon fill="#b3c0b9" fill-opacity="0.501961" points="84,216 100,197 101,251" />
<polygon fill="#abb5ae" fill-opacity="0.501961" points="33,229 27,193 25,212" />
<polygon fill="#d7d0ca" fill-opacity="0.501961" points="13,223 21,218 20,206" />
<polygon fill="#58473d" fill-opacity="0.501961" points="46,194 46,171 39,184" />
<polygon fill="#b1aba9" fill-opacity="0.501961" points="92,141 103,192 108,105" />
<polygon fill="#fcf9fc" fill-opacity="0.501961" points="11,235 12,231 7,237" />
<polygon fill="#15151e" fill-opacity="0.501961" points="0,242 5,242 5,236" />
<polygon fill="#b9b2ae" fill-opacity="0.501961" points="7,114 13,120 21,113" />
<polygon fill="#4c4e80" fill-opacity="0.501961" points="102,103 98,113 93,105" />
<polygon fill="#9baaa2" fill-opacity="0.501961" points="40,209 58,220 37,196" />
<polygon fill="#87554b" fill-opacity="0.501961" points="75,147 84,162 79,163" />
<polygon fill="#5cabbe" fill-opacity="0.501961" points="83,61 85,67 85,62" />
<polygon fill="#b4a69d" fill-opacity="0.501961" points="53,70 68,62 69,71" />
<polygon fill="#343c34" fill-opacity="0.501961" points="37,207 36,197 40,207" />
<polygon fill="#a47c76" fill-opacity="0.501961" points="72,138 75,127 81,131" />
<polygon fill="#786e74" fill-opacity="0.501961" points="92,174 100,184 91,196" />
<polygon fill="#a49e9e" fill-opacity="0.501961" points="12,43 -16,21 31,32" />
<polygon fill="#878d82" fill-opacity="0.501961" points="17,223 27,203 27,223" />
<polygon fill="#a26e61" fill-opacity="0.501961" points="81,71 81,78 98,78" />
<polygon fill="#e6a8b4" fill-opacity="0.501961" points="56,128 67,125 77,128" />
<polygon fill="#c0c6bf" fill-opacity="0.501961" points="114,92 104,82 130,95" />
<polygon fill="#c4a991" fill-opacity="0.501961" points="93,47 109,61 89,53" />
<polygon fill="#8a9e95" fill-opacity="0.501961" points="108,231 109,258 98,235" />
<polygon fill="#87988a" fill-opacity="0.501961" points="27,244 13,266 17,226" />
<polygon fill="#563d3b" fill-opacity="0.501961" points="65,166 73,164 67,176" />
<polygon fill="#bcabac" fill-opacity="0.501961" points="105,196 94,165 130,197" />
<polygon fill="#9e5e4f" fill-opacity="0.501961" points="47,142 62,134 49,136" />
<polygon fill="#a87668" fill-opacity="0.501961" points="86,34 72,38 101,39" />
<polygon fill="#14161b" fill-opacity="0.501961" points="0,173 -16,139 5,137" />
<polygon fill="#afa09c" fill-opacity="0.501961" points="84,29 60,47 77,16" />
<polygon fill="#9f5a45" fill-opacity="0.501961" points="30,138 23,139 25,142" />
<polygon fill="#554d48" fill-opacity="0.501961" points="34,187 31,204 36,197" />
<polygon fill="#3d3f27" fill-opacity="0.501961" points="13,100 17,94 18,102" />
<polygon fill="#946c4e" fill-opacity="0.501961" points="92,60 97,54 102,64" />
<polygon fill="#61818a" fill-opacity="0.501961" points="110,30 119,26 113,24" />
<polygon fill="#c6b0a5" fill-opacity="0.501961" points="90,59 101,67 95,75" />
<polygon fill="#606f5e" fill-opacity="0.501961" points="31,219 36,222 31,206" />
<polygon fill="#617160" fill-opacity="0.501961" points="74,241 61,232 79,257" />
<polygon fill="#b2c5bc" fill-opacity="0.501961" points="114,232 107,211 105,231" />
<polygon fill="#8d9e96" fill-opacity="0.501961" points="82,247 83,234 71,223" />
<polygon fill="#2c76ad" fill-opacity="0.501961" points="70,19 67,22 73,25" />
<polygon fill="#b4a8a2" fill-opacity="0.501961" points="76,85 74,105 83,82" />
<polygon fill="#b8b1a9" fill-opacity="0.501961" points="73,54 67,47 57,44" />
<polygon fill="#211f23" fill-opacity="0.501961" points="21,156 2,159 16,146" />
<polygon fill="#c89949" fill-opacity="0.501961" points="44,137 51,131 51,114" />
<polygon fill="#a09796" fill-opacity="0.501961" points="23,201 34,195 29,192" />
<polygon fill="#fffeff" fill-opacity="0.501961" points="7,242 -5,270 -16,255" />
<polygon fill="#43432b" fill-opacity="0.501961" points="42,91 51,99 47,99" />
<polygon fill="#bfb4af" fill-opacity="0.501961" points="28,31 51,-2 -16,21" />
<polygon fill="#b6b2b1" fill-opacity="0.501961" points="87,93 91,87 89,103" />
<polygon fill="#9b8f89" fill-opacity="0.501961" points="-13,48 27,86 -10,89" />
<polygon fill="#485344" fill-opacity="0.501961" points="36,214 44,225 37,200" />
<polygon fill="#cbd6ce" fill-opacity="0.501961" points="106,205 104,202 106,208" />
<polygon fill="#fb9ebf" fill-opacity="0.501961" points="3,172 6,177 5,172" />
<polygon fill="#aebbb1" fill-opacity="0.501961" points="34,209 34,222 38,219" />
<polygon fill="#717b69" fill-opacity="0.501961" points="62,213 51,203 66,228" />
<polygon fill="#7f7f7c" fill-opacity="0.501961" points="41,88 45,73 35,59" />
<polygon fill="#8b4836" fill-opacity="0.501961" points="-16,197 -13,187 14,191" />
<polygon fill="#528480" fill-opacity="0.501961" points="108,62 107,67 105,64" />
<polygon fill="#377197" fill-opacity="0.501961" points="58,17 65,32 48,17" />
<polygon fill="#efb361" fill-opacity="0.501961" points="49,126 69,125 55,113" />
<polygon fill="#ffd5cd" fill-opacity="0.501961" points="65,136 72,145 65,145" />
<polygon fill="#f3bfbd" fill-opacity="0.501961" points="35,158 25,144 38,143" />
<polygon fill="#aab4b0" fill-opacity="0.501961" points="7,239 17,264 9,262" />
<polygon fill="#0a1013" fill-opacity="0.501961" points="19,191 -12,199 -2,224" />
<polygon fill="#ffe99f" fill-opacity="0.501961" points="92,137 87,125 76,119" />
<polygon fill="#7e4e4a" fill-opacity="0.501961" points="79,139 67,135 76,142" />
<polygon fill="#e9c2b9" fill-opacity="0.501961" points="17,171 19,162 13,163" />
<polygon fill="#bbafac" fill-opacity="0.501961" points="102,25 130,40 101,42" />
<polygon fill="#432822" fill-opacity="0.501961" points="44,158 44,145 61,171" />
<polygon fill="#d9aca5" fill-opacity="0.501961" points="58,144 49,148 54,150" />
<polygon fill="#915348" fill-opacity="0.501961" points="3,169 26,180 19,170" />
<polygon fill="#413933" fill-opacity="0.501961" points="39,196 41,193 28,192" />
<polygon fill="#5c5e50" fill-opacity="0.501961" points="105,80 109,81 109,83" />
<polygon fill="#9c6355" fill-opacity="0.501961" points="13,158 12,160 20,159" />
<polygon fill="#b9aaa3" fill-opacity="0.501961" points="61,95 73,72 72,84" />
<polygon fill="#b9d0c2" fill-opacity="0.501961" points="113,198 122,254 130,182" />
<polygon fill="#91857c" fill-opacity="0.501961" points="59,104 41,128 7,125" />
<polygon fill="#809388" fill-opacity="0.501961" points="78,198 64,204 89,202" />
<polygon fill="#8d9a8d" fill-opacity="0.501961" points="57,236 59,225 73,252" />
<polygon fill="#bf948c" fill-opacity="0.501961" points="77,171 71,158 79,164" />
<polygon fill="#b8aba5" fill-opacity="0.501961" points="112,57 103,35 99,47" />
<polygon fill="#0e0f0e" fill-opacity="0.501961" points="41,132 47,144 31,132" />
<polygon fill="#aaa199" fill-opacity="0.501961" points="1,129 15,120 -16,127" />
<polygon fill="#baaca9" fill-opacity="0.501961" points="64,34 83,32 65,43" />
<polygon fill="#b7b9b9" fill-opacity="0.501961" points="113,69 104,81 101,76" />
<polygon fill="#6a3c34" fill-opacity="0.501961" points="16,93 7,92 6,95" />
<polygon fill="#595e4f" fill-opacity="0.501961" points="105,198 95,193 101,194" />
<polygon fill="#46393b" fill-opacity="0.501961" points="77,130 71,129 69,131" />
<polygon fill="#bacbc4" fill-opacity="0.501961" points="98,243 107,253 108,266" />
<polygon fill="#788876" fill-opacity="0.501961" points="31,221 39,224 45,241" />
<polygon fill="#1b1011" fill-opacity="0.501961" points="19,169 31,173 25,177" />
<polygon fill="#41799f" fill-opacity="0.501961" points="83,12 44,-16 86,-9" />
<polygon fill="#ada59f" fill-opacity="0.501961" points="53,61 40,59 68,47" />
<polygon fill="#1e1e22" fill-opacity="0.501961" points="71,172 43,184 66,201" />
<polygon fill="#3e2320" fill-opacity="0.501961" points="50,143 62,139 55,139" />
<polygon fill="#080b0b" fill-opacity="0.501961" points="36,182 46,154 50,162" />
<polygon fill="#50514c" fill-opacity="0.501961" points="58,60 39,69 39,60" />
<polygon fill="#4a494f" fill-opacity="0.501961" points="88,192 94,177 91,160" />
<polygon fill="#8c4840" fill-opacity="0.501961" points="75,37 81,37 68,43" />
<polygon fill="#ece5e8" fill-opacity="0.501961" points="1,239 6,222 -12,246" />
<polygon fill="#4988a9" fill-opacity="0.501961" points="105,8 102,20 118,9" />
<polygon fill="#92ac9f" fill-opacity="0.501961" points="129,225 122,240 107,200" />
<polygon fill="#1e252b" fill-opacity="0.501961" points="7,206 15,199 5,222" />
<polygon fill="#acbcb3" fill-opacity="0.501961" points="53,215 38,204 55,245" />
<polygon fill="#8b7c72" fill-opacity="0.501961" points="0,47 29,72 28,44" />
<polygon fill="#fffcfb" fill-opacity="0.501961" points="18,217 16,224 16,217" />
<polygon fill="#c0897c" fill-opacity="0.501961" points="32,159 24,162 24,150" />
<polygon fill="#1f1617" fill-opacity="0.501961" points="16,143 35,132 23,132" />
<polygon fill="#437292" fill-opacity="0.501961" points="41,40 45,31 61,43" />
<polygon fill="#6d824f" fill-opacity="0.501961" points="61,110 54,104 68,109" />
</g>
</svg>