<svg xmlns="http://www.w3.org/2000/svg" version="1.1" width="1024" height="460">
<rect x="0" y="0" width="1024" height="460" fill="#563f3d" />
<g transform="scale(4.000000) translate(0.5 0.5)">
<polygon fill="#e0ecdc" fill-opacity="0.501961" points="242,-16 150,-16 222,69" />
<polygon fill="#f4b9af" fill-opacity="0.501961" points="117,130 93,25 140,0" />
<polygon fill="#000000" fill-opacity="0.501961" points="265,119 200,45 86,66" />
<polygon fill="#1a0003" fill-opacity="0.501961" points="11,130 -16,2 132,-16" />
<polygon fill="#b28a89" fill-opacity="0.501961" points="164,29 62,99 97,130" />
<polygon fill="#000000" fill-opacity="0.501961" points="94,63 60,97 72,-14" />
<polygon fill="#c8927d" fill-opacity="0.501961" points="116,130 226,91 170,89" />
<polygon fill="#000000" fill-opacity="0.501961" points="122,122 211,62 184,30" />
<polygon fill="#d3a49d" fill-opacity="0.501961" points="121,2 154,53 88,46" />
<polygon fill="#000000" fill-opacity="0.501961" points="123,66 111,78 67,61" />
<polygon fill="#702e29" fill-opacity="0.501961" points="155,57 189,7 116,-16" />
<polygon fill="#6e283a" fill-opacity="0.501961" points="10,-3 62,11 58,130" />
<polygon fill="#c1c6be" fill-opacity="0.501961" points="203,48 179,21 244,-16" />
<polygon fill="#647563" fill-opacity="0.501961" points="234,82 245,-16 211,57" />
<polygon fill="#d7b7bb" fill-opacity="0.501961" points="83,93 81,77 124,84" />
<polygon fill="#170401" fill-opacity="0.501961" points="69,111 4,130 -11,78" />
<polygon fill="#122515" fill-opacity="0.501961" points="222,32 270,90 258,122" />
<polygon fill="#000b0a" fill-opacity="0.501961" points="52,31 76,1 150,-5" />
<polygon fill="#18150c" fill-opacity="0.501961" points="271,123 227,81 178,119" />
<polygon fill="#000000" fill-opacity="0.501961" points="153,8 182,25 169,5" />
<polygon fill="#b88174" fill-opacity="0.501961" points="149,20 130,-15 172,25" />
<polygon fill="#280000" fill-opacity="0.501961" points="135,17 125,-10 164,34" />
<polygon fill="#6e3b39" fill-opacity="0.501961" points="154,52 127,55 122,110" />
<polygon fill="#c29893" fill-opacity="0.501961" points="125,118 173,96 181,130" />
<polygon fill="#000000" fill-opacity="0.501961" points="170,52 215,84 128,78" />
<polygon fill="#000001" fill-opacity="0.501961" points="80,-14 93,60 61,91" />
<polygon fill="#9ca1ad" fill-opacity="0.501961" points="84,89 55,130 100,130" />
<polygon fill="#6e462e" fill-opacity="0.501961" points="227,101 210,79 171,109" />
<polygon fill="#000000" fill-opacity="0.501961" points="88,94 94,89 95,111" />
<polygon fill="#dfbeb0" fill-opacity="0.501961" points="117,98 101,126 128,110" />
<polygon fill="#eac9c1" fill-opacity="0.501961" points="101,74 99,110 93,84" />
<polygon fill="#000000" fill-opacity="0.501961" points="12,-16 2,107 -16,12" />
<polygon fill="#fca1b9" fill-opacity="0.501961" points="136,81 129,88 137,95" />
<polygon fill="#c24668" fill-opacity="0.501961" points="67,13 42,7 50,21" />
<polygon fill="#c1425e" fill-opacity="0.501961" points="33,54 65,62 44,66" />
<polygon fill="#021f1a" fill-opacity="0.501961" points="59,59 27,20 21,39" />
<polygon fill="#872738" fill-opacity="0.501961" points="1,66 17,38 38,47" />
<polygon fill="#d2afa4" fill-opacity="0.501961" points="122,4 125,32 94,28" />
<polygon fill="#848473" fill-opacity="0.501961" points="246,96 200,44 222,33" />
<polygon fill="#7d1d2d" fill-opacity="0.501961" points="64,92 48,123 32,77" />
<polygon fill="#996761" fill-opacity="0.501961" points="198,14 221,-16 136,-2" />
<polygon fill="#b7837d" fill-opacity="0.501961" points="89,48 115,66 151,29" />
<polygon fill="#c64767" fill-opacity="0.501961" points="48,45 61,33 41,31" />
<polygon fill="#401b10" fill-opacity="0.501961" points="112,100 104,112 104,89" />
<polygon fill="#01080a" fill-opacity="0.501961" points="105,74 70,22 38,19" />
<polygon fill="#2d0000" fill-opacity="0.501961" points="199,44 160,28 179,25" />
<polygon fill="#596d5c" fill-opacity="0.501961" points="248,85 253,34 230,-12" />
<polygon fill="#cfd1c8" fill-opacity="0.501961" points="205,44 193,17 174,12" />
<polygon fill="#7d453c" fill-opacity="0.501961" points="182,43 168,28 130,73" />
<polygon fill="#160200" fill-opacity="0.501961" points="90,77 137,65 103,64" />
<polygon fill="#1f3628" fill-opacity="0.501961" points="258,88 242,-16 271,-12" />
<polygon fill="#000000" fill-opacity="0.501961" points="64,95 45,130 62,127" />
<polygon fill="#000000" fill-opacity="0.501961" points="254,111 215,62 231,108" />
<polygon fill="#b5b5b2" fill-opacity="0.501961" points="239,34 226,9 178,-4" />
<polygon fill="#e9b3b3" fill-opacity="0.501961" points="119,69 113,95 127,77" />
<polygon fill="#6b1e29" fill-opacity="0.501961" points="45,81 12,97 6,75" />
<polygon fill="#8f6868" fill-opacity="0.501961" points="153,36 115,46 113,30" />
<polygon fill="#898273" fill-opacity="0.501961" points="225,46 201,33 187,8" />
<polygon fill="#080709" fill-opacity="0.501961" points="160,47 137,93 224,80" />
<polygon fill="#291208" fill-opacity="0.501961" points="124,102 127,79 136,112" />
<polygon fill="#2c100e" fill-opacity="0.501961" points="204,3 232,-16 165,-16" />
<polygon fill="#97283b" fill-opacity="0.501961" points="22,7 6,31 24,22" />
<polygon fill="#925040" fill-opacity="0.501961" points="101,62 95,23 86,48" />
<polygon fill="#001110" fill-opacity="0.501961" points="26,7 62,-16 61,8" />
<polygon fill="#925852" fill-opacity="0.501961" points="137,103 148,99 126,86" />
<polygon fill="#d0a39d" fill-opacity="0.501961" points="100,34 133,62 103,56" />
<polygon fill="#6d4e42" fill-opacity="0.501961" points="189,15 205,11 165,3" />
<polygon fill="#333229" fill-opacity="0.501961" points="251,91 218,31 241,46" />
<polygon fill="#080e0e" fill-opacity="0.501961" points="-14,88 33,70 32,54" />
<polygon fill="#7a7d73" fill-opacity="0.501961" points="237,13 244,37 219,36" />
<polygon fill="#84747f" fill-opacity="0.501961" points="80,74 69,128 97,78" />
<polygon fill="#070000" fill-opacity="0.501961" points="152,12 175,18 169,5" />
<polygon fill="#5b1721" fill-opacity="0.501961" points="52,93 73,56 57,41" />
<polygon fill="#a67269" fill-opacity="0.501961" points="113,76 114,101 100,73" />
<polygon fill="#af7475" fill-opacity="0.501961" points="177,26 159,24 169,17" />
<polygon fill="#96665a" fill-opacity="0.501961" points="149,19 176,-16 126,-16" />
<polygon fill="#613f2f" fill-opacity="0.501961" points="230,100 219,83 162,92" />
<polygon fill="#47010e" fill-opacity="0.501961" points="142,27 162,38 129,-6" />
<polygon fill="#d5b3af" fill-opacity="0.501961" points="126,10 123,45 111,13" />
<polygon fill="#070302" fill-opacity="0.501961" points="92,81 102,69 94,57" />
<polygon fill="#020f0e" fill-opacity="0.501961" points="42,98 33,130 23,88" />
<polygon fill="#b0827f" fill-opacity="0.501961" points="129,8 137,40 138,18" />
<polygon fill="#000000" fill-opacity="0.501961" points="244,81 258,100 246,92" />
<polygon fill="#040507" fill-opacity="0.501961" points="184,39 177,82 141,107" />
<polygon fill="#97949a" fill-opacity="0.501961" points="145,65 140,72 133,72" />
<polygon fill="#a22b45" fill-opacity="0.501961" points="62,15 67,-11 78,-16" />
<polygon fill="#04090c" fill-opacity="0.501961" points="84,-11 95,24 57,46" />
<polygon fill="#371e14" fill-opacity="0.501961" points="128,109 120,89 149,110" />
<polygon fill="#001510" fill-opacity="0.501961" points="40,47 40,56 60,51" />
<polygon fill="#946055" fill-opacity="0.501961" points="138,33 155,53 153,30" />
<polygon fill="#d8bab8" fill-opacity="0.501961" points="91,90 102,74 107,81" />
<polygon fill="#7d534e" fill-opacity="0.501961" points="111,26 116,43 118,29" />
<polygon fill="#1f2520" fill-opacity="0.501961" points="206,88 223,69 185,52" />
<polygon fill="#000301" fill-opacity="0.501961" points="19,12 7,23 -5,6" />
<polygon fill="#a26867" fill-opacity="0.501961" points="151,56 132,56 145,64" />
<polygon fill="#3a2226" fill-opacity="0.501961" points="36,91 64,64 61,90" />
<polygon fill="#66715e" fill-opacity="0.501961" points="271,110 239,92 271,124" />
<polygon fill="#79433d" fill-opacity="0.501961" points="131,51 146,54 108,79" />
<polygon fill="#9e3a54" fill-opacity="0.501961" points="63,17 38,18 44,8" />
<polygon fill="#b7bcb5" fill-opacity="0.501961" points="211,22 226,48 209,31" />
<polygon fill="#a09e93" fill-opacity="0.501961" points="210,55 188,34 207,39" />
<polygon fill="#041f1a" fill-opacity="0.501961" points="39,30 42,21 71,29" />
<polygon fill="#932b3f" fill-opacity="0.501961" points="53,45 52,30 63,35" />
<polygon fill="#656572" fill-opacity="0.501961" points="64,98 70,123 85,76" />
<polygon fill="#161c15" fill-opacity="0.501961" points="81,1 131,-12 140,6" />
<polygon fill="#a4a296" fill-opacity="0.501961" points="172,9 181,19 199,16" />
<polygon fill="#a76053" fill-opacity="0.501961" points="121,66 103,63 96,53" />
<polygon fill="#d3afaf" fill-opacity="0.501961" points="169,-13 207,7 181,3" />
<polygon fill="#3a2218" fill-opacity="0.501961" points="139,72 139,99 156,85" />
<polygon fill="#f2cacc" fill-opacity="0.501961" points="117,78 113,88 124,88" />
<polygon fill="#793140" fill-opacity="0.501961" points="31,56 39,54 37,26" />
<polygon fill="#a53c52" fill-opacity="0.501961" points="63,66 58,57 34,60" />
<polygon fill="#0a0306" fill-opacity="0.501961" points="66,5 91,50 68,88" />
<polygon fill="#c4a49e" fill-opacity="0.501961" points="143,116 167,105 174,130" />
<polygon fill="#070307" fill-opacity="0.501961" points="132,70 141,64 132,64" />
<polygon fill="#b6bfb9" fill-opacity="0.501961" points="231,15 227,-16 196,20" />
<polygon fill="#9a6f5f" fill-opacity="0.501961" points="111,96 96,130 117,121" />
<polygon fill="#b88a7c" fill-opacity="0.501961" points="93,32 99,57 105,16" />
<polygon fill="#310107" fill-opacity="0.501961" points="204,54 177,20 180,45" />
<polygon fill="#000102" fill-opacity="0.501961" points="104,72 86,64 124,67" />
<polygon fill="#713c35" fill-opacity="0.501961" points="179,36 148,64 159,29" />
<polygon fill="#131710" fill-opacity="0.501961" points="257,23 266,-7 244,-14" />
<polygon fill="#a37e74" fill-opacity="0.501961" points="180,111 154,100 176,93" />
<polygon fill="#a76c74" fill-opacity="0.501961" points="130,83 138,78 136,99" />
<polygon fill="#4e5245" fill-opacity="0.501961" points="255,92 237,48 253,28" />
<polygon fill="#afa4b5" fill-opacity="0.501961" points="90,76 82,88 84,99" />
<polygon fill="#2c140f" fill-opacity="0.501961" points="131,73 141,76 124,82" />
<polygon fill="#010002" fill-opacity="0.501961" points="173,47 158,72 130,78" />
<polygon fill="#374c2f" fill-opacity="0.501961" points="-16,116 26,130 12,107" />
<polygon fill="#691b26" fill-opacity="0.501961" points="6,52 20,95 18,39" />
<polygon fill="#872738" fill-opacity="0.501961" points="58,99 36,87 50,111" />
<polygon fill="#120103" fill-opacity="0.501961" points="161,28 179,30 170,25" />
<polygon fill="#652027" fill-opacity="0.501961" points="11,9 41,7 9,-6" />
<polygon fill="#141615" fill-opacity="0.501961" points="31,58 34,75 -8,65" />
<polygon fill="#1d0000" fill-opacity="0.501961" points="155,28 149,21 162,27" />
<polygon fill="#884d46" fill-opacity="0.501961" points="172,34 152,48 177,46" />
<polygon fill="#6d4937" fill-opacity="0.501961" points="220,97 207,87 167,116" />
<polygon fill="#d7a9a2" fill-opacity="0.501961" points="108,22 107,51 98,36" />
<polygon fill="#bc978b" fill-opacity="0.501961" points="94,100 98,109 101,98" />
<polygon fill="#0e0107" fill-opacity="0.501961" points="219,69 240,94 235,130" />
<polygon fill="#9f9499" fill-opacity="0.501961" points="111,130 68,130 83,98" />
<polygon fill="#1c2927" fill-opacity="0.501961" points="96,18 78,-2 117,5" />
<polygon fill="#3c201b" fill-opacity="0.501961" points="108,91 110,99 102,102" />
<polygon fill="#aa786e" fill-opacity="0.501961" points="109,79 101,85 126,106" />
<polygon fill="#606756" fill-opacity="0.501961" points="252,102 229,62 234,86" />
<polygon fill="#83524f" fill-opacity="0.501961" points="153,110 148,106 161,95" />
<polygon fill="#261b18" fill-opacity="0.501961" points="91,92 89,102 99,115" />
<polygon fill="#5d2c32" fill-opacity="0.501961" points="129,66 132,95 135,78" />
<polygon fill="#7f7a6c" fill-opacity="0.501961" points="230,57 205,25 224,71" />
<polygon fill="#aa817d" fill-opacity="0.501961" points="130,58 117,58 131,64" />
<polygon fill="#351c1f" fill-opacity="0.501961" points="128,41 126,35 130,41" />
<polygon fill="#d6b2af" fill-opacity="0.501961" points="124,114 118,90 117,109" />
<polygon fill="#3f3843" fill-opacity="0.501961" points="87,68 72,98 72,83" />
<polygon fill="#080808" fill-opacity="0.501961" points="-16,58 18,40 -14,23" />
<polygon fill="#3b1c15" fill-opacity="0.501961" points="153,32 156,40 162,27" />
<polygon fill="#ba8694" fill-opacity="0.501961" points="132,85 128,85 130,92" />
<polygon fill="#70031c" fill-opacity="0.501961" points="141,29 153,28 139,16" />
<polygon fill="#2d1710" fill-opacity="0.501961" points="125,81 125,97 132,74" />
<polygon fill="#080304" fill-opacity="0.501961" points="208,55 193,47 192,39" />
<polygon fill="#080507" fill-opacity="0.501961" points="63,68 89,58 118,70" />
<polygon fill="#2a403a" fill-opacity="0.501961" points="191,111 229,107 221,130" />
<polygon fill="#4c3431" fill-opacity="0.501961" points="166,89 188,86 174,96" />
<polygon fill="#3c292c" fill-opacity="0.501961" points="28,61 34,45 21,36" />
<polygon fill="#0a0501" fill-opacity="0.501961" points="121,-16 107,-13 143,13" />
<polygon fill="#68422e" fill-opacity="0.501961" points="123,-6 143,8 139,-9" />
<polygon fill="#886154" fill-opacity="0.501961" points="172,120 174,92 196,94" />
<polygon fill="#041715" fill-opacity="0.501961" points="43,39 50,56 39,53" />
<polygon fill="#000000" fill-opacity="0.501961" points="63,130 44,130 63,101" />
<polygon fill="#ad8676" fill-opacity="0.501961" points="107,120 101,100 95,105" />
<polygon fill="#632e26" fill-opacity="0.501961" points="88,52 97,60 89,37" />
<polygon fill="#8e6254" fill-opacity="0.501961" points="133,9 118,6 128,4" />
<polygon fill="#c9c9c3" fill-opacity="0.501961" points="209,45 179,16 195,21" />
<polygon fill="#291e1f" fill-opacity="0.501961" points="40,13 23,15 32,-16" />
<polygon fill="#873340" fill-opacity="0.501961" points="38,13 34,31 40,27" />
<polygon fill="#8c2d3d" fill-opacity="0.501961" points="13,48 21,41 19,59" />
<polygon fill="#b78c8b" fill-opacity="0.501961" points="134,16 121,23 142,52" />
<polygon fill="#757766" fill-opacity="0.501961" points="233,60 216,48 242,83" />
<polygon fill="#a26b66" fill-opacity="0.501961" points="163,26 147,16 175,20" />
<polygon fill="#85504d" fill-opacity="0.501961" points="155,30 141,29 135,46" />
<polygon fill="#000000" fill-opacity="0.501961" points="74,43 64,47 59,38" />
<polygon fill="#775a49" fill-opacity="0.501961" points="108,130 85,130 136,106" />
<polygon fill="#43493e" fill-opacity="0.501961" points="234,-16 243,23 266,44" />
<polygon fill="#090a03" fill-opacity="0.501961" points="271,99 244,90 259,106" />
<polygon fill="#8f7f84" fill-opacity="0.501961" points="92,107 87,92 65,113" />
<polygon fill="#6f403e" fill-opacity="0.501961" points="112,77 104,73 106,81" />
<polygon fill="#4f261b" fill-opacity="0.501961" points="151,59 173,47 157,48" />
<polygon fill="#6d7064" fill-opacity="0.501961" points="244,27 230,41 217,33" />
<polygon fill="#520c14" fill-opacity="0.501961" points="74,67 63,67 58,39" />
<polygon fill="#98695d" fill-opacity="0.501961" points="183,3 144,6 131,-16" />
<polygon fill="#5d3139" fill-opacity="0.501961" points="46,85 39,63 61,69" />
<polygon fill="#1b1b12" fill-opacity="0.501961" points="243,69 243,83 233,55" />
<polygon fill="#bf908f" fill-opacity="0.501961" points="127,69 119,75 122,93" />
<polygon fill="#060f11" fill-opacity="0.501961" points="63,67 77,70 64,98" />
<polygon fill="#939b92" fill-opacity="0.501961" points="212,26 232,22 221,33" />
<polygon fill="#c79689" fill-opacity="0.501961" points="127,50 146,45 148,53" />
<polygon fill="#000000" fill-opacity="0.501961" points="166,5 163,13 160,5" />
<polygon fill="#c89a9f" fill-opacity="0.501961" points="137,93 137,83 133,94" />
<polygon fill="#0a1d19" fill-opacity="0.501961" points="25,42 22,25 33,27" />
<polygon fill="#401316" fill-opacity="0.501961" points="-6,26 14,18 -16,54" />
<polygon fill="#37211a" fill-opacity="0.501961" points="137,78 145,98 145,74" />
<polygon fill="#671c27" fill-opacity="0.501961" points="65,94 56,110 34,117" />
<polygon fill="#b99186" fill-opacity="0.501961" points="113,42 114,8 106,16" />
<polygon fill="#503f31" fill-opacity="0.501961" points="91,29 112,11 96,18" />
<polygon fill="#734c49" fill-opacity="0.501961" points="114,34 115,25 117,38" />
<polygon fill="#76323e" fill-opacity="0.501961" points="34,83 39,79 40,101" />
<polygon fill="#9e4058" fill-opacity="0.501961" points="55,31 40,31 51,44" />
<polygon fill="#1c0000" fill-opacity="0.501961" points="119,91 119,92 122,93" />
<polygon fill="#742d32" fill-opacity="0.501961" points="132,24 145,21 138,26" />
<polygon fill="#6e1b26" fill-opacity="0.501961" points="19,77 18,96 7,88" />
<polygon fill="#7c7683" fill-opacity="0.501961" points="71,86 73,100 68,110" />
<polygon fill="#1b2824" fill-opacity="0.501961" points="51,30 57,18 64,17" />
<polygon fill="#2e2a24" fill-opacity="0.501961" points="239,54 237,63 221,38" />
<polygon fill="#613b2e" fill-opacity="0.501961" points="182,39 172,29 155,29" />
<polygon fill="#14120e" fill-opacity="0.501961" points="181,85 219,67 224,85" />
<polygon fill="#0a1309" fill-opacity="0.501961" points="17,101 24,117 1,100" />
<polygon fill="#9b6767" fill-opacity="0.501961" points="119,70 134,71 112,77" />
<polygon fill="#020000" fill-opacity="0.501961" points="132,111 144,105 145,109" />
<polygon fill="#a3858a" fill-opacity="0.501961" points="89,74 78,86 97,92" />
<polygon fill="#6a4638" fill-opacity="0.501961" points="145,100 138,91 134,104" />
<polygon fill="#9e4359" fill-opacity="0.501961" points="55,17 43,17 55,21" />
<polygon fill="#2c291d" fill-opacity="0.501961" points="222,104 196,102 183,114" />
<polygon fill="#bc9893" fill-opacity="0.501961" points="161,98 154,106 169,97" />
<polygon fill="#cac9c1" fill-opacity="0.501961" points="207,14 213,31 199,14" />
<polygon fill="#e4c4bf" fill-opacity="0.501961" points="123,32 121,20 112,16" />
<polygon fill="#180d0a" fill-opacity="0.501961" points="106,76 114,68 112,75" />
<polygon fill="#050508" fill-opacity="0.501961" points="69,88 80,49 80,74" />
<polygon fill="#b4ada3" fill-opacity="0.501961" points="178,18 197,42 193,29" />
<polygon fill="#8d5d53" fill-opacity="0.501961" points="100,25 91,30 90,44" />
<polygon fill="#19100a" fill-opacity="0.501961" points="92,94 91,103 97,111" />
<polygon fill="#d2d0d4" fill-opacity="0.501961" points="124,46 129,47 125,48" />
<polygon fill="#9e7572" fill-opacity="0.501961" points="137,45 125,54 142,31" />
<polygon fill="#654c4a" fill-opacity="0.501961" points="127,39 131,39 125,30" />
<polygon fill="#4e282e" fill-opacity="0.501961" points="26,74 24,92 57,78" />
<polygon fill="#090e0f" fill-opacity="0.501961" points="23,-2 43,-11 62,9" />
<polygon fill="#928f83" fill-opacity="0.501961" points="222,58 204,27 209,53" />
<polygon fill="#93988f" fill-opacity="0.501961" points="225,54 231,57 226,48" />
<polygon fill="#ad8880" fill-opacity="0.501961" points="121,23 115,30 130,20" />
<polygon fill="#808379" fill-opacity="0.501961" points="237,30 227,32 236,-2" />
<polygon fill="#afb5af" fill-opacity="0.501961" points="201,6 232,-9 230,22" />
<polygon fill="#600c1b" fill-opacity="0.501961" points="138,15 156,27 141,30" />
<polygon fill="#371416" fill-opacity="0.501961" points="21,71 -5,49 10,78" />
<polygon fill="#a79eae" fill-opacity="0.501961" points="89,79 82,99 82,83" />
<polygon fill="#803a3c" fill-opacity="0.501961" points="171,18 149,10 160,19" />
<polygon fill="#7b1e2c" fill-opacity="0.501961" points="56,58 65,65 60,49" />
<polygon fill="#98665c" fill-opacity="0.501961" points="90,78 87,93 91,90" />
<polygon fill="#893041" fill-opacity="0.501961" points="34,46 46,67 33,58" />
<polygon fill="#2f1d17" fill-opacity="0.501961" points="127,69 136,76 132,78" />
<polygon fill="#eac1c1" fill-opacity="0.501961" points="126,87 111,85 115,80" />
<polygon fill="#401d24" fill-opacity="0.501961" points="44,111 42,85 38,104" />
<polygon fill="#472429" fill-opacity="0.501961" points="43,-6 18,31 41,12" />
<polygon fill="#4d201c" fill-opacity="0.501961" points="145,58 146,55 137,53" />
<polygon fill="#06100f" fill-opacity="0.501961" points="25,109 38,107 34,86" />
<polygon fill="#9e9498" fill-opacity="0.501961" points="87,107 80,114 101,115" />
<polygon fill="#a16863" fill-opacity="0.501961" points="145,58 137,62 135,54" />
<polygon fill="#3b3c32" fill-opacity="0.501961" points="271,119 271,67 239,65" />
<polygon fill="#9c6767" fill-opacity="0.501961" points="146,105 163,105 146,112" />
<polygon fill="#a06c62" fill-opacity="0.501961" points="104,90 122,100 111,89" />
<polygon fill="#250209" fill-opacity="0.501961" points="66,39 61,29 65,12" />
<polygon fill="#dbb4b3" fill-opacity="0.501961" points="112,99 121,110 119,99" />
<polygon fill="#1c0d10" fill-opacity="0.501961" points="132,65 135,66 132,58" />
<polygon fill="#b77e75" fill-opacity="0.501961" points="122,66 111,55 106,57" />
<polygon fill="#9b6a62" fill-opacity="0.501961" points="155,49 141,29 153,39" />
<polygon fill="#20221f" fill-opacity="0.501961" points="179,52 213,80 216,64" />
<polygon fill="#0d1e1c" fill-opacity="0.501961" points="227,110 270,107 239,130" />
<polygon fill="#d0aaa1" fill-opacity="0.501961" points="103,25 128,21 125,7" />
<polygon fill="#566050" fill-opacity="0.501961" points="65,108 60,130 100,125" />
<polygon fill="#7e4e3f" fill-opacity="0.501961" points="166,34 170,48 180,43" />
<polygon fill="#4f2222" fill-opacity="0.501961" points="127,68 125,62 112,72" />
<polygon fill="#08080a" fill-opacity="0.501961" points="151,84 173,90 195,76" />
<polygon fill="#14221e" fill-opacity="0.501961" points="40,18 41,31 52,23" />
<polygon fill="#99645b" fill-opacity="0.501961" points="101,91 105,107 99,106" />
<polygon fill="#271208" fill-opacity="0.501961" points="5,108 -5,104 8,76" />
<polygon fill="#181e1e" fill-opacity="0.501961" points="54,54 41,37 46,57" />
<polygon fill="#b4928a" fill-opacity="0.501961" points="152,111 179,98 157,123" />
<polygon fill="#735d52" fill-opacity="0.501961" points="201,11 182,10 195,15" />
<polygon fill="#0f0000" fill-opacity="0.501961" points="165,13 168,9 180,23" />
<polygon fill="#060200" fill-opacity="0.501961" points="137,109 93,128 118,126" />
<polygon fill="#802e3c" fill-opacity="0.501961" points="35,86 43,96 35,73" />
<polygon fill="#b78289" fill-opacity="0.501961" points="195,10 204,9 191,3" />
<polygon fill="#3a070f" fill-opacity="0.501961" points="175,32 180,22 197,52" />
<polygon fill="#5d5f54" fill-opacity="0.501961" points="248,64 239,21 252,39" />
<polygon fill="#722934" fill-opacity="0.501961" points="20,23 25,2 17,-1" />
<polygon fill="#7e5154" fill-opacity="0.501961" points="119,69 131,73 133,68" />
<polygon fill="#c5ada8" fill-opacity="0.501961" points="96,89 95,107 99,100" />
<polygon fill="#571c20" fill-opacity="0.501961" points="-11,4 3,4 -4,21" />
<polygon fill="#746471" fill-opacity="0.501961" points="81,79 82,95 77,88" />
<polygon fill="#000504" fill-opacity="0.501961" points="15,12 10,20 4,5" />
<polygon fill="#543e33" fill-opacity="0.501961" points="107,11 116,9 119,4" />
<polygon fill="#781723" fill-opacity="0.501961" points="49,48 59,48 57,39" />
<polygon fill="#983952" fill-opacity="0.501961" points="49,20 41,10 62,11" />
<polygon fill="#051412" fill-opacity="0.501961" points="31,58 20,58 20,75" />
<polygon fill="#0a1011" fill-opacity="0.501961" points="96,14 88,30 63,-16" />
<polygon fill="#691925" fill-opacity="0.501961" points="62,10 64,18 67,4" />
<polygon fill="#76514d" fill-opacity="0.501961" points="121,46 116,33 114,37" />
<polygon fill="#ad7d7b" fill-opacity="0.501961" points="128,34 130,42 146,44" />
<polygon fill="#3e0b10" fill-opacity="0.501961" points="73,54 63,65 65,47" />
<polygon fill="#644030" fill-opacity="0.501961" points="187,101 202,99 178,117" />
<polygon fill="#473130" fill-opacity="0.501961" points="94,75 101,71 106,72" />
<polygon fill="#a16e67" fill-opacity="0.501961" points="166,18 156,22 145,14" />
<polygon fill="#010202" fill-opacity="0.501961" points="124,2 150,-16 82,-5" />
</g>
</svg>