<svg xmlns="http://www.w3.org/2000/svg" version="1.1" width="460" height="1024">
<rect x="0" y="0" width="460" height="1024" fill="#82919a" />
<g transform="scale(4.000000) translate(0.5 0.5)">
<polygon fill="#000000" fill-opacity="0.501961" points="5,219 101,225 130,121" />
<polygon fill="#b2ffff" fill-opacity="0.501961" points="130,-16 85,130 -16,13" />
<polygon fill="#b4f4ff" fill-opacity="0.501961" points="-4,99 130,72 3,-16" />
<polygon fill="#000000" fill-opacity="0.501961" points="58,95 76,237 103,183" />
<polygon fill="#000000" fill-opacity="0.501961" points="-15,220 2,111 13,197" />
<polygon fill="#000000" fill-opacity="0.501961" points="40,88 -16,163 -16,117" />
<polygon fill="#be8a6f" fill-opacity="0.501961" points="130,69 2,153 30,219" />
<polygon fill="#000000" fill-opacity="0.501961" points="78,149 32,230 130,164" />
<polygon fill="#82cfff" fill-opacity="0.501961" points="114,-16 130,86 -16,7" />
<polygon fill="#b68050" fill-opacity="0.501961" points="114,74 77,150 124,151" />
<polygon fill="#000000" fill-opacity="0.501961" points="55,94 64,107 19,93" />
<polygon fill="#d8b295" fill-opacity="0.501961" points="64,216 74,271 -2,238" />
<polygon fill="#000000" fill-opacity="0.501961" points="39,212 66,175 121,227" />
<polygon fill="#e3c5ba" fill-opacity="0.501961" points="47,187 4,169 19,115" />
<polygon fill="#000000" fill-opacity="0.501961" points="-16,131 -10,210 20,195" />
<polygon fill="#c4e6ff" fill-opacity="0.501961" points="-16,30 130,79 8,94" />
<polygon fill="#6f5a4b" fill-opacity="0.501961" points="11,271 18,190 54,186" />
<polygon fill="#80642b" fill-opacity="0.501961" points="128,67 128,142 81,101" />
<polygon fill="#000016" fill-opacity="0.501961" points="77,150 60,120 65,102" />
<polygon fill="#dac6cb" fill-opacity="0.501961" points="77,148 89,131 130,144" />
<polygon fill="#000726" fill-opacity="0.501961" points="15,96 -11,131 46,91" />
<polygon fill="#8dc5e5" fill-opacity="0.501961" points="-12,78 32,81 -16,128" />
<polygon fill="#92d2ff" fill-opacity="0.501961" points="117,-16 -16,32 130,77" />
<polygon fill="#ceab9d" fill-opacity="0.501961" points="50,101 26,100 3,153" />
<polygon fill="#aa8c7b" fill-opacity="0.501961" points="107,218 53,244 130,271" />
<polygon fill="#b19f90" fill-opacity="0.501961" points="31,223 2,265 -15,200" />
<polygon fill="#000610" fill-opacity="0.501961" points="102,193 64,217 73,138" />
<polygon fill="#92bcdc" fill-opacity="0.501961" points="15,83 111,113 75,83" />
<polygon fill="#9f8784" fill-opacity="0.501961" points="72,162 56,188 13,146" />
<polygon fill="#000934" fill-opacity="0.501961" points="117,132 93,112 106,115" />
<polygon fill="#aca39c" fill-opacity="0.501961" points="130,245 128,180 99,197" />
<polygon fill="#100000" fill-opacity="0.501961" points="24,239 7,271 23,271" />
<polygon fill="#000000" fill-opacity="0.501961" points="5,190 3,139 -16,192" />
<polygon fill="#c0e6fa" fill-opacity="0.501961" points="105,86 130,35 -16,71" />
<polygon fill="#7dc1f5" fill-opacity="0.501961" points="-12,-16 -11,49 130,2" />
<polygon fill="#6a5662" fill-opacity="0.501961" points="86,94 78,114 101,137" />
<polygon fill="#77c0e8" fill-opacity="0.501961" points="71,132 68,94 83,101" />
<polygon fill="#583d3b" fill-opacity="0.501961" points="120,222 130,244 94,236" />
<polygon fill="#d4c3bf" fill-opacity="0.501961" points="4,157 8,134 51,135" />
<polygon fill="#00000c" fill-opacity="0.501961" points="63,104 71,125 47,95" />
<polygon fill="#00050c" fill-opacity="0.501961" points="129,149 54,219 71,161" />
<polygon fill="#bb831b" fill-opacity="0.501961" points="128,137 112,83 91,91" />
<polygon fill="#a69390" fill-opacity="0.501961" points="53,101 16,156 72,152" />
<polygon fill="#00152a" fill-opacity="0.501961" points="29,91 -1,151 -16,127" />
<polygon fill="#c70027" fill-opacity="0.501961" points="82,210 85,217 75,232" />
<polygon fill="#d1c1b3" fill-opacity="0.501961" points="25,237 25,271 69,222" />
<polygon fill="#c6c1b8" fill-opacity="0.501961" points="112,246 86,270 86,233" />
<polygon fill="#d7bcab" fill-opacity="0.501961" points="42,187 5,147 7,175" />
<polygon fill="#776668" fill-opacity="0.501961" points="83,270 83,232 60,214" />
<polygon fill="#725457" fill-opacity="0.501961" points="41,158 55,142 59,165" />
<polygon fill="#262627" fill-opacity="0.501961" points="42,226 24,222 54,203" />
<polygon fill="#b6aea9" fill-opacity="0.501961" points="98,221 80,230 115,235" />
<polygon fill="#ba9794" fill-opacity="0.501961" points="72,126 97,99 82,148" />
<polygon fill="#322321" fill-opacity="0.501961" points="71,131 50,131 79,139" />
<polygon fill="#c2a9a2" fill-opacity="0.501961" points="51,104 42,169 34,107" />
<polygon fill="#6e4940" fill-opacity="0.501961" points="36,128 37,134 17,129" />
<polygon fill="#00040b" fill-opacity="0.501961" points="-7,147 20,199 -9,193" />
<polygon fill="#25000e" fill-opacity="0.501961" points="100,221 71,213 73,228" />
<polygon fill="#bae2f5" fill-opacity="0.501961" points="-16,51 130,63 85,95" />
<polygon fill="#393534" fill-opacity="0.501961" points="111,170 91,204 130,175" />
<polygon fill="#59413a" fill-opacity="0.501961" points="113,218 110,266 130,246" />
<polygon fill="#0a0f16" fill-opacity="0.501961" points="71,135 107,220 73,207" />
<polygon fill="#95c3da" fill-opacity="0.501961" points="28,83 -1,113 -1,77" />
<polygon fill="#000016" fill-opacity="0.501961" points="87,105 82,99 86,99" />
<polygon fill="#8b7c67" fill-opacity="0.501961" points="45,204 8,176 34,213" />
<polygon fill="#a68e89" fill-opacity="0.501961" points="102,120 130,146 100,149" />
<polygon fill="#a8a3a2" fill-opacity="0.501961" points="75,253 77,233 69,219" />
<polygon fill="#afa194" fill-opacity="0.501961" points="8,202 -16,224 15,251" />
<polygon fill="#81c0e0" fill-opacity="0.501961" points="57,93 85,95 73,118" />
<polygon fill="#9edbfc" fill-opacity="0.501961" points="0,64 130,43 -13,28" />
<polygon fill="#878182" fill-opacity="0.501961" points="58,109 47,137 66,129" />
<polygon fill="#01080d" fill-opacity="0.501961" points="76,226 48,194 95,156" />
<polygon fill="#7b655e" fill-opacity="0.501961" points="86,155 78,148 97,146" />
<polygon fill="#000005" fill-opacity="0.501961" points="78,115 79,111 83,114" />
<polygon fill="#000416" fill-opacity="0.501961" points="15,104 34,91 45,95" />
<polygon fill="#8fc2dc" fill-opacity="0.501961" points="-15,87 -9,105 48,85" />
<polygon fill="#ad9486" fill-opacity="0.501961" points="68,171 29,186 50,189" />
<polygon fill="#cbb9b7" fill-opacity="0.501961" points="81,120 91,100 101,103" />
<polygon fill="#9a746c" fill-opacity="0.501961" points="91,115 69,131 81,140" />
<polygon fill="#a89b98" fill-opacity="0.501961" points="60,117 17,118 9,133" />
<polygon fill="#b2a3a4" fill-opacity="0.501961" points="68,168 57,138 68,138" />
<polygon fill="#000016" fill-opacity="0.501961" points="43,95 57,98 66,110" />
<polygon fill="#5c4e48" fill-opacity="0.501961" points="102,221 100,198 126,243" />
<polygon fill="#91847e" fill-opacity="0.501961" points="63,215 73,231 45,221" />
<polygon fill="#603628" fill-opacity="0.501961" points="49,191 38,196 25,188" />
<polygon fill="#948d93" fill-opacity="0.501961" points="46,98 61,110 32,98" />
<polygon fill="#a29daf" fill-opacity="0.501961" points="113,120 96,100 101,113" />
<polygon fill="#7b7573" fill-opacity="0.501961" points="19,240 6,208 26,218" />
<polygon fill="#33313b" fill-opacity="0.501961" points="107,117 97,110 87,119" />
<polygon fill="#332e33" fill-opacity="0.501961" points="69,126 74,121 72,119" />
<polygon fill="#7f5d54" fill-opacity="0.501961" points="35,144 29,143 23,157" />
<polygon fill="#472a2a" fill-opacity="0.501961" points="106,130 96,131 99,134" />
<polygon fill="#a79266" fill-opacity="0.501961" points="88,93 122,86 117,76" />
<polygon fill="#aa0830" fill-opacity="0.501961" points="78,227 81,212 86,213" />
<polygon fill="#909291" fill-opacity="0.501961" points="110,183 130,244 102,204" />
<polygon fill="#595349" fill-opacity="0.501961" points="14,188 25,218 41,221" />
<polygon fill="#cfbebc" fill-opacity="0.501961" points="90,142 106,141 85,126" />
<polygon fill="#4f4b46" fill-opacity="0.501961" points="79,234 78,257 83,250" />
<polygon fill="#070e15" fill-opacity="0.501961" points="2,206 -16,161 16,184" />
<polygon fill="#cab0ab" fill-opacity="0.501961" points="82,120 73,133 69,128" />
<polygon fill="#d1c5bb" fill-opacity="0.501961" points="37,146 43,127 49,144" />
<polygon fill="#36201d" fill-opacity="0.501961" points="97,233 110,238 98,237" />
<polygon fill="#d4c3b2" fill-opacity="0.501961" points="5,142 15,126 9,162" />
<polygon fill="#000313" fill-opacity="0.501961" points="61,105 69,118 68,130" />
<polygon fill="#00182f" fill-opacity="0.501961" points="11,101 24,107 31,92" />
<polygon fill="#c7afa4" fill-opacity="0.501961" points="15,182 38,161 54,184" />
<polygon fill="#04090f" fill-opacity="0.501961" points="71,164 124,151 45,221" />
<polygon fill="#74747a" fill-opacity="0.501961" points="33,119 14,123 20,116" />
<polygon fill="#b7ada3" fill-opacity="0.501961" points="67,248 31,266 59,216" />
<polygon fill="#897770" fill-opacity="0.501961" points="63,179 70,158 38,146" />
<polygon fill="#000000" fill-opacity="0.501961" points="5,137 -16,160 1,164" />
<polygon fill="#865863" fill-opacity="0.501961" points="48,155 30,160 63,161" />
<polygon fill="#4e4036" fill-opacity="0.501961" points="130,190 106,188 130,140" />
<polygon fill="#08101c" fill-opacity="0.501961" points="88,223 101,221 78,183" />
<polygon fill="#c6aaaa" fill-opacity="0.501961" points="95,121 98,128 106,123" />
<polygon fill="#94918c" fill-opacity="0.501961" points="-16,255 9,227 47,224" />
<polygon fill="#3b0210" fill-opacity="0.501961" points="78,225 79,234 71,222" />
<polygon fill="#01070e" fill-opacity="0.501961" points="54,220 45,208 72,183" />
<polygon fill="#0c1e2c" fill-opacity="0.501961" points="85,99 84,106 89,102" />
<polygon fill="#aed0df" fill-opacity="0.501961" points="51,94 4,77 71,82" />
<polygon fill="#7e665d" fill-opacity="0.501961" points="41,98 29,100 21,110" />
<polygon fill="#b89682" fill-opacity="0.501961" points="9,211 8,202 18,201" />
<polygon fill="#343331" fill-opacity="0.501961" points="38,214 29,228 50,215" />
<polygon fill="#9e7c63" fill-opacity="0.501961" points="21,199 35,195 11,176" />
<polygon fill="#93888c" fill-opacity="0.501961" points="54,219 70,219 76,234" />
<polygon fill="#121314" fill-opacity="0.501961" points="66,130 75,136 76,148" />
<polygon fill="#cbbaad" fill-opacity="0.501961" points="46,226 24,271 24,242" />
<polygon fill="#82c2ed" fill-opacity="0.501961" points="-11,28 90,-1 -8,-3" />
<polygon fill="#070e15" fill-opacity="0.501961" points="71,214 33,216 109,173" />
<polygon fill="#b8a49b" fill-opacity="0.501961" points="76,142 130,130 100,148" />
<polygon fill="#94d5fd" fill-opacity="0.501961" points="11,25 124,26 119,61" />
<polygon fill="#bdafa5" fill-opacity="0.501961" points="29,158 33,148 48,154" />
<polygon fill="#463336" fill-opacity="0.501961" points="27,130 39,132 37,129" />
<polygon fill="#101c2b" fill-opacity="0.501961" points="110,126 119,127 103,118" />
<polygon fill="#4e3d36" fill-opacity="0.501961" points="7,215 25,209 21,204" />
<polygon fill="#956c5e" fill-opacity="0.501961" points="93,112 99,122 85,122" />
<polygon fill="#bfdfef" fill-opacity="0.501961" points="-16,41 96,88 0,75" />
<polygon fill="#7a5a54" fill-opacity="0.501961" points="20,239 29,231 18,249" />
<polygon fill="#92d4ef" fill-opacity="0.501961" points="1,109 14,98 -10,98" />
<polygon fill="#13476b" fill-opacity="0.501961" points="67,111 63,101 58,99" />
<polygon fill="#8abed6" fill-opacity="0.501961" points="82,94 83,109 44,90" />
<polygon fill="#30211b" fill-opacity="0.501961" points="103,217 116,229 130,230" />
<polygon fill="#10283a" fill-opacity="0.501961" points="6,107 19,115 -16,141" />
<polygon fill="#c0aea1" fill-opacity="0.501961" points="4,160 46,166 8,173" />
<polygon fill="#856660" fill-opacity="0.501961" points="106,126 98,134 128,131" />
<polygon fill="#001933" fill-opacity="0.501961" points="58,99 43,98 38,92" />
<polygon fill="#d4c2bd" fill-opacity="0.501961" points="22,150 16,126 9,166" />
<polygon fill="#74554c" fill-opacity="0.501961" points="87,110 83,115 86,106" />
<polygon fill="#9a9289" fill-opacity="0.501961" points="68,169 63,159 42,188" />
<polygon fill="#838279" fill-opacity="0.501961" points="30,215 45,202 29,206" />
<polygon fill="#b1a4a7" fill-opacity="0.501961" points="55,106 58,119 21,117" />
<polygon fill="#1c1a19" fill-opacity="0.501961" points="95,162 72,146 73,159" />
<polygon fill="#998b8b" fill-opacity="0.501961" points="115,237 106,224 97,233" />
<polygon fill="#494e57" fill-opacity="0.501961" points="64,125 53,120 60,120" />
<polygon fill="#b4b1ae" fill-opacity="0.501961" points="130,235 130,206 106,201" />
<polygon fill="#61443f" fill-opacity="0.501961" points="110,250 107,262 129,257" />
<polygon fill="#b6ada4" fill-opacity="0.501961" points="-14,209 12,220 -1,236" />
<polygon fill="#62504b" fill-opacity="0.501961" points="54,132 66,132 59,138" />
<polygon fill="#a1918a" fill-opacity="0.501961" points="33,116 69,131 31,126" />
<polygon fill="#887f86" fill-opacity="0.501961" points="80,109 77,121 72,121" />
<polygon fill="#a7968c" fill-opacity="0.501961" points="18,208 13,199 -16,221" />
<polygon fill="#aa7922" fill-opacity="0.501961" points="128,131 130,89 96,99" />
<polygon fill="#938b82" fill-opacity="0.501961" points="77,243 61,256 84,271" />
<polygon fill="#c5b7b0" fill-opacity="0.501961" points="30,129 28,121 13,128" />
<polygon fill="#010508" fill-opacity="0.501961" points="68,182 51,191 68,220" />
<polygon fill="#937b6f" fill-opacity="0.501961" points="82,153 85,144 112,145" />
<polygon fill="#98d7eb" fill-opacity="0.501961" points="71,118 78,109 67,108" />
<polygon fill="#9d9a91" fill-opacity="0.501961" points="87,251 87,223 81,231" />
<polygon fill="#a1a2a1" fill-opacity="0.501961" points="31,236 29,223 22,231" />
<polygon fill="#020508" fill-opacity="0.501961" points="45,221 32,222 39,224" />
<polygon fill="#02304c" fill-opacity="0.501961" points="86,97 86,103 84,98" />
<polygon fill="#ae9793" fill-opacity="0.501961" points="37,134 38,145 20,130" />
<polygon fill="#96c9dd" fill-opacity="0.501961" points="77,102 89,93 45,85" />
<polygon fill="#908179" fill-opacity="0.501961" points="60,164 62,151 50,135" />
<polygon fill="#3f362e" fill-opacity="0.501961" points="83,157 101,152 88,150" />
<polygon fill="#6e575b" fill-opacity="0.501961" points="66,226 72,234 73,245" />
<polygon fill="#875955" fill-opacity="0.501961" points="75,138 81,130 84,138" />
<polygon fill="#72aed0" fill-opacity="0.501961" points="67,105 56,95 81,104" />
<polygon fill="#3a2e23" fill-opacity="0.501961" points="2,271 23,243 21,267" />
<polygon fill="#514037" fill-opacity="0.501961" points="42,191 54,188 41,201" />
<polygon fill="#89ccf8" fill-opacity="0.501961" points="120,5 130,34 19,27" />
<polygon fill="#9a9897" fill-opacity="0.501961" points="92,236 130,245 111,247" />
<polygon fill="#cda790" fill-opacity="0.501961" points="22,185 9,174 34,184" />
<polygon fill="#c1bbbd" fill-opacity="0.501961" points="74,125 78,117 88,116" />
<polygon fill="#70a9c2" fill-opacity="0.501961" points="56,94 42,90 42,94" />
<polygon fill="#836f61" fill-opacity="0.501961" points="50,220 43,223 58,224" />
<polygon fill="#c4e3f4" fill-opacity="0.501961" points="80,68 130,69 87,89" />
<polygon fill="#7a6758" fill-opacity="0.501961" points="63,171 67,173 59,183" />
<polygon fill="#050d14" fill-opacity="0.501961" points="-5,134 12,195 -16,223" />
<polygon fill="#523d43" fill-opacity="0.501961" points="54,163 57,162 52,157" />
<polygon fill="#b0a8a0" fill-opacity="0.501961" points="81,228 109,232 99,223" />
<polygon fill="#18222d" fill-opacity="0.501961" points="103,115 100,118 93,110" />
<polygon fill="#868996" fill-opacity="0.501961" points="107,111 114,124 97,108" />
<polygon fill="#978475" fill-opacity="0.501961" points="26,164 32,161 23,151" />
<polygon fill="#5c5a55" fill-opacity="0.501961" points="47,217 36,221 39,217" />
<polygon fill="#17212c" fill-opacity="0.501961" points="95,199 94,185 110,178" />
<polygon fill="#ab9490" fill-opacity="0.501961" points="41,185 56,186 45,152" />
<polygon fill="#796f6b" fill-opacity="0.501961" points="20,212 31,226 3,212" />
<polygon fill="#a4a4b1" fill-opacity="0.501961" points="67,222 70,220 71,222" />
<polygon fill="#02090e" fill-opacity="0.501961" points="70,192 81,213 73,226" />
<polygon fill="#a19c9c" fill-opacity="0.501961" points="75,246 76,233 68,222" />
<polygon fill="#756e65" fill-opacity="0.501961" points="113,231 103,228 103,220" />
<polygon fill="#7b7064" fill-opacity="0.501961" points="41,224 31,225 37,230" />
<polygon fill="#90bdd6" fill-opacity="0.501961" points="-11,77 -12,107 31,90" />
<polygon fill="#a6e2fe" fill-opacity="0.501961" points="115,46 45,58 130,67" />
<polygon fill="#c3aeaa" fill-opacity="0.501961" points="88,123 92,131 82,150" />
<polygon fill="#aea3a2" fill-opacity="0.501961" points="97,109 84,106 77,110" />
<polygon fill="#a0918a" fill-opacity="0.501961" points="63,126 48,129 66,133" />
<polygon fill="#aea1a1" fill-opacity="0.501961" points="68,143 61,150 51,132" />
<polygon fill="#a7897d" fill-opacity="0.501961" points="100,119 109,126 104,131" />
<polygon fill="#102434" fill-opacity="0.501961" points="6,136 10,103 -10,132" />
<polygon fill="#98959a" fill-opacity="0.501961" points="62,121 52,102 38,99" />
<polygon fill="#a68864" fill-opacity="0.501961" points="95,93 85,97 98,87" />
<polygon fill="#72695d" fill-opacity="0.501961" points="42,210 34,193 47,200" />
<polygon fill="#000310" fill-opacity="0.501961" points="48,96 64,111 55,96" />
<polygon fill="#503834" fill-opacity="0.501961" points="92,234 101,233 107,238" />
<polygon fill="#583f3c" fill-opacity="0.501961" points="115,235 102,239 111,239" />
<polygon fill="#0e141e" fill-opacity="0.501961" points="108,218 79,189 78,204" />
<polygon fill="#966f59" fill-opacity="0.501961" points="18,191 41,189 17,184" />
<polygon fill="#8e827e" fill-opacity="0.501961" points="47,131 53,146 53,119" />
<polygon fill="#990a2d" fill-opacity="0.501961" points="79,223 85,216 83,212" />
<polygon fill="#232222" fill-opacity="0.501961" points="73,163 77,145 85,159" />
<polygon fill="#8e725f" fill-opacity="0.501961" points="21,244 -2,262 2,271" />
<polygon fill="#5a88a5" fill-opacity="0.501961" points="2,112 -12,120 -4,119" />
<polygon fill="#3f3935" fill-opacity="0.501961" points="24,205 27,219 17,209" />
<polygon fill="#bfb2aa" fill-opacity="0.501961" points="109,244 95,242 99,269" />
<polygon fill="#846251" fill-opacity="0.501961" points="55,147 41,147 49,152" />
<polygon fill="#050a0e" fill-opacity="0.501961" points="84,191 66,200 73,145" />
<polygon fill="#ad958e" fill-opacity="0.501961" points="103,228 108,235 95,233" />
<polygon fill="#44423b" fill-opacity="0.501961" points="83,223 87,220 88,225" />
<polygon fill="#3c3233" fill-opacity="0.501961" points="97,133 94,127 99,132" />
<polygon fill="#b2a8a0" fill-opacity="0.501961" points="45,149 50,148 49,137" />
<polygon fill="#978886" fill-opacity="0.501961" points="40,135 40,120 31,117" />
<polygon fill="#b1a2a8" fill-opacity="0.501961" points="39,133 24,136 27,148" />
<polygon fill="#b0e2f6" fill-opacity="0.501961" points="-16,35 -7,62 67,75" />
<polygon fill="#c2aaa4" fill-opacity="0.501961" points="85,137 76,145 104,144" />
<polygon fill="#af8d83" fill-opacity="0.501961" points="70,126 70,132 80,136" />
<polygon fill="#7a6f65" fill-opacity="0.501961" points="107,215 130,239 123,221" />
<polygon fill="#001019" fill-opacity="0.501961" points="68,132 69,120 61,107" />
<polygon fill="#a79f95" fill-opacity="0.501961" points="18,244 -9,271 -5,201" />
<polygon fill="#71021c" fill-opacity="0.501961" points="79,219 80,230 76,230" />
<polygon fill="#a08e77" fill-opacity="0.501961" points="19,184 30,198 21,197" />
<polygon fill="#695f59" fill-opacity="0.501961" points="83,225 79,236 78,232" />
<polygon fill="#000000" fill-opacity="0.501961" points="113,254 119,246 130,244" />
<polygon fill="#c3afa9" fill-opacity="0.501961" points="35,117 23,116 34,108" />
<polygon fill="#382e25" fill-opacity="0.501961" points="17,187 8,177 15,196" />
<polygon fill="#90d1f5" fill-opacity="0.501961" points="-9,16 14,47 86,28" />
<polygon fill="#00000b" fill-opacity="0.501961" points="28,97 44,96 34,93" />
<polygon fill="#d9ccc8" fill-opacity="0.501961" points="12,147 21,145 11,131" />
<polygon fill="#17181b" fill-opacity="0.501961" points="74,134 77,153 69,138" />
<polygon fill="#031e35" fill-opacity="0.501961" points="8,123 25,94 13,101" />
<polygon fill="#9b9b98" fill-opacity="0.501961" points="61,265 71,250 64,225" />
<polygon fill="#232222" fill-opacity="0.501961" points="100,159 106,153 85,154" />
<polygon fill="#5f5954" fill-opacity="0.501961" points="12,223 22,217 18,222" />
<polygon fill="#7d7375" fill-opacity="0.501961" points="60,111 63,122 53,105" />
<polygon fill="#816860" fill-opacity="0.501961" points="119,143 96,152 110,151" />
<polygon fill="#030c10" fill-opacity="0.501961" points="97,211 101,222 89,220" />
<polygon fill="#a8dcec" fill-opacity="0.501961" points="70,111 74,113 72,119" />
<polygon fill="#c4b9ad" fill-opacity="0.501961" points="27,236 23,271 52,252" />
<polygon fill="#a27d38" fill-opacity="0.501961" points="90,97 115,83 124,97" />
<polygon fill="#d7bdb1" fill-opacity="0.501961" points="37,146 40,147 44,141" />
<polygon fill="#48362d" fill-opacity="0.501961" points="124,196 108,179 130,157" />
<polygon fill="#b4a69c" fill-opacity="0.501961" points="64,228 46,228 62,271" />
<polygon fill="#775b5a" fill-opacity="0.501961" points="30,134 36,131 26,130" />
<polygon fill="#8d7f7d" fill-opacity="0.501961" points="49,161 58,186 57,169" />
<polygon fill="#b4ab9c" fill-opacity="0.501961" points="2,208 10,205 9,201" />
<polygon fill="#cab5ac" fill-opacity="0.501961" points="4,158 17,145 25,167" />
<polygon fill="#5b6163" fill-opacity="0.501961" points="107,211 98,202 100,196" />
<polygon fill="#b8a9a8" fill-opacity="0.501961" points="106,114 92,103 103,107" />
<polygon fill="#18222a" fill-opacity="0.501961" points="104,114 97,114 113,124" />
<polygon fill="#09141d" fill-opacity="0.501961" points="74,217 67,219 69,198" />
<polygon fill="#8a9296" fill-opacity="0.501961" points="101,200 107,204 119,194" />
<polygon fill="#8bbdd3" fill-opacity="0.501961" points="68,96 38,90 52,88" />
<polygon fill="#5c5549" fill-opacity="0.501961" points="17,198 29,202 26,210" />
<polygon fill="#c0a392" fill-opacity="0.501961" points="9,173 11,178 26,166" />
<polygon fill="#3c3a42" fill-opacity="0.501961" points="79,115 77,112 85,113" />
<polygon fill="#8bc2db" fill-opacity="0.501961" points="83,105 77,112 65,104" />
<polygon fill="#cbb8b3" fill-opacity="0.501961" points="85,130 85,140 106,138" />
<polygon fill="#070d14" fill-opacity="0.501961" points="87,199 117,155 82,159" />
<polygon fill="#baa9a7" fill-opacity="0.501961" points="91,98 85,116 97,101" />
<polygon fill="#aa956b" fill-opacity="0.501961" points="97,86 98,90 109,83" />
<polygon fill="#101c28" fill-opacity="0.501961" points="-16,196 1,169 3,195" />
<polygon fill="#b8889c" fill-opacity="0.501961" points="39,160 49,162 33,164" />
<polygon fill="#8b7874" fill-opacity="0.501961" points="112,238 116,246 103,265" />
<polygon fill="#9b837b" fill-opacity="0.501961" points="94,109 72,133 87,126" />
<polygon fill="#a99089" fill-opacity="0.501961" points="28,104 43,100 19,117" />
<polygon fill="#a7c6d7" fill-opacity="0.501961" points="19,92 -12,73 33,83" />
<polygon fill="#a1daf7" fill-opacity="0.501961" points="70,49 -16,51 19,36" />
<polygon fill="#875c54" fill-opacity="0.501961" points="92,116 92,128 98,119" />
<polygon fill="#536266" fill-opacity="0.501961" points="113,184 107,184 105,197" />
<polygon fill="#797476" fill-opacity="0.501961" points="114,125 107,116 114,121" />
<polygon fill="#b1a094" fill-opacity="0.501961" points="65,162 62,152 61,167" />
<polygon fill="#3c322e" fill-opacity="0.501961" points="110,152 119,147 129,154" />
<polygon fill="#aa9b91" fill-opacity="0.501961" points="110,144 92,132 112,138" />
<polygon fill="#938984" fill-opacity="0.501961" points="4,210 18,204 2,219" />
<polygon fill="#8a5654" fill-opacity="0.501961" points="83,133 78,139 83,139" />
<polygon fill="#6e6b6b" fill-opacity="0.501961" points="24,217 26,223 19,233" />
<polygon fill="#313231" fill-opacity="0.501961" points="40,216 45,222 49,212" />
<polygon fill="#897f76" fill-opacity="0.501961" points="11,215 11,228 18,214" />
<polygon fill="#bcdaec" fill-opacity="0.501961" points="88,89 111,79 52,78" />
</g>
</svg>