<svg xmlns="http://www.w3.org/2000/svg" version="1.1" width="1024" height="460">
<rect x="0" y="0" width="1024" height="460" fill="#9b877a" />
<g transform="scale(4.000000) translate(0.5 0.5)">
<polygon fill="#ffffff" fill-opacity="0.501961" points="271,-8 90,-16 251,130" />
<polygon fill="#371308" fill-opacity="0.501961" points="232,130 53,4 -16,107" />
<polygon fill="#ffb08f" fill-opacity="0.501961" points="96,78 122,-10 28,96" />
<polygon fill="#0f0400" fill-opacity="0.501961" points="191,101 179,41 118,130" />
<polygon fill="#ffffff" fill-opacity="0.501961" points="116,48 114,130 131,106" />
<polygon fill="#000000" fill-opacity="0.501961" points="112,108 16,130 112,61" />
<polygon fill="#f9fcee" fill-opacity="0.501961" points="183,-16 236,115 191,124" />
<polygon fill="#fff2d9" fill-opacity="0.501961" points="-16,13 83,-14 -13,56" />
<polygon fill="#000000" fill-opacity="0.501961" points="136,48 105,64 118,15" />
<polygon fill="#130a06" fill-opacity="0.501961" points="11,94 116,130 -1,49" />
<polygon fill="#f8fbe6" fill-opacity="0.501961" points="271,41 57,0 271,-16" />
<polygon fill="#a88170" fill-opacity="0.501961" points="182,36 158,94 104,-16" />
<polygon fill="#a37361" fill-opacity="0.501961" points="213,66 215,34 271,66" />
<polygon fill="#3e3131" fill-opacity="0.501961" points="29,22 87,42 94,8" />
<polygon fill="#000003" fill-opacity="0.501961" points="36,31 9,103 36,81" />
<polygon fill="#0e100f" fill-opacity="0.501961" points="192,95 128,73 138,110" />
<polygon fill="#c0715b" fill-opacity="0.501961" points="29,99 89,82 63,25" />
<polygon fill="#ffc09b" fill-opacity="0.501961" points="7,130 -16,69 2,56" />
<polygon fill="#f3d3bc" fill-opacity="0.501961" points="129,81 91,130 128,120" />
<polygon fill="#3c0f00" fill-opacity="0.501961" points="127,74 153,59 181,61" />
<polygon fill="#000202" fill-opacity="0.501961" points="28,130 120,92 102,71" />
<polygon fill="#e8dcce" fill-opacity="0.501961" points="182,114 271,109 224,63" />
<polygon fill="#bc6133" fill-opacity="0.501961" points="-16,107 55,130 43,97" />
<polygon fill="#c0c9bf" fill-opacity="0.501961" points="125,37 131,-16 175,19" />
<polygon fill="#593834" fill-opacity="0.501961" points="129,45 154,27 157,42" />
<polygon fill="#fefbda" fill-opacity="0.501961" points="116,57 112,80 126,76" />
<polygon fill="#f5b99c" fill-opacity="0.501961" points="113,42 77,62 104,9" />
<polygon fill="#f1ac98" fill-opacity="0.501961" points="168,35 172,54 116,70" />
<polygon fill="#f5f4e7" fill-opacity="0.501961" points="33,18 16,-8 99,-16" />
<polygon fill="#a77e79" fill-opacity="0.501961" points="40,39 33,58 95,38" />
<polygon fill="#be785d" fill-opacity="0.501961" points="-16,7 39,25 9,33" />
<polygon fill="#020000" fill-opacity="0.501961" points="96,78 118,28 127,41" />
<polygon fill="#3b2e22" fill-opacity="0.501961" points="192,99 174,32 171,113" />
<polygon fill="#545f5d" fill-opacity="0.501961" points="97,5 125,32 140,24" />
<polygon fill="#e0e0e2" fill-opacity="0.501961" points="30,31 21,46 -14,35" />
<polygon fill="#eab497" fill-opacity="0.501961" points="41,75 67,89 59,60" />
<polygon fill="#7d1925" fill-opacity="0.501961" points="77,66 79,79 48,52" />
<polygon fill="#040a0b" fill-opacity="0.501961" points="42,93 94,91 106,120" />
<polygon fill="#32393e" fill-opacity="0.501961" points="75,5 13,70 41,16" />
<polygon fill="#c6beb3" fill-opacity="0.501961" points="232,87 191,90 176,43" />
<polygon fill="#fdffff" fill-opacity="0.501961" points="110,8 155,-16 72,-16" />
<polygon fill="#7f492d" fill-opacity="0.501961" points="109,117 112,86 122,88" />
<polygon fill="#f4efdd" fill-opacity="0.501961" points="271,31 122,13 258,-16" />
<polygon fill="#0e0f10" fill-opacity="0.501961" points="16,63 32,74 55,59" />
<polygon fill="#e6e7dc" fill-opacity="0.501961" points="216,26 166,-16 199,106" />
<polygon fill="#a2685f" fill-opacity="0.501961" points="150,91 139,75 178,68" />
<polygon fill="#351c15" fill-opacity="0.501961" points="144,60 127,92 141,122" />
<polygon fill="#e2ece5" fill-opacity="0.501961" points="144,1 122,13 125,22" />
<polygon fill="#dd9573" fill-opacity="0.501961" points="78,87 100,70 86,32" />
<polygon fill="#b3a08e" fill-opacity="0.501961" points="268,115 217,105 182,124" />
<polygon fill="#f1d0ca" fill-opacity="0.501961" points="146,24 139,41 125,34" />
<polygon fill="#535b58" fill-opacity="0.501961" points="117,26 124,2 109,21" />
<polygon fill="#6c6d73" fill-opacity="0.501961" points="29,52 13,67 22,31" />
<polygon fill="#8b7359" fill-opacity="0.501961" points="184,45 186,74 169,27" />
<polygon fill="#7e4a3b" fill-opacity="0.501961" points="52,64 92,35 41,53" />
<polygon fill="#dde1ed" fill-opacity="0.501961" points="225,51 241,40 242,53" />
<polygon fill="#827e6a" fill-opacity="0.501961" points="123,29 137,17 167,18" />
<polygon fill="#342d29" fill-opacity="0.501961" points="61,18 96,14 30,43" />
<polygon fill="#f8e5bb" fill-opacity="0.501961" points="116,82 120,58 127,89" />
<polygon fill="#2e241f" fill-opacity="0.501961" points="152,78 189,82 145,98" />
<polygon fill="#f1ece2" fill-opacity="0.501961" points="192,99 271,113 259,92" />
<polygon fill="#ba7a5b" fill-opacity="0.501961" points="175,46 167,82 159,72" />
<polygon fill="#835350" fill-opacity="0.501961" points="122,64 133,71 144,29" />
<polygon fill="#1d0d06" fill-opacity="0.501961" points="96,50 110,74 106,59" />
<polygon fill="#c57749" fill-opacity="0.501961" points="14,-16 -16,8 20,7" />
<polygon fill="#cdb9b3" fill-opacity="0.501961" points="36,48 41,57 42,40" />
<polygon fill="#f9c8c4" fill-opacity="0.501961" points="143,62 139,43 149,52" />
<polygon fill="#783b1e" fill-opacity="0.501961" points="34,75 26,125 50,87" />
<polygon fill="#cdd7e2" fill-opacity="0.501961" points="85,10 67,-16 98,9" />
<polygon fill="#a98573" fill-opacity="0.501961" points="220,36 210,67 236,40" />
<polygon fill="#945d47" fill-opacity="0.501961" points="118,128 134,102 153,130" />
<polygon fill="#5f4843" fill-opacity="0.501961" points="23,71 2,56 4,93" />
<polygon fill="#eeefe3" fill-opacity="0.501961" points="213,65 261,70 270,87" />
<polygon fill="#e5876e" fill-opacity="0.501961" points="-6,124 10,93 -16,69" />
<polygon fill="#623527" fill-opacity="0.501961" points="179,60 136,63 171,70" />
<polygon fill="#e1a39f" fill-opacity="0.501961" points="164,71 149,79 148,70" />
<polygon fill="#161411" fill-opacity="0.501961" points="123,66 138,99 163,101" />
<polygon fill="#806350" fill-opacity="0.501961" points="141,38 141,30 170,29" />
<polygon fill="#695e5d" fill-opacity="0.501961" points="57,5 92,10 54,27" />
<polygon fill="#322020" fill-opacity="0.501961" points="114,51 146,38 125,57" />
<polygon fill="#b8948c" fill-opacity="0.501961" points="267,71 265,38 223,64" />
<polygon fill="#e4bda0" fill-opacity="0.501961" points="132,81 120,80 126,91" />
<polygon fill="#7b8c83" fill-opacity="0.501961" points="125,1 110,16 139,2" />
<polygon fill="#bb7358" fill-opacity="0.501961" points="87,60 92,73 89,88" />
<polygon fill="#dcd6d3" fill-opacity="0.501961" points="37,9 44,11 28,34" />
<polygon fill="#eee0d3" fill-opacity="0.501961" points="129,130 125,88 103,130" />
<polygon fill="#bf7a59" fill-opacity="0.501961" points="96,47 114,35 105,58" />
<polygon fill="#9b9b97" fill-opacity="0.501961" points="85,128 80,123 83,107" />
<polygon fill="#18120f" fill-opacity="0.501961" points="113,21 118,47 124,28" />
<polygon fill="#c47e56" fill-opacity="0.501961" points="82,85 53,93 87,66" />
<polygon fill="#e9e3d1" fill-opacity="0.501961" points="179,49 176,-16 239,24" />
<polygon fill="#ffe9d7" fill-opacity="0.501961" points="11,16 31,10 3,9" />
<polygon fill="#1e1510" fill-opacity="0.501961" points="26,102 7,103 45,53" />
<polygon fill="#f3c4a2" fill-opacity="0.501961" points="170,60 173,42 156,46" />
<polygon fill="#ffeed2" fill-opacity="0.501961" points="2,58 -2,100 -16,87" />
<polygon fill="#ecf7f4" fill-opacity="0.501961" points="185,37 211,68 213,41" />
<polygon fill="#1c1c19" fill-opacity="0.501961" points="151,110 183,100 180,64" />
<polygon fill="#30392d" fill-opacity="0.501961" points="-5,-16 19,-5 20,5" />
<polygon fill="#fef7e0" fill-opacity="0.501961" points="240,38 242,-16 271,41" />
<polygon fill="#21201d" fill-opacity="0.501961" points="24,70 45,28 32,30" />
<polygon fill="#cecabc" fill-opacity="0.501961" points="168,11 133,31 168,25" />
<polygon fill="#e3b499" fill-opacity="0.501961" points="23,26 35,18 -7,-12" />
<polygon fill="#0c0d0b" fill-opacity="0.501961" points="98,124 85,97 118,42" />
<polygon fill="#0f1110" fill-opacity="0.501961" points="86,130 44,97 77,89" />
<polygon fill="#866359" fill-opacity="0.501961" points="24,33 34,22 13,33" />
<polygon fill="#d5d6cd" fill-opacity="0.501961" points="202,-16 153,-16 124,24" />
<polygon fill="#d0c0af" fill-opacity="0.501961" points="248,81 203,87 196,67" />
<polygon fill="#574d57" fill-opacity="0.501961" points="3,43 15,48 8,52" />
<polygon fill="#796c66" fill-opacity="0.501961" points="99,3 110,11 98,11" />
<polygon fill="#d9d8d2" fill-opacity="0.501961" points="198,42 193,120 221,95" />
<polygon fill="#e4d5cd" fill-opacity="0.501961" points="-16,59 4,28 4,47" />
<polygon fill="#3c241c" fill-opacity="0.501961" points="124,76 158,58 140,77" />
<polygon fill="#e8beaa" fill-opacity="0.501961" points="106,45 110,16 95,10" />
<polygon fill="#a8706b" fill-opacity="0.501961" points="131,69 126,51 147,62" />
<polygon fill="#423733" fill-opacity="0.501961" points="50,9 88,20 36,22" />
<polygon fill="#8e7c7b" fill-opacity="0.501961" points="45,37 48,52 62,31" />
<polygon fill="#e3b4a4" fill-opacity="0.501961" points="92,46 74,53 81,59" />
<polygon fill="#b36f47" fill-opacity="0.501961" points="80,130 14,101 -16,129" />
<polygon fill="#7b645e" fill-opacity="0.501961" points="115,104 113,96 101,114" />
<polygon fill="#613d32" fill-opacity="0.501961" points="55,37 90,20 83,37" />
<polygon fill="#b5a9a8" fill-opacity="0.501961" points="9,63 3,61 0,56" />
<polygon fill="#ebe1d0" fill-opacity="0.501961" points="11,12 53,-1 42,16" />
<polygon fill="#919195" fill-opacity="0.501961" points="95,11 72,-1 62,5" />
<polygon fill="#3b302e" fill-opacity="0.501961" points="8,55 21,61 5,89" />
<polygon fill="#4e4236" fill-opacity="0.501961" points="181,89 190,99 182,130" />
<polygon fill="#c4806c" fill-opacity="0.501961" points="64,42 88,48 72,36" />
<polygon fill="#dca997" fill-opacity="0.501961" points="48,82 41,71 66,70" />
<polygon fill="#7e5b47" fill-opacity="0.501961" points="226,41 215,36 214,40" />
<polygon fill="#615a4c" fill-opacity="0.501961" points="177,33 165,27 164,31" />
<polygon fill="#d1c7c8" fill-opacity="0.501961" points="222,50 227,43 246,46" />
<polygon fill="#f2e3d5" fill-opacity="0.501961" points="20,32 18,44 -8,32" />
<polygon fill="#898e91" fill-opacity="0.501961" points="18,80 5,85 11,80" />
<polygon fill="#f8cca7" fill-opacity="0.501961" points="170,22 167,35 173,46" />
<polygon fill="#e7cfc9" fill-opacity="0.501961" points="128,30 142,26 123,39" />
<polygon fill="#c28269" fill-opacity="0.501961" points="60,61 77,83 44,65" />
<polygon fill="#c9b3b7" fill-opacity="0.501961" points="155,49 158,24 168,49" />
<polygon fill="#837d7e" fill-opacity="0.501961" points="26,59 21,31 16,59" />
<polygon fill="#9d7361" fill-opacity="0.501961" points="212,64 229,52 213,51" />
<polygon fill="#ab7256" fill-opacity="0.501961" points="26,21 24,16 15,15" />
<polygon fill="#0c0f10" fill-opacity="0.501961" points="32,96 29,72 7,87" />
<polygon fill="#7f4e40" fill-opacity="0.501961" points="153,48 147,48 156,53" />
<polygon fill="#deb0a6" fill-opacity="0.501961" points="138,63 154,54 138,45" />
<polygon fill="#866349" fill-opacity="0.501961" points="113,87 112,71 120,93" />
<polygon fill="#3b2826" fill-opacity="0.501961" points="43,43 44,66 49,60" />
<polygon fill="#d18f69" fill-opacity="0.501961" points="85,76 50,91 60,75" />
<polygon fill="#806b5c" fill-opacity="0.501961" points="184,71 190,82 188,91" />
<polygon fill="#5b3e36" fill-opacity="0.501961" points="172,87 160,76 144,88" />
<polygon fill="#e0a286" fill-opacity="0.501961" points="87,73 101,65 92,53" />
<polygon fill="#7e523e" fill-opacity="0.501961" points="176,74 175,51 168,64" />
<polygon fill="#aeb0b6" fill-opacity="0.501961" points="14,39 26,40 10,55" />
<polygon fill="#895245" fill-opacity="0.501961" points="80,48 58,41 46,66" />
<polygon fill="#6e2217" fill-opacity="0.501961" points="5,72 7,86 2,96" />
<polygon fill="#b0ab96" fill-opacity="0.501961" points="158,24 154,14 174,24" />
<polygon fill="#9e9d94" fill-opacity="0.501961" points="118,56 122,60 120,61" />
<polygon fill="#999899" fill-opacity="0.501961" points="120,23 115,14 111,17" />
<polygon fill="#f5eee3" fill-opacity="0.501961" points="130,104 125,99 123,115" />
<polygon fill="#8e5d36" fill-opacity="0.501961" points="124,68 124,85 128,81" />
<polygon fill="#d5b0a2" fill-opacity="0.501961" points="134,27 135,42 144,36" />
<polygon fill="#4a312a" fill-opacity="0.501961" points="122,37 136,42 122,64" />
<polygon fill="#8d4735" fill-opacity="0.501961" points="131,82 131,102 127,95" />
<polygon fill="#643d2b" fill-opacity="0.501961" points="178,42 177,54 172,33" />
<polygon fill="#593a2c" fill-opacity="0.501961" points="143,31 153,29 144,34" />
<polygon fill="#797271" fill-opacity="0.501961" points="83,10 70,16 50,8" />
<polygon fill="#24201c" fill-opacity="0.501961" points="25,50 33,43 39,71" />
<polygon fill="#9d6f6b" fill-opacity="0.501961" points="143,84 149,76 141,77" />
<polygon fill="#3b231b" fill-opacity="0.501961" points="147,68 142,61 134,78" />
<polygon fill="#e1dbc4" fill-opacity="0.501961" points="114,62 122,86 122,64" />
<polygon fill="#844c35" fill-opacity="0.501961" points="62,130 34,89 22,104" />
<polygon fill="#847b81" fill-opacity="0.501961" points="4,42 -5,49 -16,33" />
<polygon fill="#cc9773" fill-opacity="0.501961" points="2,126 10,104 -16,102" />
<polygon fill="#7d3111" fill-opacity="0.501961" points="5,4 -16,7 -16,-7" />
<polygon fill="#705d5a" fill-opacity="0.501961" points="48,27 41,21 66,22" />
<polygon fill="#eae4da" fill-opacity="0.501961" points="252,78 251,128 271,113" />
<polygon fill="#cbafa8" fill-opacity="0.501961" points="271,67 223,57 271,52" />
<polygon fill="#9c4f33" fill-opacity="0.501961" points="116,32 111,43 112,21" />
<polygon fill="#ebf4e7" fill-opacity="0.501961" points="68,-15 106,5 164,-6" />
<polygon fill="#373630" fill-opacity="0.501961" points="120,17 121,34 128,29" />
<polygon fill="#a8765d" fill-opacity="0.501961" points="233,60 217,62 235,66" />
<polygon fill="#2d2120" fill-opacity="0.501961" points="138,43 135,42 137,53" />
<polygon fill="#c78c70" fill-opacity="0.501961" points="106,52 88,34 76,51" />
<polygon fill="#723e27" fill-opacity="0.501961" points="24,103 21,97 9,110" />
<polygon fill="#ac6343" fill-opacity="0.501961" points="101,69 102,60 95,50" />
<polygon fill="#821c21" fill-opacity="0.501961" points="81,72 68,63 77,74" />
<polygon fill="#555b5a" fill-opacity="0.501961" points="7,86 22,66 19,80" />
<polygon fill="#080709" fill-opacity="0.501961" points="70,100 86,89 41,95" />
<polygon fill="#bb7e61" fill-opacity="0.501961" points="-16,11 24,32 -1,27" />
<polygon fill="#b79793" fill-opacity="0.501961" points="40,59 36,51 37,57" />
<polygon fill="#f9f7f1" fill-opacity="0.501961" points="193,114 196,99 198,113" />
<polygon fill="#bbbbb3" fill-opacity="0.501961" points="154,5 129,5 148,-2" />
<polygon fill="#f0efe2" fill-opacity="0.501961" points="204,63 224,66 226,73" />
<polygon fill="#ecb8a1" fill-opacity="0.501961" points="108,43 94,38 104,11" />
<polygon fill="#ccc4bb" fill-opacity="0.501961" points="202,86 192,68 228,71" />
<polygon fill="#2b211e" fill-opacity="0.501961" points="68,25 53,34 53,24" />
<polygon fill="#db9e83" fill-opacity="0.501961" points="90,24 98,14 95,49" />
<polygon fill="#636b61" fill-opacity="0.501961" points="115,9 126,8 118,12" />
<polygon fill="#e4dcbc" fill-opacity="0.501961" points="114,68 115,84 122,86" />
<polygon fill="#c68b73" fill-opacity="0.501961" points="157,60 153,52 166,45" />
<polygon fill="#a58779" fill-opacity="0.501961" points="158,39 158,28 147,28" />
<polygon fill="#e5d8c4" fill-opacity="0.501961" points="257,39 189,33 208,21" />
<polygon fill="#acbcba" fill-opacity="0.501961" points="111,10 115,15 125,-3" />
<polygon fill="#4d5041" fill-opacity="0.501961" points="141,19 137,22 130,22" />
<polygon fill="#c2b39d" fill-opacity="0.501961" points="188,54 180,37 182,58" />
<polygon fill="#0c0d0c" fill-opacity="0.501961" points="48,118 56,97 91,82" />
<polygon fill="#755045" fill-opacity="0.501961" points="134,41 127,48 131,36" />
<polygon fill="#eebc9f" fill-opacity="0.501961" points="-16,62 0,90 3,66" />
<polygon fill="#e7e0dc" fill-opacity="0.501961" points="130,31 144,24 159,26" />
<polygon fill="#473b30" fill-opacity="0.501961" points="189,104 157,123 123,118" />
<polygon fill="#a86a49" fill-opacity="0.501961" points="-6,11 3,15 7,13" />
<polygon fill="#d1d3c7" fill-opacity="0.501961" points="123,15 135,8 125,24" />
<polygon fill="#e9ecee" fill-opacity="0.501961" points="92,8 99,5 88,2" />
<polygon fill="#0d0f13" fill-opacity="0.501961" points="11,75 19,75 3,82" />
<polygon fill="#bc7a5f" fill-opacity="0.501961" points="84,85 77,58 95,72" />
<polygon fill="#a48678" fill-opacity="0.501961" points="239,39 216,36 224,42" />
<polygon fill="#bc7e5e" fill-opacity="0.501961" points="63,83 53,94 57,83" />
<polygon fill="#606773" fill-opacity="0.501961" points="88,1 92,1 88,-5" />
<polygon fill="#c07b65" fill-opacity="0.501961" points="158,71 157,66 150,69" />
<polygon fill="#3e251c" fill-opacity="0.501961" points="69,28 81,32 85,40" />
<polygon fill="#94878a" fill-opacity="0.501961" points="240,55 248,56 253,48" />
<polygon fill="#d7e4e3" fill-opacity="0.501961" points="212,56 190,68 187,45" />
<polygon fill="#736864" fill-opacity="0.501961" points="53,102 55,100 51,98" />
<polygon fill="#161612" fill-opacity="0.501961" points="93,121 49,121 57,92" />
<polygon fill="#f4f5ff" fill-opacity="0.501961" points="244,50 247,46 238,50" />
<polygon fill="#dbb093" fill-opacity="0.501961" points="23,30 19,16 3,17" />
<polygon fill="#b7715c" fill-opacity="0.501961" points="131,108 121,118 131,113" />
<polygon fill="#c7865e" fill-opacity="0.501961" points="19,4 17,10 5,-4" />
<polygon fill="#434750" fill-opacity="0.501961" points="162,30 166,31 166,34" />
<polygon fill="#f0f5ec" fill-opacity="0.501961" points="212,57 212,41 178,34" />
<polygon fill="#dad4c3" fill-opacity="0.501961" points="20,-1 29,12 61,3" />
<polygon fill="#161813" fill-opacity="0.501961" points="123,36 115,26 116,57" />
<polygon fill="#a48185" fill-opacity="0.501961" points="130,51 126,60 135,56" />
<polygon fill="#d19382" fill-opacity="0.501961" points="48,53 48,50 46,56" />
<polygon fill="#987f81" fill-opacity="0.501961" points="245,44 251,44 255,40" />
<polygon fill="#614531" fill-opacity="0.501961" points="123,60 127,67 118,59" />
<polygon fill="#f7e3ce" fill-opacity="0.501961" points="9,7 1,10 23,13" />
<polygon fill="#e6e5ee" fill-opacity="0.501961" points="253,48 247,45 256,42" />
<polygon fill="#b17a6d" fill-opacity="0.501961" points="145,42 161,42 144,49" />
<polygon fill="#dc9879" fill-opacity="0.501961" points="112,26 105,38 113,38" />
<polygon fill="#644b33" fill-opacity="0.501961" points="169,31 175,28 172,34" />
<polygon fill="#e4cfca" fill-opacity="0.501961" points="160,31 162,41 164,31" />
<polygon fill="#6b6664" fill-opacity="0.501961" points="16,58 20,40 22,56" />
<polygon fill="#473931" fill-opacity="0.501961" points="91,13 64,17 87,22" />
<polygon fill="#c2b4a9" fill-opacity="0.501961" points="3,56 -2,56 6,60" />
<polygon fill="#695b4f" fill-opacity="0.501961" points="187,68 179,61 182,73" />
<polygon fill="#945f4b" fill-opacity="0.501961" points="85,46 91,34 80,26" />
<polygon fill="#bfb9a3" fill-opacity="0.501961" points="159,17 179,35 174,22" />
<polygon fill="#68301a" fill-opacity="0.501961" points="37,74 33,83 50,93" />
<polygon fill="#ecd2bc" fill-opacity="0.501961" points="109,22 105,12 102,26" />
<polygon fill="#dcdad0" fill-opacity="0.501961" points="120,58 118,56 118,58" />
<polygon fill="#c7b9aa" fill-opacity="0.501961" points="192,115 249,110 223,103" />
<polygon fill="#eff3e6" fill-opacity="0.501961" points="114,-6 77,-16 115,11" />
<polygon fill="#34312e" fill-opacity="0.501961" points="36,22 46,23 52,11" />
<polygon fill="#a0735c" fill-opacity="0.501961" points="239,67 246,65 253,67" />
<polygon fill="#807377" fill-opacity="0.501961" points="27,23 32,23 25,35" />
<polygon fill="#b1643f" fill-opacity="0.501961" points="40,77 64,91 49,88" />
<polygon fill="#b8816a" fill-opacity="0.501961" points="170,77 163,69 163,81" />
<polygon fill="#927b68" fill-opacity="0.501961" points="168,37 166,32 167,42" />
<polygon fill="#d9a280" fill-opacity="0.501961" points="173,40 169,52 173,53" />
<polygon fill="#bfc1c3" fill-opacity="0.501961" points="23,46 22,36 34,24" />
<polygon fill="#4d2716" fill-opacity="0.501961" points="116,92 112,99 115,85" />
<polygon fill="#ebbf8b" fill-opacity="0.501961" points="234,82 233,77 218,81" />
<polygon fill="#5e573d" fill-opacity="0.501961" points="153,20 155,19 152,18" />
<polygon fill="#141412" fill-opacity="0.501961" points="131,76 150,96 144,109" />
<polygon fill="#e3e1d4" fill-opacity="0.501961" points="167,26 170,24 159,18" />
<polygon fill="#281916" fill-opacity="0.501961" points="50,55 33,68 28,85" />
<polygon fill="#6b5953" fill-opacity="0.501961" points="56,33 41,48 51,45" />
<polygon fill="#e0ccbe" fill-opacity="0.501961" points="107,122 127,83 125,117" />
<polygon fill="#aa989b" fill-opacity="0.501961" points="241,51 271,55 256,44" />
<polygon fill="#231c18" fill-opacity="0.501961" points="123,30 124,59 111,44" />
<polygon fill="#f2d5bf" fill-opacity="0.501961" points="1,90 1,80 -16,71" />
<polygon fill="#f5eedb" fill-opacity="0.501961" points="258,-6 229,-16 235,42" />
<polygon fill="#674841" fill-opacity="0.501961" points="86,28 73,26 56,37" />
<polygon fill="#e4e2d5" fill-opacity="0.501961" points="160,13 156,-16 193,36" />
<polygon fill="#d0b38f" fill-opacity="0.501961" points="121,66 125,77 122,79" />
<polygon fill="#6b6d62" fill-opacity="0.501961" points="119,14 116,9 119,6" />
<polygon fill="#dbdcd4" fill-opacity="0.501961" points="168,-1 155,17 121,16" />
<polygon fill="#5b3222" fill-opacity="0.501961" points="43,93 52,116 37,98" />
<polygon fill="#bc795d" fill-opacity="0.501961" points="163,57 152,57 144,64" />
<polygon fill="#c18967" fill-opacity="0.501961" points="1,67 5,68 8,71" />
<polygon fill="#b09d9a" fill-opacity="0.501961" points="47,35 45,39 46,44" />
<polygon fill="#eee7dc" fill-opacity="0.501961" points="270,108 233,95 202,103" />
<polygon fill="#b3b5a9" fill-opacity="0.501961" points="137,14 151,15 137,18" />
<polygon fill="#a0a29c" fill-opacity="0.501961" points="249,77 239,81 250,80" />
<polygon fill="#af8e8d" fill-opacity="0.501961" points="57,40 53,37 51,51" />
<polygon fill="#f9e3cc" fill-opacity="0.501961" points="4,28 -16,31 9,38" />
<polygon fill="#856f62" fill-opacity="0.501961" points="104,7 94,15 102,4" />
<polygon fill="#ae7c54" fill-opacity="0.501961" points="116,103 118,89 121,92" />
<polygon fill="#f3b9a3" fill-opacity="0.501961" points="148,62 152,56 140,45" />
<polygon fill="#bdb8ab" fill-opacity="0.501961" points="122,130 102,120 105,110" />
<polygon fill="#bdb4a6" fill-opacity="0.501961" points="55,90 48,91 52,89" />
<polygon fill="#995637" fill-opacity="0.501961" points="41,87 34,80 35,99" />
<polygon fill="#c6afaa" fill-opacity="0.501961" points="42,54 38,44 42,44" />
<polygon fill="#69423d" fill-opacity="0.501961" points="136,51 138,54 134,61" />
<polygon fill="#22170e" fill-opacity="0.501961" points="49,98 43,98 56,89" />
<polygon fill="#14120c" fill-opacity="0.501961" points="120,37 107,52 116,52" />
<polygon fill="#c0bdaa" fill-opacity="0.501961" points="157,20 162,26 143,20" />
<polygon fill="#352923" fill-opacity="0.501961" points="187,98 178,57 173,77" />
<polygon fill="#d7b9b5" fill-opacity="0.501961" points="148,49 160,47 148,45" />
<polygon fill="#ffdfb9" fill-opacity="0.501961" points="4,9 -9,3 -13,15" />
<polygon fill="#c8c1c1" fill-opacity="0.501961" points="258,55 244,54 271,46" />
<polygon fill="#595165" fill-opacity="0.501961" points="159,37 154,40 144,37" />
</g>
</svg>