<svg xmlns="http://www.w3.org/2000/svg" version="1.1" width="460" height="1024">
<rect x="0" y="0" width="460" height="1024" fill="#ab9893" />
<g transform="scale(4.000000) translate(0.5 0.5)">
<polygon fill="#fffff9" fill-opacity="0.501961" points="-2,-16 130,3 -8,94" />
<polygon fill="#1c222b" fill-opacity="0.501961" points="-16,149 115,240 88,164" />
<polygon fill="#000c24" fill-opacity="0.501961" points="94,137 95,67 64,65" />
<polygon fill="#2d3941" fill-opacity="0.501961" points="6,271 -16,179 33,65" />
<polygon fill="#fff6ee" fill-opacity="0.501961" points="66,131 115,136 130,235" />
<polygon fill="#ffd4ba" fill-opacity="0.501961" points="13,219 96,215 69,271" />
<polygon fill="#ab776f" fill-opacity="0.501961" points="80,148 24,100 14,227" />
<polygon fill="#153a3a" fill-opacity="0.501961" points="113,252 95,186 94,271" />
<polygon fill="#1d313e" fill-opacity="0.501961" points="40,196 76,154 107,208" />
<polygon fill="#fdffec" fill-opacity="0.501961" points="70,3 -5,-16 -16,74" />
<polygon fill="#ffc0ac" fill-opacity="0.501961" points="48,77 21,107 85,115" />
<polygon fill="#e08185" fill-opacity="0.501961" points="111,92 130,-3 66,36" />
<polygon fill="#681142" fill-opacity="0.501961" points="105,96 130,90 112,48" />
<polygon fill="#1f2436" fill-opacity="0.501961" points="81,131 97,134 95,73" />
<polygon fill="#ffccda" fill-opacity="0.501961" points="128,157 97,77 103,169" />
<polygon fill="#a26166" fill-opacity="0.501961" points="130,171 82,163 106,185" />
<polygon fill="#d3cab4" fill-opacity="0.501961" points="65,-16 103,26 58,80" />
<polygon fill="#ffffff" fill-opacity="0.501961" points="59,139 107,144 72,127" />
<polygon fill="#535c63" fill-opacity="0.501961" points="33,191 6,114 -16,213" />
<polygon fill="#233f4a" fill-opacity="0.501961" points="30,40 34,48 45,36" />
<polygon fill="#b2857d" fill-opacity="0.501961" points="18,125 36,185 86,148" />
<polygon fill="#d6d0b2" fill-opacity="0.501961" points="1,52 33,48 -1,124" />
<polygon fill="#dfbaa8" fill-opacity="0.501961" points="99,271 60,197 5,249" />
<polygon fill="#556974" fill-opacity="0.501961" points="25,68 17,92 62,73" />
<polygon fill="#ffe0d4" fill-opacity="0.501961" points="100,192 126,177 130,270" />
<polygon fill="#2e3c3a" fill-opacity="0.501961" points="-2,214 -16,245 22,228" />
<polygon fill="#3e4b55" fill-opacity="0.501961" points="95,111 83,54 62,81" />
<polygon fill="#ffe5d4" fill-opacity="0.501961" points="130,127 75,155 130,175" />
<polygon fill="#827e75" fill-opacity="0.501961" points="72,27 58,46 90,25" />
<polygon fill="#37444c" fill-opacity="0.501961" points="109,224 51,178 91,165" />
<polygon fill="#f1a7a4" fill-opacity="0.501961" points="112,16 89,30 96,87" />
<polygon fill="#ebebdd" fill-opacity="0.501961" points="44,70 39,-5 68,0" />
<polygon fill="#a98178" fill-opacity="0.501961" points="41,215 66,126 3,218" />
<polygon fill="#dd9c8c" fill-opacity="0.501961" points="85,109 68,85 38,133" />
<polygon fill="#848a8a" fill-opacity="0.501961" points="-8,219 -16,158 14,152" />
<polygon fill="#d05a85" fill-opacity="0.501961" points="97,92 108,34 112,85" />
<polygon fill="#885d5c" fill-opacity="0.501961" points="86,147 50,162 69,142" />
<polygon fill="#576066" fill-opacity="0.501961" points="62,64 43,81 53,59" />
<polygon fill="#524a50" fill-opacity="0.501961" points="30,177 11,125 16,205" />
<polygon fill="#3b242e" fill-opacity="0.501961" points="74,127 62,129 62,125" />
<polygon fill="#73795d" fill-opacity="0.501961" points="97,23 97,15 116,8" />
<polygon fill="#fffdf0" fill-opacity="0.501961" points="98,155 121,164 81,163" />
<polygon fill="#c3a491" fill-opacity="0.501961" points="62,203 8,236 18,271" />
<polygon fill="#f6f0e9" fill-opacity="0.501961" points="83,24 62,37 77,16" />
<polygon fill="#b69889" fill-opacity="0.501961" points="95,239 95,218 42,196" />
<polygon fill="#fffffc" fill-opacity="0.501961" points="65,140 68,128 110,141" />
<polygon fill="#2f2e39" fill-opacity="0.501961" points="88,134 99,132 82,112" />
<polygon fill="#65b0ff" fill-opacity="0.501961" points="110,108 122,87 130,151" />
<polygon fill="#0c4442" fill-opacity="0.501961" points="109,96 104,90 127,83" />
<polygon fill="#e5cec4" fill-opacity="0.501961" points="59,78 56,49 86,29" />
<polygon fill="#545458" fill-opacity="0.501961" points="25,119 11,134 37,123" />
<polygon fill="#e5b3a5" fill-opacity="0.501961" points="35,85 49,149 63,85" />
<polygon fill="#324745" fill-opacity="0.501961" points="-16,271 50,271 -11,241" />
<polygon fill="#647b91" fill-opacity="0.501961" points="69,62 86,55 94,75" />
<polygon fill="#404d4d" fill-opacity="0.501961" points="93,189 99,254 110,219" />
<polygon fill="#cea485" fill-opacity="0.501961" points="88,58 58,51 130,6" />
<polygon fill="#b45963" fill-opacity="0.501961" points="80,160 75,156 92,156" />
<polygon fill="#d0c7b4" fill-opacity="0.501961" points="-7,54 -16,143 36,51" />
<polygon fill="#8ea0a6" fill-opacity="0.501961" points="32,64 13,79 14,109" />
<polygon fill="#e8c7b8" fill-opacity="0.501961" points="9,246 76,242 52,271" />
<polygon fill="#d272ac" fill-opacity="0.501961" points="107,113 98,132 130,138" />
<polygon fill="#f09c93" fill-opacity="0.501961" points="84,139 86,147 115,144" />
<polygon fill="#ff7eab" fill-opacity="0.501961" points="90,65 130,39 99,43" />
<polygon fill="#f2f5e8" fill-opacity="0.501961" points="106,19 88,23 79,36" />
<polygon fill="#ffffff" fill-opacity="0.501961" points="101,134 116,137 88,142" />
<polygon fill="#d9bbad" fill-opacity="0.501961" points="130,194 112,213 114,263" />
<polygon fill="#c5958c" fill-opacity="0.501961" points="34,175 71,149 51,179" />
<polygon fill="#242e3a" fill-opacity="0.501961" points="62,180 73,155 84,168" />
<polygon fill="#d29f9f" fill-opacity="0.501961" points="94,162 98,194 111,164" />
<polygon fill="#bd867a" fill-opacity="0.501961" points="82,131 40,119 82,111" />
<polygon fill="#edab8f" fill-opacity="0.501961" points="-9,110 16,75 -16,78" />
<polygon fill="#8b3756" fill-opacity="0.501961" points="88,77 130,58 127,71" />
<polygon fill="#b34265" fill-opacity="0.501961" points="130,35 94,65 130,56" />
<polygon fill="#383945" fill-opacity="0.501961" points="84,90 83,133 99,131" />
<polygon fill="#647d75" fill-opacity="0.501961" points="95,271 113,246 109,217" />
<polygon fill="#fffef1" fill-opacity="0.501961" points="103,145 117,153 77,152" />
<polygon fill="#e9e8dc" fill-opacity="0.501961" points="17,45 14,16 47,71" />
<polygon fill="#59686d" fill-opacity="0.501961" points="40,37 40,48 31,38" />
<polygon fill="#8e7571" fill-opacity="0.501961" points="32,82 24,149 18,110" />
<polygon fill="#676266" fill-opacity="0.501961" points="75,95 63,81 72,59" />
<polygon fill="#d5cfc3" fill-opacity="0.501961" points="56,31 9,76 58,55" />
<polygon fill="#9b7d75" fill-opacity="0.501961" points="49,117 17,139 33,174" />
<polygon fill="#ecc5b7" fill-opacity="0.501961" points="61,96 26,98 38,84" />
<polygon fill="#576279" fill-opacity="0.501961" points="90,88 93,70 99,101" />
<polygon fill="#4b504f" fill-opacity="0.501961" points="22,236 -2,229 -16,190" />
<polygon fill="#cdb2a5" fill-opacity="0.501961" points="88,211 63,270 95,237" />
<polygon fill="#3d4850" fill-opacity="0.501961" points="104,213 90,166 49,196" />
<polygon fill="#4d585f" fill-opacity="0.501961" points="0,179 22,104 -7,151" />
<polygon fill="#ff9bb9" fill-opacity="0.501961" points="96,88 110,86 96,77" />
<polygon fill="#fffbee" fill-opacity="0.501961" points="105,204 128,149 130,203" />
<polygon fill="#61696c" fill-opacity="0.501961" points="59,59 62,68 49,59" />
<polygon fill="#e5b7c5" fill-opacity="0.501961" points="106,94 95,118 113,122" />
<polygon fill="#f5f1f7" fill-opacity="0.501961" points="5,97 -16,101 0,112" />
<polygon fill="#ba9b8b" fill-opacity="0.501961" points="43,230 26,253 9,234" />
<polygon fill="#879396" fill-opacity="0.501961" points="-16,139 21,94 -16,181" />
<polygon fill="#ae8c7d" fill-opacity="0.501961" points="37,219 5,202 65,199" />
<polygon fill="#38434c" fill-opacity="0.501961" points="45,181 89,167 76,207" />
<polygon fill="#e19393" fill-opacity="0.501961" points="87,152 106,153 79,160" />
<polygon fill="#916d6b" fill-opacity="0.501961" points="60,154 60,139 89,148" />
<polygon fill="#756963" fill-opacity="0.501961" points="94,216 70,215 92,207" />
<polygon fill="#827265" fill-opacity="0.501961" points="72,33 88,27 87,22" />
<polygon fill="#c6b5a3" fill-opacity="0.501961" points="73,-16 58,36 82,1" />
<polygon fill="#88959b" fill-opacity="0.501961" points="48,74 39,61 25,72" />
<polygon fill="#64575e" fill-opacity="0.501961" points="59,125 67,125 62,139" />
<polygon fill="#d8d9d2" fill-opacity="0.501961" points="66,34 126,-1 108,-11" />
<polygon fill="#f9bdba" fill-opacity="0.501961" points="95,165 76,153 84,166" />
<polygon fill="#fafbf5" fill-opacity="0.501961" points="70,45 60,45 81,34" />
<polygon fill="#ddc7b7" fill-opacity="0.501961" points="8,243 11,235 24,251" />
<polygon fill="#d99b96" fill-opacity="0.501961" points="119,141 97,145 130,148" />
<polygon fill="#eae7db" fill-opacity="0.501961" points="79,-16 44,42 12,-12" />
<polygon fill="#907a6d" fill-opacity="0.501961" points="60,39 57,46 71,35" />
<polygon fill="#c4bbc7" fill-opacity="0.501961" points="97,75 107,63 93,67" />
<polygon fill="#d9a890" fill-opacity="0.501961" points="119,15 123,38 51,53" />
<polygon fill="#ffd2bc" fill-opacity="0.501961" points="95,135 82,146 81,140" />
<polygon fill="#fffffb" fill-opacity="0.501961" points="106,155 119,162 81,162" />
<polygon fill="#9a5474" fill-opacity="0.501961" points="110,132 130,149 130,120" />
<polygon fill="#e3b3a4" fill-opacity="0.501961" points="53,148 39,146 45,140" />
<polygon fill="#ab8d7a" fill-opacity="0.501961" points="89,62 75,46 94,47" />
<polygon fill="#c7a89e" fill-opacity="0.501961" points="105,205 128,226 124,271" />
<polygon fill="#b1c18c" fill-opacity="0.501961" points="12,53 18,48 25,63" />
<polygon fill="#85676b" fill-opacity="0.501961" points="52,201 47,181 17,178" />
<polygon fill="#ffffff" fill-opacity="0.501961" points="62,138 70,132 84,145" />
<polygon fill="#dfada0" fill-opacity="0.501961" points="33,110 58,81 80,115" />
<polygon fill="#e6c4af" fill-opacity="0.501961" points="31,230 37,221 15,214" />
<polygon fill="#896967" fill-opacity="0.501961" points="17,159 36,183 19,138" />
<polygon fill="#ac9a80" fill-opacity="0.501961" points="12,70 -6,83 8,78" />
<polygon fill="#888c8c" fill-opacity="0.501961" points="12,166 10,148 1,180" />
<polygon fill="#4d5159" fill-opacity="0.501961" points="46,77 26,81 24,88" />
<polygon fill="#9b9271" fill-opacity="0.501961" points="97,94 95,101 109,96" />
<polygon fill="#41484a" fill-opacity="0.501961" points="100,271 88,271 100,231" />
<polygon fill="#af8182" fill-opacity="0.501961" points="115,178 102,166 110,187" />
<polygon fill="#4b5259" fill-opacity="0.501961" points="24,177 8,206 12,136" />
<polygon fill="#9b7e74" fill-opacity="0.501961" points="38,189 6,205 11,223" />
<polygon fill="#e9c7b6" fill-opacity="0.501961" points="60,215 74,240 34,271" />
<polygon fill="#c1cad2" fill-opacity="0.501961" points="78,53 61,57 60,70" />
<polygon fill="#7f878a" fill-opacity="0.501961" points="68,58 65,77 80,58" />
<polygon fill="#ac7c79" fill-opacity="0.501961" points="26,172 62,137 70,160" />
<polygon fill="#3f4750" fill-opacity="0.501961" points="92,72 90,102 64,80" />
<polygon fill="#444345" fill-opacity="0.501961" points="83,149 75,145 78,151" />
<polygon fill="#4c4049" fill-opacity="0.501961" points="24,120 39,126 34,120" />
<polygon fill="#faf7ec" fill-opacity="0.501961" points="54,45 47,54 64,45" />
<polygon fill="#917d64" fill-opacity="0.501961" points="128,4 105,16 130,-13" />
<polygon fill="#ffe6dd" fill-opacity="0.501961" points="97,147 78,157 73,152" />
<polygon fill="#885e63" fill-opacity="0.501961" points="88,157 76,157 79,160" />
<polygon fill="#e56887" fill-opacity="0.501961" points="117,51 110,41 97,60" />
<polygon fill="#d9ce9f" fill-opacity="0.501961" points="108,105 99,110 98,88" />
<polygon fill="#3b3b47" fill-opacity="0.501961" points="92,135 83,126 96,112" />
<polygon fill="#ffb5cb" fill-opacity="0.501961" points="102,47 93,63 96,47" />
<polygon fill="#cdcfc9" fill-opacity="0.501961" points="47,45 27,49 47,73" />
<polygon fill="#9b9288" fill-opacity="0.501961" points="35,142 45,127 18,123" />
<polygon fill="#e0d4ca" fill-opacity="0.501961" points="55,44 76,28 78,11" />
<polygon fill="#83675e" fill-opacity="0.501961" points="44,133 41,145 32,140" />
<polygon fill="#a68880" fill-opacity="0.501961" points="42,81 67,86 56,75" />
<polygon fill="#9d7770" fill-opacity="0.501961" points="71,158 78,144 51,141" />
<polygon fill="#c99b92" fill-opacity="0.501961" points="42,180 54,170 33,168" />
<polygon fill="#b6a498" fill-opacity="0.501961" points="84,18 70,18 85,13" />
<polygon fill="#dab2b1" fill-opacity="0.501961" points="102,199 95,181 110,182" />
<polygon fill="#bf9288" fill-opacity="0.501961" points="20,114 48,117 62,131" />
<polygon fill="#5b575c" fill-opacity="0.501961" points="25,111 20,102 4,132" />
<polygon fill="#fffffe" fill-opacity="0.501961" points="109,134 123,142 94,136" />
<polygon fill="#b85071" fill-opacity="0.501961" points="105,70 127,92 95,74" />
<polygon fill="#515f67" fill-opacity="0.501961" points="36,69 27,78 43,69" />
<polygon fill="#bebec3" fill-opacity="0.501961" points="17,86 6,88 0,122" />
<polygon fill="#e7e7c0" fill-opacity="0.501961" points="101,22 111,12 116,14" />
<polygon fill="#a18672" fill-opacity="0.501961" points="87,259 94,268 96,233" />
<polygon fill="#bb8e85" fill-opacity="0.501961" points="45,156 72,149 18,141" />
<polygon fill="#d98d93" fill-opacity="0.501961" points="85,148 95,145 78,144" />
<polygon fill="#494b53" fill-opacity="0.501961" points="100,90 130,84 116,95" />
<polygon fill="#434d4f" fill-opacity="0.501961" points="4,208 -5,225 9,244" />
<polygon fill="#9f9fa2" fill-opacity="0.501961" points="48,74 36,78 47,67" />
<polygon fill="#515865" fill-opacity="0.501961" points="82,60 78,71 95,90" />
<polygon fill="#847364" fill-opacity="0.501961" points="73,35 59,45 68,34" />
<polygon fill="#976365" fill-opacity="0.501961" points="27,153 31,161 58,157" />
<polygon fill="#6695dc" fill-opacity="0.501961" points="89,67 85,61 84,68" />
<polygon fill="#c8ac9c" fill-opacity="0.501961" points="95,224 87,271 78,227" />
<polygon fill="#b99788" fill-opacity="0.501961" points="43,220 10,217 58,200" />
<polygon fill="#85605c" fill-opacity="0.501961" points="80,120 73,120 66,115" />
<polygon fill="#ffffff" fill-opacity="0.501961" points="79,132 64,135 68,129" />
<polygon fill="#c2b09e" fill-opacity="0.501961" points="82,10 94,6 102,-6" />
<polygon fill="#696f74" fill-opacity="0.501961" points="8,122 -5,175 -16,151" />
<polygon fill="#30333c" fill-opacity="0.501961" points="89,132 88,111 82,131" />
<polygon fill="#e3b8a0" fill-opacity="0.501961" points="57,58 39,52 68,52" />
<polygon fill="#424d52" fill-opacity="0.501961" points="108,215 57,197 94,184" />
<polygon fill="#dfdbcb" fill-opacity="0.501961" points="25,40 54,28 22,29" />
<polygon fill="#2e3a43" fill-opacity="0.501961" points="79,159 52,179 83,176" />
<polygon fill="#43434c" fill-opacity="0.501961" points="81,165 96,186 90,166" />
<polygon fill="#f1c4ad" fill-opacity="0.501961" points="16,74 -16,92 0,101" />
<polygon fill="#e6979d" fill-opacity="0.501961" points="85,154 76,156 83,160" />
<polygon fill="#fecbc5" fill-opacity="0.501961" points="107,207 114,196 130,219" />
<polygon fill="#d7a696" fill-opacity="0.501961" points="80,122 81,129 65,119" />
<polygon fill="#a68f84" fill-opacity="0.501961" points="92,209 88,218 79,217" />
<polygon fill="#abaeb3" fill-opacity="0.501961" points="73,57 78,65 79,50" />
<polygon fill="#d29f8e" fill-opacity="0.501961" points="81,118 55,82 81,103" />
<polygon fill="#9dcdff" fill-opacity="0.501961" points="112,110 130,112 116,100" />
<polygon fill="#706f72" fill-opacity="0.501961" points="46,73 54,58 56,79" />
<polygon fill="#a5857e" fill-opacity="0.501961" points="10,219 33,183 48,193" />
<polygon fill="#fec8ba" fill-opacity="0.501961" points="130,160 130,149 94,152" />
<polygon fill="#64746f" fill-opacity="0.501961" points="113,271 95,263 112,236" />
<polygon fill="#edabd1" fill-opacity="0.501961" points="97,112 100,124 111,105" />
<polygon fill="#fac0b5" fill-opacity="0.501961" points="89,163 114,167 107,160" />
<polygon fill="#a89f99" fill-opacity="0.501961" points="62,61 54,69 57,81" />
<polygon fill="#5d6d73" fill-opacity="0.501961" points="33,38 39,47 31,47" />
<polygon fill="#98887d" fill-opacity="0.501961" points="101,13 96,14 99,23" />
<polygon fill="#ffb5b4" fill-opacity="0.501961" points="114,35 113,45 130,47" />
<polygon fill="#eee9da" fill-opacity="0.501961" points="-12,38 36,53 16,16" />
<polygon fill="#a05580" fill-opacity="0.501961" points="99,122 97,126 98,132" />
<polygon fill="#ba8c6e" fill-opacity="0.501961" points="103,37 112,40 115,30" />
<polygon fill="#dbd5cb" fill-opacity="0.501961" points="86,1 85,23 99,23" />
<polygon fill="#fefcf0" fill-opacity="0.501961" points="85,9 85,14 93,9" />
<polygon fill="#899094" fill-opacity="0.501961" points="53,63 54,57 40,63" />
<polygon fill="#555758" fill-opacity="0.501961" points="88,205 95,209 73,216" />
<polygon fill="#c59d9c" fill-opacity="0.501961" points="107,166 96,182 92,164" />
<polygon fill="#c3a192" fill-opacity="0.501961" points="69,43 77,54 106,39" />
<polygon fill="#955265" fill-opacity="0.501961" points="106,67 107,60 103,58" />
<polygon fill="#976e80" fill-opacity="0.501961" points="124,80 130,86 102,90" />
<polygon fill="#ebe7d6" fill-opacity="0.501961" points="28,65 17,64 13,76" />
<polygon fill="#6d5d60" fill-opacity="0.501961" points="27,121 17,128 16,144" />
<polygon fill="#cbd1a2" fill-opacity="0.501961" points="24,49 5,68 6,53" />
<polygon fill="#d3b7ae" fill-opacity="0.501961" points="130,196 113,207 114,259" />
<polygon fill="#fffffc" fill-opacity="0.501961" points="110,150 89,151 98,146" />
<polygon fill="#fdfff5" fill-opacity="0.501961" points="90,29 80,32 73,40" />
<polygon fill="#aa857a" fill-opacity="0.501961" points="30,105 30,89 22,105" />
<polygon fill="#ceaea0" fill-opacity="0.501961" points="50,226 30,268 4,267" />
<polygon fill="#cd4c6b" fill-opacity="0.501961" points="104,46 114,46 117,53" />
<polygon fill="#f87f9f" fill-opacity="0.501961" points="95,75 100,87 102,77" />
<polygon fill="#756c62" fill-opacity="0.501961" points="18,238 15,229 6,226" />
<polygon fill="#dcb39f" fill-opacity="0.501961" points="92,29 73,41 79,45" />
<polygon fill="#7070a8" fill-opacity="0.501961" points="130,148 110,111 130,132" />
<polygon fill="#e4e4e2" fill-opacity="0.501961" points="67,63 62,60 62,71" />
<polygon fill="#e0d6cb" fill-opacity="0.501961" points="74,29 58,41 76,12" />
<polygon fill="#ad857c" fill-opacity="0.501961" points="55,120 50,142 65,116" />
<polygon fill="#5e6c72" fill-opacity="0.501961" points="41,73 21,81 27,73" />
<polygon fill="#a58d81" fill-opacity="0.501961" points="70,209 45,200 64,200" />
<polygon fill="#c1afa0" fill-opacity="0.501961" points="58,31 53,43 57,42" />
<polygon fill="#585e62" fill-opacity="0.501961" points="70,63 73,74 83,67" />
<polygon fill="#977c6c" fill-opacity="0.501961" points="118,10 106,11 97,19" />
<polygon fill="#d4b2a3" fill-opacity="0.501961" points="61,208 49,216 91,230" />
<polygon fill="#766765" fill-opacity="0.501961" points="-6,194 15,199 9,214" />
<polygon fill="#49535a" fill-opacity="0.501961" points="18,130 1,160 4,133" />
<polygon fill="#3e4951" fill-opacity="0.501961" points="100,202 89,170 70,209" />
<polygon fill="#8e7f74" fill-opacity="0.501961" points="73,31 71,36 86,29" />
<polygon fill="#c2898a" fill-opacity="0.501961" points="36,174 40,160 49,161" />
<polygon fill="#695160" fill-opacity="0.501961" points="97,126 92,115 96,101" />
<polygon fill="#f7b3d3" fill-opacity="0.501961" points="105,125 109,121 105,134" />
<polygon fill="#e7c3b6" fill-opacity="0.501961" points="58,82 33,88 32,101" />
<polygon fill="#2a3942" fill-opacity="0.501961" points="113,95 116,89 105,92" />
<polygon fill="#ee81a2" fill-opacity="0.501961" points="114,46 94,65 97,54" />
<polygon fill="#595f74" fill-opacity="0.501961" points="95,102 98,91 92,86" />
<polygon fill="#fceeeb" fill-opacity="0.501961" points="99,87 96,85 97,82" />
<polygon fill="#333943" fill-opacity="0.501961" points="79,96 95,121 91,96" />
<polygon fill="#ffe0c4" fill-opacity="0.501961" points="100,141 77,136 87,145" />
<polygon fill="#835f61" fill-opacity="0.501961" points="111,99 130,88 125,102" />
<polygon fill="#e6a487" fill-opacity="0.501961" points="130,6 90,30 113,28" />
<polygon fill="#ddaaa0" fill-opacity="0.501961" points="48,115 74,114 41,95" />
<polygon fill="#aca180" fill-opacity="0.501961" points="15,66 17,60 10,70" />
<polygon fill="#e0dfc9" fill-opacity="0.501961" points="8,72 10,61 21,54" />
<polygon fill="#5e5359" fill-opacity="0.501961" points="51,199 45,188 50,178" />
<polygon fill="#7c6361" fill-opacity="0.501961" points="35,112 27,113 23,109" />
<polygon fill="#afa495" fill-opacity="0.501961" points="8,252 8,242 13,252" />
<polygon fill="#d8c2b0" fill-opacity="0.501961" points="93,2 79,16 72,6" />
<polygon fill="#bcb7b4" fill-opacity="0.501961" points="58,69 62,64 70,69" />
<polygon fill="#7e6561" fill-opacity="0.501961" points="75,127 68,127 75,129" />
<polygon fill="#5b474d" fill-opacity="0.501961" points="55,126 63,129 69,126" />
<polygon fill="#3f4d4e" fill-opacity="0.501961" points="109,219 92,189 100,248" />
<polygon fill="#f5bdaf" fill-opacity="0.501961" points="108,142 117,152 127,134" />
<polygon fill="#b19c8d" fill-opacity="0.501961" points="35,138 41,132 21,130" />
<polygon fill="#beb4a8" fill-opacity="0.501961" points="65,28 65,8 74,-2" />
<polygon fill="#a9a093" fill-opacity="0.501961" points="57,143 54,139 64,135" />
<polygon fill="#645859" fill-opacity="0.501961" points="43,75 53,75 38,81" />
<polygon fill="#d280ac" fill-opacity="0.501961" points="130,120 97,121 130,129" />
<polygon fill="#dbd8c7" fill-opacity="0.501961" points="-9,78 12,73 -11,63" />
<polygon fill="#b9978f" fill-opacity="0.501961" points="65,131 38,131 45,122" />
<polygon fill="#bf988e" fill-opacity="0.501961" points="26,113 39,118 30,121" />
<polygon fill="#a48473" fill-opacity="0.501961" points="-16,84 -8,87 9,76" />
<polygon fill="#98847a" fill-opacity="0.501961" points="69,62 91,59 90,50" />
<polygon fill="#d0d3d7" fill-opacity="0.501961" points="66,56 79,58 73,53" />
<polygon fill="#e0bcc4" fill-opacity="0.501961" points="105,41 96,34 102,42" />
<polygon fill="#a47168" fill-opacity="0.501961" points="78,96 69,93 66,84" />
<polygon fill="#937c6e" fill-opacity="0.501961" points="10,220 20,227 9,208" />
<polygon fill="#a98379" fill-opacity="0.501961" points="46,117 45,139 36,113" />
<polygon fill="#d3d1ca" fill-opacity="0.501961" points="128,-3 109,-13 98,15" />
<polygon fill="#928889" fill-opacity="0.501961" points="20,122 26,124 13,127" />
<polygon fill="#948f86" fill-opacity="0.501961" points="22,50 19,48 14,49" />
<polygon fill="#c5c5c5" fill-opacity="0.501961" points="63,71 56,68 62,79" />
<polygon fill="#556589" fill-opacity="0.501961" points="83,71 90,66 94,72" />
<polygon fill="#903d54" fill-opacity="0.501961" points="130,46 128,87 108,58" />
<polygon fill="#d9d3c8" fill-opacity="0.501961" points="56,41 51,58 18,55" />
<polygon fill="#dfded6" fill-opacity="0.501961" points="36,63 18,47 37,47" />
<polygon fill="#44494c" fill-opacity="0.501961" points="-16,207 -16,219 23,228" />
<polygon fill="#c7b5b9" fill-opacity="0.501961" points="106,61 109,65 108,62" />
<polygon fill="#835e59" fill-opacity="0.501961" points="75,147 77,150 72,154" />
<polygon fill="#86746c" fill-opacity="0.501961" points="92,209 87,211 96,222" />
<polygon fill="#707878" fill-opacity="0.501961" points="42,46 35,36 40,37" />
<polygon fill="#ad5470" fill-opacity="0.501961" points="115,56 101,58 98,65" />
<polygon fill="#b29383" fill-opacity="0.501961" points="12,234 38,234 22,241" />
<polygon fill="#7f6c6b" fill-opacity="0.501961" points="34,132 39,126 31,130" />
<polygon fill="#ebe9d9" fill-opacity="0.501961" points="30,42 1,45 -16,61" />
<polygon fill="#ffffff" fill-opacity="0.501961" points="84,133 66,139 69,131" />
<polygon fill="#84888b" fill-opacity="0.501961" points="2,130 -1,154 -16,145" />
<polygon fill="#b18588" fill-opacity="0.501961" points="121,180 104,165 102,177" />
</g>
</svg>