<svg xmlns="http://www.w3.org/2000/svg" version="1.1" width="1024" height="460">
<rect x="0" y="0" width="1024" height="460" fill="#948f83" />
<g transform="scale(4.000000) translate(0.5 0.5)">
<polygon fill="#000000" fill-opacity="0.501961" points="31,17 35,105 84,100" />
<polygon fill="#ccbcaf" fill-opacity="0.501961" points="11,-16 160,96 171,-16" />
<polygon fill="#e5faf4" fill-opacity="0.501961" points="176,16 203,-16 194,77" />
<polygon fill="#692a22" fill-opacity="0.501961" points="195,60 208,-16 240,45" />
<polygon fill="#cef6f8" fill-opacity="0.501961" points="253,39 271,81 201,69" />
<polygon fill="#342515" fill-opacity="0.501961" points="24,28 45,114 61,15" />
<polygon fill="#452015" fill-opacity="0.501961" points="166,69 171,-16 181,26" />
<polygon fill="#d8fbf9" fill-opacity="0.501961" points="250,19 246,-16 216,18" />
<polygon fill="#5b450f" fill-opacity="0.501961" points="241,75 184,76 271,98" />
<polygon fill="#d4dbc7" fill-opacity="0.501961" points="172,67 200,66 183,-16" />
<polygon fill="#d1bcad" fill-opacity="0.501961" points="137,83 134,52 34,52" />
<polygon fill="#000a15" fill-opacity="0.501961" points="18,53 70,62 63,89" />
<polygon fill="#728594" fill-opacity="0.501961" points="69,123 67,58 219,130" />
<polygon fill="#ffe3c1" fill-opacity="0.501961" points="70,36 48,36 59,60" />
<polygon fill="#afc3c3" fill-opacity="0.501961" points="23,68 16,-4 -16,54" />
<polygon fill="#816141" fill-opacity="0.501961" points="73,94 118,117 -11,119" />
<polygon fill="#643810" fill-opacity="0.501961" points="72,54 99,30 88,54" />
<polygon fill="#ddeaf2" fill-opacity="0.501961" points="100,6 87,-16 84,44" />
<polygon fill="#000000" fill-opacity="0.501961" points="49,57 33,106 51,96" />
<polygon fill="#a49e93" fill-opacity="0.501961" points="48,101 59,107 56,72" />
<polygon fill="#cdcabb" fill-opacity="0.501961" points="49,10 30,27 28,-16" />
<polygon fill="#52522d" fill-opacity="0.501961" points="144,69 135,92 139,48" />
<polygon fill="#e1b1a0" fill-opacity="0.501961" points="32,42 38,43 42,23" />
<polygon fill="#a2aca2" fill-opacity="0.501961" points="271,112 154,78 133,121" />
<polygon fill="#0a0000" fill-opacity="0.501961" points="45,32 63,28 59,37" />
<polygon fill="#6d6f5a" fill-opacity="0.501961" points="143,1 137,57 150,28" />
<polygon fill="#401e11" fill-opacity="0.501961" points="169,74 174,53 163,68" />
<polygon fill="#694d40" fill-opacity="0.501961" points="212,21 202,64 254,22" />
<polygon fill="#00000a" fill-opacity="0.501961" points="67,94 60,75 62,106" />
<polygon fill="#507c86" fill-opacity="0.501961" points="36,87 33,35 12,61" />
<polygon fill="#060000" fill-opacity="0.501961" points="37,33 41,17 18,42" />
<polygon fill="#cbb8ab" fill-opacity="0.501961" points="95,64 135,82 141,-16" />
<polygon fill="#a18b71" fill-opacity="0.501961" points="55,2 84,0 72,82" />
<polygon fill="#221c07" fill-opacity="0.501961" points="216,75 224,85 246,85" />
<polygon fill="#b8cac4" fill-opacity="0.501961" points="242,22 231,78 271,71" />
<polygon fill="#5f3416" fill-opacity="0.501961" points="249,17 261,43 244,27" />
<polygon fill="#ab9158" fill-opacity="0.501961" points="221,80 187,65 164,73" />
<polygon fill="#bbdee3" fill-opacity="0.501961" points="179,64 222,72 184,51" />
<polygon fill="#927e61" fill-opacity="0.501961" points="35,130 34,72 -16,60" />
<polygon fill="#789bb0" fill-opacity="0.501961" points="69,74 150,103 128,130" />
<polygon fill="#c1cec6" fill-opacity="0.501961" points="264,-16 199,-16 245,20" />
<polygon fill="#959d87" fill-opacity="0.501961" points="248,48 213,50 214,61" />
<polygon fill="#b3bebd" fill-opacity="0.501961" points="145,66 146,-15 157,24" />
<polygon fill="#7e6750" fill-opacity="0.501961" points="31,43 27,16 14,40" />
<polygon fill="#9e5b4e" fill-opacity="0.501961" points="209,63 208,9 194,56" />
<polygon fill="#c1c5c4" fill-opacity="0.501961" points="49,22 38,19 42,-16" />
<polygon fill="#543a39" fill-opacity="0.501961" points="178,20 170,13 182,-16" />
<polygon fill="#a08584" fill-opacity="0.501961" points="112,-7 89,56 112,60" />
<polygon fill="#001727" fill-opacity="0.501961" points="65,102 67,68 49,56" />
<polygon fill="#341715" fill-opacity="0.501961" points="-16,63 3,63 2,80" />
<polygon fill="#e8e1b7" fill-opacity="0.501961" points="250,29 254,14 271,28" />
<polygon fill="#77a8c6" fill-opacity="0.501961" points="19,53 34,71 -16,59" />
<polygon fill="#cfcfbe" fill-opacity="0.501961" points="20,19 -7,-13 5,13" />
<polygon fill="#ffb8a0" fill-opacity="0.501961" points="38,27 42,24 43,35" />
<polygon fill="#020a0c" fill-opacity="0.501961" points="25,47 21,49 25,59" />
<polygon fill="#56534d" fill-opacity="0.501961" points="193,130 226,130 155,101" />
<polygon fill="#c3b18d" fill-opacity="0.501961" points="180,58 176,26 189,2" />
<polygon fill="#694653" fill-opacity="0.501961" points="216,22 198,8 222,4" />
<polygon fill="#0f0e1e" fill-opacity="0.501961" points="205,61 196,56 211,57" />
<polygon fill="#513830" fill-opacity="0.501961" points="170,19 164,59 175,57" />
<polygon fill="#2e2524" fill-opacity="0.501961" points="221,50 224,32 231,50" />
<polygon fill="#5a4318" fill-opacity="0.501961" points="251,107 266,106 237,99" />
<polygon fill="#af9249" fill-opacity="0.501961" points="234,79 242,92 260,82" />
<polygon fill="#6c5b38" fill-opacity="0.501961" points="203,91 235,99 217,89" />
<polygon fill="#ffffff" fill-opacity="0.501961" points="77,-16 67,-16 71,9" />
<polygon fill="#0c0702" fill-opacity="0.501961" points="47,106 34,100 49,65" />
<polygon fill="#4a301f" fill-opacity="0.501961" points="248,18 264,-16 270,0" />
<polygon fill="#dbbfa4" fill-opacity="0.501961" points="49,33 51,43 74,46" />
<polygon fill="#6c6b5d" fill-opacity="0.501961" points="143,26 141,-11 149,-2" />
<polygon fill="#cacdce" fill-opacity="0.501961" points="89,56 130,66 92,67" />
<polygon fill="#1d0000" fill-opacity="0.501961" points="47,39 47,34 37,35" />
<polygon fill="#d9be8c" fill-opacity="0.501961" points="115,-1 111,56 124,38" />
<polygon fill="#a59478" fill-opacity="0.501961" points="7,72 38,80 -8,127" />
<polygon fill="#a99376" fill-opacity="0.501961" points="25,111 69,105 86,126" />
<polygon fill="#b5bbb6" fill-opacity="0.501961" points="19,59 -15,39 24,44" />
<polygon fill="#1a150c" fill-opacity="0.501961" points="66,62 51,73 25,57" />
<polygon fill="#cedad3" fill-opacity="0.501961" points="202,22 188,-16 179,14" />
<polygon fill="#9e673d" fill-opacity="0.501961" points="234,45 209,46 244,34" />
<polygon fill="#000000" fill-opacity="0.501961" points="25,37 34,35 42,20" />
<polygon fill="#b3ab9b" fill-opacity="0.501961" points="193,85 240,98 220,84" />
<polygon fill="#95583f" fill-opacity="0.501961" points="70,64 64,43 70,45" />
<polygon fill="#46464c" fill-opacity="0.501961" points="83,103 113,120 106,108" />
<polygon fill="#b0ada6" fill-opacity="0.501961" points="87,40 59,47 88,8" />
<polygon fill="#c3bdb4" fill-opacity="0.501961" points="183,76 200,87 165,76" />
<polygon fill="#2e5560" fill-opacity="0.501961" points="52,81 53,56 61,81" />
<polygon fill="#695c58" fill-opacity="0.501961" points="36,-14 8,-12 10,8" />
<polygon fill="#b9b19d" fill-opacity="0.501961" points="-7,28 15,39 26,3" />
<polygon fill="#d5b982" fill-opacity="0.501961" points="183,72 172,74 176,41" />
<polygon fill="#5a473e" fill-opacity="0.501961" points="-15,8 4,11 0,29" />
<polygon fill="#65624b" fill-opacity="0.501961" points="56,-4 67,35 56,20" />
<polygon fill="#56514a" fill-opacity="0.501961" points="182,76 188,69 195,79" />
<polygon fill="#bba98b" fill-opacity="0.501961" points="38,5 29,-4 27,34" />
<polygon fill="#fca86a" fill-opacity="0.501961" points="45,54 37,56 35,53" />
<polygon fill="#001028" fill-opacity="0.501961" points="235,34 225,31 217,35" />
<polygon fill="#7d7668" fill-opacity="0.501961" points="160,9 157,39 154,21" />
<polygon fill="#cabbb7" fill-opacity="0.501961" points="146,-13 123,0 121,66" />
<polygon fill="#4a1e00" fill-opacity="0.501961" points="83,49 87,43 77,47" />
<polygon fill="#9f8d7c" fill-opacity="0.501961" points="119,53 126,29 119,13" />
<polygon fill="#b48a68" fill-opacity="0.501961" points="230,18 227,32 247,29" />
<polygon fill="#b1bdb6" fill-opacity="0.501961" points="151,83 141,72 155,34" />
<polygon fill="#959ca1" fill-opacity="0.501961" points="118,88 165,130 176,112" />
<polygon fill="#5f5a3a" fill-opacity="0.501961" points="143,83 137,88 137,62" />
<polygon fill="#e48e66" fill-opacity="0.501961" points="41,36 43,24 47,30" />
<polygon fill="#3e2638" fill-opacity="0.501961" points="216,37 210,59 208,37" />
<polygon fill="#382a2f" fill-opacity="0.501961" points="216,0 219,9 224,6" />
<polygon fill="#020404" fill-opacity="0.501961" points="64,93 60,105 72,91" />
<polygon fill="#b57344" fill-opacity="0.501961" points="51,44 47,45 41,35" />
<polygon fill="#0b0300" fill-opacity="0.501961" points="36,22 49,25 41,20" />
<polygon fill="#b0b8af" fill-opacity="0.501961" points="253,-1 240,-16 243,33" />
<polygon fill="#aea8a7" fill-opacity="0.501961" points="144,94 113,64 90,71" />
<polygon fill="#8b795c" fill-opacity="0.501961" points="2,39 6,25 11,38" />
<polygon fill="#a07530" fill-opacity="0.501961" points="107,50 95,53 85,46" />
<polygon fill="#7e8483" fill-opacity="0.501961" points="65,86 83,57 89,103" />
<polygon fill="#161406" fill-opacity="0.501961" points="212,74 219,80 231,79" />
<polygon fill="#767154" fill-opacity="0.501961" points="136,44 144,41 142,60" />
<polygon fill="#000000" fill-opacity="0.501961" points="59,34 51,35 59,28" />
<polygon fill="#b09c6d" fill-opacity="0.501961" points="189,82 216,77 193,65" />
<polygon fill="#c4c0b5" fill-opacity="0.501961" points="166,5 170,-7 169,14" />
<polygon fill="#000000" fill-opacity="0.501961" points="50,44 54,55 47,47" />
<polygon fill="#60574d" fill-opacity="0.501961" points="84,4 76,14 82,-3" />
<polygon fill="#b6ced0" fill-opacity="0.501961" points="188,28 191,68 202,14" />
<polygon fill="#252013" fill-opacity="0.501961" points="59,21 51,19 62,28" />
<polygon fill="#b2b3a5" fill-opacity="0.501961" points="191,104 144,76 204,92" />
<polygon fill="#f0e3b5" fill-opacity="0.501961" points="183,24 177,38 178,17" />
<polygon fill="#d28472" fill-opacity="0.501961" points="54,23 50,29 58,27" />
<polygon fill="#a0948b" fill-opacity="0.501961" points="44,0 48,28 53,12" />
<polygon fill="#69655e" fill-opacity="0.501961" points="156,101 146,102 132,90" />
<polygon fill="#d8c2a8" fill-opacity="0.501961" points="53,40 56,60 66,56" />
<polygon fill="#af9f85" fill-opacity="0.501961" points="47,100 57,102 47,109" />
<polygon fill="#838575" fill-opacity="0.501961" points="236,117 169,98 222,130" />
<polygon fill="#99937b" fill-opacity="0.501961" points="241,35 230,56 242,52" />
<polygon fill="#9ca290" fill-opacity="0.501961" points="234,50 214,50 210,66" />
<polygon fill="#726b60" fill-opacity="0.501961" points="230,85 208,79 217,87" />
<polygon fill="#b6cdcf" fill-opacity="0.501961" points="271,47 234,76 245,33" />
<polygon fill="#615f5b" fill-opacity="0.501961" points="124,93 135,92 109,81" />
<polygon fill="#8f999e" fill-opacity="0.501961" points="106,82 165,130 203,124" />
<polygon fill="#12352b" fill-opacity="0.501961" points="38,49 33,55 32,37" />
<polygon fill="#b18c6e" fill-opacity="0.501961" points="72,36 66,65 83,68" />
<polygon fill="#a7b49f" fill-opacity="0.501961" points="221,21 218,14 230,0" />
<polygon fill="#00060e" fill-opacity="0.501961" points="55,63 65,84 65,61" />
<polygon fill="#b27b4e" fill-opacity="0.501961" points="219,47 222,26 214,33" />
<polygon fill="#b6b09f" fill-opacity="0.501961" points="73,26 75,16 52,15" />
<polygon fill="#ebc865" fill-opacity="0.501961" points="246,81 255,85 252,77" />
<polygon fill="#3f3618" fill-opacity="0.501961" points="242,80 251,88 245,77" />
<polygon fill="#a39d93" fill-opacity="0.501961" points="182,17 189,2 184,34" />
<polygon fill="#302c40" fill-opacity="0.501961" points="216,13 217,27 212,32" />
<polygon fill="#b9d2d0" fill-opacity="0.501961" points="198,69 188,57 221,66" />
<polygon fill="#a56443" fill-opacity="0.501961" points="178,24 171,40 174,52" />
<polygon fill="#0e2439" fill-opacity="0.501961" points="214,48 231,50 223,45" />
<polygon fill="#7493a6" fill-opacity="0.501961" points="72,83 151,112 97,108" />
<polygon fill="#bcbcab" fill-opacity="0.501961" points="37,106 49,109 40,110" />
<polygon fill="#ffd3b8" fill-opacity="0.501961" points="39,40 32,41 36,38" />
<polygon fill="#5b4923" fill-opacity="0.501961" points="238,98 243,103 231,98" />
<polygon fill="#a9674f" fill-opacity="0.501961" points="210,53 198,45 208,2" />
<polygon fill="#a698ab" fill-opacity="0.501961" points="110,47 111,24 89,46" />
<polygon fill="#469194" fill-opacity="0.501961" points="32,40 26,61 26,36" />
<polygon fill="#6a3f35" fill-opacity="0.501961" points="27,33 26,20 20,40" />
<polygon fill="#d4d9d9" fill-opacity="0.501961" points="81,40 96,-5 95,22" />
<polygon fill="#3f2c1c" fill-opacity="0.501961" points="44,58 31,62 41,94" />
<polygon fill="#000000" fill-opacity="0.501961" points="31,28 30,33 44,36" />
<polygon fill="#bcb0a9" fill-opacity="0.501961" points="125,79 139,48 122,9" />
<polygon fill="#d0ad86" fill-opacity="0.501961" points="95,35 105,14 100,-16" />
<polygon fill="#545455" fill-opacity="0.501961" points="167,75 179,74 168,72" />
<polygon fill="#584842" fill-opacity="0.501961" points="71,12 79,11 75,15" />
<polygon fill="#f1fdf0" fill-opacity="0.501961" points="2,38 4,24 1,31" />
<polygon fill="#0a0602" fill-opacity="0.501961" points="49,98 52,74 38,68" />
<polygon fill="#9d9684" fill-opacity="0.501961" points="150,91 163,98 155,47" />
<polygon fill="#222937" fill-opacity="0.501961" points="228,34 216,36 227,26" />
<polygon fill="#a27a50" fill-opacity="0.501961" points="98,25 83,41 101,30" />
<polygon fill="#d5ded1" fill-opacity="0.501961" points="205,4 191,-14 181,4" />
<polygon fill="#93805d" fill-opacity="0.501961" points="106,59 121,62 120,58" />
<polygon fill="#e0f6f4" fill-opacity="0.501961" points="15,-12 -16,-4 -5,9" />
<polygon fill="#66696a" fill-opacity="0.501961" points="27,72 -16,72 0,63" />
<polygon fill="#323437" fill-opacity="0.501961" points="168,34 171,12 175,33" />
<polygon fill="#534b32" fill-opacity="0.501961" points="189,68 186,77 196,68" />
<polygon fill="#807767" fill-opacity="0.501961" points="14,28 17,16 19,32" />
<polygon fill="#dbc692" fill-opacity="0.501961" points="95,54 116,49 121,58" />
<polygon fill="#f5faef" fill-opacity="0.501961" points="84,-16 78,5 77,-16" />
<polygon fill="#bccbc7" fill-opacity="0.501961" points="248,15 216,21 264,-15" />
<polygon fill="#0f1413" fill-opacity="0.501961" points="234,40 229,43 231,38" />
<polygon fill="#b5b9b4" fill-opacity="0.501961" points="36,-5 46,18 34,21" />
<polygon fill="#aca89c" fill-opacity="0.501961" points="167,40 138,93 160,89" />
<polygon fill="#846c55" fill-opacity="0.501961" points="68,103 74,75 88,130" />
<polygon fill="#b79b81" fill-opacity="0.501961" points="87,108 55,130 115,130" />
<polygon fill="#86a4b1" fill-opacity="0.501961" points="10,55 30,68 31,61" />
<polygon fill="#e8aa5f" fill-opacity="0.501961" points="227,37 233,36 230,39" />
<polygon fill="#4f2e20" fill-opacity="0.501961" points="248,31 259,40 271,28" />
<polygon fill="#bbd1d1" fill-opacity="0.501961" points="196,67 190,8 181,63" />
<polygon fill="#736d5a" fill-opacity="0.501961" points="83,34 77,36 81,28" />
<polygon fill="#4f4739" fill-opacity="0.501961" points="8,115 14,118 28,107" />
<polygon fill="#e8f3ee" fill-opacity="0.501961" points="14,10 16,6 16,15" />
<polygon fill="#794d61" fill-opacity="0.501961" points="206,44 195,48 196,57" />
<polygon fill="#565450" fill-opacity="0.501961" points="104,79 115,84 108,85" />
<polygon fill="#e1c4a8" fill-opacity="0.501961" points="60,36 70,45 68,35" />
<polygon fill="#ab9975" fill-opacity="0.501961" points="251,32 271,20 253,24" />
<polygon fill="#8b765c" fill-opacity="0.501961" points="58,92 31,130 64,130" />
<polygon fill="#000317" fill-opacity="0.501961" points="236,25 234,25 233,28" />
<polygon fill="#e8d3b1" fill-opacity="0.501961" points="113,10 119,4 116,28" />
<polygon fill="#a7a795" fill-opacity="0.501961" points="238,121 261,109 192,89" />
<polygon fill="#776c51" fill-opacity="0.501961" points="145,31 141,17 139,45" />
<polygon fill="#8c6845" fill-opacity="0.501961" points="34,24 32,10 35,16" />
<polygon fill="#bab1a9" fill-opacity="0.501961" points="152,69 162,78 182,78" />
<polygon fill="#b1b4ae" fill-opacity="0.501961" points="158,12 145,41 148,-16" />
<polygon fill="#b8c0c8" fill-opacity="0.501961" points="156,98 170,101 175,108" />
<polygon fill="#42341e" fill-opacity="0.501961" points="252,90 269,85 249,85" />
<polygon fill="#020000" fill-opacity="0.501961" points="60,33 51,29 50,34" />
<polygon fill="#18140d" fill-opacity="0.501961" points="45,103 34,105 36,87" />
<polygon fill="#e6ede7" fill-opacity="0.501961" points="252,17 271,9 271,43" />
<polygon fill="#cfcdc2" fill-opacity="0.501961" points="12,21 17,38 8,34" />
<polygon fill="#030300" fill-opacity="0.501961" points="214,76 210,73 218,76" />
<polygon fill="#614839" fill-opacity="0.501961" points="91,105 85,100 79,110" />
<polygon fill="#211b12" fill-opacity="0.501961" points="53,56 26,59 51,64" />
<polygon fill="#7f6e53" fill-opacity="0.501961" points="173,81 160,81 150,74" />
<polygon fill="#a9b7b1" fill-opacity="0.501961" points="223,64 247,77 210,71" />
<polygon fill="#a97550" fill-opacity="0.501961" points="218,31 225,33 221,20" />
<polygon fill="#9b9585" fill-opacity="0.501961" points="37,78 4,69 12,95" />
<polygon fill="#b2ab9b" fill-opacity="0.501961" points="267,106 229,94 271,94" />
<polygon fill="#b8796f" fill-opacity="0.501961" points="214,7 219,6 206,-2" />
<polygon fill="#3e3727" fill-opacity="0.501961" points="222,76 220,85 213,85" />
<polygon fill="#8c745f" fill-opacity="0.501961" points="125,-6 120,-1 120,11" />
<polygon fill="#c3aa6a" fill-opacity="0.501961" points="241,86 249,90 248,84" />
<polygon fill="#bb9b44" fill-opacity="0.501961" points="227,75 234,75 240,82" />
<polygon fill="#7da3bb" fill-opacity="0.501961" points="53,78 55,82 55,76" />
<polygon fill="#625333" fill-opacity="0.501961" points="195,87 215,93 204,93" />
<polygon fill="#9b8767" fill-opacity="0.501961" points="-15,121 32,104 -4,82" />
<polygon fill="#959788" fill-opacity="0.501961" points="103,56 89,57 76,50" />
<polygon fill="#000000" fill-opacity="0.501961" points="226,78 230,80 226,83" />
<polygon fill="#8c554e" fill-opacity="0.501961" points="211,-1 211,18 198,10" />
<polygon fill="#b07753" fill-opacity="0.501961" points="224,25 243,25 241,20" />
<polygon fill="#978594" fill-opacity="0.501961" points="112,-16 113,24 99,32" />
<polygon fill="#16384b" fill-opacity="0.501961" points="60,84 62,72 51,64" />
<polygon fill="#57423a" fill-opacity="0.501961" points="171,35 162,72 173,67" />
<polygon fill="#868f79" fill-opacity="0.501961" points="220,60 202,60 213,64" />
<polygon fill="#d6e6e0" fill-opacity="0.501961" points="32,20 30,11 29,24" />
<polygon fill="#bd9794" fill-opacity="0.501961" points="198,15 203,20 209,15" />
<polygon fill="#d7cdbc" fill-opacity="0.501961" points="69,26 72,33 73,24" />
<polygon fill="#c3d4cf" fill-opacity="0.501961" points="198,-16 197,45 187,19" />
<polygon fill="#93886d" fill-opacity="0.501961" points="58,-14 56,14 70,39" />
<polygon fill="#b9cfcf" fill-opacity="0.501961" points="219,56 246,58 224,70" />
<polygon fill="#a1896f" fill-opacity="0.501961" points="75,97 72,126 67,99" />
<polygon fill="#86949d" fill-opacity="0.501961" points="80,72 78,94 149,100" />
<polygon fill="#1d423d" fill-opacity="0.501961" points="44,53 33,43 53,49" />
<polygon fill="#807869" fill-opacity="0.501961" points="247,87 220,84 239,92" />
<polygon fill="#bcc0c5" fill-opacity="0.501961" points="142,93 151,93 160,101" />
<polygon fill="#fffdb5" fill-opacity="0.501961" points="176,40 176,46 180,48" />
<polygon fill="#564f4e" fill-opacity="0.501961" points="174,-16 168,27 183,-4" />
<polygon fill="#d3bfac" fill-opacity="0.501961" points="56,18 55,-12 47,-6" />
<polygon fill="#866d45" fill-opacity="0.501961" points="115,30 119,26 116,32" />
<polygon fill="#0a0000" fill-opacity="0.501961" points="3,77 -16,84 -16,68" />
<polygon fill="#a9b1b2" fill-opacity="0.501961" points="89,13 79,21 84,34" />
<polygon fill="#6f6c63" fill-opacity="0.501961" points="159,9 166,-16 159,-16" />
<polygon fill="#4c483b" fill-opacity="0.501961" points="171,108 197,130 224,130" />
<polygon fill="#5c7c8f" fill-opacity="0.501961" points="66,93 72,84 69,66" />
<polygon fill="#919081" fill-opacity="0.501961" points="168,102 144,90 183,97" />
<polygon fill="#918876" fill-opacity="0.501961" points="4,34 12,21 8,16" />
<polygon fill="#9fa49b" fill-opacity="0.501961" points="249,16 242,6 240,16" />
<polygon fill="#d6a18e" fill-opacity="0.501961" points="43,25 40,33 38,31" />
<polygon fill="#7c756b" fill-opacity="0.501961" points="104,79 75,72 81,66" />
<polygon fill="#58545e" fill-opacity="0.501961" points="255,42 271,60 271,-16" />
<polygon fill="#cedbdb" fill-opacity="0.501961" points="21,13 23,6 25,11" />
<polygon fill="#c8b3a6" fill-opacity="0.501961" points="140,33 122,-4 121,48" />
<polygon fill="#c3e7e9" fill-opacity="0.501961" points="223,13 236,18 222,18" />
<polygon fill="#704d3d" fill-opacity="0.501961" points="221,27 229,21 211,19" />
<polygon fill="#bacad4" fill-opacity="0.501961" points="86,38 83,34 76,43" />
<polygon fill="#91806c" fill-opacity="0.501961" points="119,52 117,61 121,59" />
<polygon fill="#acafa5" fill-opacity="0.501961" points="153,82 141,85 145,40" />
<polygon fill="#603e29" fill-opacity="0.501961" points="246,23 250,17 251,34" />
<polygon fill="#a89e95" fill-opacity="0.501961" points="74,67 76,54 108,79" />
<polygon fill="#b7b6ac" fill-opacity="0.501961" points="151,86 166,81 148,77" />
<polygon fill="#000000" fill-opacity="0.501961" points="243,79 240,78 241,80" />
<polygon fill="#716a4b" fill-opacity="0.501961" points="141,62 136,75 140,88" />
<polygon fill="#b3aa9e" fill-opacity="0.501961" points="197,87 185,80 207,83" />
<polygon fill="#def2c5" fill-opacity="0.501961" points="255,10 270,23 265,-16" />
<polygon fill="#b7bab3" fill-opacity="0.501961" points="146,35 157,18 150,67" />
<polygon fill="#716650" fill-opacity="0.501961" points="38,107 26,102 26,114" />
<polygon fill="#999f9d" fill-opacity="0.501961" points="199,122 133,94 162,117" />
<polygon fill="#4a748e" fill-opacity="0.501961" points="105,96 110,115 104,109" />
<polygon fill="#d5d6d2" fill-opacity="0.501961" points="86,13 92,29 102,-14" />
<polygon fill="#8d7f79" fill-opacity="0.501961" points="123,81 111,73 108,77" />
<polygon fill="#887e69" fill-opacity="0.501961" points="17,38 4,37 -2,42" />
<polygon fill="#32635a" fill-opacity="0.501961" points="30,57 30,37 34,47" />
<polygon fill="#70664e" fill-opacity="0.501961" points="156,40 158,47 155,46" />
<polygon fill="#907f6c" fill-opacity="0.501961" points="26,84 34,94 35,75" />
<polygon fill="#cd7b47" fill-opacity="0.501961" points="48,52 45,55 54,57" />
<polygon fill="#cfb069" fill-opacity="0.501961" points="189,70 203,71 197,77" />
<polygon fill="#baa665" fill-opacity="0.501961" points="246,79 247,75 248,84" />
<polygon fill="#4b2f36" fill-opacity="0.501961" points="207,51 205,57 213,56" />
<polygon fill="#b77947" fill-opacity="0.501961" points="26,32 24,40 27,40" />
<polygon fill="#625c5c" fill-opacity="0.501961" points="197,73 190,80 195,80" />
<polygon fill="#beb3a6" fill-opacity="0.501961" points="158,36 165,62 155,67" />
<polygon fill="#4a2810" fill-opacity="0.501961" points="255,82 255,90 271,76" />
<polygon fill="#827a64" fill-opacity="0.501961" points="151,72 154,63 155,71" />
<polygon fill="#a9685e" fill-opacity="0.501961" points="196,54 204,57 210,46" />
<polygon fill="#c69b80" fill-opacity="0.501961" points="39,35 40,44 35,35" />
<polygon fill="#2b1d13" fill-opacity="0.501961" points="46,26 49,30 46,39" />
<polygon fill="#ced3ca" fill-opacity="0.501961" points="4,26 2,19 6,15" />
<polygon fill="#c3bdb7" fill-opacity="0.501961" points="127,63 80,55 93,70" />
<polygon fill="#f0e6ca" fill-opacity="0.501961" points="178,16 184,15 184,-2" />
<polygon fill="#9b604d" fill-opacity="0.501961" points="69,66 71,50 64,67" />
<polygon fill="#655d53" fill-opacity="0.501961" points="59,100 60,89 52,100" />
</g>
</svg>