<svg xmlns="http://www.w3.org/2000/svg" version="1.1" width="1024" height="572">
<rect x="0" y="0" width="1024" height="572" fill="#885e42" />
<g transform="scale(4.000000) translate(0.5 0.5)">
<polygon fill="#ffffff" fill-opacity="0.501961" points="163,78 33,155 271,140" />
<polygon fill="#110000" fill-opacity="0.501961" points="-16,-1 21,142 149,-16" />
<polygon fill="#000000" fill-opacity="0.501961" points="224,-16 213,108 131,-12" />
<polygon fill="#e1e9ca" fill-opacity="0.501961" points="218,-16 271,6 249,158" />
<polygon fill="#e47221" fill-opacity="0.501961" points="167,16 66,21 55,158" />
<polygon fill="#fdfeff" fill-opacity="0.501961" points="82,158 271,137 97,102" />
<polygon fill="#000000" fill-opacity="0.501961" points="162,59 118,116 124,50" />
<polygon fill="#f5a34d" fill-opacity="0.501961" points="156,50 190,136 255,125" />
<polygon fill="#240000" fill-opacity="0.501961" points="48,147 -16,5 68,-16" />
<polygon fill="#f24f00" fill-opacity="0.501961" points="-16,130 79,158 95,107" />
<polygon fill="#1f0000" fill-opacity="0.501961" points="222,-13 124,-11 222,83" />
<polygon fill="#628bb6" fill-opacity="0.501961" points="118,18 66,61 63,20" />
<polygon fill="#d7b994" fill-opacity="0.501961" points="224,132 271,158 223,23" />
<polygon fill="#dcefff" fill-opacity="0.501961" points="77,158 185,112 166,77" />
<polygon fill="#c64f00" fill-opacity="0.501961" points="169,33 140,5 38,90" />
<polygon fill="#7f6245" fill-opacity="0.501961" points="216,129 271,39 196,93" />
<polygon fill="#100000" fill-opacity="0.501961" points="-16,31 152,8 90,-16" />
<polygon fill="#000000" fill-opacity="0.501961" points="124,108 127,86 95,87" />
<polygon fill="#ffbf00" fill-opacity="0.501961" points="153,80 159,53 192,75" />
<polygon fill="#2d0500" fill-opacity="0.501961" points="217,44 142,35 211,89" />
<polygon fill="#861d0e" fill-opacity="0.501961" points="-16,135 42,158 68,73" />
<polygon fill="#b41f00" fill-opacity="0.501961" points="102,30 67,62 96,101" />
<polygon fill="#d1ae96" fill-opacity="0.501961" points="111,88 114,37 126,70" />
<polygon fill="#000000" fill-opacity="0.501961" points="154,77 156,48 111,90" />
<polygon fill="#ffb000" fill-opacity="0.501961" points="169,37 133,34 154,17" />
<polygon fill="#ffa20f" fill-opacity="0.501961" points="94,112 53,109 80,158" />
<polygon fill="#bef5ff" fill-opacity="0.501961" points="251,-16 271,47 249,49" />
<polygon fill="#8f98a5" fill-opacity="0.501961" points="116,114 143,83 146,126" />
<polygon fill="#e0d19f" fill-opacity="0.501961" points="235,96 225,55 223,130" />
<polygon fill="#2e1400" fill-opacity="0.501961" points="-16,96 70,66 13,-16" />
<polygon fill="#cd9c86" fill-opacity="0.501961" points="153,44 145,65 134,42" />
<polygon fill="#6b2a04" fill-opacity="0.501961" points="101,29 135,57 135,26" />
<polygon fill="#ff9f23" fill-opacity="0.501961" points="206,111 187,69 157,72" />
<polygon fill="#1f1200" fill-opacity="0.501961" points="206,106 188,65 212,-8" />
<polygon fill="#9c6016" fill-opacity="0.501961" points="236,105 230,58 248,55" />
<polygon fill="#fff0e2" fill-opacity="0.501961" points="235,138 211,158 191,111" />
<polygon fill="#d1461f" fill-opacity="0.501961" points="-16,88 5,158 19,98" />
<polygon fill="#e2f0ff" fill-opacity="0.501961" points="144,158 91,117 114,100" />
<polygon fill="#cd9981" fill-opacity="0.501961" points="77,115 66,73 89,90" />
<polygon fill="#f24000" fill-opacity="0.501961" points="156,45 165,29 166,73" />
<polygon fill="#d3cbd2" fill-opacity="0.501961" points="241,158 265,129 242,69" />
<polygon fill="#ff8400" fill-opacity="0.501961" points="125,36 104,60 101,36" />
<polygon fill="#eaf0fb" fill-opacity="0.501961" points="177,158 166,78 144,88" />
<polygon fill="#492b12" fill-opacity="0.501961" points="50,139 55,76 -16,55" />
<polygon fill="#f4f1e3" fill-opacity="0.501961" points="228,88 214,93 215,87" />
<polygon fill="#000100" fill-opacity="0.501961" points="152,83 123,79 128,53" />
<polygon fill="#fd9e5a" fill-opacity="0.501961" points="199,133 187,151 180,94" />
<polygon fill="#240700" fill-opacity="0.501961" points="214,-16 116,-1 214,42" />
<polygon fill="#765156" fill-opacity="0.501961" points="223,107 210,128 201,96" />
<polygon fill="#ff8000" fill-opacity="0.501961" points="122,17 153,34 139,10" />
<polygon fill="#e74f00" fill-opacity="0.501961" points="49,158 67,129 58,75" />
<polygon fill="#2c2617" fill-opacity="0.501961" points="105,40 104,14 94,49" />
<polygon fill="#351600" fill-opacity="0.501961" points="171,61 158,-12 226,88" />
<polygon fill="#712a00" fill-opacity="0.501961" points="221,-2 223,70 209,43" />
<polygon fill="#120000" fill-opacity="0.501961" points="124,17 159,-16 65,17" />
<polygon fill="#080e10" fill-opacity="0.501961" points="133,96 122,106 96,83" />
<polygon fill="#440000" fill-opacity="0.501961" points="87,84 72,76 80,70" />
<polygon fill="#d4cd96" fill-opacity="0.501961" points="237,33 225,71 223,-13" />
<polygon fill="#ffb018" fill-opacity="0.501961" points="158,51 171,65 155,85" />
<polygon fill="#616d7d" fill-opacity="0.501961" points="118,20 112,34 89,38" />
<polygon fill="#cb6a42" fill-opacity="0.501961" points="241,137 231,128 240,92" />
<polygon fill="#88958e" fill-opacity="0.501961" points="243,107 271,62 243,70" />
<polygon fill="#b38c7e" fill-opacity="0.501961" points="109,88 101,65 118,49" />
<polygon fill="#cd3e00" fill-opacity="0.501961" points="77,50 102,53 96,109" />
<polygon fill="#441318" fill-opacity="0.501961" points="63,86 46,123 15,138" />
<polygon fill="#8a8384" fill-opacity="0.501961" points="68,21 86,32 66,71" />
<polygon fill="#ff5a00" fill-opacity="0.501961" points="60,71 53,90 70,69" />
<polygon fill="#361601" fill-opacity="0.501961" points="158,53 135,52 149,58" />
<polygon fill="#003463" fill-opacity="0.501961" points="151,18 145,15 150,23" />
<polygon fill="#2e1200" fill-opacity="0.501961" points="51,103 -16,-6 68,-16" />
<polygon fill="#ff730a" fill-opacity="0.501961" points="90,49 75,55 100,35" />
<polygon fill="#dfdce3" fill-opacity="0.501961" points="123,123 188,158 179,98" />
<polygon fill="#ff8100" fill-opacity="0.501961" points="119,41 139,29 145,35" />
<polygon fill="#040000" fill-opacity="0.501961" points="157,51 149,66 154,36" />
<polygon fill="#eef6ff" fill-opacity="0.501961" points="113,158 96,101 149,157" />
<polygon fill="#402a29" fill-opacity="0.501961" points="139,38 140,44 156,35" />
<polygon fill="#000000" fill-opacity="0.501961" points="130,30 130,25 123,30" />
<polygon fill="#f1bd96" fill-opacity="0.501961" points="112,88 117,83 104,82" />
<polygon fill="#e37a19" fill-opacity="0.501961" points="186,104 189,87 160,63" />
<polygon fill="#1b0205" fill-opacity="0.501961" points="119,45 135,46 133,40" />
<polygon fill="#7d3433" fill-opacity="0.501961" points="-4,84 35,106 23,139" />
<polygon fill="#948c8d" fill-opacity="0.501961" points="145,117 146,85 136,87" />
<polygon fill="#ffb210" fill-opacity="0.501961" points="101,95 99,101 111,100" />
<polygon fill="#1b0400" fill-opacity="0.501961" points="168,58 187,68 164,42" />
<polygon fill="#ff9e15" fill-opacity="0.501961" points="96,153 68,114 60,150" />
<polygon fill="#adb0bc" fill-opacity="0.501961" points="116,102 117,120 98,101" />
<polygon fill="#a58b53" fill-opacity="0.501961" points="230,27 239,-3 239,54" />
<polygon fill="#c8e3eb" fill-opacity="0.501961" points="245,29 240,17 241,44" />
<polygon fill="#7f5b53" fill-opacity="0.501961" points="199,92 223,129 222,95" />
<polygon fill="#ffffff" fill-opacity="0.501961" points="253,128 246,136 237,130" />
<polygon fill="#e1ac8a" fill-opacity="0.501961" points="135,50 149,51 151,38" />
<polygon fill="#8f7d65" fill-opacity="0.501961" points="251,13 243,41 243,4" />
<polygon fill="#fdbf4d" fill-opacity="0.501961" points="204,102 189,73 182,86" />
<polygon fill="#ee6f02" fill-opacity="0.501961" points="118,50 95,35 116,38" />
<polygon fill="#010102" fill-opacity="0.501961" points="118,102 101,91 100,81" />
<polygon fill="#010000" fill-opacity="0.501961" points="138,73 126,63 121,44" />
<polygon fill="#2f1000" fill-opacity="0.501961" points="76,-16 -15,18 163,8" />
<polygon fill="#462208" fill-opacity="0.501961" points="23,116 64,22 64,65" />
<polygon fill="#2c2318" fill-opacity="0.501961" points="200,93 216,94 189,63" />
<polygon fill="#a3240c" fill-opacity="0.501961" points="-9,140 54,158 52,125" />
<polygon fill="#cfc496" fill-opacity="0.501961" points="235,-16 224,13 235,52" />
<polygon fill="#fa5900" fill-opacity="0.501961" points="132,12 121,19 120,34" />
<polygon fill="#af9862" fill-opacity="0.501961" points="232,54 235,94 221,90" />
<polygon fill="#ddb491" fill-opacity="0.501961" points="110,55 119,47 124,59" />
<polygon fill="#c1c5d1" fill-opacity="0.501961" points="149,129 127,105 137,154" />
<polygon fill="#780c00" fill-opacity="0.501961" points="94,104 98,95 86,85" />
<polygon fill="#706c75" fill-opacity="0.501961" points="99,37 101,20 61,18" />
<polygon fill="#fdcda0" fill-opacity="0.501961" points="192,125 208,113 188,100" />
<polygon fill="#454647" fill-opacity="0.501961" points="118,104 122,113 137,84" />
<polygon fill="#ea8b73" fill-opacity="0.501961" points="137,59 142,57 150,61" />
<polygon fill="#9e460e" fill-opacity="0.501961" points="128,79 144,90 143,84" />
<polygon fill="#de5a00" fill-opacity="0.501961" points="97,96 104,56 90,45" />
<polygon fill="#ba2f00" fill-opacity="0.501961" points="94,103 82,91 86,102" />
<polygon fill="#e7eef6" fill-opacity="0.501961" points="180,98 168,81 153,90" />
<polygon fill="#f4ac53" fill-opacity="0.501961" points="86,103 89,139 80,115" />
<polygon fill="#6e3000" fill-opacity="0.501961" points="213,11 223,43 222,-16" />
<polygon fill="#ffad0c" fill-opacity="0.501961" points="156,23 167,41 146,27" />
<polygon fill="#000004" fill-opacity="0.501961" points="93,45 99,46 103,41" />
<polygon fill="#8c462b" fill-opacity="0.501961" points="112,75 113,63 99,76" />
<polygon fill="#8c5f22" fill-opacity="0.501961" points="238,54 234,72 256,62" />
<polygon fill="#e5f6f7" fill-opacity="0.501961" points="240,35 243,42 240,52" />
<polygon fill="#290e00" fill-opacity="0.501961" points="151,14 214,-16 217,60" />
<polygon fill="#960000" fill-opacity="0.501961" points="155,40 159,36 164,56" />
<polygon fill="#d9c2a2" fill-opacity="0.501961" points="233,106 226,133 224,85" />
<polygon fill="#f48400" fill-opacity="0.501961" points="143,10 141,24 129,31" />
<polygon fill="#e2b997" fill-opacity="0.501961" points="83,101 81,87 73,78" />
<polygon fill="#391103" fill-opacity="0.501961" points="119,28 120,36 113,40" />
<polygon fill="#470000" fill-opacity="0.501961" points="74,72 72,66 75,60" />
<polygon fill="#e96700" fill-opacity="0.501961" points="53,150 70,110 56,101" />
<polygon fill="#ffffff" fill-opacity="0.501961" points="210,91 219,90 219,87" />
<polygon fill="#221e1b" fill-opacity="0.501961" points="134,80 153,76 149,85" />
<polygon fill="#170800" fill-opacity="0.501961" points="104,36 106,1 93,-16" />
<polygon fill="#723007" fill-opacity="0.501961" points="28,65 16,78 34,82" />
<polygon fill="#0a0b09" fill-opacity="0.501961" points="112,94 136,57 127,96" />
<polygon fill="#cdc3c0" fill-opacity="0.501961" points="156,117 163,89 164,129" />
<polygon fill="#d6f4ff" fill-opacity="0.501961" points="271,29 254,-16 255,47" />
<polygon fill="#4b2c1c" fill-opacity="0.501961" points="32,124 25,89 62,93" />
<polygon fill="#c58257" fill-opacity="0.501961" points="62,96 74,75 85,112" />
<polygon fill="#b04a19" fill-opacity="0.501961" points="127,56 123,34 132,51" />
<polygon fill="#df5d18" fill-opacity="0.501961" points="8,129 1,101 -10,158" />
<polygon fill="#8b5a1e" fill-opacity="0.501961" points="238,89 238,50 232,72" />
<polygon fill="#bbdae1" fill-opacity="0.501961" points="248,-16 241,14 240,-16" />
<polygon fill="#361600" fill-opacity="0.501961" points="164,48 205,86 185,-13" />
<polygon fill="#968f8b" fill-opacity="0.501961" points="81,45 68,35 102,33" />
<polygon fill="#ffa422" fill-opacity="0.501961" points="152,84 160,60 179,69" />
<polygon fill="#6b370d" fill-opacity="0.501961" points="214,78 219,50 224,91" />
<polygon fill="#f9e2cd" fill-opacity="0.501961" points="198,114 233,149 200,158" />
<polygon fill="#868d94" fill-opacity="0.501961" points="128,114 138,93 122,109" />
<polygon fill="#967651" fill-opacity="0.501961" points="248,14 252,-16 238,-16" />
<polygon fill="#810000" fill-opacity="0.501961" points="64,96 61,78 56,93" />
<polygon fill="#fa6c05" fill-opacity="0.501961" points="166,34 160,47 167,39" />
<polygon fill="#d1c6d2" fill-opacity="0.501961" points="104,146 89,128 98,101" />
<polygon fill="#c5a37a" fill-opacity="0.501961" points="244,46 248,56 263,51" />
<polygon fill="#a17a63" fill-opacity="0.501961" points="123,77 115,69 124,57" />
<polygon fill="#f25d00" fill-opacity="0.501961" points="56,83 56,74 72,70" />
<polygon fill="#e3eefb" fill-opacity="0.501961" points="157,83 147,90 158,126" />
<polygon fill="#ef7c00" fill-opacity="0.501961" points="104,37 119,39 100,64" />
<polygon fill="#381700" fill-opacity="0.501961" points="71,61 -16,76 -4,40" />
<polygon fill="#d64e00" fill-opacity="0.501961" points="66,123 52,115 63,91" />
<polygon fill="#ddaf8f" fill-opacity="0.501961" points="145,47 137,51 136,39" />
<polygon fill="#db9d80" fill-opacity="0.501961" points="230,122 241,130 240,145" />
<polygon fill="#dc7307" fill-opacity="0.501961" points="94,109 90,121 86,96" />
<polygon fill="#632400" fill-opacity="0.501961" points="62,-9 75,4 57,6" />
<polygon fill="#923f1f" fill-opacity="0.501961" points="80,113 82,109 74,101" />
<polygon fill="#4f647e" fill-opacity="0.501961" points="70,69 65,53 65,69" />
<polygon fill="#210c00" fill-opacity="0.501961" points="46,29 1,-16 10,53" />
<polygon fill="#e0905b" fill-opacity="0.501961" points="184,118 195,111 180,104" />
<polygon fill="#dd2f00" fill-opacity="0.501961" points="116,23 114,33 126,15" />
<polygon fill="#9b3007" fill-opacity="0.501961" points="66,95 70,109 76,110" />
<polygon fill="#951500" fill-opacity="0.501961" points="82,54 88,50 93,76" />
<polygon fill="#6d7787" fill-opacity="0.501961" points="112,31 118,17 106,18" />
<polygon fill="#ffc93b" fill-opacity="0.501961" points="184,78 181,67 193,79" />
<polygon fill="#dcc3b9" fill-opacity="0.501961" points="119,82 108,76 114,77" />
<polygon fill="#070100" fill-opacity="0.501961" points="132,8 119,18 89,13" />
<polygon fill="#a40000" fill-opacity="0.501961" points="159,37 165,58 159,53" />
<polygon fill="#dce6f5" fill-opacity="0.501961" points="115,119 118,108 130,126" />
<polygon fill="#e98221" fill-opacity="0.501961" points="96,108 80,137 59,117" />
<polygon fill="#9a9197" fill-opacity="0.501961" points="137,141 133,130 133,145" />
<polygon fill="#0e1211" fill-opacity="0.501961" points="120,108 113,96 129,67" />
<polygon fill="#cccbd2" fill-opacity="0.501961" points="152,117 143,148 135,98" />
<polygon fill="#9c7e69" fill-opacity="0.501961" points="199,109 213,97 198,97" />
<polygon fill="#dfe2ed" fill-opacity="0.501961" points="138,141 128,108 154,149" />
<polygon fill="#f0e6d0" fill-opacity="0.501961" points="147,17 149,16 147,14" />
<polygon fill="#120100" fill-opacity="0.501961" points="139,53 124,56 130,60" />
<polygon fill="#280000" fill-opacity="0.501961" points="154,35 147,35 157,44" />
<polygon fill="#b52b1a" fill-opacity="0.501961" points="24,127 18,114 -7,148" />
<polygon fill="#f88100" fill-opacity="0.501961" points="133,10 142,24 144,13" />
<polygon fill="#b4643e" fill-opacity="0.501961" points="-16,92 19,98 -10,112" />
<polygon fill="#aa6f4b" fill-opacity="0.501961" points="106,57 100,77 108,89" />
<polygon fill="#290d00" fill-opacity="0.501961" points="220,-15 184,34 99,-16" />
<polygon fill="#161914" fill-opacity="0.501961" points="28,98 21,83 36,81" />
<polygon fill="#3e2202" fill-opacity="0.501961" points="58,95 40,63 50,116" />
<polygon fill="#fd9007" fill-opacity="0.501961" points="156,26 150,15 165,30" />
<polygon fill="#f96908" fill-opacity="0.501961" points="101,37 87,43 91,45" />
<polygon fill="#f6f5f6" fill-opacity="0.501961" points="176,118 177,97 183,124" />
<polygon fill="#684530" fill-opacity="0.501961" points="149,65 152,51 140,65" />
<polygon fill="#4d4f54" fill-opacity="0.501961" points="128,95 131,106 135,89" />
<polygon fill="#d1c0b9" fill-opacity="0.501961" points="180,129 171,117 173,92" />
<polygon fill="#2d2418" fill-opacity="0.501961" points="198,78 214,91 210,61" />
<polygon fill="#c5ba8c" fill-opacity="0.501961" points="224,71 224,30 237,56" />
<polygon fill="#000000" fill-opacity="0.501961" points="123,48 119,46 122,42" />
<polygon fill="#0e110f" fill-opacity="0.501961" points="155,70 155,50 139,78" />
<polygon fill="#5c2a27" fill-opacity="0.501961" points="41,90 8,114 40,119" />
<polygon fill="#96927e" fill-opacity="0.501961" points="256,62 243,95 244,74" />
<polygon fill="#341300" fill-opacity="0.501961" points="64,69 39,76 49,-16" />
<polygon fill="#e4e9f8" fill-opacity="0.501961" points="101,152 95,113 91,130" />
<polygon fill="#54322a" fill-opacity="0.501961" points="103,18 100,36 108,32" />
<polygon fill="#7a6a6a" fill-opacity="0.501961" points="101,20 100,37 65,28" />
<polygon fill="#e1e5ed" fill-opacity="0.501961" points="168,158 146,132 149,92" />
<polygon fill="#f5fafe" fill-opacity="0.501961" points="173,141 167,111 164,154" />
<polygon fill="#961800" fill-opacity="0.501961" points="79,67 79,74 64,77" />
<polygon fill="#713b23" fill-opacity="0.501961" points="145,36 151,40 139,43" />
<polygon fill="#d55600" fill-opacity="0.501961" points="123,34 108,46 113,52" />
<polygon fill="#c98a76" fill-opacity="0.501961" points="140,55 137,58 146,61" />
<polygon fill="#7d1e1a" fill-opacity="0.501961" points="25,117 49,121 16,143" />
<polygon fill="#e68117" fill-opacity="0.501961" points="158,70 183,92 183,75" />
<polygon fill="#5f554a" fill-opacity="0.501961" points="199,90 208,89 209,115" />
<polygon fill="#8e8e94" fill-opacity="0.501961" points="133,90 138,98 151,84" />
<polygon fill="#ba9d96" fill-opacity="0.501961" points="102,128 97,110 97,120" />
<polygon fill="#000000" fill-opacity="0.501961" points="127,31 123,31 132,25" />
<polygon fill="#e9cdc7" fill-opacity="0.501961" points="212,127 209,154 230,128" />
<polygon fill="#351703" fill-opacity="0.501961" points="161,22 199,16 202,93" />
<polygon fill="#000000" fill-opacity="0.501961" points="92,47 101,40 102,44" />
<polygon fill="#74605a" fill-opacity="0.501961" points="80,49 63,36 66,54" />
<polygon fill="#b57565" fill-opacity="0.501961" points="76,91 83,112 87,104" />
<polygon fill="#e28e48" fill-opacity="0.501961" points="65,102 76,81 63,90" />
<polygon fill="#a5ada7" fill-opacity="0.501961" points="249,71 271,101 248,101" />
<polygon fill="#bfd5d5" fill-opacity="0.501961" points="240,22 242,3 244,13" />
<polygon fill="#0f0d07" fill-opacity="0.501961" points="200,60 201,28 216,70" />
<polygon fill="#ae8141" fill-opacity="0.501961" points="232,66 260,55 234,57" />
<polygon fill="#fdb01c" fill-opacity="0.501961" points="157,72 158,53 167,74" />
<polygon fill="#d11300" fill-opacity="0.501961" points="161,29 164,33 164,40" />
<polygon fill="#e1c7b3" fill-opacity="0.501961" points="248,103 271,96 253,147" />
<polygon fill="#c93c00" fill-opacity="0.501961" points="103,43 85,78 95,93" />
<polygon fill="#935e44" fill-opacity="0.501961" points="116,66 119,74 114,79" />
<polygon fill="#acb0b5" fill-opacity="0.501961" points="132,127 125,115 129,102" />
<polygon fill="#987c4e" fill-opacity="0.501961" points="240,45 234,33 239,13" />
<polygon fill="#c9bb90" fill-opacity="0.501961" points="236,46 237,14 223,47" />
<polygon fill="#3f3f4b" fill-opacity="0.501961" points="97,17 92,21 80,18" />
<polygon fill="#5b1703" fill-opacity="0.501961" points="140,66 132,61 134,41" />
<polygon fill="#dc6000" fill-opacity="0.501961" points="90,84 86,56 80,66" />
<polygon fill="#e8eef8" fill-opacity="0.501961" points="105,157 141,158 125,114" />
<polygon fill="#5d4f38" fill-opacity="0.501961" points="249,61 244,75 244,60" />
<polygon fill="#fd9f1b" fill-opacity="0.501961" points="72,109 79,158 58,156" />
<polygon fill="#866a3d" fill-opacity="0.501961" points="233,-14 240,-16 239,12" />
<polygon fill="#ffc79d" fill-opacity="0.501961" points="204,130 185,136 184,158" />
<polygon fill="#dc6200" fill-opacity="0.501961" points="138,12 123,22 149,28" />
<polygon fill="#7b1300" fill-opacity="0.501961" points="214,40 209,39 214,49" />
<polygon fill="#ffb52e" fill-opacity="0.501961" points="184,69 166,60 193,88" />
<polygon fill="#603110" fill-opacity="0.501961" points="3,59 -8,96 10,92" />
<polygon fill="#730600" fill-opacity="0.501961" points="85,56 78,65 80,56" />
<polygon fill="#996c6c" fill-opacity="0.501961" points="98,99 96,102 108,102" />
<polygon fill="#985d4f" fill-opacity="0.501961" points="206,118 221,103 224,124" />
<polygon fill="#fcf5ed" fill-opacity="0.501961" points="241,128 243,158 250,128" />
<polygon fill="#c8918a" fill-opacity="0.501961" points="220,126 211,121 208,128" />
<polygon fill="#090100" fill-opacity="0.501961" points="103,5 31,-10 123,-16" />
<polygon fill="#e26112" fill-opacity="0.501961" points="85,138 76,130 78,113" />
<polygon fill="#aa7e69" fill-opacity="0.501961" points="131,47 128,49 131,53" />
<polygon fill="#80808b" fill-opacity="0.501961" points="64,20 73,19 65,28" />
<polygon fill="#f8cb9d" fill-opacity="0.501961" points="195,115 185,104 195,100" />
<polygon fill="#311100" fill-opacity="0.501961" points="170,10 103,-14 113,10" />
<polygon fill="#f89a02" fill-opacity="0.501961" points="100,57 106,56 106,37" />
<polygon fill="#c79b90" fill-opacity="0.501961" points="243,126 249,126 244,107" />
<polygon fill="#e86800" fill-opacity="0.501961" points="65,111 61,158 52,122" />
<polygon fill="#bda275" fill-opacity="0.501961" points="226,66 237,117 223,90" />
<polygon fill="#e39657" fill-opacity="0.501961" points="201,98 200,113 194,109" />
<polygon fill="#f77802" fill-opacity="0.501961" points="116,37 99,37 107,43" />
<polygon fill="#ff9b09" fill-opacity="0.501961" points="97,91 102,99 110,100" />
<polygon fill="#db9678" fill-opacity="0.501961" points="92,96 88,98 84,89" />
<polygon fill="#b8704c" fill-opacity="0.501961" points="238,127 232,108 238,98" />
<polygon fill="#c3c0c6" fill-opacity="0.501961" points="144,113 134,116 148,148" />
<polygon fill="#bf5624" fill-opacity="0.501961" points="87,121 89,127 91,114" />
<polygon fill="#fafcf7" fill-opacity="0.501961" points="218,87 215,89 219,92" />
<polygon fill="#af9871" fill-opacity="0.501961" points="79,83 63,81 73,79" />
<polygon fill="#110100" fill-opacity="0.501961" points="77,12 59,13 58,21" />
<polygon fill="#6f0400" fill-opacity="0.501961" points="71,68 89,87 82,73" />
<polygon fill="#f6ad6f" fill-opacity="0.501961" points="191,110 183,121 189,146" />
<polygon fill="#d6e1e0" fill-opacity="0.501961" points="239,50 242,44 241,52" />
<polygon fill="#a32700" fill-opacity="0.501961" points="124,51 123,29 127,38" />
<polygon fill="#130900" fill-opacity="0.501961" points="217,18 212,39 207,14" />
<polygon fill="#cc9d89" fill-opacity="0.501961" points="80,111 71,99 73,107" />
<polygon fill="#d1b292" fill-opacity="0.501961" points="231,88 234,115 223,127" />
<polygon fill="#bd5702" fill-opacity="0.501961" points="71,69 62,83 68,80" />
<polygon fill="#d1a486" fill-opacity="0.501961" points="123,66 124,73 114,64" />
<polygon fill="#e2a38b" fill-opacity="0.501961" points="64,97 65,103 71,108" />
<polygon fill="#cd906e" fill-opacity="0.501961" points="109,64 104,64 101,79" />
<polygon fill="#cc7746" fill-opacity="0.501961" points="185,85 190,98 184,107" />
<polygon fill="#fca709" fill-opacity="0.501961" points="162,36 143,19 148,33" />
<polygon fill="#cd9655" fill-opacity="0.501961" points="240,62 243,66 240,77" />
<polygon fill="#af875f" fill-opacity="0.501961" points="248,41 244,31 248,25" />
<polygon fill="#e8f4fd" fill-opacity="0.501961" points="164,111 172,109 166,82" />
<polygon fill="#fcc96b" fill-opacity="0.501961" points="89,126 90,134 85,127" />
<polygon fill="#be4900" fill-opacity="0.501961" points="83,94 91,109 95,104" />
<polygon fill="#aeabad" fill-opacity="0.501961" points="145,124 137,89 146,98" />
<polygon fill="#b95813" fill-opacity="0.501961" points="157,64 156,78 150,84" />
<polygon fill="#d6a58a" fill-opacity="0.501961" points="85,109 74,98 77,95" />
<polygon fill="#e34f00" fill-opacity="0.501961" points="89,44 78,60 77,54" />
<polygon fill="#151310" fill-opacity="0.501961" points="134,72 154,66 152,80" />
<polygon fill="#e2b38c" fill-opacity="0.501961" points="150,43 146,47 149,54" />
<polygon fill="#924926" fill-opacity="0.501961" points="109,73 107,78 101,69" />
</g>
</svg>