<svg xmlns="http://www.w3.org/2000/svg" version="1.1" width="1024" height="572">
<rect x="0" y="0" width="1024" height="572" fill="#885e42" />
<g transform="scale(4.000000) translate(0.5 0.5)">
<polygon fill="#ffffff" fill-opacity="0.501961" points="271,140 27,158 162,78" />
<polygon fill="#120000" fill-opacity="0.501961" points="-16,2 21,143 148,-16" />
<polygon fill="#000000" fill-opacity="0.501961" points="212,107 223,-7 138,-4" />
<polygon fill="#e1eacb" fill-opacity="0.501961" points="271,6 250,158 217,-16" />
<polygon fill="#e57222" fill-opacity="0.501961" points="55,158 66,20 164,19" />
<polygon fill="#fdfeff" fill-opacity="0.501961" points="98,102 82,158 271,137" />
<polygon fill="#000000" fill-opacity="0.501961" points="119,113 125,48 160,62" />
<polygon fill="#efa759" fill-opacity="0.501961" points="188,136 271,121 155,53" />
<polygon fill="#220000" fill-opacity="0.501961" points="224,-6 214,124 148,-16" />
<polygon fill="#260000" fill-opacity="0.501961" points="-16,0 64,-7 49,158" />
<polygon fill="#f35200" fill-opacity="0.501961" points="95,105 80,158 -16,131" />
<polygon fill="#5f8db9" fill-opacity="0.501961" points="65,59 121,18 67,18" />
<polygon fill="#ddefff" fill-opacity="0.501961" points="185,114 82,158 166,75" />
<polygon fill="#0c0000" fill-opacity="0.501961" points="112,-16 20,23 219,3" />
<polygon fill="#ad8966" fill-opacity="0.501961" points="250,28 198,111 240,138" />
<polygon fill="#000000" fill-opacity="0.501961" points="124,88 92,86 126,108" />
<polygon fill="#cc5200" fill-opacity="0.501961" points="170,33 46,84 139,7" />
<polygon fill="#ffae00" fill-opacity="0.501961" points="158,74 157,48 204,93" />
<polygon fill="#3f1200" fill-opacity="0.501961" points="222,87 222,23 138,42" />
<polygon fill="#cfb48c" fill-opacity="0.501961" points="224,126 223,4 259,131" />
<polygon fill="#845619" fill-opacity="0.501961" points="258,54 231,59 234,104" />
<polygon fill="#b41b00" fill-opacity="0.501961" points="69,63 97,103 102,32" />
<polygon fill="#852616" fill-opacity="0.501961" points="-16,109 68,78 39,158" />
<polygon fill="#000000" fill-opacity="0.501961" points="155,79 111,89 154,52" />
<polygon fill="#cc9a83" fill-opacity="0.501961" points="142,67 134,40 153,45" />
<polygon fill="#c9ab99" fill-opacity="0.501961" points="108,90 117,39 125,73" />
<polygon fill="#ffb200" fill-opacity="0.501961" points="137,32 155,17 169,38" />
<polygon fill="#ff8d00" fill-opacity="0.501961" points="58,99 50,158 89,135" />
<polygon fill="#8c939f" fill-opacity="0.501961" points="144,81 118,114 148,127" />
<polygon fill="#bef3ff" fill-opacity="0.501961" points="250,-16 271,30 251,52" />
<polygon fill="#652703" fill-opacity="0.501961" points="134,25 138,67 102,29" />
<polygon fill="#280f00" fill-opacity="0.501961" points="-10,-13 -16,111 96,-16" />
<polygon fill="#ffad12" fill-opacity="0.501961" points="188,71 157,55 154,82" />
<polygon fill="#dca26a" fill-opacity="0.501961" points="86,88 62,75 89,138" />
<polygon fill="#d4ccd3" fill-opacity="0.501961" points="241,152 242,75 265,120" />
<polygon fill="#fd9f40" fill-opacity="0.501961" points="196,80 174,63 189,152" />
<polygon fill="#fff0db" fill-opacity="0.501961" points="208,158 240,158 188,101" />
<polygon fill="#e0efff" fill-opacity="0.501961" points="143,158 93,115 114,100" />
<polygon fill="#280b00" fill-opacity="0.501961" points="204,59 117,-13 226,-16" />
<polygon fill="#c84721" fill-opacity="0.501961" points="18,101 -16,78 6,158" />
<polygon fill="#6f3f42" fill-opacity="0.501961" points="222,124 222,87 208,122" />
<polygon fill="#060504" fill-opacity="0.501961" points="150,73 112,101 132,53" />
<polygon fill="#eaf1fc" fill-opacity="0.501961" points="146,87 170,82 173,158" />
<polygon fill="#ff8400" fill-opacity="0.501961" points="102,37 128,36 103,58" />
<polygon fill="#ff7e00" fill-opacity="0.501961" points="140,10 154,33 119,19" />
<polygon fill="#110000" fill-opacity="0.501961" points="168,30 166,56 183,67" />
<polygon fill="#43280c" fill-opacity="0.501961" points="51,135 54,68 -16,54" />
<polygon fill="#240d02" fill-opacity="0.501961" points="158,60 133,54 156,50" />
<polygon fill="#f33000" fill-opacity="0.501961" points="164,27 156,51 166,58" />
<polygon fill="#2e1200" fill-opacity="0.501961" points="68,69 -16,62 50,-16" />
<polygon fill="#000300" fill-opacity="0.501961" points="103,47 92,47 101,39" />
<polygon fill="#1a0200" fill-opacity="0.501961" points="46,-16 103,20 157,3" />
<polygon fill="#d6d29c" fill-opacity="0.501961" points="237,33 225,75 224,4" />
<polygon fill="#ff5900" fill-opacity="0.501961" points="56,89 55,78 65,70" />
<polygon fill="#5f0000" fill-opacity="0.501961" points="75,77 73,60 95,93" />
<polygon fill="#050603" fill-opacity="0.501961" points="99,82 133,101 99,93" />
<polygon fill="#8a9893" fill-opacity="0.501961" points="244,70 271,56 243,109" />
<polygon fill="#14170d" fill-opacity="0.501961" points="210,87 200,93 183,58" />
<polygon fill="#fa9a1f" fill-opacity="0.501961" points="63,115 94,110 80,158" />
<polygon fill="#1c0000" fill-opacity="0.501961" points="156,54 149,35 157,36" />
<polygon fill="#f5fffa" fill-opacity="0.501961" points="215,92 214,88 227,87" />
<polygon fill="#483a3f" fill-opacity="0.501961" points="100,36 121,35 100,18" />
<polygon fill="#dd4c00" fill-opacity="0.501961" points="100,98 76,54 92,39" />
<polygon fill="#ebb38c" fill-opacity="0.501961" points="137,50 150,52 151,38" />
<polygon fill="#e57914" fill-opacity="0.501961" points="158,71 186,79 189,101" />
<polygon fill="#817c81" fill-opacity="0.501961" points="64,19 67,70 85,30" />
<polygon fill="#7e3600" fill-opacity="0.501961" points="221,40 210,-11 223,0" />
<polygon fill="#bca28f" fill-opacity="0.501961" points="106,57 123,49 103,72" />
<polygon fill="#d1ecf4" fill-opacity="0.501961" points="240,29 241,55 245,44" />
<polygon fill="#dfdce2" fill-opacity="0.501961" points="187,158 124,123 178,95" />
<polygon fill="#eff7ff" fill-opacity="0.501961" points="148,158 97,101 109,158" />
<polygon fill="#8f1919" fill-opacity="0.501961" points="-10,158 17,115 50,127" />
<polygon fill="#e14f00" fill-opacity="0.501961" points="67,85 51,114 60,158" />
<polygon fill="#c36237" fill-opacity="0.501961" points="241,91 238,129 233,111" />
<polygon fill="#ffa505" fill-opacity="0.501961" points="104,101 113,101 92,89" />
<polygon fill="#040100" fill-opacity="0.501961" points="134,63 130,73 120,43" />
<polygon fill="#dcc8a6" fill-opacity="0.501961" points="225,78 234,114 223,139" />
<polygon fill="#8d4e0a" fill-opacity="0.501961" points="239,50 233,71 239,89" />
<polygon fill="#1c2529" fill-opacity="0.501961" points="137,92 109,91 121,109" />
<polygon fill="#ea7a00" fill-opacity="0.501961" points="126,41 138,11 150,32" />
<polygon fill="#743506" fill-opacity="0.501961" points="156,82 135,87 130,80" />
<polygon fill="#00081f" fill-opacity="0.501961" points="144,18 150,18 152,23" />
<polygon fill="#612e2b" fill-opacity="0.501961" points="45,116 -16,58 29,133" />
<polygon fill="#431713" fill-opacity="0.501961" points="141,42 138,36 160,37" />
<polygon fill="#816557" fill-opacity="0.501961" points="223,92 213,128 198,93" />
<polygon fill="#ffbc7e" fill-opacity="0.501961" points="196,88 199,158 184,132" />
<polygon fill="#c78f6c" fill-opacity="0.501961" points="62,99 70,75 89,94" />
<polygon fill="#000000" fill-opacity="0.501961" points="131,23 131,29 122,31" />
<polygon fill="#97793d" fill-opacity="0.501961" points="233,30 239,8 239,42" />
<polygon fill="#af2300" fill-opacity="0.501961" points="89,104 82,91 95,102" />
<polygon fill="#ecaa42" fill-opacity="0.501961" points="181,95 205,104 189,73" />
<polygon fill="#2c1600" fill-opacity="0.501961" points="217,-10 212,95 163,46" />
<polygon fill="#b0b3c0" fill-opacity="0.501961" points="115,103 93,101 117,119" />
<polygon fill="#c0c3d0" fill-opacity="0.501961" points="132,139 137,88 153,158" />
<polygon fill="#bf3900" fill-opacity="0.501961" points="95,106 102,57 77,53" />
<polygon fill="#7a7f89" fill-opacity="0.501961" points="110,38 117,18 107,17" />
<polygon fill="#1a0007" fill-opacity="0.501961" points="121,43 133,46 134,41" />
<polygon fill="#cd9d80" fill-opacity="0.501961" points="98,75 113,88 122,77" />
<polygon fill="#1c0700" fill-opacity="0.501961" points="171,-16 124,16 56,17" />
<polygon fill="#2b0d00" fill-opacity="0.501961" points="241,-16 168,24 120,-2" />
<polygon fill="#ffaa0a" fill-opacity="0.501961" points="147,28 167,41 154,19" />
<polygon fill="#b66c53" fill-opacity="0.501961" points="150,55 136,58 145,63" />
<polygon fill="#e15200" fill-opacity="0.501961" points="107,36 132,10 133,22" />
<polygon fill="#cdc293" fill-opacity="0.501961" points="226,59 237,20 223,-16" />
<polygon fill="#96928f" fill-opacity="0.501961" points="104,34 78,44 70,34" />
<polygon fill="#0c1416" fill-opacity="0.501961" points="156,55 149,85 137,80" />
<polygon fill="#da3e00" fill-opacity="0.501961" points="55,89 59,71 76,70" />
<polygon fill="#8d785d" fill-opacity="0.501961" points="242,-16 254,-16 245,29" />
<polygon fill="#dc5316" fill-opacity="0.501961" points="-14,67 -16,158 12,131" />
<polygon fill="#600a00" fill-opacity="0.501961" points="66,84 59,80 53,107" />
<polygon fill="#ffa620" fill-opacity="0.501961" points="159,57 152,85 172,71" />
<polygon fill="#682c01" fill-opacity="0.501961" points="210,43 222,19 223,88" />
<polygon fill="#ca6832" fill-opacity="0.501961" points="129,55 132,47 123,48" />
<polygon fill="#f7e1d3" fill-opacity="0.501961" points="227,158 231,135 191,116" />
<polygon fill="#2b0e00" fill-opacity="0.501961" points="208,8 171,39 140,-12" />
<polygon fill="#ffffff" fill-opacity="0.501961" points="244,135 242,129 254,129" />
<polygon fill="#505052" fill-opacity="0.501961" points="122,113 136,88 121,100" />
<polygon fill="#792700" fill-opacity="0.501961" points="142,27 109,32 120,38" />
<polygon fill="#3a1900" fill-opacity="0.501961" points="-16,42 47,85 68,61" />
<polygon fill="#c4e4ed" fill-opacity="0.501961" points="244,21 240,28 241,9" />
<polygon fill="#e06300" fill-opacity="0.501961" points="93,50 124,35 94,74" />
<polygon fill="#e6ecf3" fill-opacity="0.501961" points="178,94 148,88 165,78" />
<polygon fill="#0c0a0b" fill-opacity="0.501961" points="216,51 214,75 198,41" />
<polygon fill="#673b16" fill-opacity="0.501961" points="214,81 224,91 220,50" />
<polygon fill="#e38965" fill-opacity="0.501961" points="231,116 240,154 241,123" />
<polygon fill="#dad1e1" fill-opacity="0.501961" points="94,112 83,157 106,139" />
<polygon fill="#783307" fill-opacity="0.501961" points="27,66 16,79 32,81" />
<polygon fill="#8d4e39" fill-opacity="0.501961" points="103,70 123,74 103,77" />
<polygon fill="#a89477" fill-opacity="0.501961" points="253,51 243,16 242,55" />
<polygon fill="#cabcb6" fill-opacity="0.501961" points="158,113 163,98 163,129" />
<polygon fill="#d6f5ff" fill-opacity="0.501961" points="253,47 271,44 254,-9" />
<polygon fill="#ad613e" fill-opacity="0.501961" points="21,97 2,94 -8,117" />
<polygon fill="#dbc995" fill-opacity="0.501961" points="148,17 151,16 145,13" />
<polygon fill="#341200" fill-opacity="0.501961" points="85,-16 173,9 19,11" />
<polygon fill="#381111" fill-opacity="0.501961" points="58,96 50,117 25,126" />
<polygon fill="#575968" fill-opacity="0.501961" points="64,44 64,68 73,69" />
<polygon fill="#0f0500" fill-opacity="0.501961" points="103,28 110,-12 98,-16" />
<polygon fill="#9d0000" fill-opacity="0.501961" points="154,39 159,35 165,58" />
<polygon fill="#a97165" fill-opacity="0.501961" points="210,128 206,117 223,113" />
<polygon fill="#a67e64" fill-opacity="0.501961" points="126,70 121,46 115,79" />
<polygon fill="#0f100c" fill-opacity="0.501961" points="123,106 133,62 109,97" />
<polygon fill="#bedde3" fill-opacity="0.501961" points="242,14 246,-16 238,-16" />
<polygon fill="#dd4c03" fill-opacity="0.501961" points="167,37 161,51 161,29" />
<polygon fill="#86692e" fill-opacity="0.501961" points="238,14 242,-16 234,-16" />
<polygon fill="#ed6b00" fill-opacity="0.501961" points="120,19 148,21 135,10" />
<polygon fill="#881400" fill-opacity="0.501961" points="98,93 88,86 94,103" />
<polygon fill="#82382a" fill-opacity="0.501961" points="80,110 73,99 79,103" />
<polygon fill="#7b0000" fill-opacity="0.501961" points="87,65 92,75 88,55" />
<polygon fill="#ec5b00" fill-opacity="0.501961" points="121,36 119,21 127,17" />
<polygon fill="#ff8817" fill-opacity="0.501961" points="89,50 98,38 89,41" />
<polygon fill="#a72709" fill-opacity="0.501961" points="52,129 57,158 -10,141" />
<polygon fill="#a1a9b2" fill-opacity="0.501961" points="124,114 127,103 132,129" />
<polygon fill="#fda41d" fill-opacity="0.501961" points="72,109 57,153 77,146" />
<polygon fill="#493c2f" fill-opacity="0.501961" points="197,85 202,98 222,80" />
<polygon fill="#fba91b" fill-opacity="0.501961" points="156,83 166,56 173,67" />
<polygon fill="#e5b392" fill-opacity="0.501961" points="137,51 136,42 148,46" />
<polygon fill="#f99508" fill-opacity="0.501961" points="162,26 158,37 150,15" />
<polygon fill="#b8a26d" fill-opacity="0.501961" points="235,116 233,50 223,90" />
<polygon fill="#eeb891" fill-opacity="0.501961" points="192,100 181,105 208,115" />
<polygon fill="#1d0c00" fill-opacity="0.501961" points="4,-3 10,57 36,8" />
<polygon fill="#633731" fill-opacity="0.501961" points="52,95 4,105 12,117" />
<polygon fill="#e6b085" fill-opacity="0.501961" points="109,55 120,48 123,59" />
<polygon fill="#878387" fill-opacity="0.501961" points="146,85 144,101 131,91" />
<polygon fill="#0a0903" fill-opacity="0.501961" points="157,62 154,38 149,69" />
<polygon fill="#c87040" fill-opacity="0.501961" points="185,115 187,94 180,86" />
<polygon fill="#e5b99a" fill-opacity="0.501961" points="81,96 77,83 83,83" />
<polygon fill="#ffcf34" fill-opacity="0.501961" points="196,87 173,64 189,73" />
<polygon fill="#191d1b" fill-opacity="0.501961" points="35,82 28,102 20,82" />
<polygon fill="#3a1a04" fill-opacity="0.501961" points="160,22 203,93 197,37" />
<polygon fill="#000000" fill-opacity="0.501961" points="119,45 124,50 122,42" />
<polygon fill="#ff8700" fill-opacity="0.501961" points="115,41 112,36 99,38" />
<polygon fill="#e0e4ed" fill-opacity="0.501961" points="145,148 165,147 147,89" />
<polygon fill="#c8b2b2" fill-opacity="0.501961" points="96,123 103,136 99,109" />
<polygon fill="#5a4a2c" fill-opacity="0.501961" points="243,69 244,60 253,61" />
<polygon fill="#941c00" fill-opacity="0.501961" points="75,72 71,66 89,49" />
<polygon fill="#ff8100" fill-opacity="0.501961" points="57,83 57,75 62,70" />
<polygon fill="#fa9800" fill-opacity="0.501961" points="108,54 100,57 104,38" />
<polygon fill="#e2c4b1" fill-opacity="0.501961" points="271,133 247,149 253,102" />
<polygon fill="#000005" fill-opacity="0.501961" points="97,41 101,41 95,47" />
<polygon fill="#e9effa" fill-opacity="0.501961" points="125,114 102,132 133,142" />
<polygon fill="#da7808" fill-opacity="0.501961" points="88,96 87,128 94,107" />
<polygon fill="#aa3223" fill-opacity="0.501961" points="8,115 14,140 26,119" />
<polygon fill="#dde1eb" fill-opacity="0.501961" points="161,158 128,109 142,155" />
<polygon fill="#a29da3" fill-opacity="0.501961" points="132,126 134,150 141,151" />
<polygon fill="#220d04" fill-opacity="0.501961" points="121,38 119,28 117,37" />
<polygon fill="#da5800" fill-opacity="0.501961" points="101,69 98,90 88,48" />
<polygon fill="#3d2401" fill-opacity="0.501961" points="36,79 53,107 55,77" />
<polygon fill="#4c4f51" fill-opacity="0.501961" points="130,92 130,109 133,101" />
<polygon fill="#140600" fill-opacity="0.501961" points="118,7 134,8 117,20" />
<polygon fill="#dca78f" fill-opacity="0.501961" points="64,95 70,108 64,102" />
<polygon fill="#e26712" fill-opacity="0.501961" points="75,126 81,109 83,143" />
<polygon fill="#f9aa20" fill-opacity="0.501961" points="158,49 156,82 163,71" />
<polygon fill="#db904e" fill-opacity="0.501961" points="203,108 195,112 199,93" />
<polygon fill="#eb8701" fill-opacity="0.501961" points="142,11 130,30 145,20" />
<polygon fill="#a91800" fill-opacity="0.501961" points="62,88 54,85 64,105" />
<polygon fill="#f08302" fill-opacity="0.501961" points="125,40 147,23 150,34" />
<polygon fill="#001931" fill-opacity="0.501961" points="145,16 145,20 149,20" />
<polygon fill="#b67e70" fill-opacity="0.501961" points="81,92 85,112 72,95" />
<polygon fill="#82726c" fill-opacity="0.501961" points="66,40 86,44 67,60" />
<polygon fill="#341200" fill-opacity="0.501961" points="189,69 171,61 166,24" />
<polygon fill="#625c57" fill-opacity="0.501961" points="206,110 209,90 202,99" />
<polygon fill="#e0a97b" fill-opacity="0.501961" points="115,87 106,87 121,79" />
<polygon fill="#47424a" fill-opacity="0.501961" points="101,17 75,19 87,22" />
<polygon fill="#f1eae8" fill-opacity="0.501961" points="177,93 174,122 182,119" />
<polygon fill="#4d2312" fill-opacity="0.501961" points="145,68 128,59 143,61" />
<polygon fill="#9d9f94" fill-opacity="0.501961" points="246,99 271,98 242,66" />
<polygon fill="#cdbcb6" fill-opacity="0.501961" points="178,125 171,115 174,98" />
<polygon fill="#170800" fill-opacity="0.501961" points="209,-9 196,-2 217,43" />
<polygon fill="#a98746" fill-opacity="0.501961" points="238,45 241,62 230,68" />
<polygon fill="#f3f7fe" fill-opacity="0.501961" points="176,147 167,111 165,158" />
<polygon fill="#c65809" fill-opacity="0.501961" points="135,83 142,84 136,86" />
<polygon fill="#ffffff" fill-opacity="0.501961" points="215,92 219,90 217,87" />
<polygon fill="#361400" fill-opacity="0.501961" points="65,69 31,74 56,-16" />
<polygon fill="#450000" fill-opacity="0.501961" points="84,79 76,74 81,71" />
<polygon fill="#d24700" fill-opacity="0.501961" points="126,48 124,39 129,35" />
<polygon fill="#583527" fill-opacity="0.501961" points="66,28 58,33 64,60" />
<polygon fill="#c57329" fill-opacity="0.501961" points="63,90 68,82 73,98" />
<polygon fill="#c6ba89" fill-opacity="0.501961" points="224,1 236,45 236,-2" />
<polygon fill="#e66e03" fill-opacity="0.501961" points="121,29 114,51 123,37" />
<polygon fill="#cfd8e4" fill-opacity="0.501961" points="113,101 119,110 117,125" />
<polygon fill="#952d0a" fill-opacity="0.501961" points="75,109 67,94 68,105" />
<polygon fill="#280c00" fill-opacity="0.501961" points="163,21 94,-16 154,-7" />
<polygon fill="#c83d00" fill-opacity="0.501961" points="83,73 104,41 94,92" />
<polygon fill="#662500" fill-opacity="0.501961" points="64,6 55,-11 75,2" />
<polygon fill="#751e19" fill-opacity="0.501961" points="31,116 48,121 6,148" />
<polygon fill="#cb3706" fill-opacity="0.501961" points="118,20 112,36 128,14" />
<polygon fill="#8c5923" fill-opacity="0.501961" points="238,65 239,99 231,73" />
<polygon fill="#645c5d" fill-opacity="0.501961" points="108,36 104,19 113,33" />
<polygon fill="#895b47" fill-opacity="0.501961" points="206,118 221,120 224,86" />
<polygon fill="#e9f6ff" fill-opacity="0.501961" points="153,84 155,108 161,84" />
<polygon fill="#8a4831" fill-opacity="0.501961" points="105,79 113,61 112,72" />
<polygon fill="#aca6a4" fill-opacity="0.501961" points="146,98 138,90 145,117" />
<polygon fill="#f9dfc9" fill-opacity="0.501961" points="241,152 230,127 173,145" />
<polygon fill="#f9b07b" fill-opacity="0.501961" points="182,150 200,132 188,119" />
<polygon fill="#44261a" fill-opacity="0.501961" points="106,31 101,15 101,36" />
<polygon fill="#f8d8b2" fill-opacity="0.501961" points="194,112 207,113 188,122" />
<polygon fill="#0e0a05" fill-opacity="0.501961" points="125,57 135,55 126,83" />
<polygon fill="#3f0000" fill-opacity="0.501961" points="72,68 75,58 75,64" />
<polygon fill="#5a2e0a" fill-opacity="0.501961" points="4,45 -16,99 8,92" />
<polygon fill="#fbbf60" fill-opacity="0.501961" points="82,126 90,125 89,133" />
<polygon fill="#000300" fill-opacity="0.501961" points="98,46 97,40 102,42" />
<polygon fill="#fcecdd" fill-opacity="0.501961" points="239,128 243,158 249,129" />
<polygon fill="#c4c0c4" fill-opacity="0.501961" points="145,113 145,144 136,119" />
<polygon fill="#dc5c04" fill-opacity="0.501961" points="79,70 75,67 78,55" />
<polygon fill="#911f00" fill-opacity="0.501961" points="87,98 82,90 85,100" />
<polygon fill="#8b8068" fill-opacity="0.501961" points="244,69 245,88 249,71" />
<polygon fill="#ce9d80" fill-opacity="0.501961" points="74,100 76,108 67,95" />
<polygon fill="#6e5a4b" fill-opacity="0.501961" points="106,65 107,58 103,63" />
<polygon fill="#5c432d" fill-opacity="0.501961" points="210,96 199,86 223,95" />
<polygon fill="#a29181" fill-opacity="0.501961" points="212,100 206,99 212,95" />
<polygon fill="#2c2419" fill-opacity="0.501961" points="192,75 216,71 202,95" />
<polygon fill="#e0761a" fill-opacity="0.501961" points="169,72 176,73 178,94" />
<polygon fill="#d04400" fill-opacity="0.501961" points="67,108 59,97 52,112" />
<polygon fill="#8b4e14" fill-opacity="0.501961" points="65,89 69,76 61,79" />
<polygon fill="#927036" fill-opacity="0.501961" points="236,40 238,30 240,46" />
<polygon fill="#110700" fill-opacity="0.501961" points="122,17 84,-16 93,17" />
<polygon fill="#9c9fa5" fill-opacity="0.501961" points="66,55 74,55 70,60" />
<polygon fill="#fca427" fill-opacity="0.501961" points="83,130 81,114 89,113" />
<polygon fill="#c2d8da" fill-opacity="0.501961" points="242,36 243,24 240,30" />
<polygon fill="#da3d00" fill-opacity="0.501961" points="165,59 160,58 160,54" />
<polygon fill="#462615" fill-opacity="0.501961" points="152,60 146,51 141,53" />
<polygon fill="#f9ad0e" fill-opacity="0.501961" points="163,36 150,33 142,18" />
<polygon fill="#dcaa7e" fill-opacity="0.501961" points="74,88 85,99 73,78" />
<polygon fill="#a3a99c" fill-opacity="0.501961" points="246,67 271,77 247,99" />
<polygon fill="#a8835b" fill-opacity="0.501961" points="248,33 244,24 248,11" />
<polygon fill="#e9951f" fill-opacity="0.501961" points="100,99 98,90 110,102" />
<polygon fill="#a76e64" fill-opacity="0.501961" points="224,127 223,109 211,122" />
<polygon fill="#974836" fill-opacity="0.501961" points="79,99 88,108 83,107" />
<polygon fill="#262424" fill-opacity="0.501961" points="124,90 118,106 136,85" />
<polygon fill="#512922" fill-opacity="0.501961" points="34,125 49,100 17,93" />
<polygon fill="#e56d04" fill-opacity="0.501961" points="125,33 135,22 140,24" />
<polygon fill="#d5bdb1" fill-opacity="0.501961" points="271,127 241,95 241,120" />
<polygon fill="#9a9090" fill-opacity="0.501961" points="65,39 82,40 77,31" />
<polygon fill="#d47449" fill-opacity="0.501961" points="234,127 240,111 240,130" />
<polygon fill="#756a6d" fill-opacity="0.501961" points="100,37 101,19 66,27" />
<polygon fill="#d1b795" fill-opacity="0.501961" points="232,132 222,101 231,87" />
<polygon fill="#d95e00" fill-opacity="0.501961" points="85,58 79,66 90,82" />
<polygon fill="#0a0a09" fill-opacity="0.501961" points="100,86 116,91 112,100" />
<polygon fill="#ec5300" fill-opacity="0.501961" points="79,55 89,42 84,55" />
<polygon fill="#c8aa85" fill-opacity="0.501961" points="242,55 265,55 270,40" />
<polygon fill="#faebe7" fill-opacity="0.501961" points="177,151 185,142 180,115" />
<polygon fill="#000000" fill-opacity="0.501961" points="125,28 124,31 129,29" />
<polygon fill="#c1632f" fill-opacity="0.501961" points="8,109 -11,69 -7,132" />
<polygon fill="#c89a8d" fill-opacity="0.501961" points="248,126 242,128 244,105" />
<polygon fill="#e0966f" fill-opacity="0.501961" points="180,95 191,116 183,122" />
<polygon fill="#831b00" fill-opacity="0.501961" points="97,97 92,92 94,106" />
<polygon fill="#dab6b4" fill-opacity="0.501961" points="114,74 113,80 110,78" />
<polygon fill="#aa945e" fill-opacity="0.501961" points="236,89 229,61 223,72" />
<polygon fill="#989085" fill-opacity="0.501961" points="69,83 73,77 76,82" />
<polygon fill="#6f0a00" fill-opacity="0.501961" points="79,62 76,78 82,81" />
<polygon fill="#980000" fill-opacity="0.501961" points="157,42 164,57 161,38" />
<polygon fill="#ae270a" fill-opacity="0.501961" points="-16,131 20,145 10,131" />
<polygon fill="#c0cfc9" fill-opacity="0.501961" points="244,13 240,1 240,19" />
<polygon fill="#c8947e" fill-opacity="0.501961" points="145,58 147,63 140,56" />
<polygon fill="#c1b484" fill-opacity="0.501961" points="236,33 236,54 226,65" />
<polygon fill="#989ea3" fill-opacity="0.501961" points="126,119 134,100 127,104" />
<polygon fill="#775039" fill-opacity="0.501961" points="137,37 148,38 142,45" />
<polygon fill="#dfe6f2" fill-opacity="0.501961" points="95,114 101,143 91,132" />
<polygon fill="#dda682" fill-opacity="0.501961" points="149,46 149,53 140,44" />
<polygon fill="#e8eef8" fill-opacity="0.501961" points="96,103 109,138 133,137" />
</g>
</svg>