<svg xmlns="http://www.w3.org/2000/svg" version="1.1" width="516" height="1024">
<rect x="0" y="0" width="516" height="1024" fill="#a39e9c" />
<g transform="scale(4.000000) translate(0.5 0.5)">
<polygon fill="#ffffff" fill-opacity="0.501961" points="144,109 -16,5 129,-16" />
<polygon fill="#523a38" fill-opacity="0.501961" points="99,271 123,133 -16,120" />
<polygon fill="#ffffff" fill-opacity="0.501961" points="5,-16 -16,58 144,13" />
<polygon fill="#cff8ff" fill-opacity="0.501961" points="-16,246 12,157 46,271" />
<polygon fill="#756b63" fill-opacity="0.501961" points="-3,53 -16,191 137,48" />
<polygon fill="#ffffff" fill-opacity="0.501961" points="-16,25 141,63 125,-16" />
<polygon fill="#2e1f2c" fill-opacity="0.501961" points="-16,143 37,78 2,173" />
<polygon fill="#676d6b" fill-opacity="0.501961" points="128,160 143,260 29,271" />
<polygon fill="#ad9687" fill-opacity="0.501961" points="15,135 121,147 97,20" />
<polygon fill="#adb1b9" fill-opacity="0.501961" points="40,189 41,262 75,135" />
<polygon fill="#503e41" fill-opacity="0.501961" points="78,148 137,172 61,196" />
<polygon fill="#bccfff" fill-opacity="0.501961" points="44,249 -16,263 3,170" />
<polygon fill="#fcf7e1" fill-opacity="0.501961" points="144,117 102,126 124,84" />
<polygon fill="#ffffff" fill-opacity="0.501961" points="-16,0 144,-2 62,51" />
<polygon fill="#704b42" fill-opacity="0.501961" points="72,138 60,91 25,195" />
<polygon fill="#d29b89" fill-opacity="0.501961" points="30,160 62,133 20,118" />
<polygon fill="#483045" fill-opacity="0.501961" points="71,270 113,254 79,212" />
<polygon fill="#493437" fill-opacity="0.501961" points="-16,120 67,181 17,167" />
<polygon fill="#93a197" fill-opacity="0.501961" points="97,238 88,187 144,192" />
<polygon fill="#87817f" fill-opacity="0.501961" points="86,236 32,228 19,166" />
<polygon fill="#b7baae" fill-opacity="0.501961" points="122,41 60,50 144,90" />
<polygon fill="#ffffd4" fill-opacity="0.501961" points="11,104 -16,103 2,118" />
<polygon fill="#94aba2" fill-opacity="0.501961" points="50,249 72,262 78,180" />
<polygon fill="#4f454a" fill-opacity="0.501961" points="12,99 39,78 60,92" />
<polygon fill="#8a9a92" fill-opacity="0.501961" points="90,55 128,110 32,80" />
<polygon fill="#ffffff" fill-opacity="0.501961" points="144,1 -8,47 -13,-12" />
<polygon fill="#f3deb4" fill-opacity="0.501961" points="119,151 127,97 144,177" />
<polygon fill="#c1dcff" fill-opacity="0.501961" points="28,217 -16,244 18,170" />
<polygon fill="#dfbebb" fill-opacity="0.501961" points="71,133 68,117 124,113" />
<polygon fill="#b5b5c6" fill-opacity="0.501961" points="37,197 50,236 54,178" />
<polygon fill="#6d5049" fill-opacity="0.501961" points="42,224 31,190 33,231" />
<polygon fill="#443141" fill-opacity="0.501961" points="76,205 85,170 89,227" />
<polygon fill="#ffffff" fill-opacity="0.501961" points="111,78 144,141 143,99" />
<polygon fill="#34303e" fill-opacity="0.501961" points="63,215 71,184 54,213" />
<polygon fill="#ffffeb" fill-opacity="0.501961" points="67,94 58,80 49,79" />
<polygon fill="#d9b693" fill-opacity="0.501961" points="55,155 55,177 73,148" />
<polygon fill="#ffffff" fill-opacity="0.501961" points="74,-16 105,40 144,13" />
<polygon fill="#4c3e44" fill-opacity="0.501961" points="-16,154 23,161 16,101" />
<polygon fill="#b4b5af" fill-opacity="0.501961" points="68,61 120,67 93,24" />
<polygon fill="#ffffff" fill-opacity="0.501961" points="48,44 82,50 81,-16" />
<polygon fill="#9d8269" fill-opacity="0.501961" points="128,175 108,174 122,104" />
<polygon fill="#b19588" fill-opacity="0.501961" points="27,168 48,186 44,230" />
<polygon fill="#b99487" fill-opacity="0.501961" points="49,89 21,114 29,172" />
<polygon fill="#b6cfff" fill-opacity="0.501961" points="30,218 10,159 -16,218" />
<polygon fill="#a2adc4" fill-opacity="0.501961" points="39,263 54,230 15,228" />
<polygon fill="#a4aea4" fill-opacity="0.501961" points="45,42 36,65 9,44" />
<polygon fill="#7d655a" fill-opacity="0.501961" points="24,115 60,119 99,164" />
<polygon fill="#564345" fill-opacity="0.501961" points="57,149 16,160 49,181" />
<polygon fill="#e7cbc4" fill-opacity="0.501961" points="86,116 78,97 87,94" />
<polygon fill="#7c898b" fill-opacity="0.501961" points="-16,56 8,101 74,50" />
<polygon fill="#646d6c" fill-opacity="0.501961" points="76,187 48,235 59,168" />
<polygon fill="#866a5d" fill-opacity="0.501961" points="37,141 71,93 81,111" />
<polygon fill="#614e4d" fill-opacity="0.501961" points="84,185 116,130 113,172" />
<polygon fill="#c7c3b7" fill-opacity="0.501961" points="108,87 107,41 144,52" />
<polygon fill="#564c51" fill-opacity="0.501961" points="48,81 2,133 22,87" />
<polygon fill="#7f7f6f" fill-opacity="0.501961" points="83,87 124,104 104,82" />
<polygon fill="#d09d9b" fill-opacity="0.501961" points="77,147 103,142 88,137" />
<polygon fill="#d2d5d9" fill-opacity="0.501961" points="67,164 71,151 63,149" />
<polygon fill="#727366" fill-opacity="0.501961" points="73,72 71,84 38,72" />
<polygon fill="#ffffff" fill-opacity="0.501961" points="131,93 128,117 119,75" />
<polygon fill="#a1b5c4" fill-opacity="0.501961" points="-16,59 2,72 16,63" />
<polygon fill="#ba9387" fill-opacity="0.501961" points="31,101 57,101 50,135" />
<polygon fill="#868f87" fill-opacity="0.501961" points="144,219 93,226 86,179" />
<polygon fill="#c4d0c4" fill-opacity="0.501961" points="9,32 39,32 29,53" />
<polygon fill="#a3c5fa" fill-opacity="0.501961" points="51,202 46,180 54,189" />
<polygon fill="#ffffff" fill-opacity="0.501961" points="-16,-16 7,49 20,-9" />
<polygon fill="#816054" fill-opacity="0.501961" points="38,135 65,166 63,147" />
<polygon fill="#2a2c3a" fill-opacity="0.501961" points="36,230 40,225 31,226" />
<polygon fill="#92776d" fill-opacity="0.501961" points="22,183 35,226 34,150" />
<polygon fill="#725956" fill-opacity="0.501961" points="69,137 72,156 89,131" />
<polygon fill="#c2d7ff" fill-opacity="0.501961" points="-16,175 20,181 5,271" />
<polygon fill="#5b4c56" fill-opacity="0.501961" points="79,198 117,271 75,260" />
<polygon fill="#9ba19c" fill-opacity="0.501961" points="117,78 84,47 59,68" />
<polygon fill="#8f9396" fill-opacity="0.501961" points="-16,149 -16,118 8,112" />
<polygon fill="#a06e65" fill-opacity="0.501961" points="57,232 54,271 37,271" />
<polygon fill="#ffffb9" fill-opacity="0.501961" points="9,110 -16,107 5,103" />
<polygon fill="#7e8378" fill-opacity="0.501961" points="137,271 101,241 116,178" />
<polygon fill="#796452" fill-opacity="0.501961" points="106,98 94,104 88,98" />
<polygon fill="#ffffff" fill-opacity="0.501961" points="116,-16 70,51 -16,2" />
<polygon fill="#544348" fill-opacity="0.501961" points="30,167 42,178 65,134" />
<polygon fill="#ffffff" fill-opacity="0.501961" points="103,43 144,14 95,-16" />
<polygon fill="#d59f9e" fill-opacity="0.501961" points="121,197 127,180 140,178" />
<polygon fill="#6e6964" fill-opacity="0.501961" points="123,187 144,156 83,190" />
<polygon fill="#57454c" fill-opacity="0.501961" points="110,163 79,155 63,193" />
<polygon fill="#cfc8b5" fill-opacity="0.501961" points="125,26 117,29 121,57" />
<polygon fill="#6c5752" fill-opacity="0.501961" points="56,87 63,103 37,82" />
<polygon fill="#b69e87" fill-opacity="0.501961" points="77,106 127,112 120,98" />
<polygon fill="#869995" fill-opacity="0.501961" points="75,234 59,228 76,179" />
<polygon fill="#9facc3" fill-opacity="0.501961" points="45,253 54,206 33,240" />
<polygon fill="#839289" fill-opacity="0.501961" points="67,176 54,180 57,208" />
<polygon fill="#c3988b" fill-opacity="0.501961" points="19,123 39,152 27,153" />
<polygon fill="#b0bbd1" fill-opacity="0.501961" points="26,219 0,244 44,243" />
<polygon fill="#d0c1a2" fill-opacity="0.501961" points="143,174 121,103 122,157" />
<polygon fill="#7d8eb6" fill-opacity="0.501961" points="10,159 16,167 0,177" />
<polygon fill="#6e6e66" fill-opacity="0.501961" points="92,91 71,96 77,87" />
<polygon fill="#a07969" fill-opacity="0.501961" points="56,141 49,114 32,159" />
<polygon fill="#f1eed9" fill-opacity="0.501961" points="122,122 115,105 114,120" />
<polygon fill="#84867b" fill-opacity="0.501961" points="31,48 66,53 62,86" />
<polygon fill="#524246" fill-opacity="0.501961" points="-1,137 21,174 19,126" />
<polygon fill="#d6c4c2" fill-opacity="0.501961" points="82,100 100,95 87,93" />
<polygon fill="#b3b5ac" fill-opacity="0.501961" points="23,54 -4,51 47,40" />
<polygon fill="#473441" fill-opacity="0.501961" points="65,190 64,212 56,214" />
<polygon fill="#cfb5b0" fill-opacity="0.501961" points="96,129 112,103 110,129" />
<polygon fill="#fefff6" fill-opacity="0.501961" points="144,134 144,106 107,76" />
<polygon fill="#f4f5ed" fill-opacity="0.501961" points="118,77 110,68 118,70" />
<polygon fill="#8b9793" fill-opacity="0.501961" points="106,240 89,220 91,186" />
<polygon fill="#b9d3ff" fill-opacity="0.501961" points="29,215 -16,187 18,171" />
<polygon fill="#bfb9b0" fill-opacity="0.501961" points="144,54 144,99 82,36" />
<polygon fill="#9facb0" fill-opacity="0.501961" points="25,86 3,88 18,91" />
<polygon fill="#b5b6b0" fill-opacity="0.501961" points="94,19 104,68 81,41" />
<polygon fill="#ffffff" fill-opacity="0.501961" points="124,-16 126,45 144,48" />
<polygon fill="#856f61" fill-opacity="0.501961" points="83,131 119,132 117,147" />
<polygon fill="#dbc197" fill-opacity="0.501961" points="54,169 66,170 56,157" />
<polygon fill="#93a2a2" fill-opacity="0.501961" points="114,75 96,61 66,87" />
<polygon fill="#687661" fill-opacity="0.501961" points="25,54 -1,54 32,63" />
<polygon fill="#5b6961" fill-opacity="0.501961" points="51,229 58,230 56,211" />
<polygon fill="#ffffff" fill-opacity="0.501961" points="26,27 23,40 41,26" />
<polygon fill="#d3dfff" fill-opacity="0.501961" points="25,270 16,244 -16,243" />
<polygon fill="#ffffd0" fill-opacity="0.501961" points="53,42 46,48 52,51" />
<polygon fill="#929f9a" fill-opacity="0.501961" points="70,218 56,216 56,269" />
<polygon fill="#ffffff" fill-opacity="0.501961" points="116,42 121,-1 103,41" />
<polygon fill="#605b57" fill-opacity="0.501961" points="113,261 118,236 101,267" />
<polygon fill="#929484" fill-opacity="0.501961" points="124,118 104,83 120,99" />
<polygon fill="#70717d" fill-opacity="0.501961" points="88,239 82,226 93,226" />
<polygon fill="#bdc3ac" fill-opacity="0.501961" points="68,85 63,95 65,104" />
<polygon fill="#3a3949" fill-opacity="0.501961" points="6,165 -3,179 4,154" />
<polygon fill="#676967" fill-opacity="0.501961" points="11,93 -15,81 -16,115" />
<polygon fill="#544650" fill-opacity="0.501961" points="77,250 89,210 77,171" />
<polygon fill="#a8a29a" fill-opacity="0.501961" points="74,48 97,53 60,75" />
<polygon fill="#bd9d97" fill-opacity="0.501961" points="51,92 26,107 47,111" />
<polygon fill="#77625e" fill-opacity="0.501961" points="49,179 71,173 42,167" />
<polygon fill="#ffffff" fill-opacity="0.501961" points="87,-16 41,39 81,49" />
<polygon fill="#cda799" fill-opacity="0.501961" points="87,128 73,134 68,109" />
<polygon fill="#4f4043" fill-opacity="0.501961" points="29,166 -16,147 17,128" />
<polygon fill="#a88f86" fill-opacity="0.501961" points="108,146 98,152 101,138" />
<polygon fill="#a8adb1" fill-opacity="0.501961" points="30,64 39,66 30,47" />
<polygon fill="#ffefd8" fill-opacity="0.501961" points="53,232 51,230 53,237" />
<polygon fill="#98847f" fill-opacity="0.501961" points="34,196 46,186 14,164" />
<polygon fill="#9d7b6a" fill-opacity="0.501961" points="93,106 108,109 92,113" />
<polygon fill="#715a50" fill-opacity="0.501961" points="59,91 59,144 67,117" />
<polygon fill="#af9c8f" fill-opacity="0.501961" points="23,115 44,127 19,128" />
<polygon fill="#838177" fill-opacity="0.501961" points="57,47 48,75 65,56" />
<polygon fill="#c5c3bb" fill-opacity="0.501961" points="85,63 119,51 144,61" />
<polygon fill="#a28f8c" fill-opacity="0.501961" points="59,235 56,256 41,233" />
<polygon fill="#82858c" fill-opacity="0.501961" points="13,90 7,60 36,82" />
<polygon fill="#ffffff" fill-opacity="0.501961" points="-16,25 91,29 80,-16" />
<polygon fill="#f1ebd3" fill-opacity="0.501961" points="123,152 144,152 143,175" />
<polygon fill="#c4aa9b" fill-opacity="0.501961" points="109,133 91,122 117,122" />
<polygon fill="#5c5357" fill-opacity="0.501961" points="6,114 51,87 28,86" />
<polygon fill="#777772" fill-opacity="0.501961" points="60,75 49,62 25,70" />
<polygon fill="#7b6c60" fill-opacity="0.501961" points="144,218 125,271 128,217" />
<polygon fill="#9eb2d8" fill-opacity="0.501961" points="52,205 54,179 46,182" />
<polygon fill="#bbd2cc" fill-opacity="0.501961" points="23,34 17,50 10,33" />
<polygon fill="#bcb9b2" fill-opacity="0.501961" points="66,54 66,61 82,55" />
<polygon fill="#cbc4a6" fill-opacity="0.501961" points="49,81 59,88 49,76" />
<polygon fill="#ddd1af" fill-opacity="0.501961" points="56,165 68,166 57,161" />
<polygon fill="#a37d6e" fill-opacity="0.501961" points="79,117 80,103 65,115" />
<polygon fill="#5b4c51" fill-opacity="0.501961" points="68,181 73,156 113,183" />
<polygon fill="#8c918c" fill-opacity="0.501961" points="65,60 104,68 89,74" />
<polygon fill="#8c6966" fill-opacity="0.501961" points="86,155 80,146 103,144" />
<polygon fill="#bab2a5" fill-opacity="0.501961" points="25,41 50,41 45,49" />
<polygon fill="#8c9691" fill-opacity="0.501961" points="123,257 108,271 126,226" />
<polygon fill="#8b8e9b" fill-opacity="0.501961" points="71,162 68,161 71,150" />
<polygon fill="#58474a" fill-opacity="0.501961" points="13,146 -16,138 23,108" />
<polygon fill="#e1dcd1" fill-opacity="0.501961" points="70,156 68,146 64,156" />
<polygon fill="#a9c0f7" fill-opacity="0.501961" points="16,169 17,188 -1,179" />
<polygon fill="#c7ada6" fill-opacity="0.501961" points="65,120 92,109 71,130" />
<polygon fill="#afb4ae" fill-opacity="0.501961" points="86,66 73,72 62,68" />
<polygon fill="#7a7f7b" fill-opacity="0.501961" points="86,83 68,94 64,112" />
<polygon fill="#cdd3bd" fill-opacity="0.501961" points="-6,45 1,54 2,35" />
<polygon fill="#e9ebce" fill-opacity="0.501961" points="107,84 116,89 120,85" />
<polygon fill="#ffdfae" fill-opacity="0.501961" points="-6,103 -11,119 12,104" />
<polygon fill="#84776a" fill-opacity="0.501961" points="112,126 109,150 122,131" />
<polygon fill="#f7fdfb" fill-opacity="0.501961" points="125,120 132,64 141,108" />
<polygon fill="#a39e96" fill-opacity="0.501961" points="144,134 131,104 128,117" />
<polygon fill="#a5a9a6" fill-opacity="0.501961" points="65,91 61,78 54,76" />
<polygon fill="#fffffa" fill-opacity="0.501961" points="7,29 8,48 2,46" />
<polygon fill="#798378" fill-opacity="0.501961" points="63,252 75,235 74,245" />
<polygon fill="#635052" fill-opacity="0.501961" points="57,143 62,130 74,138" />
<polygon fill="#6e6d73" fill-opacity="0.501961" points="-16,68 -16,82 16,75" />
<polygon fill="#939090" fill-opacity="0.501961" points="31,73 57,76 9,84" />
<polygon fill="#7d6460" fill-opacity="0.501961" points="45,260 52,240 51,255" />
<polygon fill="#a98178" fill-opacity="0.501961" points="95,132 80,128 94,126" />
<polygon fill="#54434d" fill-opacity="0.501961" points="108,254 94,242 90,223" />
<polygon fill="#4a3b3f" fill-opacity="0.501961" points="26,153 2,147 27,170" />
<polygon fill="#ffffff" fill-opacity="0.501961" points="31,40 41,-8 18,-13" />
<polygon fill="#b5a59b" fill-opacity="0.501961" points="43,224 49,201 37,212" />
<polygon fill="#a48277" fill-opacity="0.501961" points="40,93 54,92 26,106" />
<polygon fill="#68756a" fill-opacity="0.501961" points="5,53 -10,62 18,57" />
<polygon fill="#584143" fill-opacity="0.501961" points="47,178 51,148 54,165" />
<polygon fill="#8b7c6d" fill-opacity="0.501961" points="38,127 39,110 28,121" />
<polygon fill="#533f49" fill-opacity="0.501961" points="66,206 70,180 61,200" />
<polygon fill="#848884" fill-opacity="0.501961" points="95,228 130,188 105,244" />
<polygon fill="#ffffff" fill-opacity="0.501961" points="47,43 92,25 68,49" />
<polygon fill="#a0736a" fill-opacity="0.501961" points="57,139 47,148 27,135" />
<polygon fill="#8c9ebf" fill-opacity="0.501961" points="48,201 53,191 54,213" />
<polygon fill="#a3aec2" fill-opacity="0.501961" points="28,234 44,227 48,250" />
<polygon fill="#4b4348" fill-opacity="0.501961" points="36,229 33,224 43,223" />
<polygon fill="#8c9596" fill-opacity="0.501961" points="62,84 70,95 86,85" />
<polygon fill="#c5a597" fill-opacity="0.501961" points="25,112 25,137 21,126" />
<polygon fill="#bbaa86" fill-opacity="0.501961" points="124,118 117,124 125,139" />
<polygon fill="#b29074" fill-opacity="0.501961" points="54,167 56,175 65,167" />
<polygon fill="#a8ab90" fill-opacity="0.501961" points="121,83 116,76 113,78" />
<polygon fill="#81695d" fill-opacity="0.501961" points="44,122 68,135 67,105" />
<polygon fill="#ffffff" fill-opacity="0.501961" points="96,28 115,41 122,7" />
<polygon fill="#a3877a" fill-opacity="0.501961" points="47,113 58,120 30,129" />
<polygon fill="#6d6375" fill-opacity="0.501961" points="44,175 46,160 48,168" />
<polygon fill="#67574e" fill-opacity="0.501961" points="76,106 68,106 76,102" />
<polygon fill="#94756b" fill-opacity="0.501961" points="119,150 118,171 111,168" />
<polygon fill="#a1836d" fill-opacity="0.501961" points="70,141 70,149 62,148" />
<polygon fill="#8f9791" fill-opacity="0.501961" points="119,202 116,226 144,196" />
<polygon fill="#a8afa0" fill-opacity="0.501961" points="102,80 115,86 103,75" />
<polygon fill="#7c8373" fill-opacity="0.501961" points="43,59 30,50 47,51" />
<polygon fill="#ae8773" fill-opacity="0.501961" points="50,131 42,152 59,135" />
<polygon fill="#c2b4aa" fill-opacity="0.501961" points="102,101 115,113 113,101" />
<polygon fill="#c0d0cf" fill-opacity="0.501961" points="34,33 39,29 36,37" />
<polygon fill="#ffffee" fill-opacity="0.501961" points="62,88 54,81 57,86" />
<polygon fill="#96817a" fill-opacity="0.501961" points="30,167 39,208 20,175" />
<polygon fill="#aa9f8f" fill-opacity="0.501961" points="8,110 15,98 11,88" />
<polygon fill="#a5a39b" fill-opacity="0.501961" points="20,43 21,49 24,42" />
<polygon fill="#a18c85" fill-opacity="0.501961" points="48,204 46,184 31,184" />
<polygon fill="#75655e" fill-opacity="0.501961" points="56,85 58,96 43,87" />
<polygon fill="#77786d" fill-opacity="0.501961" points="124,215 112,239 114,265" />
<polygon fill="#c8b3ae" fill-opacity="0.501961" points="80,96 88,128 89,107" />
<polygon fill="#ffffff" fill-opacity="0.501961" points="24,24 31,26 25,41" />
<polygon fill="#a7b9bd" fill-opacity="0.501961" points="10,90 1,88 12,86" />
<polygon fill="#7d7c77" fill-opacity="0.501961" points="7,95 15,84 16,104" />
<polygon fill="#858574" fill-opacity="0.501961" points="101,90 120,109 111,93" />
<polygon fill="#877c7a" fill-opacity="0.501961" points="31,196 21,178 30,214" />
<polygon fill="#7a7c78" fill-opacity="0.501961" points="119,191 104,190 131,171" />
<polygon fill="#b38f7d" fill-opacity="0.501961" points="69,115 81,105 69,106" />
<polygon fill="#ffffff" fill-opacity="0.501961" points="21,33 -16,18 21,-16" />
<polygon fill="#d3e4df" fill-opacity="0.501961" points="17,40 9,28 9,45" />
<polygon fill="#46373f" fill-opacity="0.501961" points="49,176 41,174 41,179" />
<polygon fill="#ffffff" fill-opacity="0.501961" points="104,44 98,-6 144,1" />
<polygon fill="#7c6567" fill-opacity="0.501961" points="64,158 97,143 101,153" />
<polygon fill="#737f9a" fill-opacity="0.501961" points="10,157 14,163 8,163" />
<polygon fill="#afbed9" fill-opacity="0.501961" points="31,226 23,258 50,271" />
<polygon fill="#82977e" fill-opacity="0.501961" points="60,49 63,53 63,49" />
<polygon fill="#c5b7b5" fill-opacity="0.501961" points="74,99 85,94 85,100" />
<polygon fill="#706361" fill-opacity="0.501961" points="105,187 128,161 144,162" />
<polygon fill="#8f665c" fill-opacity="0.501961" points="39,144 49,139 45,128" />
<polygon fill="#8c8d9b" fill-opacity="0.501961" points="84,235 90,233 87,236" />
<polygon fill="#634f5a" fill-opacity="0.501961" points="112,256 60,271 89,235" />
<polygon fill="#fffff7" fill-opacity="0.501961" points="64,149 68,154 66,149" />
<polygon fill="#81847a" fill-opacity="0.501961" points="70,92 105,93 90,80" />
<polygon fill="#684e46" fill-opacity="0.501961" points="28,97 44,89 22,110" />
<polygon fill="#c3bdb6" fill-opacity="0.501961" points="38,49 22,48 27,37" />
<polygon fill="#ffffff" fill-opacity="0.501961" points="128,20 125,45 144,47" />
<polygon fill="#8b9b95" fill-opacity="0.501961" points="61,255 56,215 70,217" />
<polygon fill="#fcf1bc" fill-opacity="0.501961" points="48,42 48,46 55,51" />
<polygon fill="#a48f7c" fill-opacity="0.501961" points="116,147 121,129 122,157" />
<polygon fill="#bcb6ad" fill-opacity="0.501961" points="109,42 129,52 89,59" />
<polygon fill="#c4a49e" fill-opacity="0.501961" points="44,124 39,132 35,130" />
<polygon fill="#5d635b" fill-opacity="0.501961" points="57,232 54,220 52,228" />
<polygon fill="#76594e" fill-opacity="0.501961" points="55,126 63,127 63,101" />
<polygon fill="#9ea7a4" fill-opacity="0.501961" points="81,78 70,90 76,66" />
<polygon fill="#a7735e" fill-opacity="0.501961" points="28,154 23,149 23,143" />
<polygon fill="#fffffe" fill-opacity="0.501961" points="39,39 78,-16 81,48" />
<polygon fill="#b6c5f1" fill-opacity="0.501961" points="12,221 27,217 15,235" />
<polygon fill="#707b7a" fill-opacity="0.501961" points="53,195 58,207 56,183" />
<polygon fill="#fcfff8" fill-opacity="0.501961" points="129,92 111,87 142,118" />
<polygon fill="#a69d93" fill-opacity="0.501961" points="90,60 95,52 71,50" />
<polygon fill="#b0857c" fill-opacity="0.501961" points="83,150 88,134 81,141" />
<polygon fill="#7d817d" fill-opacity="0.501961" points="46,73 59,81 60,65" />
<polygon fill="#6b92bd" fill-opacity="0.501961" points="-16,157 -3,168 0,157" />
<polygon fill="#b2a3a5" fill-opacity="0.501961" points="95,128 98,114 85,114" />
<polygon fill="#8e6752" fill-opacity="0.501961" points="30,162 25,152 34,156" />
<polygon fill="#a5b8c0" fill-opacity="0.501961" points="4,71 3,60 8,60" />
<polygon fill="#8f8e8b" fill-opacity="0.501961" points="42,52 73,65 53,64" />
<polygon fill="#beb9aa" fill-opacity="0.501961" points="116,68 139,85 143,108" />
<polygon fill="#b88f7a" fill-opacity="0.501961" points="88,102 91,112 101,103" />
<polygon fill="#9a7d71" fill-opacity="0.501961" points="79,99 73,118 81,116" />
<polygon fill="#57474f" fill-opacity="0.501961" points="86,183 76,229 88,217" />
<polygon fill="#806a61" fill-opacity="0.501961" points="115,163 104,136 118,137" />
<polygon fill="#b7bcbb" fill-opacity="0.501961" points="98,41 87,38 95,20" />
<polygon fill="#705752" fill-opacity="0.501961" points="65,161 58,162 62,160" />
<polygon fill="#555059" fill-opacity="0.501961" points="6,117 20,93 42,88" />
<polygon fill="#f1f4e0" fill-opacity="0.501961" points="122,83 126,93 106,77" />
<polygon fill="#564343" fill-opacity="0.501961" points="35,161 60,139 38,174" />
<polygon fill="#c0d5ff" fill-opacity="0.501961" points="26,211 19,175 -5,244" />
<polygon fill="#7b7e77" fill-opacity="0.501961" points="71,191 78,204 77,177" />
<polygon fill="#b29594" fill-opacity="0.501961" points="144,147 144,211 121,195" />
<polygon fill="#d3bab4" fill-opacity="0.501961" points="77,122 73,129 68,116" />
<polygon fill="#a4a694" fill-opacity="0.501961" points="114,101 126,106 116,93" />
<polygon fill="#75554c" fill-opacity="0.501961" points="31,157 37,155 35,175" />
<polygon fill="#675252" fill-opacity="0.501961" points="75,151 68,131 86,157" />
<polygon fill="#a8b5c8" fill-opacity="0.501961" points="27,226 12,241 38,234" />
<polygon fill="#85645f" fill-opacity="0.501961" points="88,133 95,139 97,132" />
<polygon fill="#71706d" fill-opacity="0.501961" points="-3,83 5,101 9,97" />
<polygon fill="#64564b" fill-opacity="0.501961" points="38,120 34,120 33,116" />
<polygon fill="#967567" fill-opacity="0.501961" points="22,111 27,106 30,109" />
<polygon fill="#a8b0af" fill-opacity="0.501961" points="4,118 -5,108 -16,123" />
<polygon fill="#74715d" fill-opacity="0.501961" points="65,76 68,83 71,73" />
<polygon fill="#aca089" fill-opacity="0.501961" points="45,78 59,87 49,85" />
<polygon fill="#90958c" fill-opacity="0.501961" points="30,60 43,53 17,53" />
<polygon fill="#a5b4c8" fill-opacity="0.501961" points="44,222 35,235 47,225" />
<polygon fill="#eadeb5" fill-opacity="0.501961" points="66,95 64,101 64,98" />
<polygon fill="#b8b0a6" fill-opacity="0.501961" points="95,34 102,55 81,41" />
<polygon fill="#695455" fill-opacity="0.501961" points="86,155 114,166 109,153" />
</g>
</svg>