<svg xmlns="http://www.w3.org/2000/svg" version="1.1" width="1024" height="460">
<rect x="0" y="0" width="1024" height="460" fill="#8a8b8a" />
<g transform="scale(4.000000) translate(0.5 0.5)">
<polygon fill="#000000" fill-opacity="0.501961" points="133,129 82,130 110,27" />
<polygon fill="#000d1a" fill-opacity="0.501961" points="127,130 177,74 271,66" />
<polygon fill="#cfe5da" fill-opacity="0.501961" points="-16,-1 -4,77 164,-16" />
<polygon fill="#ccffff" fill-opacity="0.501961" points="200,82 192,130 271,108" />
<polygon fill="#fff9e4" fill-opacity="0.501961" points="118,37 178,45 150,4" />
<polygon fill="#edfadc" fill-opacity="0.501961" points="271,4 194,-16 177,18" />
<polygon fill="#000010" fill-opacity="0.501961" points="135,1 102,68 110,23" />
<polygon fill="#000917" fill-opacity="0.501961" points="173,93 177,17 189,49" />
<polygon fill="#130a11" fill-opacity="0.501961" points="105,86 77,130 195,111" />
<polygon fill="#5e5d58" fill-opacity="0.501961" points="85,24 37,67 16,38" />
<polygon fill="#e79482" fill-opacity="0.501961" points="138,119 113,56 175,63" />
<polygon fill="#ecf3ec" fill-opacity="0.501961" points="25,117 3,35 -16,94" />
<polygon fill="#dac6c7" fill-opacity="0.501961" points="205,84 181,83 206,39" />
<polygon fill="#3d4b4d" fill-opacity="0.501961" points="271,99 205,87 213,37" />
<polygon fill="#ced7d6" fill-opacity="0.501961" points="98,80 77,107 30,83" />
<polygon fill="#0060ba" fill-opacity="0.501961" points="19,11 33,-16 43,9" />
<polygon fill="#e2d4c4" fill-opacity="0.501961" points="41,44 102,55 104,33" />
<polygon fill="#ede5ca" fill-opacity="0.501961" points="53,-16 110,21 31,30" />
<polygon fill="#000a1d" fill-opacity="0.501961" points="92,62 123,115 113,42" />
<polygon fill="#483843" fill-opacity="0.501961" points="140,62 123,45 191,49" />
<polygon fill="#f1f2e1" fill-opacity="0.501961" points="271,43 271,6 233,22" />
<polygon fill="#0f1d2a" fill-opacity="0.501961" points="173,128 146,104 207,81" />
<polygon fill="#3c535f" fill-opacity="0.501961" points="18,99 37,130 80,108" />
<polygon fill="#f2d1c4" fill-opacity="0.501961" points="151,7 153,65 131,20" />
<polygon fill="#e0bbb1" fill-opacity="0.501961" points="166,91 151,73 181,49" />
<polygon fill="#262f32" fill-opacity="0.501961" points="229,48 243,30 229,24" />
<polygon fill="#433c44" fill-opacity="0.501961" points="195,63 196,41 161,10" />
<polygon fill="#deb2aa" fill-opacity="0.501961" points="115,49 119,83 141,72" />
<polygon fill="#6c5344" fill-opacity="0.501961" points="57,80 36,48 79,63" />
<polygon fill="#04121e" fill-opacity="0.501961" points="106,67 85,130 133,100" />
<polygon fill="#96d3cf" fill-opacity="0.501961" points="232,57 258,60 208,71" />
<polygon fill="#414e50" fill-opacity="0.501961" points="259,62 254,100 194,74" />
<polygon fill="#071e28" fill-opacity="0.501961" points="29,79 27,96 23,69" />
<polygon fill="#fffff4" fill-opacity="0.501961" points="199,26 191,21 179,28" />
<polygon fill="#afbbbe" fill-opacity="0.501961" points="74,61 100,69 93,86" />
<polygon fill="#e5e8e1" fill-opacity="0.501961" points="224,19 213,19 213,41" />
<polygon fill="#544f54" fill-opacity="0.501961" points="203,15 191,47 222,13" />
<polygon fill="#9d635a" fill-opacity="0.501961" points="154,83 120,130 142,65" />
<polygon fill="#152639" fill-opacity="0.501961" points="106,34 140,11 132,4" />
<polygon fill="#1f1e21" fill-opacity="0.501961" points="29,-16 38,11 29,10" />
<polygon fill="#1a3444" fill-opacity="0.501961" points="49,28 70,32 42,36" />
<polygon fill="#f6e0dc" fill-opacity="0.501961" points="166,20 132,20 177,38" />
<polygon fill="#000108" fill-opacity="0.501961" points="171,99 159,101 180,66" />
<polygon fill="#cceeed" fill-opacity="0.501961" points="241,96 268,128 208,87" />
<polygon fill="#071e39" fill-opacity="0.501961" points="23,19 20,29 26,31" />
<polygon fill="#e7b85f" fill-opacity="0.501961" points="44,11 43,22 2,14" />
<polygon fill="#d2dae3" fill-opacity="0.501961" points="29,51 18,66 -16,18" />
<polygon fill="#dfab9c" fill-opacity="0.501961" points="224,46 220,59 245,53" />
<polygon fill="#d5a18c" fill-opacity="0.501961" points="116,40 162,45 128,18" />
<polygon fill="#fff752" fill-opacity="0.501961" points="233,7 232,-3 264,0" />
<polygon fill="#d4dadb" fill-opacity="0.501961" points="72,83 29,88 40,97" />
<polygon fill="#566a70" fill-opacity="0.501961" points="18,101 31,113 78,92" />
<polygon fill="#b3b9b9" fill-opacity="0.501961" points="245,78 243,72 229,81" />
<polygon fill="#430007" fill-opacity="0.501961" points="247,36 271,36 257,48" />
<polygon fill="#273740" fill-opacity="0.501961" points="212,63 223,62 206,30" />
<polygon fill="#bbc9d8" fill-opacity="0.501961" points="180,17 211,1 167,5" />
<polygon fill="#c4d1db" fill-opacity="0.501961" points="32,36 91,-16 170,-16" />
<polygon fill="#f2dfd4" fill-opacity="0.501961" points="204,41 209,68 198,70" />
<polygon fill="#37333d" fill-opacity="0.501961" points="154,47 180,46 156,62" />
<polygon fill="#354452" fill-opacity="0.501961" points="181,19 153,9 182,38" />
<polygon fill="#e2feff" fill-opacity="0.501961" points="75,100 94,92 69,95" />
<polygon fill="#496e69" fill-opacity="0.501961" points="266,9 232,10 220,24" />
<polygon fill="#426175" fill-opacity="0.501961" points="200,130 194,103 139,130" />
<polygon fill="#363240" fill-opacity="0.501961" points="131,37 134,61 144,50" />
<polygon fill="#292c2c" fill-opacity="0.501961" points="204,86 230,71 232,91" />
<polygon fill="#00d6ff" fill-opacity="0.501961" points="35,3 40,11 40,-1" />
<polygon fill="#d4adbb" fill-opacity="0.501961" points="97,19 104,28 124,6" />
<polygon fill="#353f46" fill-opacity="0.501961" points="92,68 98,57 82,55" />
<polygon fill="#c4e2de" fill-opacity="0.501961" points="238,94 205,88 192,102" />
<polygon fill="#f5ffff" fill-opacity="0.501961" points="99,49 107,33 100,35" />
<polygon fill="#405056" fill-opacity="0.501961" points="14,38 39,43 45,34" />
<polygon fill="#a66e6c" fill-opacity="0.501961" points="186,61 206,64 194,31" />
<polygon fill="#9eefff" fill-opacity="0.501961" points="15,13 -1,4 12,-6" />
<polygon fill="#00b7ff" fill-opacity="0.501961" points="21,4 28,11 26,-16" />
<polygon fill="#9ba7ac" fill-opacity="0.501961" points="45,73 33,121 28,65" />
<polygon fill="#8599a5" fill-opacity="0.501961" points="11,85 23,68 22,109" />
<polygon fill="#622631" fill-opacity="0.501961" points="197,39 211,30 189,33" />
<polygon fill="#f0f9f9" fill-opacity="0.501961" points="23,127 40,128 5,91" />
<polygon fill="#e4e2d4" fill-opacity="0.501961" points="106,9 55,16 71,31" />
<polygon fill="#4a4869" fill-opacity="0.501961" points="167,-8 196,0 167,2" />
<polygon fill="#193444" fill-opacity="0.501961" points="73,32 77,26 85,30" />
<polygon fill="#53aadb" fill-opacity="0.501961" points="117,-16 104,9 116,11" />
<polygon fill="#646c74" fill-opacity="0.501961" points="209,68 209,90 190,85" />
<polygon fill="#162738" fill-opacity="0.501961" points="114,38 131,4 116,15" />
<polygon fill="#c2b6b4" fill-opacity="0.501961" points="251,86 271,115 260,75" />
<polygon fill="#eedd94" fill-opacity="0.501961" points="47,33 35,18 30,35" />
<polygon fill="#ede079" fill-opacity="0.501961" points="90,15 110,25 83,23" />
<polygon fill="#9b9f9d" fill-opacity="0.501961" points="74,35 17,40 84,57" />
<polygon fill="#3b3e43" fill-opacity="0.501961" points="224,25 240,38 241,26" />
<polygon fill="#355455" fill-opacity="0.501961" points="223,62 249,56 232,55" />
<polygon fill="#c1fff3" fill-opacity="0.501961" points="262,57 249,64 243,60" />
<polygon fill="#122c3d" fill-opacity="0.501961" points="30,115 24,104 31,99" />
<polygon fill="#03121f" fill-opacity="0.501961" points="194,88 193,110 181,83" />
<polygon fill="#9198a8" fill-opacity="0.501961" points="14,100 9,130 -6,100" />
<polygon fill="#9d9997" fill-opacity="0.501961" points="96,86 60,81 100,62" />
<polygon fill="#a2a99b" fill-opacity="0.501961" points="59,14 91,12 89,-1" />
<polygon fill="#263439" fill-opacity="0.501961" points="70,108 79,105 66,130" />
<polygon fill="#c9f45b" fill-opacity="0.501961" points="15,10 16,-16 24,16" />
<polygon fill="#aec0b9" fill-opacity="0.501961" points="76,110 90,110 88,124" />
<polygon fill="#5cdeff" fill-opacity="0.501961" points="31,20 22,20 30,31" />
<polygon fill="#eaeef1" fill-opacity="0.501961" points="206,41 199,40 206,59" />
<polygon fill="#515f5a" fill-opacity="0.501961" points="39,43 24,73 44,57" />
<polygon fill="#c59890" fill-opacity="0.501961" points="152,54 117,66 123,89" />
<polygon fill="#212b36" fill-opacity="0.501961" points="87,103 96,130 111,62" />
<polygon fill="#858aa2" fill-opacity="0.501961" points="16,16 16,25 44,16" />
<polygon fill="#274950" fill-opacity="0.501961" points="231,12 221,18 204,16" />
<polygon fill="#f1f3f7" fill-opacity="0.501961" points="12,77 10,63 -16,78" />
<polygon fill="#d1ab9c" fill-opacity="0.501961" points="171,82 176,49 151,103" />
<polygon fill="#c6c2bd" fill-opacity="0.501961" points="169,28 178,46 142,45" />
<polygon fill="#56352c" fill-opacity="0.501961" points="145,102 141,113 160,97" />
<polygon fill="#eaffff" fill-opacity="0.501961" points="265,107 247,105 234,94" />
<polygon fill="#a9aeb2" fill-opacity="0.501961" points="236,61 212,66 221,71" />
<polygon fill="#e4d9ce" fill-opacity="0.501961" points="241,16 271,18 231,26" />
<polygon fill="#855659" fill-opacity="0.501961" points="116,53 123,39 140,38" />
<polygon fill="#93a5b1" fill-opacity="0.501961" points="176,-1 209,35 198,8" />
<polygon fill="#8c96aa" fill-opacity="0.501961" points="161,17 169,-12 133,2" />
<polygon fill="#aebcc3" fill-opacity="0.501961" points="78,99 61,107 58,96" />
<polygon fill="#9a8371" fill-opacity="0.501961" points="27,56 50,82 75,76" />
<polygon fill="#566870" fill-opacity="0.501961" points="18,95 45,79 16,86" />
<polygon fill="#92bcbb" fill-opacity="0.501961" points="196,98 215,130 260,109" />
<polygon fill="#d0d7d5" fill-opacity="0.501961" points="74,75 86,71 87,60" />
<polygon fill="#535588" fill-opacity="0.501961" points="221,-16 210,11 210,-16" />
<polygon fill="#617381" fill-opacity="0.501961" points="185,39 182,83 193,53" />
<polygon fill="#5c4a51" fill-opacity="0.501961" points="60,63 75,56 73,74" />
<polygon fill="#80dafe" fill-opacity="0.501961" points="9,31 15,18 19,32" />
<polygon fill="#95a3ab" fill-opacity="0.501961" points="182,75 200,70 194,87" />
<polygon fill="#191f2c" fill-opacity="0.501961" points="117,78 93,57 107,51" />
<polygon fill="#665f5c" fill-opacity="0.501961" points="78,82 90,79 82,72" />
<polygon fill="#080d15" fill-opacity="0.501961" points="130,95 112,130 117,82" />
<polygon fill="#283e53" fill-opacity="0.501961" points="213,47 213,41 233,41" />
<polygon fill="#273b48" fill-opacity="0.501961" points="117,33 115,26 98,29" />
<polygon fill="#ffd377" fill-opacity="0.501961" points="32,15 17,11 3,18" />
<polygon fill="#0d1927" fill-opacity="0.501961" points="175,65 181,55 181,75" />
<polygon fill="#d9d9d0" fill-opacity="0.501961" points="212,25 223,41 217,19" />
<polygon fill="#d7edd9" fill-opacity="0.501961" points="232,47 240,47 236,54" />
<polygon fill="#d4c5bf" fill-opacity="0.501961" points="29,90 66,79 91,90" />
<polygon fill="#0c1218" fill-opacity="0.501961" points="135,130 156,123 173,80" />
<polygon fill="#d2dcd8" fill-opacity="0.501961" points="42,50 45,42 58,42" />
<polygon fill="#738983" fill-opacity="0.501961" points="238,5 225,16 229,37" />
<polygon fill="#e8e1e1" fill-opacity="0.501961" points="128,3 89,0 158,-16" />
<polygon fill="#58695c" fill-opacity="0.501961" points="246,41 237,57 241,36" />
<polygon fill="#ecfcfd" fill-opacity="0.501961" points="11,98 4,97 11,85" />
<polygon fill="#455359" fill-opacity="0.501961" points="95,85 88,91 95,91" />
<polygon fill="#ed8887" fill-opacity="0.501961" points="202,42 200,64 195,41" />
<polygon fill="#33414a" fill-opacity="0.501961" points="202,76 200,71 219,69" />
<polygon fill="#363e49" fill-opacity="0.501961" points="129,18 126,-1 123,26" />
<polygon fill="#7c353d" fill-opacity="0.501961" points="159,82 145,78 136,82" />
<polygon fill="#a5bc86" fill-opacity="0.501961" points="45,26 36,28 48,-2" />
<polygon fill="#1c2a32" fill-opacity="0.501961" points="178,26 178,47 190,59" />
<polygon fill="#284c4a" fill-opacity="0.501961" points="252,88 253,101 233,90" />
<polygon fill="#ebac9d" fill-opacity="0.501961" points="19,29 14,37 36,34" />
<polygon fill="#c1c0a9" fill-opacity="0.501961" points="4,130 5,43 -16,101" />
<polygon fill="#8b726f" fill-opacity="0.501961" points="176,45 156,63 180,53" />
<polygon fill="#9cab9e" fill-opacity="0.501961" points="246,38 255,28 241,29" />
<polygon fill="#dbd5d7" fill-opacity="0.501961" points="42,9 85,10 40,-14" />
<polygon fill="#7d9298" fill-opacity="0.501961" points="8,23 -16,19 7,8" />
<polygon fill="#e7dfdd" fill-opacity="0.501961" points="139,22 166,39 149,4" />
<polygon fill="#ecb8a7" fill-opacity="0.501961" points="134,16 142,39 117,39" />
<polygon fill="#9e9892" fill-opacity="0.501961" points="29,54 17,43 64,46" />
<polygon fill="#94748f" fill-opacity="0.501961" points="105,43 115,8 105,22" />
<polygon fill="#536676" fill-opacity="0.501961" points="194,101 181,107 194,130" />
<polygon fill="#b67d73" fill-opacity="0.501961" points="235,55 218,59 221,45" />
<polygon fill="#faccc5" fill-opacity="0.501961" points="198,22 194,28 181,24" />
<polygon fill="#50595d" fill-opacity="0.501961" points="34,35 42,58 43,37" />
<polygon fill="#cfd9d0" fill-opacity="0.501961" points="243,38 234,39 237,42" />
<polygon fill="#606d72" fill-opacity="0.501961" points="209,15 198,23 174,19" />
<polygon fill="#656069" fill-opacity="0.501961" points="40,-14 49,7 46,-16" />
<polygon fill="#cdd0da" fill-opacity="0.501961" points="195,18 218,9 198,9" />
<polygon fill="#c69684" fill-opacity="0.501961" points="137,99 122,85 154,100" />
<polygon fill="#dec48f" fill-opacity="0.501961" points="62,4 65,14 31,13" />
<polygon fill="#535f6f" fill-opacity="0.501961" points="187,97 181,84 174,95" />
<polygon fill="#5a7c79" fill-opacity="0.501961" points="244,15 261,-5 263,13" />
<polygon fill="#c2a490" fill-opacity="0.501961" points="209,63 187,67 211,53" />
<polygon fill="#85928f" fill-opacity="0.501961" points="-2,79 6,80 8,93" />
<polygon fill="#b9c1b6" fill-opacity="0.501961" points="169,38 145,50 142,27" />
<polygon fill="#a09d95" fill-opacity="0.501961" points="107,30 90,39 65,35" />
<polygon fill="#84928f" fill-opacity="0.501961" points="226,42 233,30 188,40" />
<polygon fill="#151f2c" fill-opacity="0.501961" points="105,44 110,79 119,16" />
<polygon fill="#697885" fill-opacity="0.501961" points="160,2 150,10 185,21" />
<polygon fill="#c6d9e5" fill-opacity="0.501961" points="26,68 13,43 26,53" />
<polygon fill="#0e202d" fill-opacity="0.501961" points="135,55 142,53 128,47" />
<polygon fill="#526363" fill-opacity="0.501961" points="47,103 64,94 30,100" />
<polygon fill="#07b5ff" fill-opacity="0.501961" points="35,7 36,-8 44,10" />
<polygon fill="#505243" fill-opacity="0.501961" points="50,50 33,55 60,60" />
<polygon fill="#c7c9d0" fill-opacity="0.501961" points="234,12 215,-16 213,11" />
<polygon fill="#868a85" fill-opacity="0.501961" points="30,119 56,98 30,102" />
<polygon fill="#bfd4e0" fill-opacity="0.501961" points="28,71 32,69 39,83" />
<polygon fill="#132122" fill-opacity="0.501961" points="25,88 26,77 29,92" />
<polygon fill="#236ebe" fill-opacity="0.501961" points="182,5 180,-16 198,-16" />
<polygon fill="#b3a88f" fill-opacity="0.501961" points="56,65 54,73 46,60" />
<polygon fill="#3d4346" fill-opacity="0.501961" points="247,66 271,59 244,86" />
<polygon fill="#606361" fill-opacity="0.501961" points="99,69 85,51 81,59" />
<polygon fill="#d8f0ed" fill-opacity="0.501961" points="213,88 205,90 214,95" />
<polygon fill="#c68793" fill-opacity="0.501961" points="-6,-1 37,0 3,-16" />
<polygon fill="#697870" fill-opacity="0.501961" points="87,91 74,94 72,89" />
<polygon fill="#9bbcba" fill-opacity="0.501961" points="209,90 212,130 197,92" />
<polygon fill="#c1b9b7" fill-opacity="0.501961" points="82,90 45,96 75,75" />
<polygon fill="#fceaef" fill-opacity="0.501961" points="7,7 1,6 6,-6" />
<polygon fill="#80756d" fill-opacity="0.501961" points="78,70 69,47 68,84" />
<polygon fill="#6c6c79" fill-opacity="0.501961" points="89,11 85,-6 92,7" />
<polygon fill="#e1e3e7" fill-opacity="0.501961" points="95,8 108,17 82,16" />
<polygon fill="#b68982" fill-opacity="0.501961" points="144,71 145,51 169,75" />
<polygon fill="#c8a599" fill-opacity="0.501961" points="119,33 120,71 114,53" />
<polygon fill="#fefff7" fill-opacity="0.501961" points="86,42 78,39 84,38" />
<polygon fill="#3e4947" fill-opacity="0.501961" points="221,88 232,93 234,75" />
<polygon fill="#d7dfeb" fill-opacity="0.501961" points="49,26 85,15 44,14" />
<polygon fill="#e3e9f1" fill-opacity="0.501961" points="118,5 121,9 130,-7" />
<polygon fill="#63444d" fill-opacity="0.501961" points="62,44 69,68 62,59" />
<polygon fill="#dcc2ba" fill-opacity="0.501961" points="165,86 175,69 171,59" />
<polygon fill="#7f8087" fill-opacity="0.501961" points="97,6 101,12 98,-5" />
<polygon fill="#09151f" fill-opacity="0.501961" points="198,90 168,107 182,107" />
<polygon fill="#b7be6c" fill-opacity="0.501961" points="147,32 157,40 149,42" />
<polygon fill="#f3f5b8" fill-opacity="0.501961" points="244,8 233,-11 253,8" />
<polygon fill="#677379" fill-opacity="0.501961" points="232,79 238,72 252,92" />
<polygon fill="#e8ebf8" fill-opacity="0.501961" points="87,-16 98,4 91,7" />
<polygon fill="#8ea2af" fill-opacity="0.501961" points="26,106 17,100 25,88" />
<polygon fill="#c3cbd1" fill-opacity="0.501961" points="23,75 23,69 17,70" />
<polygon fill="#3c525b" fill-opacity="0.501961" points="51,35 60,27 72,32" />
<polygon fill="#07111b" fill-opacity="0.501961" points="184,92 183,84 201,90" />
<polygon fill="#c5ffff" fill-opacity="0.501961" points="235,63 244,62 238,61" />
<polygon fill="#cfc8cd" fill-opacity="0.501961" points="87,-9 83,30 79,6" />
<polygon fill="#c2a6a2" fill-opacity="0.501961" points="204,24 189,31 203,31" />
<polygon fill="#675a5a" fill-opacity="0.501961" points="161,49 144,59 123,58" />
<polygon fill="#b0b4ba" fill-opacity="0.501961" points="106,26 100,10 99,24" />
<polygon fill="#78838f" fill-opacity="0.501961" points="3,109 21,130 8,100" />
<polygon fill="#2e3a3f" fill-opacity="0.501961" points="236,73 204,89 231,64" />
<polygon fill="#646781" fill-opacity="0.501961" points="103,11 110,7 109,12" />
<polygon fill="#e2d4cb" fill-opacity="0.501961" points="180,8 168,9 170,3" />
<polygon fill="#6dd0f8" fill-opacity="0.501961" points="104,7 119,5 107,-3" />
<polygon fill="#5e595c" fill-opacity="0.501961" points="204,28 202,33 220,28" />
<polygon fill="#55646f" fill-opacity="0.501961" points="20,76 12,69 14,65" />
<polygon fill="#00acff" fill-opacity="0.501961" points="27,11 24,-6 22,7" />
<polygon fill="#7a777e" fill-opacity="0.501961" points="129,18 145,10 143,2" />
<polygon fill="#627671" fill-opacity="0.501961" points="246,14 222,28 238,6" />
<polygon fill="#d4b7a4" fill-opacity="0.501961" points="80,38 99,42 93,57" />
<polygon fill="#64deff" fill-opacity="0.501961" points="15,6 11,13 9,1" />
<polygon fill="#ffffb4" fill-opacity="0.501961" points="68,31 68,28 74,29" />
<polygon fill="#473946" fill-opacity="0.501961" points="118,46 132,44 134,49" />
<polygon fill="#bab7b5" fill-opacity="0.501961" points="80,25 56,21 43,30" />
<polygon fill="#62453e" fill-opacity="0.501961" points="132,97 135,107 120,116" />
<polygon fill="#28a490" fill-opacity="0.501961" points="69,14 73,10 68,10" />
<polygon fill="#b3a490" fill-opacity="0.501961" points="56,79 39,86 67,83" />
<polygon fill="#bbc3c6" fill-opacity="0.501961" points="240,73 240,77 248,77" />
<polygon fill="#e2e3e2" fill-opacity="0.501961" points="196,-14 198,8 212,-6" />
<polygon fill="#233a48" fill-opacity="0.501961" points="179,23 167,13 178,34" />
<polygon fill="#0e161c" fill-opacity="0.501961" points="240,37 242,34 237,31" />
<polygon fill="#9c948e" fill-opacity="0.501961" points="7,58 6,54 -8,61" />
<polygon fill="#e3e6e7" fill-opacity="0.501961" points="8,57 13,77 -8,78" />
<polygon fill="#f3d3c4" fill-opacity="0.501961" points="154,15 136,20 174,29" />
<polygon fill="#90918d" fill-opacity="0.501961" points="27,67 35,62 27,44" />
<polygon fill="#265697" fill-opacity="0.501961" points="24,100 29,116 22,106" />
<polygon fill="#efdedd" fill-opacity="0.501961" points="192,69 196,65 208,66" />
<polygon fill="#584549" fill-opacity="0.501961" points="171,-16 157,-16 179,7" />
<polygon fill="#535c54" fill-opacity="0.501961" points="36,56 27,61 49,63" />
<polygon fill="#c3ccd5" fill-opacity="0.501961" points="30,85 28,93 36,89" />
<polygon fill="#516361" fill-opacity="0.501961" points="238,64 248,65 248,79" />
<polygon fill="#eaf8fb" fill-opacity="0.501961" points="235,86 233,88 235,87" />
<polygon fill="#41575f" fill-opacity="0.501961" points="210,43 242,44 227,39" />
<polygon fill="#dff6f1" fill-opacity="0.501961" points="194,5 183,6 192,1" />
<polygon fill="#353943" fill-opacity="0.501961" points="167,48 153,53 166,59" />
<polygon fill="#0d1e25" fill-opacity="0.501961" points="193,-16 196,2 183,-16" />
<polygon fill="#dbdcd5" fill-opacity="0.501961" points="218,34 212,33 215,20" />
<polygon fill="#5d8a98" fill-opacity="0.501961" points="193,13 196,2 197,12" />
<polygon fill="#607b89" fill-opacity="0.501961" points="94,23 82,33 97,30" />
<polygon fill="#99928f" fill-opacity="0.501961" points="88,52 55,38 61,60" />
<polygon fill="#fff27b" fill-opacity="0.501961" points="99,21 89,16 84,25" />
<polygon fill="#a28e7e" fill-opacity="0.501961" points="243,22 242,19 234,18" />
<polygon fill="#9d9a9b" fill-opacity="0.501961" points="199,18 181,22 208,24" />
<polygon fill="#def2f6" fill-opacity="0.501961" points="202,56 208,51 202,40" />
<polygon fill="#202e36" fill-opacity="0.501961" points="24,77 29,82 25,69" />
<polygon fill="#9cb7c4" fill-opacity="0.501961" points="91,95 90,91 94,91" />
<polygon fill="#2f373b" fill-opacity="0.501961" points="215,77 241,84 200,88" />
<polygon fill="#527789" fill-opacity="0.501961" points="17,24 19,30 25,31" />
<polygon fill="#dddfe2" fill-opacity="0.501961" points="181,14 178,6 180,-2" />
<polygon fill="#151d26" fill-opacity="0.501961" points="99,80 117,130 114,49" />
<polygon fill="#4d4850" fill-opacity="0.501961" points="177,10 178,13 178,8" />
<polygon fill="#253d4c" fill-opacity="0.501961" points="26,30 19,26 24,24" />
<polygon fill="#4c3741" fill-opacity="0.501961" points="65,63 71,55 68,71" />
<polygon fill="#2f4b51" fill-opacity="0.501961" points="216,52 208,36 207,53" />
<polygon fill="#7b7a80" fill-opacity="0.501961" points="90,8 88,4 97,8" />
<polygon fill="#3d535a" fill-opacity="0.501961" points="212,22 202,16 221,13" />
<polygon fill="#c1bdb5" fill-opacity="0.501961" points="87,44 72,38 81,55" />
<polygon fill="#ffffb1" fill-opacity="0.501961" points="24,13 26,15 32,12" />
<polygon fill="#404854" fill-opacity="0.501961" points="175,72 182,82 183,64" />
<polygon fill="#a6b0b8" fill-opacity="0.501961" points="38,51 33,53 32,39" />
<polygon fill="#848d95" fill-opacity="0.501961" points="17,88 12,100 14,74" />
<polygon fill="#b9c1c1" fill-opacity="0.501961" points="229,41 228,37 221,38" />
<polygon fill="#7ee2ff" fill-opacity="0.501961" points="28,18 25,31 32,30" />
<polygon fill="#d9f3f1" fill-opacity="0.501961" points="235,93 249,102 224,95" />
<polygon fill="#475b6c" fill-opacity="0.501961" points="125,9 138,7 131,2" />
<polygon fill="#a5877f" fill-opacity="0.501961" points="170,25 151,0 153,13" />
<polygon fill="#bb8a85" fill-opacity="0.501961" points="122,42 131,45 137,42" />
<polygon fill="#485a64" fill-opacity="0.501961" points="44,38 48,29 60,29" />
<polygon fill="#e9f0f6" fill-opacity="0.501961" points="99,49 102,45 101,52" />
<polygon fill="#8b7a7a" fill-opacity="0.501961" points="40,19 45,16 30,15" />
<polygon fill="#a6babe" fill-opacity="0.501961" points="216,66 201,68 207,70" />
<polygon fill="#cdcfcf" fill-opacity="0.501961" points="224,71 223,68 218,69" />
<polygon fill="#dcda81" fill-opacity="0.501961" points="251,4 225,7 225,0" />
<polygon fill="#957361" fill-opacity="0.501961" points="127,110 138,104 155,130" />
<polygon fill="#536f8a" fill-opacity="0.501961" points="22,102 26,93 33,92" />
</g>
</svg>